<svg id="Layer_39" data-name="Layer 39" xmlns="http://www.w3.org/2000/svg" viewBox="0 0 325.04 325.04"><defs><style>.cls-1{fill:#ff0;}</style></defs><title>favicon</title><circle class="cls-1" cx="162.52" cy="162.52" r="162.52"/><path d="M1513.41-1335a54.38,54.38,0,0,0-21.19,15.52q-8.81,10.46-8.8,21a37.36,37.36,0,0,0,4.4,18.5,64.29,64.29,0,0,0,11.56,14.85q7.17,6.95,15.67,14.18t17.09,15.22a175.15,175.15,0,0,1,15.74,16.64q16,19.24,16,43a60.23,60.23,0,0,1-6.12,26.93,65.52,65.52,0,0,1-16.19,21.12,104.31,104.31,0,0,1-23.2,14.92,126.34,126.34,0,0,1-55.07,12.24,62.43,62.43,0,0,1-31.94-8.51,33.71,33.71,0,0,1-11.64-11.26,30,30,0,0,1-4.47-16.34,18.94,18.94,0,0,1,7.16-15.23,28.63,28.63,0,0,1,17.61-6.41l6.42-.3q-.6,8.06-.6,13.58t.07,7.61q.07,2.09.6,6A18.29,18.29,0,0,0,1448-1126a29,29,0,0,0,3.06,4.48,12.23,12.23,0,0,0,5.08,3.81,46.07,46.07,0,0,0,16.86,3.13,68.22,68.22,0,0,0,16.56-1.94,69.15,69.15,0,0,0,15.23-5.82,64.63,64.63,0,0,0,13.43-9.25q13.27-11.94,13.28-28.8,0-16-16-34.63-8.05-9.39-24.7-26t-23.8-24.84q-16-18.51-16-33.28a60.5,60.5,0,0,1,5.9-26.87,65.72,65.72,0,0,1,15.59-20.66,108.55,108.55,0,0,1,22.09-15,110.21,110.21,0,0,1,50.89-12.54,63.4,63.4,0,0,1,33.28,9.26,34.63,34.63,0,0,1,12.83,13.5,42,42,0,0,1,4.92,20.67q0,3-29.4,20.15t-37.3,20v-14.77q2.09-1.2,13.73-6.72,26.1-12.22,26.11-18.35,0-29.55-31.19-29.55A65.7,65.7,0,0,0,1513.41-1335Z" transform="translate(-1343.35 1390.12)"/></svg>