<svg xmlns="http://www.w3.org/2000/svg" xmlns:xlink="http://www.w3.org/1999/xlink" viewBox="0 0 600.83 439.42"><defs><style>.cls-1{isolation:isolate;}.cls-2{fill:#f15a29;}.cls-10,.cls-13,.cls-3{fill:#a7a9ac;mix-blend-mode:multiply;}.cls-4{fill:#383838;}.cls-5{fill:#c49a6c;}.cls-6{fill:#a97c50;}.cls-11,.cls-7{mix-blend-mode:hard-light;}.cls-7{fill:url(#linear-gradient);}.cls-8,.cls-9{fill:#2e3556;}.cls-8{mix-blend-mode:screen;}.cls-10{opacity:0.3;}.cls-11{fill:url(#linear-gradient-2);}.cls-12{fill:#f0f2f1;}.cls-13{opacity:0.2;}.cls-14{fill:#f1f2f2;}.cls-15{fill:#333;}.cls-16{fill:#5d5d5d;}.cls-17{fill:#939598;}.cls-18{fill:#fff;}.cls-19{fill:#f2f2f2;}</style><linearGradient id="linear-gradient" x1="127.98" y1="60.96" x2="127.98" y2="172.3" gradientUnits="userSpaceOnUse"><stop offset="0" stop-color="#fff" stop-opacity="0.2"/><stop offset="1" stop-color="#fff" stop-opacity="0"/></linearGradient><linearGradient id="linear-gradient-2" x1="399.75" y1="60.96" x2="399.75" y2="172.3" xlink:href="#linear-gradient"/></defs><title>home-office</title><g class="cls-1"><g id="Layer_4" data-name="Layer 4"><g id="_Group_" data-name="&lt;Group&gt;"><rect id="_Rectangle_" data-name="&lt;Rectangle&gt;" class="cls-2" x="153.93" y="366.59" width="48.12" height="66.42"/><rect id="_Rectangle_2" data-name="&lt;Rectangle&gt;" class="cls-3" x="153.93" y="366.59" width="48.12" height="66.42"/><rect id="_Rectangle_3" data-name="&lt;Rectangle&gt;" class="cls-2" x="163.55" y="366.59" width="38.49" height="66.42"/><rect id="_Rectangle_4" data-name="&lt;Rectangle&gt;" class="cls-4" x="151.41" y="366.59" width="52.7" height="11.91"/><rect id="_Rectangle_5" data-name="&lt;Rectangle&gt;" class="cls-3" x="151.41" y="366.59" width="11" height="11.91"/></g><g id="_Group_2" data-name="&lt;Group&gt;"><rect id="_Rectangle_6" data-name="&lt;Rectangle&gt;" class="cls-5" x="144.93" y="293.98" width="10.2" height="139.82"/><rect id="_Rectangle_7" data-name="&lt;Rectangle&gt;" class="cls-5" x="141.22" y="310.82" width="3.71" height="122.99"/><rect id="_Rectangle_8" data-name="&lt;Rectangle&gt;" class="cls-3" x="141.22" y="310.82" width="3.71" height="122.99"/></g><g id="_Group_3" data-name="&lt;Group&gt;"><rect id="_Rectangle_9" data-name="&lt;Rectangle&gt;" class="cls-5" x="65.5" y="293.98" width="10.2" height="139.82"/><rect id="_Rectangle_10" data-name="&lt;Rectangle&gt;" class="cls-5" x="61.79" y="310.82" width="3.71" height="122.99"/><rect id="_Rectangle_11" data-name="&lt;Rectangle&gt;" class="cls-3" x="61.79" y="310.82" width="3.71" height="122.99"/></g><rect id="_Rectangle_12" data-name="&lt;Rectangle&gt;" class="cls-6" x="50.04" y="282.62" width="437.65" height="11.35"/><rect id="_Rectangle_13" data-name="&lt;Rectangle&gt;" class="cls-5" x="61.79" y="293.98" width="93.34" height="16.84"/><rect id="_Rectangle_14" data-name="&lt;Rectangle&gt;" class="cls-3" x="61.79" y="293.98" width="83.14" height="16.84"/><rect id="_Rectangle_15" data-name="&lt;Rectangle&gt;" class="cls-3" x="61.79" y="308.2" width="93.34" height="2.61"/><g id="_Group_4" data-name="&lt;Group&gt;"><rect id="_Rectangle_16" data-name="&lt;Rectangle&gt;" class="cls-5" x="464.21" y="293.98" width="10.2" height="139.82"/><rect id="_Rectangle_17" data-name="&lt;Rectangle&gt;" class="cls-5" x="460.5" y="310.82" width="3.71" height="122.99"/><rect id="_Rectangle_18" data-name="&lt;Rectangle&gt;" class="cls-3" x="460.5" y="310.82" width="3.71" height="122.99"/></g><g id="_Group_5" data-name="&lt;Group&gt;"><rect id="_Rectangle_19" data-name="&lt;Rectangle&gt;" class="cls-5" x="384.77" y="293.98" width="10.2" height="139.82"/><rect id="_Rectangle_20" data-name="&lt;Rectangle&gt;" class="cls-5" x="381.06" y="310.82" width="3.71" height="122.99"/><rect id="_Rectangle_21" data-name="&lt;Rectangle&gt;" class="cls-3" x="381.06" y="310.82" width="3.71" height="122.99"/></g><rect id="_Rectangle_22" data-name="&lt;Rectangle&gt;" class="cls-3" x="50.04" y="282.62" width="80.98" height="11.35"/><rect id="_Rectangle_23" data-name="&lt;Rectangle&gt;" class="cls-5" x="155.13" y="293.98" width="309.08" height="14.22"/><rect id="_Rectangle_24" data-name="&lt;Rectangle&gt;" class="cls-3" x="61.79" y="293.98" width="412.62" height="2.61"/><g id="_Group_6" data-name="&lt;Group&gt;"><polygon id="_Path_" data-name="&lt;Path&gt;" class="cls-7" points="220.32 174.03 35.63 174.03 86.77 57.87 169.18 57.87 220.32 174.03"/><path id="_Rectangle_25" data-name="&lt;Rectangle&gt;" class="cls-2" d="M101.32,28.58h56.12a24.89,24.89,0,0,1,24.89,24.89v4.4a0,0,0,0,1,0,0H76.43a0,0,0,0,1,0,0v-4.4A24.89,24.89,0,0,1,101.32,28.58Z"/><path id="_Path_2" data-name="&lt;Path&gt;" class="cls-8" d="M363.62,39.75a3.65,3.65,0,0,0-2.82,1.32,22.38,22.38,0,0,0-5.15,14.3v2.5h8.69v-2.5a22.39,22.39,0,0,1,2.51-10.32,3.63,3.63,0,0,0-3.23-5.3Z" transform="translate(-274)"/><path id="_Path_3" data-name="&lt;Path&gt;" class="cls-8" d="M374.63,52.65a15.76,15.76,0,0,1,1.4-4,2.72,2.72,0,0,0-1.27-3.74,2.66,2.66,0,0,0-3.09.75,16.25,16.25,0,0,0-3,5.65A2.87,2.87,0,0,0,371.37,55h.44A2.91,2.91,0,0,0,374.63,52.65Z" transform="translate(-274)"/><rect id="_Rectangle_26" data-name="&lt;Rectangle&gt;" class="cls-9" x="128.66" width="1.44" height="14.6"/><path id="_Path_4" data-name="&lt;Path&gt;" class="cls-10" d="M441.8,31.4c.13.26.26.57.4.94a14.45,14.45,0,0,1-12.54,19.29l-36.43,6.24h63.11V54.94A26.36,26.36,0,0,0,441.8,31.4Z" transform="translate(-274)"/><path id="_Rectangle_27" data-name="&lt;Rectangle&gt;" class="cls-2" d="M115,13.58h28.73a12.74,12.74,0,0,1,12.74,12.74v2.25a0,0,0,0,1,0,0H102.28a0,0,0,0,1,0,0V26.33A12.74,12.74,0,0,1,115,13.58Z"/><path id="_Path_5" data-name="&lt;Path&gt;" class="cls-8" d="M383,19.3a1.89,1.89,0,0,0-1.45.68A11.45,11.45,0,0,0,379,27.3v1.28h4.45V27.3A11.41,11.41,0,0,1,384.68,22,1.86,1.86,0,0,0,383,19.3Z" transform="translate(-274)"/><path id="_Path_6" data-name="&lt;Path&gt;" class="cls-8" d="M388.66,25.91a8,8,0,0,1,.72-2.06,1.39,1.39,0,0,0-.65-1.91,1.36,1.36,0,0,0-1.58.38,8.16,8.16,0,0,0-1.55,2.89A1.47,1.47,0,0,0,387,27.12h.23A1.49,1.49,0,0,0,388.66,25.91Z" transform="translate(-274)"/><path id="_Path_7" data-name="&lt;Path&gt;" class="cls-10" d="M423.05,15c.06.13.13.29.2.48a7.39,7.39,0,0,1-6.42,9.87l-18.65,3.2h32.31v-1.5A13.47,13.47,0,0,0,423.05,15Z" transform="translate(-274)"/></g><g id="_Group_7" data-name="&lt;Group&gt;"><polygon id="_Path_8" data-name="&lt;Path&gt;" class="cls-11" points="492.1 174.03 307.41 174.03 358.55 57.87 440.96 57.87 492.1 174.03"/><path id="_Rectangle_28" data-name="&lt;Rectangle&gt;" class="cls-2" d="M373.1,28.58h56.12a24.89,24.89,0,0,1,24.89,24.89v4.4a0,0,0,0,1,0,0H348.21a0,0,0,0,1,0,0v-4.4A24.89,24.89,0,0,1,373.1,28.58Z"/><path id="_Path_9" data-name="&lt;Path&gt;" class="cls-8" d="M635.39,39.75a3.64,3.64,0,0,0-2.81,1.32,22.33,22.33,0,0,0-5.16,14.3v2.5h8.7v-2.5a22.39,22.39,0,0,1,2.51-10.32,3.63,3.63,0,0,0-3.24-5.3Z" transform="translate(-274)"/><path id="_Path_10" data-name="&lt;Path&gt;" class="cls-8" d="M646.4,52.65a16.16,16.16,0,0,1,1.4-4,2.7,2.7,0,0,0-1.26-3.74,2.66,2.66,0,0,0-3.09.75,16.25,16.25,0,0,0-3,5.65A2.87,2.87,0,0,0,643.14,55h.45A2.9,2.9,0,0,0,646.4,52.65Z" transform="translate(-274)"/><rect id="_Rectangle_29" data-name="&lt;Rectangle&gt;" class="cls-9" x="400.44" width="1.44" height="14.6"/><path id="_Path_11" data-name="&lt;Path&gt;" class="cls-10" d="M713.58,31.4c.12.26.26.57.39.94a14.44,14.44,0,0,1-12.54,19.29L665,57.87h63.11V54.94A26.35,26.35,0,0,0,713.58,31.4Z" transform="translate(-274)"/><path id="_Rectangle_30" data-name="&lt;Rectangle&gt;" class="cls-2" d="M386.79,13.58h28.73a12.74,12.74,0,0,1,12.74,12.74v2.25a0,0,0,0,1,0,0H374.05a0,0,0,0,1,0,0V26.33A12.74,12.74,0,0,1,386.79,13.58Z"/><path id="_Path_12" data-name="&lt;Path&gt;" class="cls-8" d="M654.8,19.3a1.89,1.89,0,0,0-1.44.68,11.46,11.46,0,0,0-2.64,7.32v1.28h4.45V27.3A11.42,11.42,0,0,1,656.46,22a1.87,1.87,0,0,0-1.66-2.72Z" transform="translate(-274)"/><path id="_Path_13" data-name="&lt;Path&gt;" class="cls-8" d="M660.44,25.91a8,8,0,0,1,.72-2.06,1.39,1.39,0,0,0-.65-1.91,1.36,1.36,0,0,0-1.58.38,8.35,8.35,0,0,0-1.56,2.89,1.48,1.48,0,0,0,1.4,1.91H659A1.49,1.49,0,0,0,660.44,25.91Z" transform="translate(-274)"/><path id="_Path_14" data-name="&lt;Path&gt;" class="cls-10" d="M694.82,15a3.79,3.79,0,0,1,.21.48,7.4,7.4,0,0,1-6.42,9.87L670,28.58h32.31v-1.5A13.48,13.48,0,0,0,694.82,15Z" transform="translate(-274)"/></g><g id="_Group_8" data-name="&lt;Group&gt;"><path id="_Path_15" data-name="&lt;Path&gt;" class="cls-2" d="M744.67,259.46h0a1.54,1.54,0,0,0-1.55-1.55H662a4.93,4.93,0,0,0-4.93,4.93v7.42a4.93,4.93,0,0,0,4.93,4.93h81.14a1.54,1.54,0,0,0,1.55-1.55h0a1.55,1.55,0,0,0-1.55-1.55H717.61a1.7,1.7,0,0,1-1.7-1.7V262.7a1.7,1.7,0,0,1,1.7-1.69h25.51A1.55,1.55,0,0,0,744.67,259.46Z" transform="translate(-274)"/><path id="_Rectangle_31" data-name="&lt;Rectangle&gt;" class="cls-12" d="M443.51,261h25.17a0,0,0,0,1,0,0v11.09a0,0,0,0,1,0,0H443.51a1.6,1.6,0,0,1-1.6-1.6v-7.88A1.6,1.6,0,0,1,443.51,261Z"/><path id="_Path_16" data-name="&lt;Path&gt;" class="cls-3" d="M712.37,270.26v-7.42a4.93,4.93,0,0,1,4.93-4.93H662a4.93,4.93,0,0,0-4.93,4.93v7.42a4.93,4.93,0,0,0,4.93,4.93H717.3A4.93,4.93,0,0,1,712.37,270.26Z" transform="translate(-274)"/><rect id="_Rectangle_32" data-name="&lt;Rectangle&gt;" class="cls-12" x="397.09" y="265.55" width="30.2" height="1.99"/><rect id="_Rectangle_33" data-name="&lt;Rectangle&gt;" class="cls-13" x="443.54" y="262.97" width="25.14" height="0.92"/><rect id="_Rectangle_34" data-name="&lt;Rectangle&gt;" class="cls-13" x="443.54" y="265.63" width="25.14" height="0.92"/><rect id="_Rectangle_35" data-name="&lt;Rectangle&gt;" class="cls-13" x="443.54" y="268.3" width="25.14" height="0.92"/></g><g id="_Group_9" data-name="&lt;Group&gt;"><path id="_Path_17" data-name="&lt;Path&gt;" class="cls-9" d="M755.69,242.18h0a1.54,1.54,0,0,0-1.55-1.55H673a4.93,4.93,0,0,0-4.93,4.93V253a4.93,4.93,0,0,0,4.93,4.93h81.14a1.54,1.54,0,0,0,1.55-1.55h0a1.55,1.55,0,0,0-1.55-1.55H728.62a1.69,1.69,0,0,1-1.69-1.69v-7.69a1.7,1.7,0,0,1,1.69-1.7h25.52A1.55,1.55,0,0,0,755.69,242.18Z" transform="translate(-274)"/><path id="_Rectangle_36" data-name="&lt;Rectangle&gt;" class="cls-12" d="M454.53,243.73H479.7a0,0,0,0,1,0,0v11.09a0,0,0,0,1,0,0H454.53a1.6,1.6,0,0,1-1.6-1.6v-7.88A1.6,1.6,0,0,1,454.53,243.73Z"/><path id="_Path_18" data-name="&lt;Path&gt;" class="cls-3" d="M723.39,253v-7.42a4.93,4.93,0,0,1,4.93-4.93H673a4.93,4.93,0,0,0-4.93,4.93V253a4.93,4.93,0,0,0,4.93,4.93h55.32A4.93,4.93,0,0,1,723.39,253Z" transform="translate(-274)"/><rect id="_Rectangle_37" data-name="&lt;Rectangle&gt;" class="cls-12" x="408.11" y="248.27" width="30.2" height="1.99"/><rect id="_Rectangle_38" data-name="&lt;Rectangle&gt;" class="cls-13" x="454.56" y="245.69" width="25.14" height="0.92"/><rect id="_Rectangle_39" data-name="&lt;Rectangle&gt;" class="cls-13" x="454.56" y="248.35" width="25.14" height="0.92"/><rect id="_Rectangle_40" data-name="&lt;Rectangle&gt;" class="cls-13" x="454.56" y="251.02" width="25.14" height="0.92"/></g></g><g id="Layer_3" data-name="Layer 3"><path id="_Path_19" data-name="&lt;Path&gt;" class="cls-3" d="M274,433.09c0-3.5,134.5-6.33,300.41-6.33s300.42,2.83,300.42,6.33-134.5,6.33-300.42,6.33S274,436.58,274,433.09Z" transform="translate(-274)"/><rect id="_Rectangle_41" data-name="&lt;Rectangle&gt;" class="cls-12" x="50.04" y="276.34" width="437.62" height="11.74"/><rect id="_Rectangle_42" data-name="&lt;Rectangle&gt;" class="cls-3" x="50.04" y="276.34" width="80.97" height="11.74"/><g id="_Group_10" data-name="&lt;Group&gt;"><path id="_Path_20" data-name="&lt;Path&gt;" class="cls-14" d="M463.87,250.77l-3.76,10.09a12.63,12.63,0,0,0,1,10.88l2.78,4.68H437.24l-2.78-4.68a12.69,12.69,0,0,1-1-10.88l3.76-10.09Z" transform="translate(-274)"/><path id="_Path_21" data-name="&lt;Path&gt;" class="cls-3" d="M463.87,250.77l-3.76,10.09a12.63,12.63,0,0,0,1,10.88l2.78,4.68H437.24l-2.78-4.68a12.69,12.69,0,0,1-1-10.88l3.76-10.09Z" transform="translate(-274)"/><path id="_Path_22" data-name="&lt;Path&gt;" class="cls-14" d="M520.24,154.89H383.85a4.63,4.63,0,0,0-4.63,4.63v90.81a4.63,4.63,0,0,0,4.63,4.63H520.24a4.63,4.63,0,0,0,4.63-4.63V159.52A4.63,4.63,0,0,0,520.24,154.89Z" transform="translate(-274)"/><path id="_Path_23" data-name="&lt;Path&gt;" class="cls-3" d="M520.24,154.89H383.85a4.63,4.63,0,0,0-4.63,4.63v90.81a4.63,4.63,0,0,0,4.63,4.63H520.24a4.63,4.63,0,0,0,4.63-4.63V159.52A4.63,4.63,0,0,0,520.24,154.89Z" transform="translate(-274)"/><path id="_Path_24" data-name="&lt;Path&gt;" class="cls-15" d="M528.58,159.52a4.63,4.63,0,0,0-4.64-4.63H387.56a4.63,4.63,0,0,0-4.63,4.63v74.64H528.58Z" transform="translate(-274)"/><path id="_Path_25" data-name="&lt;Path&gt;" class="cls-14" d="M387.56,255H523.94a4.63,4.63,0,0,0,4.64-4.63V234.16H382.93v16.17A4.63,4.63,0,0,0,387.56,255Z" transform="translate(-274)"/><rect id="_Path_26" data-name="&lt;Path&gt;" class="cls-16" x="113.56" y="159.52" width="136.38" height="70"/><rect id="_Rectangle_43" data-name="&lt;Rectangle&gt;" class="cls-3" x="146.24" y="174.24" width="69.16" height="42.42"/><rect id="_Rectangle_44" data-name="&lt;Rectangle&gt;" class="cls-17" x="147.17" y="173.32" width="69.16" height="42.42"/><g id="_Group_11" data-name="&lt;Group&gt;"><rect id="_Rectangle_45" data-name="&lt;Rectangle&gt;" class="cls-3" x="119.67" y="167.44" width="19.7" height="54.16"/><g id="_Group_12" data-name="&lt;Group&gt;"><rect id="_Rectangle_46" data-name="&lt;Rectangle&gt;" class="cls-16" x="123.03" y="171.23" width="5.41" height="5.87"/><rect id="_Rectangle_47" data-name="&lt;Rectangle&gt;" class="cls-16" x="130.6" y="171.23" width="5.41" height="5.87"/></g><g id="_Group_13" data-name="&lt;Group&gt;"><rect id="_Rectangle_48" data-name="&lt;Rectangle&gt;" class="cls-16" x="123.03" y="181.43" width="5.41" height="5.87"/><rect id="_Rectangle_49" data-name="&lt;Rectangle&gt;" class="cls-16" x="130.6" y="181.43" width="5.41" height="5.87"/></g><g id="_Group_14" data-name="&lt;Group&gt;"><rect id="_Rectangle_50" data-name="&lt;Rectangle&gt;" class="cls-16" x="123.03" y="191.63" width="5.41" height="5.87"/><rect id="_Rectangle_51" data-name="&lt;Rectangle&gt;" class="cls-16" x="130.6" y="191.63" width="5.41" height="5.87"/></g><g id="_Group_15" data-name="&lt;Group&gt;"><rect id="_Rectangle_52" data-name="&lt;Rectangle&gt;" class="cls-16" x="123.03" y="201.83" width="5.41" height="5.87"/><rect id="_Rectangle_53" data-name="&lt;Rectangle&gt;" class="cls-16" x="130.6" y="201.83" width="5.41" height="5.87"/></g><g id="_Group_16" data-name="&lt;Group&gt;"><rect id="_Rectangle_54" data-name="&lt;Rectangle&gt;" class="cls-16" x="123.03" y="212.02" width="5.41" height="5.87"/><rect id="_Rectangle_55" data-name="&lt;Rectangle&gt;" class="cls-16" x="130.6" y="212.02" width="5.41" height="5.87"/></g></g><g id="_Group_17" data-name="&lt;Group&gt;"><g id="_Group_18" data-name="&lt;Group&gt;"><rect id="_Rectangle_56" data-name="&lt;Rectangle&gt;" class="cls-3" x="224.9" y="166.05" width="19.7" height="24.49"/><g id="_Group_19" data-name="&lt;Group&gt;"><rect id="_Rectangle_57" data-name="&lt;Rectangle&gt;" class="cls-17" x="228.26" y="169.84" width="13.02" height="16.97"/></g></g><g id="_Group_20" data-name="&lt;Group&gt;"><rect id="_Rectangle_58" data-name="&lt;Rectangle&gt;" class="cls-3" x="224.9" y="198.5" width="19.7" height="24.49"/><g id="_Group_21" data-name="&lt;Group&gt;"><rect id="_Rectangle_59" data-name="&lt;Rectangle&gt;" class="cls-17" x="228.26" y="202.29" width="13.02" height="16.97"/></g></g></g><path id="_Path_27" data-name="&lt;Path&gt;" class="cls-14" d="M467.35,250.77l-3.76,10.09a12.66,12.66,0,0,0,1,10.88l2.79,4.68H440.72l-2.78-4.68a12.63,12.63,0,0,1-1-10.88l3.76-10.09Z" transform="translate(-274)"/><polygon id="_Path_28" data-name="&lt;Path&gt;" class="cls-3" points="161.68 254.96 160.45 258.27 190.55 258.27 191.78 254.96 161.68 254.96"/><path id="_Rectangle_60" data-name="&lt;Rectangle&gt;" class="cls-14" d="M155.27,272h50.91a2.58,2.58,0,0,1,2.58,2.58v1.87a0,0,0,0,1,0,0H152.9a0,0,0,0,1,0,0v-2.08a2.37,2.37,0,0,1,2.37-2.37Z"/><path id="_Path_29" data-name="&lt;Path&gt;" class="cls-3" d="M441.27,272v0H429.41a2.51,2.51,0,0,0-2.51,2.51v1.94h12.2V274.5A2.5,2.5,0,0,1,441.27,272Z" transform="translate(-274)"/></g><g id="_Group_22" data-name="&lt;Group&gt;"><path id="_Path_30" data-name="&lt;Path&gt;" class="cls-14" d="M599.2,250.77,603,260.86a12.63,12.63,0,0,1-1,10.88l-2.78,4.68h26.63l2.78-4.68a12.69,12.69,0,0,0,1-10.88l-3.76-10.09Z" transform="translate(-274)"/><path id="_Path_31" data-name="&lt;Path&gt;" class="cls-3" d="M599.2,250.77,603,260.86a12.63,12.63,0,0,1-1,10.88l-2.78,4.68h26.63l2.78-4.68a12.69,12.69,0,0,0,1-10.88l-3.76-10.09Z" transform="translate(-274)"/><path id="_Path_32" data-name="&lt;Path&gt;" class="cls-14" d="M542.83,154.89H679.22a4.63,4.63,0,0,1,4.63,4.63v90.81a4.63,4.63,0,0,1-4.63,4.63H542.83a4.63,4.63,0,0,1-4.63-4.63V159.52A4.63,4.63,0,0,1,542.83,154.89Z" transform="translate(-274)"/><path id="_Path_33" data-name="&lt;Path&gt;" class="cls-3" d="M542.83,154.89H679.22a4.63,4.63,0,0,1,4.63,4.63v90.81a4.63,4.63,0,0,1-4.63,4.63H542.83a4.63,4.63,0,0,1-4.63-4.63V159.52A4.63,4.63,0,0,1,542.83,154.89Z" transform="translate(-274)"/><path id="_Path_34" data-name="&lt;Path&gt;" class="cls-15" d="M534.49,159.52a4.63,4.63,0,0,1,4.64-4.63H675.51a4.63,4.63,0,0,1,4.63,4.63v74.64H534.49Z" transform="translate(-274)"/><path id="_Path_35" data-name="&lt;Path&gt;" class="cls-14" d="M675.51,255H539.13a4.63,4.63,0,0,1-4.64-4.63V234.16H680.14v16.17A4.63,4.63,0,0,1,675.51,255Z" transform="translate(-274)"/><rect id="_Path_36" data-name="&lt;Path&gt;" class="cls-16" x="265.13" y="159.52" width="136.38" height="70"/><rect id="_Rectangle_61" data-name="&lt;Rectangle&gt;" class="cls-3" x="545.73" y="163.16" width="69.16" height="60.34" transform="translate(886.63 386.65) rotate(-180)"/><rect id="_Rectangle_62" data-name="&lt;Rectangle&gt;" class="cls-17" x="601.11" y="166.09" width="69.16" height="51.8" transform="translate(997.38 383.99) rotate(-180)"/><path id="_Path_37" data-name="&lt;Path&gt;" class="cls-14" d="M595.72,250.77l3.76,10.09a12.66,12.66,0,0,1-1,10.88l-2.79,4.68h26.63l2.78-4.68a12.63,12.63,0,0,0,1-10.88l-3.76-10.09Z" transform="translate(-274)"/><polygon id="_Path_38" data-name="&lt;Path&gt;" class="cls-3" points="353.39 254.96 354.62 258.27 324.52 258.27 323.29 254.96 353.39 254.96"/><path id="_Rectangle_63" data-name="&lt;Rectangle&gt;" class="cls-14" d="M580.31,272h55.86a0,0,0,0,1,0,0v1.87a2.58,2.58,0,0,1-2.58,2.58H582.68a2.37,2.37,0,0,1-2.37-2.37V272A0,0,0,0,1,580.31,272Z" transform="translate(942.49 548.44) rotate(-180)"/><path id="_Path_39" data-name="&lt;Path&gt;" class="cls-3" d="M621.8,272v0h11.86a2.51,2.51,0,0,1,2.51,2.51v1.94H624V274.5A2.5,2.5,0,0,0,621.8,272Z" transform="translate(-274)"/></g><g id="_Group_23" data-name="&lt;Group&gt;"><path id="_Rectangle_64" data-name="&lt;Rectangle&gt;" class="cls-9" d="M124.45,252.41h22.84a0,0,0,0,1,0,0v20.24a3.7,3.7,0,0,1-3.7,3.7H128.15a3.7,3.7,0,0,1-3.7-3.7V252.41A0,0,0,0,1,124.45,252.41Z"/><g id="_Group_24" data-name="&lt;Group&gt;"><path id="_Compound_Path_" data-name="&lt;Compound Path&gt;" class="cls-9" d="M423.3,272h-4.83V253.6h4.83a4.47,4.47,0,0,1,4.46,4.47v9.5A4.47,4.47,0,0,1,423.3,272Zm-2.85-2h2.85a2.48,2.48,0,0,0,2.47-2.48v-9.5a2.48,2.48,0,0,0-2.47-2.48h-2.85Z" transform="translate(-274)"/></g><path id="_Path_40" data-name="&lt;Path&gt;" class="cls-3" d="M419.74,252.41v6.49a15.89,15.89,0,0,1-15.9,15.89h-3a4,4,0,0,1-1.88-.49,3.91,3.91,0,0,0,3.43,2h15a3.92,3.92,0,0,0,3.92-3.92v-20Z" transform="translate(-274)"/></g></g><g id="Layer_5" data-name="Layer 5"><g id="_Group_25" data-name="&lt;Group&gt;"><path id="_Compound_Path_2" data-name="&lt;Compound Path&gt;" class="cls-2" d="M636.36,341.64H521.48a1.64,1.64,0,0,1-1.22-2.58l1.51-2.22a18.1,18.1,0,0,1,15-7.92H639.24a2.12,2.12,0,0,1,1.73.89,2.14,2.14,0,0,1,.29,1.93l-2.88,8.46A2.14,2.14,0,0,1,636.36,341.64Z" transform="translate(-274)"/><path id="_Path_41" data-name="&lt;Path&gt;" class="cls-3" d="M638.38,340.2l2.88-8.46a2.14,2.14,0,0,0-.29-1.93,2.12,2.12,0,0,0-1.73-.89H555.79a2.14,2.14,0,0,0-2,1.44l-2.88,8.46a2.14,2.14,0,0,0,.29,1.93,2.12,2.12,0,0,0,1.73.89h83.45A2.14,2.14,0,0,0,638.38,340.2Z" transform="translate(-274)"/><path id="_Path_42" data-name="&lt;Path&gt;" class="cls-2" d="M640.49,275.29a2.57,2.57,0,0,0,2.57-2.5l-9.35-43.47a7,7,0,0,0-6.88-6.32H564a7,7,0,0,0-6.88,6.32l-9.35,43.47a2.57,2.57,0,0,0,2.57,2.5Z" transform="translate(-274)"/><path id="_Path_43" data-name="&lt;Path&gt;" class="cls-2" d="M644.75,275.29a2.57,2.57,0,0,0,2.57-2.5L638,229.32a6.94,6.94,0,0,0-6.88-6.32H568.25a7,7,0,0,0-6.89,6.32L552,272.79a2.58,2.58,0,0,0,2.58,2.5Z" transform="translate(-274)"/><path id="_Path_44" data-name="&lt;Path&gt;" class="cls-18" d="M630.92,346.28H526.44a4.64,4.64,0,0,1-4.64-4.64H635.56A4.64,4.64,0,0,1,630.92,346.28Z" transform="translate(-274)"/><path id="_Path_45" data-name="&lt;Path&gt;" class="cls-3" d="M644.75,275.29a2.57,2.57,0,0,0,2.57-2.5L638,229.32a6.94,6.94,0,0,0-6.88-6.32H568.25a7,7,0,0,0-6.89,6.32L552,272.79a2.58,2.58,0,0,0,2.58,2.5Z" transform="translate(-274)"/><path id="_Path_46" data-name="&lt;Path&gt;" class="cls-15" d="M609.48,258H589.34a3.08,3.08,0,0,0-3.08,3.08h0a3.08,3.08,0,0,0,3.08,3.09h20.14a3.08,3.08,0,0,0,3.08-3.09h0A3.08,3.08,0,0,0,609.48,258Z" transform="translate(-274)"/><polygon id="_Path_47" data-name="&lt;Path&gt;" class="cls-18" points="310.72 359.56 298.64 359.56 296.5 346.28 312.86 346.28 310.72 359.56"/><rect id="_Rectangle_65" data-name="&lt;Rectangle&gt;" class="cls-18" x="300.41" y="359.56" width="8.53" height="64.05"/><polygon id="_Path_48" data-name="&lt;Path&gt;" class="cls-3" points="312.46 348.77 312.86 346.28 296.5 346.28 296.9 348.77 312.46 348.77"/><polygon id="_Path_49" data-name="&lt;Path&gt;" class="cls-18" points="298.64 410.33 310.72 410.33 312.86 423.61 296.5 423.61 298.64 410.33"/><rect id="_Rectangle_66" data-name="&lt;Rectangle&gt;" class="cls-3" x="300.41" y="359.56" width="8.53" height="1.19"/><path id="_Path_50" data-name="&lt;Path&gt;" class="cls-3" d="M635.56,341.64H552.37a4.64,4.64,0,0,0,4.64,4.64h73.91A4.64,4.64,0,0,0,635.56,341.64Z" transform="translate(-274)"/><g id="_Group_26" data-name="&lt;Group&gt;"><path id="_Path_51" data-name="&lt;Path&gt;" class="cls-19" d="M539.75,430.88a4.09,4.09,0,1,1,4.09,4.09A4.09,4.09,0,0,1,539.75,430.88Z" transform="translate(-274)"/><path id="_Path_52" data-name="&lt;Path&gt;" class="cls-3" d="M543.84,426.79a3.84,3.84,0,0,0-.76.08,4.08,4.08,0,0,1,0,8,3.84,3.84,0,0,0,.76.08,4.09,4.09,0,0,0,0-8.18Z" transform="translate(-274)"/></g><g id="_Group_27" data-name="&lt;Group&gt;"><path id="_Path_53" data-name="&lt;Path&gt;" class="cls-19" d="M552.11,430.88a4.09,4.09,0,1,1,4.08,4.09A4.09,4.09,0,0,1,552.11,430.88Z" transform="translate(-274)"/><path id="_Path_54" data-name="&lt;Path&gt;" class="cls-3" d="M556.19,426.79a3.74,3.74,0,0,0-.75.08,4.08,4.08,0,0,1,0,8,3.74,3.74,0,0,0,.75.08,4.09,4.09,0,0,0,0-8.18Z" transform="translate(-274)"/></g><g id="_Group_28" data-name="&lt;Group&gt;"><path id="_Path_55" data-name="&lt;Path&gt;" class="cls-19" d="M594.86,430.88a4.09,4.09,0,1,1,4.08,4.09A4.09,4.09,0,0,1,594.86,430.88Z" transform="translate(-274)"/><path id="_Path_56" data-name="&lt;Path&gt;" class="cls-3" d="M598.94,426.79a3.74,3.74,0,0,0-.75.08,4.08,4.08,0,0,1,0,8,3.74,3.74,0,0,0,.75.08,4.09,4.09,0,0,0,0-8.18Z" transform="translate(-274)"/></g><g id="_Group_29" data-name="&lt;Group&gt;"><path id="_Path_57" data-name="&lt;Path&gt;" class="cls-19" d="M607.21,430.88A4.09,4.09,0,1,1,611.3,435,4.09,4.09,0,0,1,607.21,430.88Z" transform="translate(-274)"/><path id="_Path_58" data-name="&lt;Path&gt;" class="cls-3" d="M611.3,426.79a3.84,3.84,0,0,0-.76.08,4.08,4.08,0,0,1,0,8,3.84,3.84,0,0,0,.76.08,4.09,4.09,0,1,0,0-8.18Z" transform="translate(-274)"/></g><path id="_Path_59" data-name="&lt;Path&gt;" class="cls-18" d="M540.89,423.61H616a4.64,4.64,0,0,1,4.64,4.64H536.26A4.63,4.63,0,0,1,540.89,423.61Z" transform="translate(-274)"/><polygon id="_Path_60" data-name="&lt;Path&gt;" class="cls-3" points="310.72 359.56 312.86 346.28 304.44 346.28 304.44 423.61 308.95 423.61 312.86 423.61 310.72 410.33 308.95 410.33 308.95 359.56 310.72 359.56"/><rect id="_Rectangle_67" data-name="&lt;Rectangle&gt;" class="cls-18" x="317.4" y="264.14" width="16.54" height="70.04"/><rect id="_Rectangle_68" data-name="&lt;Rectangle&gt;" class="cls-3" x="320.74" y="264.14" width="13.2" height="70.04"/><path id="_Path_61" data-name="&lt;Path&gt;" class="cls-3" d="M612.56,261.05a3.08,3.08,0,0,0-3.08-3.08H593.17a3.09,3.09,0,0,0,0,6.17h16.31A3.08,3.08,0,0,0,612.56,261.05Z" transform="translate(-274)"/><path id="_Path_62" data-name="&lt;Path&gt;" class="cls-15" d="M609.48,251.74H589.34a3.08,3.08,0,0,0-3.08,3.08h0a3.08,3.08,0,0,0,3.08,3.09h20.14a3.08,3.08,0,0,0,3.08-3.09h0A3.08,3.08,0,0,0,609.48,251.74Z" transform="translate(-274)"/><rect id="_Rectangle_69" data-name="&lt;Rectangle&gt;" class="cls-3" x="317.4" y="264.14" width="16.54" height="2.67"/><rect id="_Rectangle_70" data-name="&lt;Rectangle&gt;" class="cls-15" x="312.26" y="330.32" width="26.31" height="6.17" rx="2.91" ry="2.91"/><rect id="_Rectangle_71" data-name="&lt;Rectangle&gt;" class="cls-3" x="317.4" y="336.49" width="16.54" height="2.67"/><path id="_Path_63" data-name="&lt;Path&gt;" class="cls-3" d="M611.58,258.8a3.11,3.11,0,0,0-2.1-.83H589.34a3.09,3.09,0,0,0-2.1.83Z" transform="translate(-274)"/><path id="_Path_64" data-name="&lt;Path&gt;" class="cls-3" d="M612.56,254.82a3.08,3.08,0,0,0-3.08-3.08H593.17a3.09,3.09,0,0,0,0,6.17h16.31A3.08,3.08,0,0,0,612.56,254.82Z" transform="translate(-274)"/><path id="_Path_65" data-name="&lt;Path&gt;" class="cls-3" d="M612.56,333.4a3.08,3.08,0,0,0-3.08-3.08H593.17a3.09,3.09,0,0,0,0,6.17h16.31A3.08,3.08,0,0,0,612.56,333.4Z" transform="translate(-274)"/></g></g></g></svg>