<?xml version="1.0" encoding="utf-8"?>
<!-- Generator: Adobe Illustrator 22.1.0, SVG Export Plug-In . SVG Version: 6.00 Build 0)  -->
<svg version="1.1" id="Layer_1" xmlns="http://www.w3.org/2000/svg" xmlns:xlink="http://www.w3.org/1999/xlink" x="0px" y="0px"
	 viewBox="0 0 457.1 423.7" style="enable-background:new 0 0 457.1 423.7;" xml:space="preserve">
<style type="text/css">
	.st0{fill:#FFFFFF;fill-opacity:0;}
	.st1{opacity:2.000000e-02;fill:#FBFBFB;enable-background:new    ;}
	.st2{opacity:5.000000e-02;fill:#F6F6F8;enable-background:new    ;}
	.st3{opacity:7.000000e-02;fill:#F2F2F4;enable-background:new    ;}
	.st4{opacity:0.1;fill:#EDEDF0;enable-background:new    ;}
	.st5{opacity:0.12;fill:#E9E9ED;enable-background:new    ;}
	.st6{opacity:0.15;fill:#E4E4E9;enable-background:new    ;}
	.st7{opacity:0.17;fill:#E0E0E6;enable-background:new    ;}
	.st8{opacity:0.2;fill:#DBDBE2;enable-background:new    ;}
	.st9{opacity:0.22;fill:#D7D7DE;enable-background:new    ;}
	.st10{opacity:0.24;fill:#D2D2DB;enable-background:new    ;}
	.st11{opacity:0.27;fill:#CECED7;enable-background:new    ;}
	.st12{opacity:0.29;fill:#C9C9D3;enable-background:new    ;}
	.st13{opacity:0.32;fill:#C5C5D0;enable-background:new    ;}
	.st14{opacity:0.34;fill:#C1C1CC;enable-background:new    ;}
	.st15{opacity:0.37;fill:#BCBCC8;enable-background:new    ;}
	.st16{opacity:0.39;fill:#B8B8C5;enable-background:new    ;}
	.st17{opacity:0.41;fill:#B3B3C1;enable-background:new    ;}
	.st18{opacity:0.44;fill:#AFAFBE;enable-background:new    ;}
	.st19{opacity:0.46;fill:#AAAABA;enable-background:new    ;}
	.st20{opacity:0.49;fill:#A6A6B6;enable-background:new    ;}
	.st21{opacity:0.51;fill:#A1A1B3;enable-background:new    ;}
	.st22{opacity:0.54;fill:#9D9DAF;enable-background:new    ;}
	.st23{opacity:0.56;fill:#9898AB;enable-background:new    ;}
	.st24{opacity:0.59;fill:#9494A8;enable-background:new    ;}
	.st25{opacity:0.61;fill:#8F8FA4;enable-background:new    ;}
	.st26{opacity:0.63;fill:#8B8BA1;enable-background:new    ;}
	.st27{opacity:0.66;fill:#86869D;enable-background:new    ;}
	.st28{opacity:0.68;fill:#828299;enable-background:new    ;}
	.st29{opacity:0.71;fill:#7E7E96;enable-background:new    ;}
	.st30{opacity:0.73;fill:#797992;enable-background:new    ;}
	.st31{opacity:0.76;fill:#75758E;enable-background:new    ;}
	.st32{opacity:0.78;fill:#70708B;enable-background:new    ;}
	.st33{opacity:0.8;fill:#6C6C87;enable-background:new    ;}
	.st34{opacity:0.83;fill:#676783;enable-background:new    ;}
	.st35{opacity:0.85;fill:#636380;enable-background:new    ;}
	.st36{opacity:0.88;fill:#5E5E7C;enable-background:new    ;}
	.st37{opacity:0.9;fill:#5A5A79;enable-background:new    ;}
	.st38{opacity:0.93;fill:#555575;enable-background:new    ;}
	.st39{opacity:0.95;fill:#515171;enable-background:new    ;}
	.st40{opacity:0.98;fill:#4C4C6E;enable-background:new    ;}
	.st41{fill:#48486A;}
	.st42{fill:url(#_Path_3_1_);}
	.st43{fill:#3F1152;}
	.st44{fill:#FFFFFF;}
	.st45{fill:url(#_Path_6_1_);}
	.st46{fill:#F7F7F7;}
	.st47{fill:#E5E9F4;}
	.st48{fill:#D3DAED;}
	.st49{fill:url(#_Path_64_1_);}
	.st50{fill:#EDF0F8;}
	.st51{fill:#DCE1F1;}
	.st52{fill:url(#_Path_73_1_);}
	.st53{fill:#F9F7F9;}
	.st54{fill:#99A7D8;}
	.st55{fill:#F1F2F2;}
	.st56{opacity:0;}
	.st57{opacity:2.000000e-02;}
	.st58{fill:#FBFBFB;}
	.st59{opacity:5.000000e-02;}
	.st60{fill:#F6F6F8;}
	.st61{opacity:7.000000e-02;}
	.st62{fill:#F2F2F4;}
	.st63{opacity:0.1;}
	.st64{fill:#EDEDF0;}
	.st65{opacity:0.12;}
	.st66{fill:#E9E9ED;}
	.st67{opacity:0.15;}
	.st68{fill:#E4E4E9;}
	.st69{opacity:0.17;}
	.st70{fill:#E0E0E6;}
	.st71{opacity:0.2;}
	.st72{fill:#DBDBE2;}
	.st73{opacity:0.22;}
	.st74{fill:#D7D7DE;}
	.st75{opacity:0.24;}
	.st76{fill:#D2D2DB;}
	.st77{opacity:0.27;}
	.st78{fill:#CECED7;}
	.st79{opacity:0.29;}
	.st80{fill:#C9C9D3;}
	.st81{opacity:0.32;}
	.st82{fill:#C5C5D0;}
	.st83{opacity:0.34;}
	.st84{fill:#C1C1CC;}
	.st85{opacity:0.37;}
	.st86{fill:#BCBCC8;}
	.st87{opacity:0.39;}
	.st88{fill:#B8B8C5;}
	.st89{opacity:0.41;}
	.st90{fill:#B3B3C1;}
	.st91{opacity:0.44;}
	.st92{fill:#AFAFBE;}
	.st93{opacity:0.46;}
	.st94{fill:#AAAABA;}
	.st95{opacity:0.49;}
	.st96{fill:#A6A6B6;}
	.st97{opacity:0.51;}
	.st98{fill:#A1A1B3;}
	.st99{opacity:0.54;}
	.st100{fill:#9D9DAF;}
	.st101{opacity:0.56;}
	.st102{fill:#9898AB;}
	.st103{opacity:0.59;}
	.st104{fill:#9494A8;}
	.st105{opacity:0.61;}
	.st106{fill:#8F8FA4;}
	.st107{opacity:0.63;}
	.st108{fill:#8B8BA1;}
	.st109{opacity:0.66;}
	.st110{fill:#86869D;}
	.st111{opacity:0.68;}
	.st112{fill:#828299;}
	.st113{opacity:0.71;}
	.st114{fill:#7E7E96;}
	.st115{opacity:0.73;}
	.st116{fill:#797992;}
	.st117{opacity:0.76;}
	.st118{fill:#75758E;}
	.st119{opacity:0.78;}
	.st120{fill:#70708B;}
	.st121{opacity:0.8;}
	.st122{fill:#6C6C87;}
	.st123{opacity:0.83;}
	.st124{fill:#676783;}
	.st125{opacity:0.85;}
	.st126{fill:#636380;}
	.st127{opacity:0.88;}
	.st128{fill:#5E5E7C;}
	.st129{opacity:0.9;}
	.st130{fill:#5A5A79;}
	.st131{opacity:0.93;}
	.st132{fill:#555575;}
	.st133{opacity:0.95;}
	.st134{fill:#515171;}
	.st135{opacity:0.98;}
	.st136{fill:#4C4C6E;}
	.st137{fill:url(#_Path_79_1_);}
	.st138{fill:url(#_Path_88_1_);}
	.st139{fill:#FFC107;}
	.st140{fill:#FAFBFD;}
	.st141{fill:#FFCD39;}
	.st142{fill:url(#_Path_93_1_);}
	.st143{opacity:0.15;fill:#BCBEC0;enable-background:new    ;}
	.st144{opacity:0.15;fill:#808285;enable-background:new    ;}
	.st145{fill:#C2CAE8;}
	.st146{opacity:0.3;fill:#231F20;enable-background:new    ;}
	.st147{fill:url(#_Path_117_1_);}
	.st148{fill:#ADB9E0;}
	.st149{fill:url(#_Path_119_1_);}
	.st150{fill:#DAD9DB;}
	.st151{fill:url(#_Path_122_1_);}
	.st152{fill:url(#_Path_123_1_);}
	.st153{fill:url(#SVGID_1_);}
	.st154{fill:#FF9800;}
	.st155{opacity:0.2;fill:#231F20;enable-background:new    ;}
	.st156{fill:url(#_Path_129_1_);}
	.st157{opacity:0.17;fill:#231F20;enable-background:new    ;}
	.st158{fill:url(#_Path_134_1_);}
	.st159{fill:url(#_Path_142_1_);}
	.st160{fill:url(#_Path_145_1_);}
	.st161{fill:url(#_Path_148_1_);}
	.st162{fill:url(#_Path_153_1_);}
	.st163{fill:url(#_Path_154_1_);}
	.st164{fill:url(#_Path_158_1_);}
</style>
<title>img-masthead-flat4</title>
<g>
	<g id="Graphics">
		<g id="Layer_6">
			<path id="_Path_" class="st0" d="M355.7,272.7L98.1,421.5c-0.8,0.5-1.5,1.2-2,2c-1.5,2.6-0.6,5.9,2,7.3l165.5,94.6
				c6.6,3.8,14.7,3.8,21.3,0l257.7-148.8c0.8-0.5,1.5-1.2,2-2c1.5-2.6,0.6-5.9-2-7.3L377,272.7C370.4,268.9,362.3,268.9,355.7,272.7
				z"/>
			<path class="st1" d="M355.6,272.9L98.7,421.1c-0.8,0.5-1.5,1.1-2,2c-1.5,2.6-0.6,5.8,2,7.3l165,94.3c6.6,3.8,14.6,3.8,21.2,0
				l256.9-148.3c0.8-0.5,1.5-1.1,2-2c1.5-2.6,0.6-5.8-2-7.3l-165-94.3C370.3,269,362.2,269.1,355.6,272.9z"/>
			<path class="st2" d="M355.5,273L99.3,420.9c-0.8,0.5-1.5,1.2-2,2c-1.5,2.6-0.6,5.8,2,7.3l164.5,94c6.5,3.8,14.6,3.8,21.1,0
				l256.2-147.9c0.8-0.5,1.5-1.1,2-2c1.5-2.6,0.6-5.8-2-7.3L376.7,273C370.1,269.2,362,269.2,355.5,273z"/>
			<path class="st3" d="M355.4,273.2L100.1,420.6c-0.8,0.5-1.4,1.1-1.9,1.9c-1.5,2.5-0.6,5.8,1.9,7.3l164,93.8
				c6.5,3.7,14.5,3.7,21,0l255.3-147.5c0.9-0.5,1.6-1.2,2.1-2.1c1.4-2.5,0.5-5.7-2.1-7.1l-164-93.8
				C370,269.4,361.9,269.4,355.4,273.2z"/>
			<path class="st4" d="M355.3,273.3L100.7,420.3c-0.9,0.5-1.6,1.2-2.1,2.1c-1.4,2.5-0.5,5.7,2.1,7.1l163.5,93.5
				c6.5,3.7,14.5,3.7,21,0l254.6-147c0.9-0.5,1.6-1.2,2.1-2.1c1.4-2.5,0.5-5.7-2.1-7.1l-163.5-93.5
				C369.8,269.5,361.8,269.6,355.3,273.3z"/>
			<path class="st5" d="M355.2,273.5L101.4,420c-0.9,0.5-1.6,1.2-2.1,2.1c-1.4,2.5-0.5,5.7,2.1,7.1l163,93.2c6.5,3.7,14.5,3.7,21,0
				l253.8-146.5c0.9-0.5,1.6-1.2,2.1-2.1c1.4-2.5,0.5-5.7-2.1-7.1l-163-93.2C369.7,269.7,361.7,269.7,355.2,273.5z"/>
			<path class="st6" d="M355.1,273.6l-253,146c-0.9,0.5-1.6,1.2-2.1,2.1c-1.4,2.5-0.5,5.7,2.1,7.1l162.5,92.9
				c6.5,3.7,14.4,3.7,20.9,0l253-146.1c0.9-0.5,1.6-1.2,2.1-2.1c1.4-2.5,0.5-5.7-2.1-7.1L376,273.6
				C369.5,269.9,361.6,269.9,355.1,273.6z"/>
			<path class="st7" d="M355,273.8L102.8,419.3c-0.8,0.5-1.5,1.1-1.9,1.9c-1.4,2.5-0.6,5.7,1.9,7.2l162,92.6
				c6.4,3.7,14.4,3.7,20.8,0l252.2-145.6c0.8-0.5,1.5-1.1,1.9-1.9c1.4-2.5,0.6-5.7-1.9-7.2l-162-92.6
				C369.4,270.1,361.4,270.1,355,273.8z"/>
			<path class="st8" d="M354.9,273.9L103.5,419c-0.8,0.5-1.4,1.1-1.9,1.9c-1.5,2.5-0.6,5.7,1.9,7.2L265,520.5
				c6.4,3.7,14.3,3.7,20.8,0l251.4-145.2c0.8-0.5,1.4-1.1,1.9-1.9c1.5-2.5,0.6-5.7-1.9-7.2l-161.5-92.3
				C369.2,270.2,361.3,270.2,354.9,273.9z"/>
			<path class="st9" d="M354.8,274.1L104.1,418.8c-0.8,0.5-1.4,1.1-1.9,1.9c-1.5,2.5-0.6,5.7,1.9,7.2l161,92
				c6.4,3.7,14.3,3.7,20.7,0l250.6-144.8c0.8-0.5,1.4-1.1,1.9-1.9c1.5-2.5,0.6-5.7-1.9-7.2l-161-92
				C369.1,270.4,361.2,270.4,354.8,274.1z"/>
			<path class="st10" d="M354.6,274.2L104.8,418.5c-0.7,0.4-1.4,1.1-1.8,1.8c-1.5,2.5-0.7,5.7,1.8,7.2l160.5,91.7
				c6.4,3.7,14.2,3.7,20.6,0L535.8,375c0.8-0.4,1.4-1.1,1.8-1.8c1.5-2.5,0.7-5.7-1.8-7.2l-160.5-91.7
				C368.9,270.5,361,270.5,354.6,274.2z"/>
			<path class="st11" d="M354.6,274.4L105.5,418.2c-0.7,0.4-1.3,1.1-1.8,1.8c-1.5,2.5-0.7,5.7,1.8,7.2l160,91.5
				c6.4,3.7,14.2,3.7,20.6,0l249.1-143.8c0.8-0.5,1.5-1.1,1.9-1.9c1.4-2.5,0.5-5.6-1.9-7.1l-160-91.5
				C368.8,270.7,360.9,270.7,354.6,274.4z"/>
			<path class="st12" d="M354.4,274.5L106.2,417.9c-0.8,0.5-1.4,1.1-1.9,1.9c-1.4,2.5-0.6,5.6,1.9,7.1L265.6,518
				c6.3,3.7,14.2,3.7,20.5,0l248.3-143.4c0.8-0.5,1.4-1.1,1.9-1.9c1.4-2.5,0.6-5.6-1.9-7.1l-159.5-91.2
				C368.6,270.9,360.8,270.9,354.4,274.5z"/>
			<path class="st13" d="M354.3,274.7L106.9,417.6c-0.8,0.5-1.4,1.1-1.9,1.9c-1.4,2.5-0.6,5.6,1.9,7.1l159,90.9
				c6.3,3.6,14.1,3.6,20.4,0l247.4-142.9c0.8-0.5,1.4-1.1,1.9-1.9c1.4-2.5,0.6-5.6-1.9-7.1l-159-90.9
				C368.4,271,360.7,271.1,354.3,274.7z"/>
			<path class="st14" d="M354.2,274.8L107.4,417.2c-0.8,0.5-1.4,1.1-1.9,1.9c-1.4,2.5-0.6,5.6,1.9,7l158.5,90.6
				c6.3,3.6,14.1,3.6,20.4,0l246.8-142.4c0.8-0.5,1.4-1.1,1.9-1.9c1.4-2.5,0.6-5.6-1.9-7l-158.5-90.6
				C368.3,271.2,360.5,271.2,354.2,274.8z"/>
			<path class="st15" d="M354.1,275.1L108.2,417c-0.8,0.5-1.4,1.1-1.9,1.9c-1.4,2.5-0.6,5.6,1.9,7l158,90.3c6.3,3.6,14,3.6,20.3,0
				l245.9-142c0.8-0.5,1.4-1.1,1.9-1.9c1.4-2.5,0.6-5.6-1.9-7l-158-90.3C368.1,271.4,360.4,271.4,354.1,275.1z"/>
			<path class="st16" d="M354,275.2L108.9,416.7c-0.8,0.5-1.4,1.1-1.9,1.9c-1.4,2.4-0.6,5.6,1.9,7l157.5,90c6.3,3.6,14,3.6,20.2,0
				L531.7,374c0.8-0.4,1.4-1.1,1.9-1.9c1.4-2.4,0.6-5.6-1.9-7l-157.4-90.1C368,271.5,360.3,271.5,354,275.2z"/>
			<path class="st17" d="M353.9,275.3L109.6,416.4c-0.8,0.4-1.4,1.1-1.9,1.9c-1.4,2.4-0.6,5.6,1.9,7l157,89.7
				c6.2,3.6,13.9,3.6,20.2,0L531,373.8c0.8-0.4,1.4-1.1,1.9-1.9c1.4-2.4,0.6-5.6-1.9-7l-157-89.7
				C367.8,271.7,360.2,271.7,353.9,275.3z"/>
			<path class="st18" d="M353.8,275.5L110.3,416.1c-0.8,0.4-1.4,1.1-1.9,1.9c-1.4,2.4-0.6,5.5,1.9,6.9l156.4,89.4
				c6.2,3.6,13.9,3.6,20.1,0l243.6-140.6c0.8-0.4,1.4-1.1,1.9-1.9c1.4-2.4,0.6-5.5-1.9-6.9l-156.5-89.4
				C367.7,271.9,360,271.9,353.8,275.5z"/>
			<path class="st19" d="M353.7,275.6L110.9,415.8c-0.8,0.4-1.4,1.1-1.9,1.9c-1.4,2.4-0.6,5.5,1.9,6.9l156,89.1
				c6.2,3.6,13.8,3.6,20,0l242.8-140.2c0.8-0.4,1.4-1.1,1.9-1.9c1.4-2.4,0.6-5.5-1.9-6.9l-156-89.1C367.5,272,359.9,272,353.7,275.6
				z"/>
			<path class="st20" d="M353.6,275.8l-242,139.7c-0.8,0.4-1.4,1.1-1.9,1.9c-1.4,2.4-0.6,5.5,1.9,6.9L267,513.1
				c6.2,3.6,13.8,3.6,20,0l242-139.7c0.8-0.4,1.4-1.1,1.9-1.9c1.4-2.4,0.6-5.5-1.9-6.9l-155.5-88.9
				C367.4,272.2,359.8,272.2,353.6,275.8z"/>
			<path class="st21" d="M353.4,275.9L112.2,415.1c-0.8,0.4-1.4,1.1-1.9,1.9c-1.4,2.4-0.6,5.5,1.9,6.9l155,88.6
				c6.2,3.5,13.7,3.5,19.9,0l241.3-139.2c0.8-0.4,1.4-1.1,1.9-1.9c1.4-2.4,0.5-5.5-1.9-6.8l-154.9-88.6
				C367.2,272.3,359.6,272.3,353.4,275.9z"/>
			<path class="st22" d="M353.4,276.1L112.9,414.9c-0.8,0.4-1.4,1.1-1.8,1.8c-1.4,2.4-0.6,5.5,1.8,6.9l154.5,88.3
				c6.1,3.5,13.7,3.5,19.8,0L527.7,373c0.8-0.4,1.4-1.1,1.8-1.8c1.4-2.4,0.6-5.5-1.8-6.9L373.2,276
				C367.1,272.5,359.5,272.5,353.4,276.1z"/>
			<path class="st23" d="M353.3,276.2L113.6,414.6c-0.8,0.4-1.4,1.1-1.8,1.8c-1.4,2.4-0.5,5.4,1.8,6.8l153.9,88
				c6.1,3.5,13.7,3.5,19.8,0l239.6-138.4c0.8-0.4,1.4-1.1,1.8-1.8c1.4-2.4,0.6-5.5-1.8-6.8l-153.9-88
				C366.9,272.7,359.4,272.7,353.3,276.2z"/>
			<path class="st24" d="M353.2,276.4L114.3,414.3c-0.8,0.4-1.4,1.1-1.8,1.8c-1.4,2.4-0.6,5.4,1.8,6.8l153.4,87.7
				c6.1,3.5,13.6,3.5,19.7,0l238.9-137.9c0.8-0.4,1.4-1.1,1.9-1.9c1.4-2.4,0.5-5.4-1.9-6.8l-153.4-87.7
				C366.8,272.9,359.3,272.9,353.2,276.4z"/>
			<path class="st25" d="M353,276.5L115,414c-0.8,0.4-1.4,1.1-1.8,1.8c-1.4,2.4-0.6,5.4,1.8,6.8L267.9,510c6.1,3.5,13.6,3.5,19.7,0
				l238-137.5c0.8-0.4,1.4-1.1,1.8-1.8c1.4-2.4,0.6-5.4-1.8-6.8l-152.9-87.4C366.6,273,359.1,273,353,276.5z"/>
			<path class="st26" d="M352.9,276.7l-237.3,137c-0.8,0.4-1.4,1.1-1.8,1.8c-1.4,2.4-0.6,5.4,1.8,6.8L268,509.4
				c6.1,3.5,13.5,3.5,19.6,0l237.3-137c0.8-0.4,1.4-1.1,1.8-1.8c1.4-2.4,0.6-5.4-1.8-6.8l-152.4-87.1
				C366.5,273.2,359,273.2,352.9,276.7z"/>
			<path class="st27" d="M352.8,276.8L116.3,413.4c-0.7,0.4-1.4,1.1-1.8,1.8c-1.4,2.4-0.6,5.4,1.8,6.7l151.9,86.9
				c6,3.5,13.5,3.5,19.5,0l236.5-136.6c0.7-0.4,1.4-1.1,1.8-1.8c1.4-2.4,0.6-5.4-1.8-6.7l-151.9-86.8
				C366.3,273.3,358.9,273.3,352.8,276.8z"/>
			<path class="st28" d="M352.7,277L117,413.1c-0.8,0.4-1.4,1.1-1.8,1.8c-1.3,2.4-0.5,5.3,1.8,6.7l151.4,86.6c6,3.5,13.4,3.5,19.5,0
				L523.6,372c0.8-0.4,1.4-1.1,1.8-1.8c1.3-2.4,0.5-5.4-1.8-6.7L372.2,277C366.2,273.5,358.7,273.5,352.7,277z"/>
			<path class="st29" d="M352.6,277.1l-235,135.7c-0.8,0.4-1.4,1.1-1.8,1.8c-1.3,2.3-0.5,5.3,1.8,6.7l150.9,86.3
				c6,3.4,13.4,3.4,19.4,0l235-135.7c0.7-0.4,1.4-1,1.8-1.8c1.4-2.3,0.6-5.3-1.8-6.7L372,277.1C366,273.7,358.6,273.7,352.6,277.1z"
				/>
			<path class="st30" d="M352.5,277.3L118.3,412.5c-0.8,0.4-1.4,1.1-1.8,1.8c-1.3,2.3-0.5,5.3,1.8,6.7l150.4,86
				c6,3.4,13.4,3.4,19.3,0l234.2-135.2c0.7-0.4,1.4-1.1,1.8-1.8c1.3-2.3,0.5-5.3-1.8-6.7l-150.4-86
				C365.8,273.8,358.5,273.8,352.5,277.3z"/>
			<path class="st31" d="M352.4,277.5L119,412.1c-0.7,0.4-1.4,1-1.8,1.8c-1.3,2.3-0.5,5.3,1.8,6.7l149.9,85.7c6,3.4,13.3,3.4,19.3,0
				l233.4-134.8c0.7-0.4,1.4-1.1,1.8-1.8c1.3-2.3,0.5-5.3-1.8-6.6l-149.9-85.7C365.7,274,358.4,274,352.4,277.5z"/>
			<path class="st32" d="M352.3,277.6L119.7,411.9c-0.7,0.4-1.4,1-1.8,1.8c-1.3,2.3-0.5,5.3,1.8,6.6l149.4,85.4
				c5.9,3.4,13.3,3.4,19.2,0l232.6-134.3c0.7-0.4,1.4-1,1.8-1.8c1.3-2.3,0.5-5.3-1.8-6.6l-149.4-85.4
				C365.5,274.2,358.2,274.2,352.3,277.6z"/>
			<path class="st33" d="M352.2,277.8L120.4,411.6c-0.7,0.4-1.4,1-1.8,1.8c-1.3,2.3-0.5,5.3,1.8,6.6l148.9,85.1
				c5.9,3.4,13.2,3.4,19.1,0l231.8-133.8c0.7-0.4,1.4-1,1.8-1.8c1.3-2.3,0.5-5.3-1.8-6.6l-148.9-85.2
				C365.4,274.3,358.1,274.3,352.2,277.8z"/>
			<path class="st34" d="M352.1,277.9L121,411.3c-0.7,0.4-1.3,1-1.8,1.8c-1.3,2.3-0.5,5.3,1.8,6.6l148.4,84.8
				c5.9,3.4,13.2,3.4,19.1,0l231.1-133.4c0.7-0.4,1.4-1,1.8-1.8c1.3-2.3,0.5-5.2-1.8-6.6l-148.4-84.8
				C365.2,274.5,358,274.5,352.1,277.9z"/>
			<path class="st35" d="M352,278.1L121.7,411c-0.7,0.4-1.3,1-1.8,1.8c-1.3,2.3-0.5,5.2,1.8,6.6l147.9,84.5c5.9,3.4,13.1,3.4,19,0
				l230.3-133c0.7-0.4,1.3-1,1.8-1.8c1.3-2.3,0.5-5.2-1.8-6.6L371,278C365.1,274.7,357.8,274.7,352,278.1z"/>
			<path class="st36" d="M351.9,278.2L122.4,410.7c-0.7,0.4-1.3,1-1.8,1.8c-1.3,2.3-0.5,5.2,1.8,6.6l147.4,84.3
				c5.9,3.4,13.1,3.4,18.9,0l229.5-132.5c0.7-0.4,1.3-1,1.8-1.8c1.3-2.3,0.5-5.2-1.8-6.5l-147.4-84.3
				C364.9,274.8,357.7,274.8,351.9,278.2z"/>
			<path class="st37" d="M351.8,278.4L123,410.4c-0.7,0.4-1.3,1-1.8,1.8c-1.3,2.3-0.5,5.2,1.8,6.5l146.9,84c5.8,3.4,13,3.4,18.9,0
				l228.7-132c0.7-0.4,1.4-1,1.8-1.8c1.3-2.3,0.5-5.2-1.8-6.5l-146.9-84C364.8,275,357.6,275,351.8,278.4z"/>
			<path class="st38" d="M351.6,278.5L123.7,410.1c-0.7,0.4-1.3,1-1.7,1.7c-1.3,2.3-0.5,5.2,1.7,6.5L270.1,502
				c5.8,3.3,13,3.3,18.8,0l227.9-131.6c0.7-0.4,1.3-1,1.7-1.7c1.3-2.3,0.5-5.2-1.7-6.5l-146.4-83.7
				C364.6,275.2,357.5,275.2,351.6,278.5z"/>
			<path class="st39" d="M351.5,278.7L124.4,409.8c-0.7,0.4-1.3,1-1.7,1.7c-1.3,2.3-0.5,5.2,1.7,6.5l145.9,83.4
				c5.8,3.3,13,3.3,18.8,0l227.1-131.1c0.7-0.4,1.3-1,1.7-1.7c1.3-2.3,0.5-5.2-1.7-6.5l-145.9-83.4
				C364.5,275.3,357.3,275.3,351.5,278.7z"/>
			<path class="st40" d="M351.4,278.8L125.1,409.5c-0.7,0.4-1.3,1-1.7,1.7c-1.3,2.3-0.5,5.2,1.7,6.5l145.4,83.1
				c5.8,3.3,12.9,3.3,18.7,0l226.4-130.7c0.7-0.4,1.3-1,1.7-1.7c1.3-2.3,0.5-5.1-1.7-6.4l-145.4-83.1
				C364.3,275.5,357.2,275.5,351.4,278.8z"/>
			<path id="_Path_2" class="st41" d="M351.3,279L125.8,409.2c-0.7,0.4-1.3,1-1.7,1.7c-1.3,2.3-0.5,5.1,1.7,6.4l144.9,82.8
				c5.8,3.3,12.9,3.3,18.6,0l225.6-130.2c0.7-0.4,1.3-1,1.7-1.7c1.3-2.3,0.5-5.1-1.7-6.4L369.9,279
				C364.2,275.7,357.1,275.7,351.3,279z"/>
			
				<linearGradient id="_Path_3_1_" gradientUnits="userSpaceOnUse" x1="114.7318" y1="177.3511" x2="377.8952" y2="177.3511" gradientTransform="matrix(-1 0 0 -1 477.9312 404.4)">
				<stop  offset="0" style="stop-color:#EBE9EC"/>
				<stop  offset="1" style="stop-color:#99A7D8"/>
			</linearGradient>
			<path id="_Path_3" class="st42" d="M100,207.6V396c0,0.9,0.2,1.8,0.7,2.5c1.4,2.4,4.5,3.2,6.9,1.8L357.7,256
				c3.4-2,5.5-5.6,5.5-9.5V58.1c0-0.9-0.2-1.8-0.7-2.5c-1.4-2.4-4.5-3.3-6.9-1.9L105.6,198C102.2,200,100,203.6,100,207.6z"/>
			<path id="_Path_4" class="st43" d="M103.3,209.7v188.4c0,0.9,0.2,1.8,0.7,2.5c1.4,2.4,4.5,3.2,6.9,1.8l250-144.3
				c3.4-2,5.5-5.6,5.5-9.5V60.3c0-0.9-0.2-1.8-0.7-2.5c-1.4-2.4-4.5-3.2-6.9-1.8l-250,144.3C105.4,202.2,103.3,205.8,103.3,209.7z"
				/>
			<polygon id="_Path_5" class="st44" points="118.2,384.4 353.4,247.8 353.4,75.5 118.2,212.1 			"/>
			
				<linearGradient id="_Path_6_1_" gradientUnits="userSpaceOnUse" x1="-58.8243" y1="16.8603" x2="370.6735" y2="16.8603" gradientTransform="matrix(-1 0 0 -1 477.9312 404.4)">
				<stop  offset="0" style="stop-color:#FFFFFF"/>
				<stop  offset="1" style="stop-color:#99A7D8"/>
			</linearGradient>
			<path id="_Path_6" class="st45" d="M356.3,267.3l-247.9,136c0,0-3.9,10.4,2.6,14.5l157.5,90.1c6.3,3.6,14,3.6,20.2,0l245.3-141.6
				c3.4-1.9,2.5-14.5,2.5-14.5l-160.1-84.4C370.3,263.7,362.6,263.7,356.3,267.3z"/>
			<path id="_Path_7" class="st46" d="M356.3,257.6L111,399.2c-0.8,0.5-1.4,1.1-1.9,1.9c-1.4,2.4-0.6,5.6,1.9,7l157.5,90.1
				c6.3,3.6,14,3.6,20.2,0l245.3-141.6c0.8-0.5,1.4-1.1,1.9-1.9c1.4-2.4,0.6-5.6-1.9-7l-157.5-90.1C370.3,254,362.6,254,356.3,257.6
				z"/>
			<path id="_Path_8" class="st47" d="M385.2,374.2l-64.6,37.3c-0.2,0.1-0.4,0.3-0.6,0.6c-0.3,0.6-0.1,1.4,0.6,1.8l41.5,23.7
				c1.7,0.9,3.7,0.9,5.3,0l64.7-37.3c0.2-0.1,0.4-0.3,0.6-0.6c0.3-0.6,0.1-1.4-0.6-1.8l-41.6-23.7
				C388.9,373.3,386.9,373.3,385.2,374.2z"/>
			<path id="_Path_9" class="st48" d="M360.9,271.3l6.7,3.9c0.1,0.1,0.2,0.2,0.3,0.3c0.2,0.4,0.1,0.9-0.3,1.1l-13.6,7.9
				c-0.5,0.3-1.2,0.3-1.7,0l-6.7-3.9c-0.1-0.1-0.2-0.2-0.3-0.3c-0.2-0.4-0.1-0.9,0.3-1.1l13.6-7.9C359.7,271,360.4,271,360.9,271.3z
				"/>
			<path id="_Path_10" class="st48" d="M341.1,283.2l6.7,3.9c0.1,0.1,0.2,0.2,0.3,0.3c0.2,0.4,0.1,0.9-0.3,1.1l-13.6,7.9
				c-0.5,0.3-1.2,0.3-1.7,0l-6.7-3.9c-0.1-0.1-0.2-0.2-0.3-0.3c-0.2-0.4-0.1-0.9,0.3-1.1l13.6-7.9
				C339.8,282.9,340.5,282.9,341.1,283.2z"/>
			<path id="_Path_11" class="st48" d="M321.1,294.4l6.8,3.9c0.1,0.1,0.2,0.2,0.3,0.3c0.2,0.4,0.1,0.9-0.3,1.1l-13.6,7.9
				c-0.5,0.3-1.2,0.3-1.7,0l-6.8-3.8c-0.1-0.1-0.2-0.2-0.3-0.3c-0.2-0.4-0.1-0.9,0.3-1.1l13.6-7.9
				C319.9,294.1,320.6,294,321.1,294.4z"/>
			<path id="_Path_12" class="st48" d="M300.5,305.9l6.7,3.9c0.1,0.1,0.2,0.2,0.3,0.3c0.2,0.4,0.1,0.9-0.3,1.1l-13.6,7.9
				c-0.5,0.3-1.2,0.3-1.7,0l-6.7-3.9c-0.1-0.1-0.2-0.2-0.3-0.3c-0.2-0.4-0.1-0.9,0.3-1.1l13.6-7.9
				C299.3,305.7,300,305.6,300.5,305.9z"/>
			<path id="_Path_13" class="st48" d="M280.8,317l6.8,3.9c0.1,0.1,0.2,0.2,0.3,0.3c0.2,0.4,0.1,0.9-0.3,1.1l-13.6,7.9
				c-0.5,0.3-1.2,0.3-1.7,0l-6.8-3.9c-0.1-0.1-0.2-0.2-0.3-0.3c-0.2-0.4-0.1-0.9,0.3-1.1L279,317C279.6,316.7,280.2,316.7,280.8,317
				z"/>
			<path id="_Path_14" class="st48" d="M261.6,328.8l6.8,3.9c0.1,0.1,0.2,0.2,0.3,0.3c0.2,0.4,0.1,0.9-0.3,1.1l-13.6,7.9
				c-0.5,0.3-1.2,0.3-1.7,0l-6.8-3.9c-0.1-0.1-0.2-0.2-0.3-0.3c-0.2-0.4-0.1-0.9,0.3-1.1l13.6-7.9
				C260.4,328.5,261,328.5,261.6,328.8z"/>
			<path id="_Path_15" class="st48" d="M241.5,339.9l6.7,3.9c0.1,0.1,0.2,0.2,0.3,0.3c0.2,0.4,0.1,0.9-0.3,1.1l-13.6,7.9
				c-0.5,0.3-1.2,0.3-1.7,0l-6.7-3.9c-0.1-0.1-0.2-0.2-0.3-0.3c-0.2-0.4-0.1-0.9,0.3-1.1l13.6-7.9
				C240.3,339.6,240.9,339.6,241.5,339.9z"/>
			<path id="_Path_16" class="st48" d="M221.7,351.7l6.7,3.9c0.1,0.1,0.2,0.2,0.3,0.3c0.2,0.4,0.1,0.9-0.3,1.1l-13.6,7.9
				c-0.5,0.3-1.2,0.3-1.7,0l-6.7-3.9c-0.1-0.1-0.2-0.2-0.3-0.3c-0.2-0.4-0.1-0.9,0.3-1.1l13.6-7.9
				C220.4,351.4,221.1,351.4,221.7,351.7z"/>
			<path id="_Path_17" class="st48" d="M202.2,363.2l6.7,3.9c0.1,0.1,0.2,0.2,0.3,0.3c0.2,0.4,0.1,0.9-0.3,1.1l-13.6,7.9
				c-0.5,0.3-1.2,0.3-1.7,0l-6.7-3.9c-0.1-0.1-0.2-0.2-0.3-0.3c-0.2-0.4-0.1-0.9,0.3-1.1l13.6-7.9
				C201,362.9,201.7,362.9,202.2,363.2z"/>
			<path id="_Path_18" class="st48" d="M181.6,375.1l6.7,3.9c0.1,0.1,0.2,0.2,0.3,0.3c0.2,0.4,0.1,0.9-0.3,1.1l-13.6,7.9
				c-0.5,0.3-1.2,0.3-1.7,0l-6.7-3.9c-0.1-0.1-0.2-0.2-0.3-0.3c-0.2-0.4-0.1-0.9,0.3-1.1l13.6-7.9
				C180.4,374.8,181.1,374.8,181.6,375.1z"/>
			<path id="_Path_19" class="st48" d="M161.7,386.2l6.7,3.9c0.1,0.1,0.2,0.2,0.3,0.3c0.2,0.4,0.1,0.9-0.3,1.1l-13.6,7.9
				c-0.5,0.3-1.2,0.3-1.7,0l-6.7-3.9c-0.1-0.1-0.2-0.2-0.3-0.3c-0.2-0.4-0.1-0.9,0.3-1.1l13.6-7.9
				C160.5,385.9,161.2,385.9,161.7,386.2z"/>
			<g id="_Group_">
				<path id="_Path_20" class="st48" d="M387.5,286.8c0.5,0.9,0.2,2.1-0.7,2.6l-9.2,5.3c-1.2,0.7-2.7,0.7-3.9,0l-8.9-5.5
					c-0.3-0.2-0.5-0.4-0.7-0.7c-0.5-0.9-0.3-2.1,0.7-2.6l9-5.2c1.2-0.7,2.7-0.7,3.9,0l9.2,5.4C387.1,286.3,387.3,286.5,387.5,286.8z
					"/>
				<path id="_Path_21" class="st48" d="M366.9,298.7c0.5,0.9,0.2,2.1-0.7,2.6l-9.2,5.3c-1.2,0.7-2.7,0.7-3.9,0l-8.9-5.5
					c-0.3-0.2-0.5-0.4-0.7-0.7c-0.5-0.9-0.2-2.1,0.7-2.6l9-5.2c1.2-0.7,2.7-0.7,3.9,0l9.2,5.4C366.5,298.1,366.8,298.4,366.9,298.7z
					"/>
				<path id="_Path_22" class="st48" d="M347,310c0.5,0.9,0.2,2.1-0.8,2.6l-9.2,5.3c-1.2,0.7-2.7,0.7-3.9,0l-8.9-5.5
					c-0.3-0.2-0.5-0.4-0.7-0.7c-0.5-0.9-0.3-2.1,0.7-2.6l9-5.3c1.2-0.7,2.7-0.7,3.9,0l9.2,5.4C346.6,309.4,346.8,309.7,347,310z"/>
				<path id="_Path_23" class="st48" d="M325.7,321.4c0.5,0.9,0.2,2.1-0.7,2.6l-9.2,5.3c-1.2,0.7-2.7,0.7-3.9,0l-8.9-5.5
					c-0.3-0.2-0.5-0.4-0.7-0.7c-0.5-0.9-0.2-2.1,0.7-2.6l9-5.2c1.2-0.7,2.7-0.7,3.9,0l9.2,5.4C325.2,320.9,325.5,321.2,325.7,321.4z
					"/>
				<path id="_Path_24" class="st48" d="M306.9,332.5c0.5,0.9,0.2,2.1-0.7,2.6l-9.2,5.3c-1.2,0.7-2.7,0.7-3.9,0l-8.9-5.5
					c-0.3-0.2-0.5-0.4-0.7-0.7c-0.5-0.9-0.3-2.1,0.7-2.6l9-5.2c1.2-0.7,2.7-0.7,3.9,0l9.2,5.4C306.5,331.9,306.8,332.2,306.9,332.5z
					"/>
				<path id="_Path_25" class="st48" d="M288,344.4c0.5,0.9,0.1,2.1-0.8,2.6l-9.2,5.3c-1.2,0.7-2.7,0.7-3.9,0l-8.9-5.5
					c-0.3-0.2-0.5-0.4-0.7-0.7c-0.5-0.9-0.3-2.1,0.7-2.6l9-5.3c1.2-0.7,2.7-0.7,3.9,0l9.2,5.4C287.5,343.7,287.8,344,288,344.4z"/>
				<path id="_Path_26" class="st48" d="M267.6,355.5c0.5,0.9,0.2,2.1-0.8,2.6l-9.2,5.3c-1.2,0.7-2.7,0.7-3.9-0.1l-8.9-5.5
					c-0.3-0.2-0.5-0.4-0.7-0.7c-0.5-0.9-0.2-2.1,0.7-2.6l9-5.2c1.2-0.7,2.7-0.7,3.9,0l9.2,5.4C267.2,354.9,267.4,355.1,267.6,355.5z
					"/>
				<path id="_Path_27" class="st48" d="M247.6,366.7c0.5,0.9,0.2,2.1-0.7,2.6l-9.2,5.3c-1.2,0.7-2.7,0.7-3.9,0l-8.9-5.5
					c-0.3-0.2-0.5-0.4-0.7-0.7c-0.5-0.9-0.3-2.1,0.7-2.6l9-5.2c1.2-0.7,2.7-0.7,3.9,0l9.2,5.4C247.2,366.2,247.4,366.4,247.6,366.7z
					"/>
				<path id="_Path_28" class="st48" d="M228.1,378.7c0.5,0.9,0.2,2.1-0.7,2.6l-9.2,5.3c-1.2,0.7-2.7,0.7-3.9,0l-8.9-5.5
					c-0.3-0.2-0.5-0.4-0.7-0.7c-0.5-0.9-0.3-2.1,0.7-2.6l9-5.2c1.2-0.7,2.7-0.7,3.9,0l9.2,5.4C227.7,378.2,227.9,378.4,228.1,378.7z
					"/>
				<path id="_Path_29" class="st48" d="M206.8,391.3c0.5,0.9,0.2,2.1-0.7,2.6l-9.2,5.3c-1.2,0.7-2.7,0.7-3.9,0l-8.9-5.5
					c-0.3-0.2-0.5-0.4-0.7-0.7c-0.5-0.9-0.3-2.1,0.7-2.6l9-5.2c1.2-0.7,2.7-0.7,3.9,0l9.2,5.4C206.3,390.7,206.6,391,206.8,391.3z"
					/>
				<path id="_Path_30" class="st48" d="M187.5,401.7c0.5,0.9,0.2,2.1-0.7,2.6l-9.2,5.3c-1.2,0.7-2.7,0.7-3.9,0l-8.9-5.5
					c-0.3-0.2-0.5-0.4-0.7-0.7c-0.5-0.9-0.3-2.1,0.7-2.6l9-5.2c1.2-0.7,2.7-0.7,3.9,0l9.2,5.4C187.1,401.2,187.3,401.4,187.5,401.7z
					"/>
			</g>
			<g id="_Group_2">
				<path id="_Path_31" class="st48" d="M408,298c0.5,0.9,0.2,2.1-0.7,2.6l-9.2,5.3c-1.2,0.7-2.7,0.7-3.9,0l-8.9-5.5
					c-0.3-0.2-0.5-0.4-0.7-0.7c-0.5-0.9-0.2-2.1,0.7-2.6l9-5.2c1.2-0.7,2.7-0.7,3.9,0l9.2,5.4C407.6,297.4,407.8,297.7,408,298z"/>
				<path id="_Path_32" class="st48" d="M387.4,309.8c0.5,0.9,0.2,2.1-0.7,2.6l-9.2,5.3c-1.2,0.7-2.7,0.7-3.9,0l-8.9-5.5
					c-0.3-0.2-0.5-0.4-0.7-0.7c-0.5-0.9-0.2-2.1,0.7-2.6l9-5.2c1.2-0.7,2.7-0.7,3.9,0l9.2,5.4C387,309.3,387.2,309.5,387.4,309.8z"
					/>
				<path id="_Path_33" class="st48" d="M367.4,321c0.5,0.9,0.2,2.1-0.7,2.6l-9.2,5.3c-1.2,0.7-2.7,0.7-3.9,0l-8.9-5.5
					c-0.3-0.2-0.5-0.4-0.7-0.7c-0.5-0.9-0.2-2.1,0.7-2.6l9-5.2c1.2-0.7,2.7-0.7,3.9,0l9.2,5.4C367,320.5,367.3,320.7,367.4,321z"/>
				<path id="_Path_34" class="st48" d="M346.2,332.7c0.5,0.9,0.1,2.1-0.8,2.6l-9.2,5.3c-1.2,0.7-2.7,0.7-3.9,0l-8.9-5.5
					c-0.3-0.2-0.5-0.4-0.7-0.7c-0.5-0.9-0.3-2.1,0.7-2.6l9-5.3c1.2-0.7,2.7-0.7,3.9,0l9.2,5.4C345.8,332.1,346,332.4,346.2,332.7z"
					/>
				<path id="_Path_35" class="st48" d="M327.5,343.7c0.5,0.9,0.1,2.1-0.8,2.6l-9.2,5.3c-1.2,0.7-2.7,0.7-3.9,0l-8.9-5.5
					c-0.3-0.2-0.5-0.4-0.7-0.7c-0.5-0.9-0.2-2.1,0.7-2.6l9-5.3c1.2-0.7,2.7-0.7,3.9,0l9.2,5.4C327.1,343.1,327.4,343.4,327.5,343.7z
					"/>
				<path id="_Path_36" class="st48" d="M308.4,355.4c0.5,0.9,0.2,2.1-0.7,2.6l-9.2,5.3c-1.2,0.7-2.7,0.7-3.9,0l-8.9-5.5
					c-0.3-0.2-0.5-0.4-0.7-0.7c-0.5-0.9-0.2-2.1,0.7-2.6l9-5.2c1.2-0.7,2.7-0.7,3.9,0l9.2,5.4C308,354.9,308.2,355.1,308.4,355.4z"
					/>
				<path id="_Path_37" class="st48" d="M288.1,366.6c0.5,0.9,0.2,2.1-0.8,2.6l-9.2,5.3c-1.2,0.7-2.7,0.7-3.9-0.1l-8.9-5.5
					c-0.3-0.2-0.5-0.4-0.7-0.7c-0.5-0.9-0.3-2.1,0.7-2.6l9-5.2c1.2-0.7,2.7-0.7,3.9,0l9.2,5.4C287.7,366,287.9,366.3,288.1,366.6z"
					/>
				<path id="_Path_38" class="st48" d="M268.2,377.9c0.5,0.9,0.2,2.1-0.7,2.6l-9.2,5.3c-1.2,0.7-2.7,0.7-3.9,0l-8.9-5.5
					c-0.3-0.2-0.5-0.4-0.7-0.7c-0.5-0.9-0.3-2.1,0.7-2.6l9-5.2c1.2-0.7,2.7-0.7,3.9,0l9.2,5.4C267.7,377.3,268,377.5,268.2,377.9z"
					/>
				<path id="_Path_39" class="st48" d="M248.6,389.8c0.5,0.9,0.2,2.1-0.7,2.6l-9.2,5.3c-1.2,0.7-2.7,0.7-3.9,0l-8.9-5.5
					c-0.3-0.2-0.5-0.4-0.7-0.7c-0.5-0.9-0.3-2.1,0.7-2.6l9-5.2c1.2-0.7,2.7-0.7,3.9,0l9.2,5.4C248.1,389.3,248.4,389.5,248.6,389.8z
					"/>
				<path id="_Path_40" class="st48" d="M227.3,402.5c0.5,0.9,0.2,2.1-0.8,2.6l-9.2,5.3c-1.2,0.7-2.7,0.7-3.9,0l-8.9-5.5
					c-0.3-0.2-0.5-0.4-0.7-0.7c-0.5-0.9-0.2-2.1,0.7-2.6l9-5.3c1.2-0.7,2.7-0.7,3.9,0l9.2,5.4C226.9,401.9,227.1,402.1,227.3,402.5z
					"/>
				<path id="_Path_41" class="st48" d="M208,412.9c0.5,0.9,0.2,2.1-0.7,2.6l-9.2,5.3c-1.2,0.7-2.7,0.7-3.9,0l-8.9-5.5
					c-0.3-0.2-0.5-0.4-0.7-0.7c-0.5-0.9-0.2-2.1,0.7-2.6l9-5.2c1.2-0.7,2.7-0.7,3.9,0l9.2,5.4C207.6,412.3,207.8,412.6,208,412.9z"
					/>
			</g>
			<g id="_Group_3">
				<path id="_Path_42" class="st48" d="M428.5,309.1c0.5,0.9,0.2,2.1-0.7,2.6l-9.2,5.3c-1.2,0.7-2.7,0.7-3.9,0l-8.9-5.5
					c-0.3-0.2-0.5-0.4-0.7-0.7c-0.5-0.9-0.2-2.1,0.7-2.6l9-5.2c1.2-0.7,2.7-0.7,3.9,0l9.2,5.4C428.1,308.6,428.3,308.8,428.5,309.1z
					"/>
				<path id="_Path_43" class="st48" d="M407.9,320.9c0.5,0.9,0.2,2.1-0.7,2.6l-9.2,5.3c-1.2,0.7-2.7,0.7-3.9,0l-8.9-5.5
					c-0.3-0.2-0.5-0.4-0.6-0.6c-0.6-0.9-0.3-2.1,0.6-2.7l9-5.2c1.2-0.7,2.7-0.7,3.9,0l9.2,5.4C407.4,320.4,407.7,320.6,407.9,320.9z
					"/>
				<path id="_Path_44" class="st48" d="M387.9,332.1c0.5,0.9,0.2,2.1-0.7,2.6L378,340c-1.2,0.7-2.7,0.7-3.9,0l-8.9-5.5
					c-0.3-0.2-0.5-0.4-0.7-0.7c-0.5-0.9-0.2-2.1,0.7-2.6l9-5.2c1.2-0.7,2.7-0.7,3.9,0l9.2,5.4C387.5,331.6,387.7,331.8,387.9,332.1z
					"/>
				<path id="_Path_45" class="st48" d="M366.6,343.7c0.5,0.9,0.2,2.1-0.7,2.6l-9.2,5.3c-1.2,0.7-2.7,0.7-3.9,0l-8.9-5.5
					c-0.3-0.2-0.5-0.4-0.7-0.7c-0.5-0.9-0.2-2.1,0.7-2.6l9-5.2c1.2-0.7,2.7-0.7,3.9,0l9.2,5.4C366.2,343.2,366.5,343.4,366.6,343.7z
					"/>
				<path id="_Path_46" class="st48" d="M347.9,354.8c0.5,0.9,0.2,2.1-0.7,2.6l-9.2,5.3c-1.2,0.7-2.7,0.7-3.9,0l-8.9-5.5
					c-0.3-0.2-0.5-0.4-0.7-0.7c-0.5-0.9-0.2-2.1,0.7-2.6l9-5.2c1.2-0.7,2.7-0.7,3.9,0l9.2,5.4C347.5,354.2,347.7,354.5,347.9,354.8z
					"/>
				<path id="_Path_47" class="st48" d="M328.9,366.5c0.5,0.9,0.2,2.1-0.7,2.6l-9.2,5.3c-1.2,0.7-2.7,0.7-3.9,0l-8.9-5.5
					c-0.3-0.2-0.5-0.4-0.7-0.7c-0.5-0.9-0.2-2.1,0.7-2.6l9-5.2c1.2-0.7,2.7-0.7,3.9,0l9.2,5.4C328.5,366,328.7,366.2,328.9,366.5z"
					/>
				<path id="_Path_48" class="st48" d="M308.6,377.7c0.5,0.9,0.2,2.1-0.7,2.6l-9.2,5.3c-1.2,0.7-2.7,0.7-3.9,0l-8.9-5.5
					c-0.3-0.2-0.5-0.4-0.7-0.7c-0.5-0.9-0.3-2.1,0.7-2.6l9-5.2c1.2-0.7,2.7-0.7,3.9,0l9.2,5.4C308.1,377.2,308.4,377.4,308.6,377.7z
					"/>
				<path id="_Path_49" class="st48" d="M288.6,389c0.5,0.9,0.2,2.1-0.7,2.6l-9.2,5.3c-1.2,0.7-2.7,0.7-3.9,0l-8.9-5.5
					c-0.3-0.2-0.5-0.4-0.7-0.7c-0.5-0.9-0.2-2.1,0.7-2.6l9-5.2c1.2-0.7,2.7-0.7,3.9,0l9.2,5.4C288.2,388.4,288.5,388.7,288.6,389z"
					/>
				<path id="_Path_50" class="st48" d="M269.1,401c0.5,0.9,0.2,2.1-0.8,2.6l-9.2,5.3c-1.2,0.7-2.7,0.7-3.9-0.1l-8.9-5.5
					c-0.3-0.2-0.5-0.4-0.7-0.7c-0.5-0.9-0.2-2.1,0.7-2.6l9-5.2c1.2-0.7,2.7-0.7,3.9,0l9.2,5.4C268.7,400.4,268.9,400.7,269.1,401z"
					/>
				<path id="_Path_51" class="st48" d="M247.8,413.6c0.5,0.9,0.2,2.1-0.8,2.6l-9.2,5.3c-1.2,0.7-2.7,0.7-3.9-0.1l-8.9-5.5
					c-0.3-0.2-0.5-0.4-0.7-0.7c-0.5-0.9-0.2-2.1,0.7-2.6l9-5.2c1.2-0.7,2.7-0.7,3.9,0l9.2,5.4C247.4,413,247.6,413.3,247.8,413.6z"
					/>
				<path id="_Path_52" class="st48" d="M228.4,424c0.5,0.9,0.2,2.1-0.7,2.6l-9.2,5.3c-1.2,0.7-2.7,0.7-3.9,0l-8.9-5.5
					c-0.3-0.2-0.5-0.4-0.7-0.7c-0.5-0.9-0.2-2.1,0.7-2.6l9-5.2c1.2-0.7,2.7-0.7,3.9,0l9.2,5.4C228,423.5,228.3,423.7,228.4,424z"/>
			</g>
			<g id="_Group_4">
				<path id="_Path_53" class="st48" d="M449,320.2c0.5,0.9,0.2,2.1-0.7,2.6l-9.2,5.3c-1.2,0.7-2.7,0.7-3.9,0l-8.9-5.5
					c-0.3-0.2-0.5-0.4-0.7-0.7c-0.5-0.9-0.3-2.1,0.7-2.6l9-5.2c1.2-0.7,2.7-0.7,3.9,0l9.2,5.4C448.6,319.7,448.8,319.9,449,320.2z"
					/>
				<path id="_Path_54" class="st48" d="M428.4,332.1c0.5,0.9,0.2,2.1-0.7,2.6l-9.2,5.3c-1.2,0.7-2.7,0.7-3.9,0l-8.9-5.5
					c-0.3-0.2-0.5-0.4-0.7-0.7c-0.5-0.9-0.2-2.1,0.7-2.6l9-5.2c1.2-0.7,2.7-0.7,3.9,0l9.2,5.4C428,331.6,428.2,331.8,428.4,332.1z"
					/>
				<path id="_Path_55" class="st48" d="M408.4,343.3c0.5,0.9,0.2,2.1-0.7,2.6l-9.2,5.3c-1.2,0.7-2.7,0.7-3.9,0l-8.9-5.5
					c-0.3-0.2-0.5-0.4-0.6-0.6c-0.6-0.9-0.3-2.1,0.6-2.7l9-5.2c1.2-0.7,2.7-0.7,3.9,0l9.2,5.4C408,342.8,408.2,343,408.4,343.3z"/>
				<path id="_Path_56" class="st48" d="M387.1,354.9c0.5,0.9,0.2,2.1-0.7,2.6l-9.2,5.3c-1.2,0.7-2.7,0.7-3.9,0l-8.9-5.5
					c-0.3-0.2-0.5-0.4-0.7-0.7c-0.5-0.9-0.3-2.1,0.7-2.6l9-5.2c1.2-0.7,2.7-0.7,3.9,0l9.2,5.4C386.7,354.3,387,354.6,387.1,354.9z"
					/>
				<path id="_Path_57" class="st48" d="M366.6,367c0.6,0.9,0.3,2.1-0.6,2.6l-47,27.1c-1.2,0.7-2.7,0.7-3.9,0l-8.9-5.5
					c-0.3-0.2-0.5-0.4-0.7-0.7c-0.5-0.9-0.2-2.1,0.7-2.6l46.8-27c1.2-0.7,2.7-0.7,3.9,0l9.2,5.4C366.2,366.6,366.4,366.8,366.6,367z
					"/>
				<path id="_Path_58" class="st48" d="M309.1,400.1c0.5,0.9,0.2,2.1-0.7,2.6l-9.2,5.3c-1.2,0.7-2.7,0.7-3.9,0l-8.9-5.5
					c-0.3-0.2-0.5-0.4-0.7-0.7c-0.5-0.9-0.3-2.1,0.7-2.6l9-5.2c1.2-0.7,2.7-0.7,3.9,0l9.2,5.4C308.7,399.6,308.9,399.8,309.1,400.1z
					"/>
				<path id="_Path_59" class="st48" d="M289.5,412.1c0.5,0.9,0.2,2.1-0.7,2.6l-9.2,5.3c-1.2,0.7-2.7,0.7-3.9,0l-8.9-5.5
					c-0.3-0.2-0.5-0.4-0.7-0.7c-0.5-0.9-0.3-2.1,0.7-2.6l9-5.2c1.2-0.7,2.7-0.7,3.9,0l9.2,5.4C289.1,411.6,289.4,411.8,289.5,412.1z
					"/>
				<path id="_Path_60" class="st48" d="M268.2,424.7c0.5,0.9,0.2,2.1-0.7,2.6l-9.2,5.3c-1.2,0.7-2.7,0.7-3.9,0l-8.9-5.5
					c-0.3-0.2-0.5-0.4-0.7-0.7c-0.5-0.9-0.3-2.1,0.7-2.6l9-5.2c1.2-0.7,2.7-0.7,3.9,0l9.2,5.4C267.8,424.1,268.1,424.4,268.2,424.7z
					"/>
				<path id="_Path_61" class="st48" d="M248.9,435.2c0.5,0.9,0.2,2.1-0.7,2.6L239,443c-1.2,0.7-2.7,0.7-3.9,0l-8.9-5.5
					c-0.3-0.2-0.5-0.4-0.7-0.7c-0.5-0.9-0.3-2.1,0.7-2.6l9-5.2c1.2-0.7,2.7-0.7,3.9,0l9.2,5.4C248.5,434.6,248.8,434.8,248.9,435.2z
					"/>
			</g>
		</g>
		<g id="Layer_18">
			<g id="_Group_5">
				<path id="_Path_62" class="st0" d="M1.7,478c-2.3,1.3-2.3,3.5,0,4.8L121,552c2.6,1.3,5.7,1.3,8.3,0l77.3-44.7
					c2.3-1.3,2.3-3.5,0-4.8L87,433.5c-2.6-1.3-5.7-1.3-8.3,0L1.7,478z"/>
				<path class="st1" d="M2.2,477.9c-2.3,1.3-2.3,3.5,0,4.8l118.7,68.9c2.6,1.3,5.7,1.3,8.2,0l77-44.4c2.3-1.3,2.3-3.5,0-4.8
					l-119-68.7c-2.6-1.3-5.7-1.3-8.3,0L2.2,477.9z"/>
				<path class="st2" d="M2.7,477.9c-2.3,1.3-2.3,3.5,0,4.8l118.2,68.6c2.6,1.3,5.6,1.3,8.2,0l76.6-44.2c2.3-1.3,2.3-3.4,0-4.8
					L87.2,433.8c-2.6-1.3-5.6-1.3-8.2,0L2.7,477.9z"/>
				<path class="st3" d="M3.2,477.8c-2.2,1.3-2.2,3.4,0,4.7l117.7,68.3c2.6,1.3,5.6,1.3,8.2,0l76.2-44c2.2-1.3,2.2-3.4,0-4.7
					L87.3,434c-2.6-1.3-5.6-1.3-8.2,0L3.2,477.8z"/>
				<path class="st4" d="M3.6,477.8c-2.2,1.3-2.2,3.4,0,4.7l117.1,68c2.6,1.3,5.6,1.3,8.1,0l75.9-43.8c2.2-1.3,2.2-3.4,0-4.7
					L87.4,434.1c-2.6-1.3-5.6-1.3-8.2,0L3.6,477.8z"/>
				<path class="st5" d="M4.1,477.7c-2.2,1.3-2.2,3.4,0,4.7L120.7,550c2.6,1.3,5.6,1.3,8.1,0l75.5-43.6c2.2-1.3,2.2-3.4,0-4.7
					L87.4,434.2c-2.6-1.3-5.6-1.3-8.1,0L4.1,477.7z"/>
				<path class="st6" d="M4.6,477.6c-2.2,1.3-2.2,3.3,0,4.7l116,67.3c2.5,1.3,5.5,1.3,8.1,0l75.2-43.4c2.2-1.3,2.2-3.3,0-4.7
					L87.5,434.4c-2.5-1.3-5.5-1.3-8.1,0L4.6,477.6z"/>
				<path class="st7" d="M5,477.6c-2.2,1.3-2.2,3.3,0,4.7l115.5,67c2.5,1.3,5.5,1.3,8,0l74.9-43.2c2.2-1.3,2.2-3.3,0-4.7L87.6,434.5
					c-2.5-1.3-5.5-1.3-8,0L5,477.6z"/>
				<path class="st8" d="M5.5,477.5c-2.2,1.3-2.2,3.3,0,4.6l114.9,66.7c2.5,1.3,5.5,1.3,8,0l74.5-43c2.2-1.3,2.2-3.3,0-4.6
					L87.7,434.7c-2.5-1.3-5.5-1.3-8,0L5.5,477.5z"/>
				<path class="st9" d="M6,477.4c-2.2,1.3-2.2,3.3,0,4.6l114.4,66.4c2.5,1.3,5.5,1.3,8,0l74.1-42.8c2.2-1.3,2.2-3.3,0-4.6
					L87.8,434.8c-2.5-1.3-5.5-1.3-8,0L6,477.4z"/>
				<path class="st10" d="M6.5,477.4c-2.2,1.3-2.2,3.3,0,4.6l113.8,66.1c2.5,1.2,5.4,1.2,7.9,0l73.8-42.6c2.2-1.3,2.2-3.3,0-4.6
					L87.8,435c-2.5-1.2-5.4-1.2-7.9,0L6.5,477.4z"/>
				<path class="st11" d="M6.9,477.3c-2.2,1.2-2.2,3.2,0,4.6l113.3,65.8c2.5,1.3,5.4,1.3,7.9,0l73.4-42.4c2.2-1.2,2.2-3.2,0-4.5
					L87.9,435.1c-2.5-1.2-5.4-1.2-7.9,0L6.9,477.3z"/>
				<path class="st12" d="M7.4,477.3c-2.2,1.2-2.2,3.3,0,4.5l112.8,65.4c2.5,1.3,5.4,1.3,7.9,0l73.1-42.2c2.2-1.2,2.2-3.3,0-4.5
					L88,435.3c-2.5-1.3-5.4-1.3-7.9,0L7.4,477.3z"/>
				<path class="st13" d="M7.8,477.2c-2.1,1.2-2.2,3.3,0,4.5l112.3,65.2c2.5,1.2,5.4,1.2,7.8,0l72.7-42c2.2-1.2,2.2-3.3,0-4.5
					l-112.5-65c-2.5-1.2-5.3-1.2-7.8,0L7.8,477.2z"/>
				<path class="st14" d="M8.3,477.2c-2.1,1.2-2.1,3.3,0,4.5L120,546.5c2.4,1.2,5.3,1.2,7.8,0l72.4-41.8c2.1-1.2,2.1-3.3,0-4.5
					l-112-64.7c-2.4-1.2-5.3-1.2-7.8,0L8.3,477.2z"/>
				<path class="st15" d="M8.8,477.1c-2.1,1.2-2.1,3.2,0,4.5l111.1,64.5c2.4,1.2,5.3,1.2,7.7,0l72-41.6c2.1-1.2,2.1-3.2,0-4.5
					L88.2,435.7c-2.4-1.2-5.3-1.2-7.7,0L8.8,477.1z"/>
				<path class="st16" d="M9.2,477c-2.1,1.2-2.1,3.2,0,4.5l110.6,64.2c2.4,1.2,5.3,1.2,7.7,0l71.7-41.4c2.1-1.2,2.1-3.2,0-4.4
					l-110.9-64c-2.4-1.2-5.3-1.2-7.7,0L9.2,477z"/>
				<path class="st17" d="M9.6,477c-2.1,1.2-2.1,3.2,0,4.4l110,63.9c2.4,1.2,5.3,1.2,7.7,0l71.4-41.2c2.1-1.2,2.1-3.2,0-4.4
					L88.4,436c-2.4-1.2-5.3-1.2-7.7,0L9.6,477z"/>
				<path class="st18" d="M10.2,476.9c-2.1,1.2-2.1,3.2,0,4.4l109.6,63.6c2.4,1.2,5.2,1.2,7.6,0l70.9-41c2.1-1.2,2.1-3.2,0-4.4
					L88.4,436.1c-2.4-1.2-5.2-1.2-7.6,0L10.2,476.9z"/>
				<path class="st19" d="M10.6,476.8c-2.1,1.2-2.1,3.2,0,4.4l109,63.3c2.4,1.2,5.2,1.2,7.6,0l70.6-40.7c2.1-1.2,2.1-3.2,0-4.4
					L88.5,436.3c-2.4-1.2-5.2-1.2-7.6,0L10.6,476.8z"/>
				<path class="st20" d="M11.1,476.8c-2.1,1.2-2.1,3.2,0,4.4l108.4,62.9c2.4,1.2,5.2,1.2,7.5,0l70.3-40.6c2.1-1.2,2.1-3.2,0-4.4
					L88.6,436.4c-2.4-1.2-5.2-1.2-7.6,0L11.1,476.8z"/>
				<path class="st21" d="M11.5,476.7c-2,1.2-2.1,3.2,0,4.3l107.9,62.6c2.4,1.2,5.1,1.2,7.5,0l69.9-40.4c2.1-1.2,2.1-3.1,0-4.3
					L88.7,436.6c-2.4-1.2-5.2-1.2-7.5,0L11.5,476.7z"/>
				<path class="st22" d="M12,476.6c-2,1.2-2,3.1,0,4.3l107.3,62.3c2.3,1.2,5.1,1.2,7.5,0l69.6-40.2c2.1-1.2,2.1-3.1,0-4.3
					L88.8,436.6c-2.3-1.2-5.1-1.2-7.5,0L12,476.6z"/>
				<path class="st23" d="M12.4,476.6c-2,1.2-2,3.1,0,4.3l106.8,62c2.3,1.2,5.1,1.2,7.4,0l69.2-40c2-1.2,2-3.1,0-4.3L88.8,436.8
					c-2.3-1.2-5.1-1.2-7.4,0L12.4,476.6z"/>
				<path class="st24" d="M13,476.5c-2,1.2-2,3.1,0,4.3l106.3,61.7c2.3,1.2,5.1,1.2,7.4,0l68.9-39.8c2-1.2,2-3.1,0-4.3L88.9,437
					c-2.3-1.2-5.1-1.2-7.4,0L13,476.5z"/>
				<path class="st25" d="M13.4,476.6c-2,1.2-2,3.1,0,4.3l105.7,61.3c2.3,1.2,5,1.2,7.4,0l68.5-39.6c2-1.2,2-3.1,0-4.3L89,437.1
					c-2.3-1.2-5.1-1.2-7.4,0L13.4,476.6z"/>
				<path class="st26" d="M13.9,476.5c-2,1.2-2,3.1,0,4.2l105.2,61c2.3,1.2,5,1.2,7.3,0l68.2-39.4c2-1.2,2-3.1,0-4.2L89.1,437.3
					c-2.3-1.2-5-1.2-7.3,0L13.9,476.5z"/>
				<path class="st27" d="M14.4,476.4c-2,1.2-2,3,0,4.2L119,541.3c2.3,1.2,5,1.2,7.3,0l67.8-39.1c2-1.2,2-3,0-4.2L89.2,437.4
					c-2.3-1.2-5-1.2-7.3,0L14.4,476.4z"/>
				<path class="st28" d="M14.8,476.3c-2,1.2-2,3,0,4.2L118.9,541c2.3,1.2,5,1.2,7.3,0l67.5-38.9c2-1.1,2-3,0-4.2L89.2,437.6
					c-2.3-1.2-5-1.2-7.3,0L14.8,476.3z"/>
				<path class="st29" d="M15.3,476.3c-2,1.1-2,3,0,4.2l103.5,60.1c2.3,1.1,4.9,1.1,7.2,0l67.1-38.7c2-1.2,2-3,0-4.2L89.3,437.7
					c-2.3-1.2-4.9-1.2-7.2,0L15.3,476.3z"/>
				<path class="st30" d="M15.7,476.2c-2,1.1-2,3,0,4.1l103.1,59.8c2.2,1.1,4.9,1.1,7.2,0l66.8-38.5c2-1.1,2-3,0-4.1L89.4,437.8
					c-2.3-1.1-4.9-1.1-7.2,0L15.7,476.2z"/>
				<path class="st31" d="M16.2,476.1c-2,1.1-2,3,0,4.1l102.5,59.5c2.2,1.1,4.9,1.1,7.1,0l66.4-38.3c2-1.1,2-3,0-4.1L89.5,438
					c-2.2-1.1-4.9-1.1-7.1,0L16.2,476.1z"/>
				<path class="st32" d="M16.6,476.1c-1.9,1.1-1.9,3,0,4.1l101.9,59.1c2.2,1.1,4.9,1.1,7.1,0l66.1-38.1c1.9-1.1,1.9-3,0-4.1
					l-102.2-59c-2.2-1.1-4.9-1.1-7.1,0L16.6,476.1z"/>
				<path class="st33" d="M17.2,476.1c-1.9,1.1-1.9,3,0,4.1L118.5,539c2.2,1.1,4.8,1.1,7.1,0l65.7-37.9c1.9-1.1,1.9-3,0-4.1
					L89.6,438.3c-2.2-1.1-4.8-1.1-7.1,0L17.2,476.1z"/>
				<path class="st34" d="M17.6,475.9c-1.9,1.1-1.9,2.9,0,4.1l100.9,58.6c2.2,1.1,4.8,1.1,7,0l65.4-37.7c1.9-1.1,1.9-2.9,0-4.1
					L89.7,438.4c-2.2-1.1-4.8-1.1-7,0L17.6,475.9z"/>
				<path class="st35" d="M18.1,476c-1.9,1.1-1.9,2.9,0,4l100.3,58.2c2.2,1.1,4.8,1.1,7,0l65-37.5c1.9-1.1,1.9-2.9,0-4L89.8,438.6
					c-2.2-1.1-4.8-1.1-7,0L18.1,476z"/>
				<path class="st36" d="M18.5,475.9c-1.9,1.1-1.9,2.9,0,4l99.8,57.9c2.2,1.1,4.8,1.1,6.9,0l64.6-37.3c1.9-1.1,1.9-2.9,0-4
					l-100-57.8c-2.2-1.1-4.8-1.1-6.9,0L18.5,475.9z"/>
				<path class="st37" d="M19,475.8c-1.9,1-1.9,2.8,0,3.9l99.2,57.6c2.2,1.1,4.7,1.1,6.9,0l64.3-37.1c1.9-1.1,1.9-2.8,0-3.9
					l-99.5-57.4c-2.2-1.1-4.7-1.1-6.9,0L19,475.8z"/>
				<path class="st38" d="M19.5,475.8c-1.9,1.1-1.9,2.8,0,3.9l98.7,57.3c2.2,1.1,4.7,1.1,6.9,0l63.9-36.9c1.9-1.1,1.9-2.9,0-3.9
					L90,439c-2.2-1.1-4.7-1.1-6.9,0L19.5,475.8z"/>
				<path class="st39" d="M19.9,475.8c-1.9,1.1-1.9,2.9,0,3.9l98.1,56.9c2.1,1.1,4.7,1.1,6.8,0l63.6-36.8c1.9-1.1,1.9-2.9,0-3.9
					l-98.4-56.8c-2.1-1.1-4.7-1.1-6.8,0L19.9,475.8z"/>
				<path class="st40" d="M20.3,475.6c-1.9,1.1-1.9,2.9,0,3.9l97.6,56.6c2.1,1.1,4.7,1.1,6.8,0l63.3-36.5c1.9-1.1,1.9-2.9,0-3.9
					l-97.8-56.5c-2.1-1.1-4.7-1.1-6.8,0L20.3,475.6z"/>
				<path id="_Path_63" class="st41" d="M20.9,475.6c-1.9,1.1-1.9,2.9,0,3.9l97,56.3c2.1,1.1,4.6,1.1,6.8,0l62.8-36.3
					c1.9-1.1,1.9-2.9,0-3.9l-97.3-56.2c-2.1-1.1-4.6-1.1-6.8,0L20.9,475.6z"/>
				
					<linearGradient id="_Path_64_1_" gradientUnits="userSpaceOnUse" x1="272.5536" y1="-84.3373" x2="470.639" y2="-84.3373" gradientTransform="matrix(-1 0 0 -1 477.9312 404.4)">
					<stop  offset="1.000000e-02" style="stop-color:#EFF1F8"/>
					<stop  offset="0.18" style="stop-color:#DBDFF0"/>
					<stop  offset="0.53" style="stop-color:#B7C1E3"/>
					<stop  offset="0.82" style="stop-color:#A1AEDB"/>
					<stop  offset="1" style="stop-color:#99A7D8"/>
				</linearGradient>
				<path id="_Path_64" class="st49" d="M7.3,474.4v1.7c0,1.4,0.7,2.6,1.9,3.3l113.1,65.7c2.5,1.3,5.4,1.3,7.9,0l73.9-42.6
					c0.8-0.5,1.3-1.3,1.3-2.2v-2.2c0-0.5-0.3-1-0.7-1.2L90,432.4c-2.5-1.2-5.4-1.2-7.9,0L7.3,474.4z"/>
				<path id="_Path_65" class="st44" d="M8.9,472c-2.2,1.2-2.2,3.2,0,4.6l113.4,65.8c2.5,1.3,5.4,1.3,7.9,0l73.5-42.4
					c2.2-1.2,2.2-3.2,0-4.6L90,429.7c-2.5-1.3-5.4-1.3-7.9,0L8.9,472z"/>
				<polygon id="_Path_66" class="st48" points="124.5,457.7 61.1,494.4 28.6,476.1 92.3,439.3 				"/>
				<polygon id="_Path_67" class="st47" points="163.6,481.3 135,498 98.8,477.5 127.7,460.6 				"/>
				<polygon id="_Path_68" class="st50" points="129.5,501.2 100.9,517.9 64.6,497.4 93.6,480.6 				"/>
				<polygon id="_Path_69" class="st51" points="179.2,489.3 110.1,529 106.6,527 175.8,487.3 				"/>
				<polygon id="_Path_70" class="st51" points="172.6,502.5 136.3,523.3 132.8,521.3 169.2,500.4 				"/>
			</g>
			<g>
				<path id="_Path_71" class="st0" d="M598.6,452.2l-35.9,20.7c-1.5,0.8-3.3,0.8-4.9,0l-70.2-40.5c-1.6-0.9-2.1-2.9-1.3-4.5
					l0.2-0.4c0.2-0.4,0.5-0.7,0.8-0.9l37.5-21.6c1.4-0.6,3-0.4,4.3,0.5l71.5,42v1.3C600.5,450.2,599.8,451.5,598.6,452.2z"/>
				<path class="st1" d="M598.4,452l-35.8,20.6c-1.5,0.8-3.3,0.8-4.9,0l-70-40.3c-1.5-0.9-2.1-2.9-1.3-4.5l0.2-0.4
					c0.2-0.4,0.5-0.7,0.8-0.9l37.4-21.5c1.4-0.6,3-0.4,4.3,0.5l71.2,41.8v1.3C600.3,450.1,599.6,451.3,598.4,452z"/>
				<path class="st2" d="M598.2,451.9l-35.7,20.5c-1.5,0.8-3.3,0.8-4.8,0L488,432.3c-1.5-0.9-2.1-2.9-1.3-4.5l0.2-0.4
					c0.2-0.4,0.5-0.7,0.8-0.9l37.3-21.4c1.4-0.6,3-0.4,4.2,0.5l70.9,41.7v1.3C600.2,449.9,599.4,451.2,598.2,451.9z"/>
				<path class="st3" d="M598,451.8l-35.5,20.5c-1.5,0.8-3.3,0.8-4.8,0l-69.4-40.1c-1.6-0.9-2.2-2.8-1.4-4.5l0.2-0.4
					c0.2-0.4,0.5-0.7,0.8-0.9l37.1-21.3c1.4-0.6,3-0.4,4.2,0.5l70.7,41.6v1.3C600,449.9,599.2,451.1,598,451.8z"/>
				<path class="st4" d="M598,451.7l-35.5,20.4c-1.5,0.8-3.3,0.8-4.8,0l-69.3-40c-1.5-0.9-2.1-2.9-1.3-4.5l0.2-0.4
					c0.2-0.4,0.5-0.7,0.8-0.9l37-21.3c1.4-0.6,3-0.4,4.2,0.5l70.5,41.4v1.3C599.9,449.7,599.2,451,598,451.7z"/>
				<path class="st5" d="M597.8,451.6l-35.3,20.3c-1.5,0.8-3.3,0.8-4.8,0l-69-39.8c-1.5-0.9-2.1-2.8-1.3-4.4l0.2-0.4
					c0.2-0.4,0.5-0.7,0.8-0.9l36.9-21.2c1.4-0.6,3-0.4,4.2,0.5l70.3,41.3v1.3C599.7,449.6,599,450.9,597.8,451.6z"/>
				<path class="st6" d="M597.6,451.5l-35.3,20.2c-1.5,0.8-3.3,0.8-4.8,0l-68.7-39.6c-1.5-0.9-2.1-2.8-1.3-4.4l0.2-0.4
					c0.2-0.4,0.5-0.7,0.8-0.9l36.8-21.1c1.4-0.6,3-0.4,4.2,0.5l70,41.1v1.3C599.5,449.5,598.8,450.8,597.6,451.5z"/>
				<path class="st7" d="M597.4,451.4l-35,20.2c-1.5,0.8-3.3,0.8-4.8,0L489.1,432c-1.5-0.9-2.1-2.8-1.3-4.4l0.2-0.4
					c0.2-0.4,0.5-0.7,0.8-0.9l36.6-21c1.4-0.6,3-0.4,4.2,0.5l69.8,41v1.3C599.4,449.4,598.6,450.7,597.4,451.4z"/>
				<path class="st8" d="M597.2,451.3l-34.9,20.1c-1.5,0.8-3.3,0.8-4.8,0L489.3,432c-1.5-0.9-2.1-2.8-1.3-4.4l0.2-0.4
					c0.2-0.4,0.5-0.7,0.8-0.9l36.5-21c1.4-0.6,2.9-0.4,4.1,0.5l69.5,40.8v1.3C599.2,449.3,598.4,450.6,597.2,451.3z"/>
				<path class="st9" d="M597.1,451.1l-34.8,20.1c-1.5,0.7-3.2,0.7-4.7,0l-68-39.3c-1.5-0.9-2.1-2.8-1.3-4.4l0.2-0.4
					c0.2-0.4,0.5-0.7,0.8-0.9l36.4-20.9c1.4-0.6,2.9-0.4,4.1,0.5l69.3,40.7v1.3C599,449.2,598.3,450.4,597.1,451.1z"/>
				<path class="st10" d="M597,451l-34.7,20c-1.5,0.7-3.2,0.7-4.7,0l-67.8-39.1c-1.5-0.9-2.1-2.8-1.3-4.4l0.2-0.4
					c0.2-0.4,0.4-0.7,0.8-0.9l36.2-20.8c1.4-0.6,2.9-0.4,4.1,0.5l69,40.5v1.3C598.9,449.1,598.1,450.3,597,451z"/>
				<path class="st11" d="M596.8,450.9l-34.5,19.9c-1.5,0.7-3.2,0.7-4.7,0l-67.5-39c-1.5-0.9-2.1-2.8-1.3-4.3l0.2-0.4
					c0.2-0.4,0.5-0.7,0.8-0.8l36.1-20.7c1.4-0.6,2.9-0.4,4.1,0.5l68.8,40.4v1.3C598.7,449,598,450.2,596.8,450.9z"/>
				<path class="st12" d="M596.6,450.8l-34.4,19.8c-1.5,0.7-3.2,0.7-4.7,0l-67.3-38.9c-1.5-0.9-2.1-2.8-1.3-4.3l0.2-0.4
					c0.2-0.4,0.5-0.7,0.8-0.9l36-20.6c1.3-0.6,2.9-0.4,4.1,0.5l68.5,40.3v1.3C598.5,448.9,597.8,450.1,596.6,450.8z"/>
				<path class="st13" d="M596.4,450.7l-34.3,19.7c-1.5,0.7-3.2,0.7-4.7,0l-67-38.7c-1.5-0.9-2.1-2.8-1.3-4.3l0.2-0.4
					c0.2-0.4,0.4-0.7,0.8-0.9l35.8-20.6c1.3-0.6,2.9-0.4,4.1,0.4l68.3,40.1v1.3C598.4,448.8,597.6,450,596.4,450.7z"/>
				<path class="st14" d="M596.3,450.5l-34.2,19.7c-1.5,0.7-3.2,0.7-4.6,0l-66.8-38.5c-1.5-0.9-2.1-2.7-1.3-4.3l0.2-0.4
					c0.2-0.4,0.4-0.7,0.8-0.9l35.7-20.6c1.3-0.6,2.9-0.4,4.1,0.5l68,40v1.3C598.2,448.6,597.5,449.9,596.3,450.5z"/>
				<path class="st15" d="M596.2,450.4l-34,19.6c-1.5,0.7-3.2,0.7-4.6,0l-66.5-38.4c-1.5-0.9-2.1-2.7-1.3-4.3l0.2-0.4
					c0.2-0.4,0.4-0.6,0.8-0.8l35.6-20.6c1.3-0.6,2.9-0.4,4,0.4l67.8,39.8v1.3C598.1,448.5,597.3,449.8,596.2,450.4z"/>
				<path class="st16" d="M596,450.3l-33.9,19.5c-1.4,0.7-3.2,0.7-4.6,0l-66.3-38.3c-1.5-0.9-2.1-2.7-1.3-4.3l0.2-0.4
					c0.2-0.4,0.4-0.6,0.8-0.8l35.5-20.3c1.3-0.6,2.9-0.4,4,0.4l67.5,39.7v1.3C597.9,448.5,597.1,449.7,596,450.3z"/>
				<path class="st17" d="M595.8,450.2l-33.7,19.4c-1.4,0.7-3.1,0.7-4.6,0l-66.1-38.1c-1.5-0.9-2.1-2.7-1.3-4.3l0.2-0.4
					c0.2-0.4,0.4-0.6,0.8-0.8l35.3-20.3c1.3-0.6,2.8-0.4,3.9,0.4l67.3,39.5v1.3C597.7,448.3,597,449.5,595.8,450.2z"/>
				<path class="st18" d="M595.7,450.1L562,469.5c-1.4,0.7-3.1,0.7-4.6,0l-65.9-38c-1.5-0.8-2.1-2.7-1.3-4.2l0.2-0.4
					c0.2-0.4,0.4-0.6,0.8-0.8l35.3-20.3c1.3-0.6,2.8-0.4,3.9,0.4l67.1,39.4v1.3C597.5,448.2,596.8,449.4,595.7,450.1z"/>
				<path class="st19" d="M595.5,450L562,469.3c-1.4,0.7-3.1,0.7-4.6,0l-65.5-37.8c-1.5-0.8-2-2.7-1.3-4.2l0.2-0.4
					c0.2-0.3,0.4-0.6,0.8-0.8l35.1-20.1c1.3-0.6,2.8-0.4,3.9,0.4l66.8,39.2v1.3C597.4,448.1,596.7,449.3,595.5,450z"/>
				<path class="st20" d="M595.4,449.9l-33.4,19.3c-1.4,0.7-3.1,0.7-4.5,0l-65.3-37.7c-1.5-0.8-2-2.7-1.3-4.2l0.2-0.4
					c0.2-0.3,0.4-0.6,0.8-0.8l34.9-20.1c1.3-0.6,2.8-0.4,3.9,0.4l66.6,39.1v1.2C597.2,448,596.5,449.2,595.4,449.9z"/>
				<path class="st21" d="M595.2,449.8l-33.3,19.1c-1.4,0.7-3.1,0.7-4.5,0l-65.1-37.5c-1.5-0.8-2-2.7-1.3-4.2l0.2-0.4
					c0.2-0.3,0.4-0.6,0.8-0.8l34.8-20c1.3-0.6,2.8-0.4,3.9,0.4l66.3,38.9v1.2C597.1,447.9,596.4,449.1,595.2,449.8z"/>
				<path class="st22" d="M595,449.6l-33.1,19.1c-1.4,0.7-3.1,0.7-4.5,0l-64.8-37.4c-1.5-0.8-2-2.7-1.3-4.2l0.2-0.4
					c0.2-0.3,0.4-0.6,0.8-0.8l34.7-19.9c1.3-0.6,2.8-0.4,3.9,0.4l66.1,38.8v1.2C596.9,447.8,596.1,449,595,449.6z"/>
				<path class="st23" d="M594.9,449.5l-33.1,19c-1.4,0.7-3.1,0.7-4.5,0l-64.6-37.3c-1.5-0.8-2-2.6-1.3-4.2l0.2-0.4
					c0.2-0.3,0.4-0.6,0.8-0.8l34.6-19.8c1.3-0.6,2.8-0.4,3.9,0.4l65.8,38.7v1.2C596.7,447.7,596,448.9,594.9,449.5z"/>
				<path class="st24" d="M594.7,449.4l-32.9,18.9c-1.4,0.7-3.1,0.7-4.5,0L493,431.2c-1.5-0.8-2-2.6-1.3-4.2l0.2-0.4
					c0.2-0.3,0.4-0.6,0.8-0.8l34.4-19.7c1.3-0.6,2.8-0.4,3.9,0.4l65.6,38.5v1.2C596.5,447.6,595.9,448.8,594.7,449.4z"/>
				<path class="st25" d="M594.6,449.3l-32.8,18.9c-1.4,0.7-3.1,0.7-4.5,0l-64.1-37c-1.5-0.8-2-2.6-1.3-4.1l0.2-0.4
					c0.2-0.3,0.4-0.6,0.8-0.8l34.3-19.7c1.3-0.6,2.8-0.4,3.9,0.4l65.3,38.4v1.2C596.4,447.5,595.7,448.6,594.6,449.3z"/>
				<path class="st26" d="M594.4,449.2L561.7,468c-1.4,0.7-3,0.7-4.4,0l-63.9-36.9c-1.4-0.8-2-2.6-1.3-4.1l0.2-0.4
					c0.2-0.3,0.4-0.6,0.7-0.8l34.2-19.6c1.3-0.6,2.8-0.4,3.9,0.4l65.1,38.2v1.2C596.2,447.4,595.5,448.5,594.4,449.2z"/>
				<path class="st27" d="M594.3,449.1l-32.6,18.8c-1.4,0.7-3,0.7-4.4,0l-63.6-36.8c-1.5-0.8-2-2.6-1.3-4.1l0.2-0.4
					c0.2-0.3,0.4-0.6,0.7-0.8l34-19.5c1.3-0.5,2.7-0.4,3.9,0.4l64.8,38.1v1.2C596.1,447.3,595.4,448.4,594.3,449.1z"/>
				<path class="st28" d="M594.1,449l-32.4,18.7c-1.4,0.7-3,0.7-4.4,0L493.8,431c-1.4-0.8-2-2.6-1.2-4.1l0.2-0.4
					c0.2-0.3,0.4-0.6,0.7-0.8l33.9-19.5c1.3-0.6,2.7-0.4,3.8,0.4l64.6,37.9v1.2C595.9,447.1,595.2,448.3,594.1,449z"/>
				<path class="st29" d="M593.9,448.8l-32.3,18.6c-1.4,0.7-3,0.7-4.4,0l-63.1-36.5c-1.4-0.8-2-2.6-1.3-4.1l0.2-0.4
					c0.2-0.3,0.4-0.6,0.7-0.8l33.8-19.4c1.3-0.6,2.7-0.4,3.8,0.4l64.4,37.8v1.2C595.7,447,595,448.2,593.9,448.8z"/>
				<path class="st30" d="M593.8,448.7l-32.2,18.5c-1.4,0.7-3,0.7-4.4,0L494.3,431c-1.4-0.8-2-2.6-1.3-4.1l0.2-0.4
					c0.2-0.3,0.4-0.6,0.7-0.8l33.7-19.3c1.3-0.6,2.7-0.4,3.8,0.4l64.1,37.7v1.1C595.6,446.9,594.9,448.1,593.8,448.7z"/>
				<path class="st31" d="M593.7,448.6l-32.1,18.5c-1.4,0.7-3,0.7-4.4,0l-62.7-36.2c-1.4-0.8-1.9-2.6-1.2-4l0.2-0.4
					c0.2-0.3,0.4-0.6,0.7-0.8l33.5-19.2c1.3-0.6,2.7-0.4,3.8,0.4l63.9,37.5v1.2C595.4,446.8,594.7,448,593.7,448.6z"/>
				<path class="st32" d="M593.5,448.5l-32,18.4c-1.4,0.7-3,0.7-4.3,0l-62.4-36c-1.4-0.8-1.9-2.6-1.2-4l0.2-0.4
					c0.2-0.3,0.4-0.6,0.7-0.8l33.4-19.2c1.2-0.5,2.7-0.4,3.8,0.4l63.6,37.4v1.2C595.2,446.7,594.5,447.8,593.5,448.5z"/>
				<path class="st33" d="M593.3,448.4l-31.8,18.3c-1.4,0.7-3,0.7-4.3,0l-62.3-35.9c-1.4-0.8-1.9-2.6-1.2-4l0.2-0.4
					c0.2-0.3,0.4-0.6,0.7-0.8l33.3-19.1c1.2-0.5,2.7-0.4,3.8,0.4l63.4,37.2v1.2C595,446.6,594.4,447.7,593.3,448.4z"/>
				<path class="st34" d="M593.2,448.3l-31.7,18.3c-1.4,0.7-3,0.7-4.3,0l-62-35.8c-1.4-0.8-1.9-2.5-1.2-3.9l0.2-0.4
					c0.2-0.3,0.4-0.6,0.7-0.8l33.1-19c1.2-0.5,2.7-0.4,3.8,0.4l63.1,37.1v1.2C594.9,446.5,594.2,447.6,593.2,448.3z"/>
				<path class="st35" d="M593,448.1l-31.5,18.2c-1.4,0.7-2.9,0.7-4.3,0l-61.7-35.6c-1.4-0.8-1.9-2.5-1.2-3.9l0.2-0.4
					c0.2-0.3,0.4-0.6,0.7-0.8l33-19c1.2-0.5,2.7-0.4,3.8,0.4l62.9,36.9v1.2C594.7,446.4,594,447.5,593,448.1z"/>
				<path class="st36" d="M592.9,448l-31.5,18.1c-1.3,0.7-2.9,0.7-4.3,0l-61.5-35.5c-1.4-0.8-1.9-2.5-1.2-3.9l0.2-0.4
					c0.2-0.3,0.4-0.6,0.7-0.8l32.8-18.9c1.2-0.5,2.7-0.4,3.7,0.4l62.6,36.8v1.2C594.6,446.3,594,447.4,592.9,448z"/>
				<path class="st37" d="M592.7,447.9l-31.4,18c-1.3,0.7-2.9,0.7-4.3,0l-61.2-35.3c-1.4-0.8-1.9-2.5-1.2-3.9l0.2-0.4
					c0.2-0.3,0.4-0.6,0.7-0.8l32.8-18.8c1.2-0.5,2.6-0.4,3.7,0.4l62.5,36.7v1.2C594.4,446.2,593.7,447.3,592.7,447.9z"/>
				<path class="st38" d="M592.5,447.8l-31.2,18c-1.3,0.7-2.9,0.7-4.2,0l-61-35.2c-1.4-0.8-1.9-2.5-1.2-3.9l0.2-0.4
					c0.2-0.3,0.4-0.6,0.7-0.8l32.6-18.7c1.2-0.5,2.6-0.4,3.7,0.4l62.1,36.5v1.2C594.2,446.1,593.6,447.2,592.5,447.8z"/>
				<path class="st39" d="M592.4,447.7l-31.1,17.9c-1.3,0.7-2.9,0.7-4.2,0l-60.8-35c-1.4-0.8-1.9-2.5-1.2-3.9l0.2-0.4
					c0.2-0.3,0.4-0.6,0.7-0.8l32.5-18.7c1.2-0.5,2.6-0.4,3.7,0.4l61.9,36.4v1.2C594.1,446,593.4,447.1,592.4,447.7z"/>
				<path class="st40" d="M592.2,447.6l-31,17.8c-1.3,0.7-2.9,0.7-4.2,0l-60.5-34.9c-1.4-0.8-1.9-2.5-1.2-3.9l0.2-0.4
					c0.2-0.3,0.4-0.6,0.7-0.8l32.4-18.6c1.2-0.5,2.6-0.4,3.7,0.4l61.7,36.2v1.2C593.9,445.8,593.2,447,592.2,447.6z"/>
				<path id="_Path_72" class="st41" d="M592,447.5l-30.8,17.8c-1.3,0.7-2.9,0.7-4.2,0l-60.2-34.7c-1.4-0.8-1.9-2.5-1.2-3.9l0.2-0.4
					c0.2-0.3,0.4-0.6,0.7-0.8l32.1-18.5c1.2-0.5,2.6-0.4,3.7,0.4l61.4,36.1v1.1C593.7,445.7,593.1,446.8,592,447.5z"/>
			</g>
			
				<linearGradient id="_Path_73_1_" gradientUnits="userSpaceOnUse" x1="-121.1997" y1="-32.388" x2="-11.6494" y2="-32.388" gradientTransform="matrix(-1 0 0 -1 477.9312 404.4)">
				<stop  offset="0" style="stop-color:#D3DAED"/>
				<stop  offset="1" style="stop-color:#99A7D8"/>
			</linearGradient>
			<path id="_Path_73" class="st52" d="M597.2,449.4l-34.3,19.7c-1.5,0.7-3.2,0.7-4.7,0l-67-38.7c-1.5-0.9-2.1-2.8-1.3-4.3l0.2-0.4
				c0.2-0.4,0.4-0.6,0.8-0.8l35.8-20.6c1.3-0.6,2.9-0.4,4.1,0.5l68.3,40.1v1.3C599.1,447.5,598.4,448.7,597.2,449.4z"/>
			<path id="_Path_74" class="st53" d="M563,466.2c-1.5,0.7-3.2,0.7-4.7,0l-67.1-38.8c-0.4-0.1-0.7-0.5-0.9-0.9
				c-0.3-0.7,0.1-1.6,0.9-1.8l35.2-20.3c1.5-0.7,3.2-0.7,4.7,0l67.1,38.8c0.4,0.1,0.7,0.5,0.9,0.9c0.3,0.7-0.1,1.6-0.9,1.8
				L563,466.2z"/>
			<polygon id="_Path_75" class="st48" points="554.6,461.5 499.1,429.2 534.6,408.7 590.1,441 			"/>
			<g id="_Group_6">
				<path class="st54" d="M508.3,419.6C508.3,419.6,508.3,419.5,508.3,419.6c-0.1-0.3,0-0.6,0.3-0.7l9.2-5.3c0,0,0,0,0.1,0
					c0.3-0.1,0.6,0,0.7,0.2c0.1,0.3,0,0.6-0.2,0.7l-9.2,5.3c-0.1,0-0.2,0.1-0.3,0.1C508.6,419.9,508.4,419.8,508.3,419.6z"/>
			</g>
			<ellipse id="_Path_76" class="st55" cx="576.7" cy="453.8" rx="4.1" ry="2.4"/>
			<g>
				<g class="st56">
					<path id="_Path_77" class="st44" d="M518.2,489.2c3.5,2,3.5,5.4,0,7.4L474.4,522c-4,2-8.7,2-12.6-0.1l-29.8-17.7
						c-3.5-2.1-3.5-5.4,0-7.4l43.8-25.2c4-2,8.7-2,12.7,0.1L518.2,489.2z"/>
				</g>
				<g class="st57">
					<path class="st58" d="M517.9,489.3c3.5,2.1,3.5,5.3,0,7.3l-43.4,25.1c-4,2-8.6,2-12.5-0.1l-29.6-17.6c-3.5-2.1-3.5-5.3,0-7.3
						l43.5-25c4-2,8.6-2,12.6,0.1L517.9,489.3z"/>
				</g>
				<g class="st59">
					<path class="st60" d="M517.5,489.3c3.5,2,3.4,5.3,0,7.3l-43.1,24.9c-3.9,2-8.5,2-12.4-0.1L432.7,504c-3.5-2-3.4-5.3,0-7.3
						l43.1-24.7c3.9-2,8.6-1.9,12.5,0.1L517.5,489.3z"/>
				</g>
				<g class="st61">
					<path class="st62" d="M517.1,489.3c3.4,1.9,3.4,5.2,0,7.2l-42.8,24.7c-3.9,2-8.5,1.9-12.3-0.1l-29-17.3c-3.4-1.9-3.4-5.2,0-7.2
						l42.8-24.6c3.9-2,8.5-1.9,12.4,0.1L517.1,489.3z"/>
				</g>
				<g class="st63">
					<path class="st64" d="M517,489.3c3.4,2,3.4,5.2,0,7.1l-42.4,24.5c-3.9,1.9-8.4,1.9-12.2-0.1l-28.9-17.1c-3.4-2-3.4-5.2,0-7.1
						l42.4-24.3c3.9-1.9,8.4-1.9,12.3,0.1L517,489.3z"/>
				</g>
				<g class="st65">
					<path class="st66" d="M516.5,489.3c3.3,2,3.3,5.1,0,7.1l-42,24.3c-3.8,1.9-8.3,1.9-12.1-0.1l-28.6-17c-3.4-2-3.3-5.2,0-7.1
						l42-24.1c3.8-1.9,8.3-1.9,12.1,0.1L516.5,489.3z"/>
				</g>
				<g class="st67">
					<path class="st68" d="M516.1,489.3c3.3,1.9,3.3,5.1,0,7l-41.8,24c-3.8,1.9-8.2,1.9-12,0l-28.2-16.8c-3.3-2-3.3-5.1,0-7
						l41.7-23.9c3.8-1.9,8.3-1.9,12,0.1L516.1,489.3z"/>
				</g>
				<g class="st69">
					<path class="st70" d="M515.7,489.4c3.3,1.9,3.3,5.1,0,7l-41.3,23.9c-3.8,1.9-8.2,1.9-11.9-0.1l-28.1-16.7c-3.3-1.9-3.3-5.1,0-7
						l41.3-23.6c3.8-1.9,8.2-1.9,11.9,0L515.7,489.4z"/>
				</g>
				<g class="st71">
					<path class="st72" d="M515.4,489.4c3.3,1.9,3.3,5,0,6.9l-41,23.6c-3.7,1.9-8.1,1.9-11.8-0.1l-27.8-16.5c-3.3-1.9-3.3-5,0-6.9
						l41-23.4c3.7-1.9,8.1-1.9,11.8,0L515.4,489.4z"/>
				</g>
				<g class="st73">
					<path class="st74" d="M515,489.4c3.2,1.9,3.2,5,0,6.8l-40.6,23.5c-3.7,1.9-8,1.8-11.7-0.1l-27.6-16.4c-3.3-1.9-3.2-5,0-6.8
						l40.6-23.3c3.7-1.9,8-1.9,11.7,0L515,489.4z"/>
				</g>
				<g class="st75">
					<path class="st76" d="M514.7,489.5c3.2,1.9,3.2,4.9,0,6.8l-40.3,23.3c-3.7,1.8-8,1.8-11.6-0.1l-27.3-16.3
						c-3.2-1.9-3.2-4.9,0-6.8l40.2-23.1c3.7-1.8,8-1.8,11.6,0.1L514.7,489.5z"/>
				</g>
				<g class="st77">
					<path class="st78" d="M514.3,489.4c3.2,1.9,3.2,4.9,0,6.7l-39.8,23c-3.6,1.8-7.9,1.8-11.5-0.1L435.9,503
						c-3.2-1.9-3.2-4.9,0-6.7l39.9-22.9c3.6-1.8,7.9-1.8,11.5,0.1L514.3,489.4z"/>
				</g>
				<g class="st79">
					<path class="st80" d="M514,489.4c3.2,1.8,3.2,4.8,0,6.6l-39.5,22.8c-3.6,1.8-7.8,1.8-11.4-0.1l-26.9-15.9
						c-3.2-1.9-3.2-4.9,0-6.7l39.5-22.7c3.6-1.8,7.8-1.8,11.4,0.1L514,489.4z"/>
				</g>
				<g class="st81">
					<path class="st82" d="M513.5,489.5c3.1,1.8,3.1,4.8,0,6.6l-39.1,22.5c-3.6,1.8-7.8,1.8-11.3-0.1l-26.6-15.8
						c-3.1-1.8-3.1-4.8,0-6.6l39.2-22.5c3.6-1.8,7.8-1.8,11.3,0.1L513.5,489.5z"/>
				</g>
				<g class="st83">
					<path class="st84" d="M513.3,489.4c3.1,1.8,3.1,4.8,0,6.6l-38.8,22.4c-3.5,1.8-7.7,1.8-11.2-0.1l-26.3-15.6
						c-3.1-1.8-3.1-4.8,0-6.6l38.8-22.3c3.5-1.8,7.7-1.8,11.2,0L513.3,489.4z"/>
				</g>
				<g class="st85">
					<path class="st86" d="M512.9,489.5c3.1,1.8,3.1,4.7,0,6.5l-38.5,22.2c-3.5,1.8-7.6,1.7-11.1-0.1l-26.1-15.5
						c-3.1-1.8-3.1-4.7,0-6.5l38.5-22.1c3.5-1.8,7.6-1.8,11.1,0L512.9,489.5z"/>
				</g>
				<g class="st87">
					<path class="st88" d="M512.6,489.5c3,1.8,3,4.7,0,6.4l-38.1,22c-3.5,1.8-7.6,1.7-11-0.1l-25.9-15.4c-3.1-1.8-3-4.7,0-6.4
						l38.1-21.9c3.5-1.7,7.6-1.7,11,0.1L512.6,489.5z"/>
				</g>
				<g class="st89">
					<path class="st90" d="M512.2,489.5c3,1.8,3,4.6,0,6.4l-37.7,21.8c-3.4,1.7-7.5,1.7-10.9-0.1L438,502.4c-3-1.8-3-4.6,0-6.4
						l37.7-21.7c3.4-1.7,7.5-1.7,10.9,0.1L512.2,489.5z"/>
				</g>
				<g class="st91">
					<path class="st92" d="M511.8,489.5c3,1.7,3,4.6,0,6.3l-37.4,21.6c-3.4,1.7-7.4,1.7-10.8-0.1l-25.3-15.1c-3-1.7-3-4.6,0-6.3
						l37.4-21.5c3.4-1.7,7.4-1.7,10.8,0.1L511.8,489.5z"/>
				</g>
				<g class="st93">
					<path class="st94" d="M511.5,489.5c3,1.7,2.9,4.5,0,6.2l-37,21.3c-3.4,1.7-7.3,1.7-10.7,0l-25.2-14.9c-3-1.7-3-4.5,0-6.2
						l37-21.2c3.4-1.7,7.3-1.7,10.7,0.1L511.5,489.5z"/>
				</g>
				<g class="st95">
					<path class="st96" d="M511.1,489.6c2.9,1.7,2.9,4.5,0,6.2l-36.7,21.1c-3.3,1.7-7.2,1.6-10.5-0.1L439,502
						c-2.9-1.7-2.9-4.5,0-6.2l36.7-21c3.3-1.7,7.3-1.6,10.6,0.1L511.1,489.6z"/>
				</g>
				<g class="st97">
					<path class="st98" d="M510.9,489.5c2.9,1.7,2.9,4.4,0,6.1l-36.3,21c-3.3,1.7-7.2,1.7-10.5-0.1l-24.7-14.6
						c-2.9-1.7-2.9-4.5,0-6.1l36.3-20.8c3.3-1.7,7.2-1.6,10.5,0.1L510.9,489.5z"/>
				</g>
				<g class="st99">
					<path class="st100" d="M510.4,489.6c2.9,1.7,2.9,4.4,0,6.1l-35.9,20.7c-3.3,1.6-7.1,1.6-10.4-0.1l-24.4-14.5
						c-2.9-1.7-2.9-4.4,0-6.1l35.9-20.6c3.3-1.7,7.1-1.7,10.4,0L510.4,489.6z"/>
				</g>
				<g class="st101">
					<path class="st102" d="M510.1,489.6c2.8,1.7,2.8,4.4,0,6l-35.5,20.5c-3.2,1.7-7,1.7-10.3,0l-24.2-14.4c-2.9-1.7-2.8-4.4,0-6
						l35.6-20.4c3.2-1.6,7.1-1.6,10.3,0L510.1,489.6z"/>
				</g>
				<g class="st103">
					<path class="st104" d="M509.7,489.6c2.8,1.6,2.8,4.3,0,5.9l-35.2,20.4c-3.2,1.6-7,1.6-10.2-0.1l-23.9-14.2
						c-2.8-1.7-2.8-4.3,0-5.9l35.2-20.2c3.2-1.6,7-1.6,10.2,0L509.7,489.6z"/>
				</g>
				<g class="st105">
					<path class="st106" d="M509.4,489.6c2.8,1.6,2.8,4.3,0,5.9l-34.9,20.2c-3.2,1.6-6.9,1.6-10.1-0.1l-23.6-14.1
						c-2.8-1.6-2.8-4.3,0-5.9l34.9-20c3.2-1.6,6.9-1.6,10.1,0L509.4,489.6z"/>
				</g>
				<g class="st107">
					<path class="st108" d="M509,489.6c2.8,1.6,2.7,4.2,0,5.8l-34.5,19.9c-3.1,1.6-6.8,1.6-9.9,0l-23.5-13.9c-2.8-1.6-2.7-4.2,0-5.8
						l34.5-19.8c3.1-1.6,6.8-1.6,10,0L509,489.6z"/>
				</g>
				<g class="st109">
					<path class="st110" d="M508.7,489.7c2.7,1.6,2.7,4.2,0,5.7l-34.2,19.7c-3.1,1.6-6.8,1.6-9.9,0l-23.2-13.8
						c-2.7-1.6-2.7-4.2,0-5.8l34.2-19.6c3.1-1.6,6.8-1.6,9.9,0L508.7,489.7z"/>
				</g>
				<g class="st111">
					<path class="st112" d="M508.3,489.7c2.7,1.6,2.6,4.1,0,5.7l-33.7,19.5c-3.1,1.5-6.7,1.5-9.7-0.1l-23-13.6
						c-2.7-1.6-2.6-4.1,0-5.7l33.8-19.4c3.1-1.5,6.7-1.5,9.8,0.1L508.3,489.7z"/>
				</g>
				<g class="st113">
					<path class="st114" d="M508,489.7c2.6,1.6,2.6,4.1,0,5.6l-33.4,19.3c-3,1.5-6.6,1.5-9.6-0.1l-22.7-13.5c-2.6-1.6-2.6-4.1,0-5.6
						l33.4-19.2c3-1.5,6.6-1.5,9.7,0.1L508,489.7z"/>
				</g>
				<g class="st115">
					<path class="st116" d="M507.6,489.7c2.6,1.5,2.6,4,0,5.6l-33.1,19c-3,1.5-6.5,1.5-9.5,0L442.6,501c-2.6-1.6-2.6-4.1,0-5.6
						l33-18.9c3-1.5,6.6-1.5,9.6,0L507.6,489.7z"/>
				</g>
				<g class="st117">
					<path class="st118" d="M507.2,489.7c2.6,1.6,2.6,4,0,5.5l-32.7,18.9c-3,1.5-6.5,1.5-9.4,0l-22.2-13.2c-2.6-1.6-2.6-4,0-5.5
						l32.7-18.8c3-1.5,6.5-1.5,9.4,0L507.2,489.7z"/>
				</g>
				<g class="st119">
					<path class="st120" d="M506.9,489.7c2.6,1.5,2.6,4,0,5.5l-32.3,18.7c-2.9,1.5-6.4,1.5-9.3,0l-22-13c-2.6-1.5-2.6-4,0-5.5
						l32.3-18.6c2.9-1.5,6.4-1.5,9.4,0L506.9,489.7z"/>
				</g>
				<g class="st121">
					<path class="st122" d="M506.5,489.7c2.5,1.4,2.5,3.9,0,5.4l-31.9,18.5c-2.9,1.5-6.3,1.5-9.2,0l-21.7-12.9
						c-2.6-1.4-2.5-3.9,0-5.4l32-18.4c2.9-1.5,6.3-1.5,9.2,0L506.5,489.7z"/>
				</g>
				<g class="st123">
					<path class="st124" d="M506.2,489.7c2.5,1.5,2.5,3.9,0,5.3l-31.6,18.2c-2.9,1.5-6.3,1.5-9.1,0l-21.5-12.8
						c-2.5-1.5-2.5-3.9,0-5.3l31.6-18.1c2.9-1.5,6.3-1.5,9.2,0L506.2,489.7z"/>
				</g>
				<g class="st125">
					<path class="st126" d="M505.8,489.8c2.5,1.5,2.5,3.8,0,5.3l-31.2,18c-2.8,1.4-6.2,1.4-9,0l-21.3-12.6c-2.5-1.5-2.5-3.8,0-5.3
						l31.3-17.9c2.8-1.4,6.2-1.4,9,0L505.8,489.8z"/>
				</g>
				<g class="st127">
					<path class="st128" d="M505.5,489.7c2.5,1.5,2.5,3.8,0,5.3l-30.9,17.9c-2.8,1.4-6.1,1.4-8.9,0l-21-12.5c-2.5-1.5-2.5-3.8,0-5.3
						l30.9-17.7c2.8-1.4,6.1-1.4,8.9,0L505.5,489.7z"/>
				</g>
				<g class="st129">
					<path class="st130" d="M505.1,489.8c2.4,1.4,2.4,3.7,0,5.1l-30.5,17.6c-2.8,1.4-6,1.4-8.8,0L445,500.3c-2.4-1.4-2.4-3.8,0-5.1
						l30.5-17.5c2.8-1.4,6.1-1.4,8.8,0L505.1,489.8z"/>
				</g>
				<g class="st131">
					<path class="st132" d="M504.8,489.8c2.4,1.4,2.4,3.7,0,5.1l-30.2,17.4c-2.7,1.4-6,1.4-8.7,0l-20.5-12.2c-2.4-1.4-2.4-3.7,0-5.1
						l30.2-17.3c2.7-1.4,6-1.4,8.7,0L504.8,489.8z"/>
				</g>
				<g class="st133">
					<path class="st134" d="M504.4,489.8c2.4,1.4,2.4,3.7,0,5L474.6,512c-2.7,1.4-5.9,1.4-8.6,0l-20.3-12c-2.4-1.4-2.4-3.7,0-5
						l29.8-17.1c2.7-1.4,5.9-1.4,8.6,0L504.4,489.8z"/>
				</g>
				<g class="st135">
					<path class="st136" d="M504.1,489.8c2.4,1.4,2.4,3.7,0,5l-29.5,17.1c-2.7,1.4-5.8,1.4-8.5,0l-20-11.9c-2.4-1.4-2.4-3.7,0-5
						l29.5-16.9c2.7-1.4,5.8-1.4,8.5,0L504.1,489.8z"/>
				</g>
				<path id="_Path_78" class="st41" d="M503.8,489.8c2.3,1.4,2.3,3.6,0,4.9l-29.1,16.8c-2.6,1.4-5.8,1.4-8.4,0l-19.8-11.7
					c-2.3-1.4-2.3-3.6,0-4.9l29.1-16.7c2.6-1.3,5.8-1.3,8.4,0L503.8,489.8z"/>
			</g>
			
				<linearGradient id="_Path_79_1_" gradientUnits="userSpaceOnUse" x1="-11.8057" y1="-88.4131" x2="74.0282" y2="-88.4131" gradientTransform="matrix(1 0 0 -1 443.6713 404.4)">
				<stop  offset="1.000000e-02" style="stop-color:#EFF1F8"/>
				<stop  offset="0.18" style="stop-color:#DBDFF0"/>
				<stop  offset="0.53" style="stop-color:#B7C1E3"/>
				<stop  offset="0.82" style="stop-color:#A1AEDB"/>
				<stop  offset="1" style="stop-color:#99A7D8"/>
			</linearGradient>
			<path id="_Path_79" class="st137" d="M515.2,485.7c3.3,1.9,3.3,5,0,6.9l-41.1,23.8c-3.7,1.9-8.1,1.8-11.8-0.1l-28-16.6
				c-3.3-1.9-3.3-5,0-6.9l41.1-23.6c3.7-1.9,8.1-1.8,11.8,0.1L515.2,485.7z"/>
			<path id="_Path_80" class="st44" d="M515.2,483.3c3.3,1.9,3.3,5,0,6.9L474.1,514c-3.7,1.9-8.1,1.8-11.8-0.1l-28-16.6
				c-3.3-1.9-3.3-5.1,0-6.9l41.1-23.6c3.7-1.8,8.1-1.8,11.8,0.1L515.2,483.3z"/>
			<polygon id="_Path_81" class="st48" points="510.4,484.3 488.1,497.5 489.5,498.3 511.8,485.1 			"/>
			<polygon id="_Path_82" class="st48" points="505.6,481.7 460.9,508 462.3,508.8 507,482.5 			"/>
			<polygon id="_Path_83" class="st48" points="501,479 456.3,505.3 457.7,506.1 502.4,479.8 			"/>
			<polygon id="_Path_84" class="st48" points="496.3,476.3 451.7,502.6 453.1,503.4 497.7,477.1 			"/>
			<polygon id="_Path_85" class="st48" points="491.6,473.6 447,499.9 448.4,500.7 493,474.4 			"/>
			<polygon id="_Path_86" class="st48" points="487,470.9 442.3,497.2 443.7,498.1 488.4,471.7 			"/>
			<polygon id="_Path_87" class="st48" points="482.2,469.4 439.2,494.9 440.5,495.7 483.5,470.1 			"/>
			<g>
				
					<radialGradient id="_Path_88_1_" cx="92.4523" cy="-8244.9346" r="38.9514" gradientTransform="matrix(-1 0 0 -0.52 477.9312 -3722.21)" gradientUnits="userSpaceOnUse">
					<stop  offset="0" style="stop-color:#48486A"/>
					<stop  offset="3.000000e-02" style="stop-color:#505070"/>
					<stop  offset="0.29" style="stop-color:#8D8DA3"/>
					<stop  offset="0.52" style="stop-color:#BEBECA"/>
					<stop  offset="0.72" style="stop-color:#E2E2E7"/>
					<stop  offset="0.89" style="stop-color:#F7F7F9"/>
					<stop  offset="1" style="stop-color:#FFFFFF"/>
				</radialGradient>
				<ellipse id="_Path_88" class="st138" cx="385.5" cy="534.3" rx="38.6" ry="22.3"/>
				<path id="_Path_89" class="st47" d="M358.4,533.1L358.4,533.1c0,4.1,2.7,8.2,8.1,11.3c10.7,6.2,28.3,6.2,39,0
					c5.4-3.1,8.1-7.2,8.1-11.3l0,0v-7.3h-3.1c-1.4-1.6-3.1-2.9-5-3.9c-10.7-6.2-28.3-6.2-39,0c-1.9,1-3.5,2.4-5,3.9h-3.1V533.1z"/>
				<path id="_Path_90" class="st139" d="M399.7,519.4l5.3,18v7.4l0.5-0.3c5.4-3.1,8.1-7.2,8.1-11.3l0,0v-7.3h-3.1
					c-1.4-1.6-3.1-2.9-5-3.9C403.7,520.9,401.7,520,399.7,519.4z"/>
				<ellipse id="_Path_91" class="st140" cx="386" cy="525.8" rx="27.6" ry="15.9"/>
				<path id="_Path_92" class="st141" d="M386,528.3l19,9.1l0.5-0.3c10.7-6.2,10.7-16.3,0-22.5c-6-3.2-12.7-4.8-19.5-4.7V528.3z"/>
				<path class="st43" d="M405.5,514.6c-6-3.2-12.7-4.8-19.5-4.7v18.4h27.2C414.5,523.4,412,518.3,405.5,514.6z"/>
			</g>
		</g>
		<g id="Layer_10">
			
				<linearGradient id="_Path_93_1_" gradientUnits="userSpaceOnUse" x1="145.4843" y1="217.4174" x2="341.0473" y2="217.4174" gradientTransform="matrix(-1 0 0 -1 477.9312 404.4)">
				<stop  offset="0" style="stop-color:#EBE9EC"/>
				<stop  offset="1" style="stop-color:#99A7D8"/>
			</linearGradient>
			<path id="_Path_93" class="st142" d="M136.9,373.9l2.9-1.7l186.8-111.1c2.7-1.8,4.4-4.8,4.6-8l1.3-251.3l-2.9-1.4
				c-1.1-0.6-2.4-0.5-3.5,0.1L141.5,107.6c-2.7,1.8-4.4,4.8-4.6,8L136.9,373.9z"/>
			<path id="_Path_94" class="st53" d="M139.7,372.3L334,259.4V4.9c0-2.9-2.1-4.1-4.6-2.6l-185,107.4c-2.7,1.8-4.5,4.8-4.6,8V372.3z
				"/>
			<path id="_Path_95" class="st41" d="M139.7,117.7v12.1L334,17V4.9c0-2.9-2.1-4.1-4.6-2.6l-185,107.4
				C141.7,111.5,140,114.5,139.7,117.7z"/>
			<path id="_Path_96" class="st44" d="M322.2,15.1c0,1,0.7,1.4,1.5,0.9c0.9-0.6,1.5-1.6,1.5-2.6c0-1-0.7-1.4-1.5-0.9
				C322.8,13,322.3,14,322.2,15.1z"/>
			<path id="_Path_97" class="st44" d="M315.6,18.9c0,1,0.7,1.4,1.5,0.9c0.9-0.6,1.4-1.6,1.5-2.6c0-1-0.7-1.4-1.5-0.9
				C316.3,16.9,315.7,17.8,315.6,18.9z"/>
			<path id="_Path_98" class="st44" d="M309.1,22.8c0,1,0.7,1.4,1.5,0.9c0.9-0.6,1.5-1.6,1.5-2.6c0-1-0.7-1.4-1.5-0.9
				C309.7,20.8,309.1,21.8,309.1,22.8z"/>
			<polygon id="_Path_99" class="st47" points="156.6,140.1 156.6,213.2 318.7,119.9 318.7,46.3 			"/>
			<polygon id="_Path_100" class="st44" points="163.9,146.4 163.9,152 263,94.5 263,88.9 			"/>
			<g id="_Group_7">
				<polygon id="_Path_101" class="st50" points="156.6,307.7 156.6,313.3 319,218.9 319,213.3 				"/>
				<polygon id="_Path_102" class="st50" points="156.6,323 156.6,328.5 319,234.2 319,228.6 				"/>
				<polygon id="_Path_103" class="st50" points="156.6,339 156.6,344.6 319,250.2 319,244.6 				"/>
			</g>
			<polygon id="_Path_104" class="st44" points="163.9,161.6 163.9,167.2 263,109.8 263,104.2 			"/>
			<polygon id="_Path_105" class="st44" points="163.9,176.9 163.9,182.5 263,125.1 263,119.4 			"/>
			<polygon id="_Path_106" class="st44" points="216.6,161.6 216.6,167.2 263,140.3 263,134.7 			"/>
			<polygon id="_Path_107" class="st50" points="272.1,157.6 272.1,215.8 318.7,188.4 318.7,129.8 			"/>
			<polygon id="_Path_108" class="st50" points="156.6,225.6 156.6,283.8 203.2,256.3 203.2,197.7 			"/>
			<path id="_Path_109" class="st44" d="M271.7,109.9c0,13.7,9.6,19.3,21.5,12.5c11.8-6.8,21.5-23.6,21.5-37.3s-9.6-19.3-21.5-12.5
				C281.4,79.3,271.7,96.1,271.7,109.9z"/>
			<polygon id="_Path_110" class="st44" points="272.1,214.3 272.1,215.8 273.4,215.1 295.7,173.9 318.3,188.6 318.7,188.4 
				318.7,187 296.5,172.5 318.7,131.3 318.7,129.8 317.4,130.5 295.2,171.7 272.9,157.2 272.1,157.6 272.1,158.5 294.4,173 			"/>
			<polygon id="_Path_111" class="st44" points="156.6,227.2 178.7,241.6 156.6,282.6 156.6,283.8 158.1,282.9 180,242.4 
				202.2,256.9 203.2,256.3 203.2,255.7 180.7,241.1 203.2,199.6 203.2,197.7 202.1,198.4 179.5,240.2 156.8,225.5 156.6,225.6 			
				"/>
			<polygon id="_Path_112" class="st143" points="212.1,194.4 212.1,252.7 258.7,225.2 258.7,166.6 			"/>
			<polygon id="_Path_113" class="st144" points="223.9,198.3 223.9,256.5 270.5,229 270.5,170.4 			"/>
			<g id="_Group_8">
				<polygon id="_Path_114" class="st48" points="237.4,209.7 237.4,268 240.5,268.7 284.1,240.5 287.1,182.6 284.1,181.9 				"/>
				<polygon id="_Path_115" class="st47" points="240.5,210.5 240.5,268.7 287.1,241.3 287.1,182.6 				"/>
			</g>
			<path id="_Path_116" class="st145" d="M285,109.5v4.5l16.5-9.6v-2.2c0-3.4-2-6.6-5.1-8c1.7-2,2.7-4.6,2.9-7.2
				c0-3.5-2.5-5-5.5-3.2c-3.3,2.1-5.3,5.7-5.5,9.6c-0.1,1.3,0.4,2.5,1.3,3.4C286.6,100.4,285,104.9,285,109.5z"/>
		</g>
		<g id="Layer_11">
			<path class="st146" d="M335.5,157.9c-0.1,0.2-0.1,0.4-0.2,0.6c0,0.9,0.7,1.8,1.6,1.8l2.5,1v12c0,1.3,0.8,2.4,2,2.8
				c0.4,0.1,0.8,0,1.1-0.2l0,0c0.2,0,0.4-0.1,0.5-0.2l23.3-13.5V124l-24.8,14.3c-1.2,0.8-2,2.2-2.1,3.7v7L335.5,157.9z"/>
			
				<linearGradient id="_Path_117_1_" gradientUnits="userSpaceOnUse" x1="54.3039" y1="274.2602" x2="139.4886" y2="274.2602" gradientTransform="matrix(-1 0 0 -1 477.9312 404.4)">
				<stop  offset="0" style="stop-color:#EBE9EC"/>
				<stop  offset="1" style="stop-color:#99A7D8"/>
			</linearGradient>
			<path id="_Path_117" class="st147" d="M423.6,91.1v32.2c-0.2,1.5-1,2.8-2.3,3.6l-75.6,43.8c-0.3,0.2-0.7,0.3-1.1,0.2l0,0
				c-1.2-0.4-2-1.5-2-2.8v-13h-2.5c-0.2,0-0.5-0.1-0.7-0.2c-0.9-0.4-1.3-1.4-0.9-2.3l4-8.9v-7.1c0.1-1.5,0.9-2.9,2.1-3.7l74.6-43.2
				c1.3-0.7,2.9-0.5,3.9,0.5l0,0C423.5,90.5,423.6,90.8,423.6,91.1z"/>
			<path id="_Path_118" class="st53" d="M423.7,123.2c-0.1,1.5-0.9,2.8-2.1,3.7l-75.4,43.5c-1.2,0.7-2.1,0.1-2.1-1.2V156h-2.5
				c-0.2,0-0.5-0.1-0.7-0.2c-0.9-0.4-1.3-1.4-0.9-2.3l4-8.9v-7c0.1-1.5,0.9-2.8,2.1-3.7l75.4-43.5c1.2-0.7,2.1-0.1,2.1,1.2
				L423.7,123.2z"/>
			<g id="_Group_9">
				<polygon class="st148" points="348.9,149.8 392.5,124.8 392.5,127.6 348.9,152.7 				"/>
			</g>
			<g id="_Group_10">
				<polygon class="st148" points="348.9,155.5 392.5,130.4 392.5,133.2 348.9,158.3 				"/>
			</g>
			<g id="_Group_11">
				<polygon class="st148" points="368.3,150 392.5,136.1 392.5,138.9 368.3,152.7 				"/>
			</g>
			<g id="_Group_12">
				<polygon class="st148" points="370.3,125 392.5,111.7 392.5,119.2 370.3,132.4 				"/>
			</g>
			<path class="st43" d="M395.4,141.9l26.1-15.1c1.2-0.8,2-2.2,2.1-3.7V91.7c0-1.3-1-1.9-2.1-1.2l-26.1,15.1V141.9z"/>
			<g id="_Group_13">
				<path id="_Compound_Path_" class="st44" d="M404.5,121.7v-8.6l2.9-1.7v1.1l0.3-0.5c0.3-0.5,0.6-0.9,0.9-1.3
					c0.4-0.5,0.9-0.8,1.4-1.1c1.4-0.8,2.6-0.9,3.5-0.2c1,1,1.5,2.3,1.3,3.7c0,1.9-0.5,3.7-1.5,5.3c-0.8,1.5-2,2.8-3.4,3.7
					c-0.9,0.8-2.3,0.8-3.2,0c-0.2,0.8-0.5,1.5-1,2.1c-0.4,0.6-1,1.2-1.6,1.5c-0.8,0.7-2.1,0.6-2.8-0.2c-0.8-1.2-1.2-2.7-1.1-4.1
					c0-3.2,1-6.4,2.6-9.2c1.5-2.8,3.8-5.1,6.5-6.8c2.6-1.5,4.8-1.7,6.6-0.6s2.8,3.1,2.8,6.1c-0.2,6.4-3.6,12.4-9.1,15.8
					c-0.8,0.5-1.8,0.8-2.7,1c-0.8,0.2-1.6,0.1-2.4-0.2l1-2.5c1.3,0.6,2.9,0.5,4.1-0.4c2.1-1.3,3.9-3.1,5-5.3c1.3-2.2,2-4.7,2-7.2
					c0-2.4-0.7-4.1-2.2-5c-1.4-0.9-3.1-0.8-5.3,0.4c-2.2,1.3-3.9,3.1-5,5.4c-1.2,2.3-1.9,4.8-1.9,7.4c-0.1,0.9,0.1,1.8,0.5,2.6
					c0.3,0.5,0.7,0.8,1.1,0.5C404.3,123.3,404.5,122.7,404.5,121.7z M408,119.4c0.4,0.4,0.9,0.4,1.6,0c0.7-0.4,1.3-1.1,1.6-1.9
					c0.4-0.8,0.6-1.7,0.6-2.6c0.1-0.7-0.1-1.3-0.6-1.9c-0.4-0.4-0.9-0.4-1.6,0c-0.7,0.4-1.3,1.1-1.6,1.8c-0.4,0.8-0.6,1.7-0.6,2.6
					C407.4,118.1,407.6,118.8,408,119.4z"/>
			</g>
		</g>
		<g id="Layer_14">
			<g id="_Group_14">
				
					<linearGradient id="_Path_119_1_" gradientUnits="userSpaceOnUse" x1="19.4791" y1="350.7321" x2="103.2768" y2="350.7321" gradientTransform="matrix(-1 0 0 -1 477.9312 404.4)">
					<stop  offset="0" style="stop-color:#EBE9EC"/>
					<stop  offset="1" style="stop-color:#99A7D8"/>
				</linearGradient>
				<path id="_Path_119" class="st149" d="M457.4,48.5c-0.1,1-0.6,1.9-1.4,2.4l-79.6,47l-1.1-0.9c-0.4-0.3-0.6-0.7-0.6-1.2V58
					c0.1-1,0.6-1.9,1.4-2.4l79.4-45.9c0.7-0.4,1.5-0.4,2.1,0l0.9,0.7L457.4,48.5z"/>
				<path id="_Path_120" class="st53" d="M458.8,49.6c-0.1,1-0.6,1.9-1.4,2.4l-79.9,46c-0.8,0.4-1.4,0.1-1.4-0.8V59
					c0.1-1,0.6-1.9,1.4-2.4l79.9-46.1c0.8-0.4,1.4-0.1,1.4,0.8V49.6z"/>
				<path id="_Path_121" class="st150" d="M450,37.8c0,0.1-0.1,0.3-0.2,0.4L384,76c0,0-0.1,0-0.1,0c-0.1,0-0.1-0.1-0.1-0.1v-5.7
					c0-0.1,0.1-0.3,0.2-0.4l65.7-37.9c0.1-0.1,0.2,0,0.2,0.1V37.8z"/>
				
					<linearGradient id="_Path_122_1_" gradientUnits="userSpaceOnUse" x1="27.9652" y1="356.6982" x2="72.314" y2="356.6982" gradientTransform="matrix(-1 0 0 -1 477.9312 404.4)">
					<stop  offset="2.000000e-02" style="stop-color:#FFC107"/>
					<stop  offset="0.32" style="stop-color:#FFAF04"/>
					<stop  offset="0.71" style="stop-color:#FF9E01"/>
					<stop  offset="1" style="stop-color:#FF9800"/>
				</linearGradient>
				<path id="_Path_122" class="st151" d="M450,37.8c0,0.1-0.1,0.3-0.2,0.4l-43.9,25.3c-0.1,0.1-0.2,0-0.2-0.1v-5.7
					c0-0.1,0.1-0.3,0.2-0.4l43.9-25.4c0.1-0.1,0.2,0,0.2,0.1V37.8z"/>
			</g>
		</g>
		<g id="Layer_15">
			
				<linearGradient id="_Path_123_1_" gradientUnits="userSpaceOnUse" x1="378.4698" y1="251.7345" x2="452.6779" y2="251.7345" gradientTransform="matrix(-1 0 0 -1 477.9312 404.4)">
				<stop  offset="0" style="stop-color:#EBE9EC"/>
				<stop  offset="1" style="stop-color:#99A7D8"/>
			</linearGradient>
			<path id="_Path_123" class="st152" d="M99.5,106.9v50.4c-0.1,1.6-1,3.1-2.3,4.1l-67.3,39.1c-0.7,0.4-1.4,0.5-2.2,0.4l-0.4-0.1
				c-1.1-0.2-1.9-1.2-1.9-2.3v-50.5c0.1-1.7,1-3.2,2.4-4.1l67.3-39c1.3-0.7,2.9-0.5,3.9,0.6l0,0C99.3,105.8,99.5,106.4,99.5,106.9z"
				/>
			<path id="_Path_124" class="st53" d="M99.5,157.5c-0.1,1.6-1,3.2-2.3,4.1l-67.6,39c-1.3,0.8-2.3,0.2-2.3-1.3v-50.2
				c0.1-1.6,1-3.2,2.3-4.1l67.6-39.1c1.3-0.8,2.3-0.2,2.3,1.3L99.5,157.5z"/>
			<path id="_Path_125" class="st43" d="M99.5,157.5v-9.6l-72.2,41.7l-0.2,0.1v9.6c0,1.4,1,2.1,2.3,1.3l67.6-39
				C98.5,160.7,99.4,159.2,99.5,157.5z"/>
			<path id="_Path_126" class="st43" d="M54,151.5l12.6-13.3c1.5-1.5,3.3-1.4,3.3,0.3v14.6c0,1.7-1.8,3.6-3.3,3.5L54,155.3
				C52.5,155.1,52.5,153,54,151.5l12.6-13.3c1.5-1.5,3.3-1.4,3.3,0.3v14.6c0,1.7-1.8,3.6-3.3,3.5L54,155.3
				C52.5,155.1,52.5,153,54,151.5z"/>
			<g id="_Group_15">
				<path class="st44" d="M35.9,192c-0.3,0-0.7-0.2-0.8-0.5c-0.3-0.5-0.1-1.1,0.3-1.4L91,158c0.5-0.3,1.1-0.1,1.4,0.4
					c0.3,0.5,0.1,1.1-0.4,1.4l-55.7,32.1C36.2,191.9,36,192,35.9,192L35.9,192z"/>
			</g>
			<g id="_Group_16">
				
					<linearGradient id="SVGID_1_" gradientUnits="userSpaceOnUse" x1="385.4333" y1="238.2015" x2="412.9114" y2="238.2015" gradientTransform="matrix(-1 0 0 -1 477.9312 404.4)">
					<stop  offset="0" style="stop-color:#FFC107"/>
					<stop  offset="1" style="stop-color:#FF9800"/>
				</linearGradient>
				<path class="st153" d="M65.1,174c-0.2-0.5-0.1-1,0.4-1.3L91,158c0.5-0.3,1.1-0.1,1.4,0.4c0.3,0.5,0.1,1.1-0.4,1.4l-25.5,14.7
					c-0.2,0.1-0.3,0.1-0.5,0.1C65.6,174.5,65.3,174.3,65.1,174z"/>
			</g>
			<path id="_Path_127" class="st154" d="M64.5,171.8c0.1-0.3,0.4-0.6,0.7-0.7c0.6-0.2,1.2,0.1,1.4,0.7c0.6,1.1,0.6,2.4,0,3.5
				c-0.1,0.3-0.4,0.6-0.7,0.7c-0.6,0.2-1.2-0.1-1.4-0.7C64,174.2,64,172.9,64.5,171.8z"/>
		</g>
		<g id="Layer_13">
			<path class="st155" d="M100.1,207.6v42.1l72-42.5v-47.5L105.6,198C102.2,200,100.1,203.7,100.1,207.6z"/>
			<polygon id="_Path_128" class="st139" points="88.4,249.4 166,201.7 167.6,151.3 166,150.3 87,197 86.9,248.4 			"/>
			
				<linearGradient id="_Path_129_1_" gradientUnits="userSpaceOnUse" x1="289.5836" y1="225.6127" x2="368.6916" y2="225.6127" gradientTransform="matrix(-1 0 0 -1 457.1413 426)">
				<stop  offset="2.000000e-02" style="stop-color:#FFC107"/>
				<stop  offset="0.32" style="stop-color:#FFAF04"/>
				<stop  offset="0.71" style="stop-color:#FF9E01"/>
				<stop  offset="1" style="stop-color:#FF9800"/>
			</linearGradient>
			<polygon id="_Path_129" class="st156" points="167.6,202.7 167.6,151.3 88.6,198 88.4,249.4 			"/>
			<path id="_Path_130" class="st157" d="M141.3,184.3c0,4.2,2.9,6,6.6,3.8c3.9-2.6,6.4-6.8,6.6-11.5c0-4.2-2.9-5.9-6.6-3.8
				C144,175.3,141.5,179.6,141.3,184.3z"/>
			<polygon id="_Path_131" class="st157" points="88.4,249.4 88.3,224.9 100.2,206.3 123.1,212.6 135.2,191.9 167.6,202.7 			"/>
			<polygon id="_Path_132" class="st157" points="162.5,201 135.2,191.9 141.3,200.3 149.1,200.9 149.8,198.8 			"/>
			<polygon id="_Path_133" class="st157" points="115.5,216.7 123.1,212.6 100.2,206.3 107,214.2 107,211.9 			"/>
		</g>
		<g id="Layer_16">
			<path class="st155" d="M198.9,118.6L198.9,118.6l1.7-1V73.3l-59.1,34.3c-2.7,1.8-4.4,4.8-4.6,8v38.8L198.9,118.6z"/>
			<g id="_Group_17">
				
					<linearGradient id="_Path_134_1_" gradientUnits="userSpaceOnUse" x1="282.1827" y1="306.9455" x2="361.514" y2="306.9455" gradientTransform="matrix(-1 0 0 -1 477.9312 404.4)">
					<stop  offset="0" style="stop-color:#EBE9EC"/>
					<stop  offset="1" style="stop-color:#99A7D8"/>
				</linearGradient>
				<path id="_Path_134" class="st158" d="M195,115.3l-76,43.9l-1.5-0.7c-0.6-0.3-1-0.9-1-1.6V83.3c0.1-2.7,1.5-5.1,3.8-6.6
					l70.2-40.6c0.9-0.5,2.1-0.5,3,0.1l1.7,1.1c0.4,0.3,0.7,0.7,0.7,1.2V40L195,115.3z"/>
				<path id="_Path_135" class="st43" d="M196.7,114.3L119,159.2V85c0.1-2.7,1.5-5.1,3.8-6.6l70.1-40.5c2.1-1.2,3.8-0.2,3.8,2.2
					V114.3z"/>
				<path id="_Path_136" class="st44" d="M119,84.9v10.6l77.7-44.8V40.1c0-2.4-1.7-3.4-3.8-2.2l-70.1,40.5
					C120.6,79.9,119.2,82.3,119,84.9z"/>
				<path id="_Path_137" class="st41" d="M187.9,49.1c0,0.9,0.6,1.3,1.4,0.8c0.8-0.5,1.4-1.5,1.4-2.5c0-0.9-0.6-1.3-1.4-0.8
					C188.5,47.2,188,48.1,187.9,49.1z"/>
				<path id="_Path_138" class="st41" d="M180.9,53.2c0,0.9,0.6,1.3,1.4,0.8c0.8-0.6,1.4-1.5,1.4-2.5c0-0.9-0.6-1.3-1.4-0.8
					C181.5,51.3,181,52.2,180.9,53.2z"/>
				<path id="_Path_139" class="st41" d="M173.9,57.3c0,0.9,0.6,1.3,1.4,0.8c0.8-0.5,1.4-1.5,1.4-2.5c0-0.9-0.6-1.3-1.4-0.8
					C174.5,55.4,174,56.3,173.9,57.3z"/>
				<polygon id="_Path_140" class="st44" points="178.8,69.4 143.2,90 143.2,87.6 178.8,67.1 				"/>
				<polygon id="_Path_141" class="st44" points="193.1,61.2 180.9,68.3 180.9,65.9 193.1,58.8 				"/>
				
					<linearGradient id="_Path_142_1_" gradientUnits="userSpaceOnUse" x1="270.1153" y1="352.8528" x2="280.2567" y2="352.8528" gradientTransform="matrix(-1 0 0 -1 457.1413 426)">
					<stop  offset="2.000000e-02" style="stop-color:#FFC107"/>
					<stop  offset="0.32" style="stop-color:#FFAF04"/>
					<stop  offset="0.71" style="stop-color:#FF9E01"/>
					<stop  offset="1" style="stop-color:#FF9800"/>
				</linearGradient>
				<polygon id="_Path_142" class="st159" points="187,71.4 176.9,77.2 176.9,74.9 187,69 				"/>
				<polygon id="_Path_143" class="st44" points="175.1,78.2 161.3,86.2 161.3,83.9 175.1,75.8 				"/>
				<polygon id="_Path_144" class="st44" points="152.8,97.9 122.6,115.3 122.6,113 152.8,95.5 				"/>
				
					<linearGradient id="_Path_145_1_" gradientUnits="userSpaceOnUse" x1="293.0385" y1="333.4764" x2="301.0518" y2="333.4764" gradientTransform="matrix(-1 0 0 -1 457.1413 426)">
					<stop  offset="2.000000e-02" style="stop-color:#FFC107"/>
					<stop  offset="0.32" style="stop-color:#FFAF04"/>
					<stop  offset="0.71" style="stop-color:#FF9E01"/>
					<stop  offset="1" style="stop-color:#FF9800"/>
				</linearGradient>
				<polygon id="_Path_145" class="st160" points="164.1,91.4 156.1,96 156.1,93.7 164.1,89 				"/>
				<polygon id="_Path_146" class="st44" points="193.1,74.7 167.7,89.3 167.7,87 193.1,72.3 				"/>
				<polygon id="_Path_147" class="st44" points="174.4,92.3 149.7,106.6 149.7,104.3 174.4,90 				"/>
				
					<linearGradient id="_Path_148_1_" gradientUnits="userSpaceOnUse" x1="275.6327" y1="337.4043" x2="281.1894" y2="337.4043" gradientTransform="matrix(-1 0 0 -1 457.1413 426)">
					<stop  offset="2.000000e-02" style="stop-color:#FFC107"/>
					<stop  offset="0.32" style="stop-color:#FFAF04"/>
					<stop  offset="0.71" style="stop-color:#FF9E01"/>
					<stop  offset="1" style="stop-color:#FF9800"/>
				</linearGradient>
				<polygon id="_Path_148" class="st161" points="181.5,88.1 176,91.4 176,89 181.5,85.8 				"/>
				<polygon id="_Path_149" class="st44" points="171.5,100.6 128,125.6 128,123.3 171.5,98.3 				"/>
				<polygon id="_Path_150" class="st44" points="189.7,90.2 173.6,99.4 173.6,97.1 189.7,87.9 				"/>
				<polygon id="_Path_151" class="st44" points="162.8,112.4 122.6,135.5 122.6,133.2 162.8,110.1 				"/>
				<polygon id="_Path_152" class="st44" points="181.6,101.6 164.9,111.3 164.9,108.9 181.6,99.3 				"/>
				
					<linearGradient id="_Path_153_1_" gradientUnits="userSpaceOnUse" x1="264.0068" y1="329.4173" x2="273.9249" y2="329.4173" gradientTransform="matrix(-1 0 0 -1 457.1413 426)">
					<stop  offset="2.000000e-02" style="stop-color:#FFC107"/>
					<stop  offset="0.32" style="stop-color:#FFAF04"/>
					<stop  offset="0.71" style="stop-color:#FF9E01"/>
					<stop  offset="1" style="stop-color:#FF9800"/>
				</linearGradient>
				<polygon id="_Path_153" class="st162" points="193.1,94.9 183.2,100.6 183.2,98.3 193.1,92.6 				"/>
				
					<linearGradient id="_Path_154_1_" gradientUnits="userSpaceOnUse" x1="282.0038" y1="313.4958" x2="287.7051" y2="313.4958" gradientTransform="matrix(-1 0 0 -1 457.1413 426)">
					<stop  offset="2.000000e-02" style="stop-color:#FFC107"/>
					<stop  offset="0.32" style="stop-color:#FFAF04"/>
					<stop  offset="0.71" style="stop-color:#FF9E01"/>
					<stop  offset="1" style="stop-color:#FF9800"/>
				</linearGradient>
				<polygon id="_Path_154" class="st163" points="175.1,112 169.4,115.3 169.4,113 175.1,109.7 				"/>
				<polygon id="_Path_155" class="st44" points="182.4,107.7 176.9,110.9 176.9,108.5 182.4,105.4 				"/>
				<polygon id="_Path_156" class="st44" points="161,126.8 122.6,149 122.6,146.7 161,124.5 				"/>
				<polygon id="_Path_157" class="st44" points="178.2,116.9 166,124 166,121.7 178.2,114.6 				"/>
				
					<linearGradient id="_Path_158_1_" gradientUnits="userSpaceOnUse" x1="264.0068" y1="316.9639" x2="270.4174" y2="316.9639" gradientTransform="matrix(-1 0 0 -1 457.1413 426)">
					<stop  offset="2.000000e-02" style="stop-color:#FFC107"/>
					<stop  offset="0.32" style="stop-color:#FFAF04"/>
					<stop  offset="0.71" style="stop-color:#FF9E01"/>
					<stop  offset="1" style="stop-color:#FF9800"/>
				</linearGradient>
				<polygon id="_Path_158" class="st164" points="193.1,108.4 186.7,112 186.7,109.7 193.1,106 				"/>
			</g>
		</g>
	</g>
</g>
</svg>
