<svg id="Layer_38" data-name="Layer 38" xmlns="http://www.w3.org/2000/svg" viewBox="0 0 815.71 308.17"><title>logo</title><path d="M1513.41-1335a54.38,54.38,0,0,0-21.19,15.52q-8.81,10.46-8.8,21a37.36,37.36,0,0,0,4.4,18.5,64.29,64.29,0,0,0,11.56,14.85q7.17,6.95,15.67,14.18t17.09,15.22a175.15,175.15,0,0,1,15.74,16.64q16,19.24,16,43a60.23,60.23,0,0,1-6.12,26.93,65.52,65.52,0,0,1-16.19,21.12,104.31,104.31,0,0,1-23.2,14.92,126.34,126.34,0,0,1-55.07,12.24,62.43,62.43,0,0,1-31.94-8.51,33.71,33.71,0,0,1-11.64-11.26,30,30,0,0,1-4.47-16.34,18.94,18.94,0,0,1,7.16-15.23,28.63,28.63,0,0,1,17.61-6.41l6.42-.3q-.6,8.06-.6,13.58t.07,7.61q.07,2.09.6,6A18.29,18.29,0,0,0,1448-1126a29,29,0,0,0,3.06,4.48,12.23,12.23,0,0,0,5.08,3.81,46.07,46.07,0,0,0,16.86,3.13,68.22,68.22,0,0,0,16.56-1.94,69.15,69.15,0,0,0,15.23-5.82,64.63,64.63,0,0,0,13.43-9.25q13.27-11.94,13.28-28.8,0-16-16-34.63-8.05-9.39-24.7-26t-23.8-24.84q-16-18.51-16-33.28a60.5,60.5,0,0,1,5.9-26.87,65.72,65.72,0,0,1,15.59-20.66,108.55,108.55,0,0,1,22.09-15,110.21,110.21,0,0,1,50.89-12.54,63.4,63.4,0,0,1,33.28,9.26,34.63,34.63,0,0,1,12.83,13.5,42,42,0,0,1,4.92,20.67q0,3-29.4,20.15t-37.3,20v-14.77q2.09-1.2,13.73-6.72,26.1-12.22,26.11-18.35,0-29.55-31.19-29.55A65.7,65.7,0,0,0,1513.41-1335Z" transform="translate(-1415.22 1354.3)"/><path d="M1712.34-1193.13v16.42q-23.73,26.12-42.38,39.7t-35.52,13.58q-33.74,0-42.08-21.94-3.13-8.66-3.14-20.89a98.13,98.13,0,0,1,9.11-41.57,83.35,83.35,0,0,1,26.19-32.53,62,62,0,0,1,38-12.76q35.2,0,35.21,26.27,0,17-13.73,29.62t-30.89,12.61a30.11,30.11,0,0,1-14.32-4,34.78,34.78,0,0,1-12.69-12.09,60.66,60.66,0,0,0-6.41,26.27q0,34.47,25.07,34.47,6.55,0,16.19-6.27a122.65,122.65,0,0,0,17-13.2q7.39-6.94,18.73-18.36T1712.34-1193.13Zm-81.93-18.95q11.34,14.63,25.07,14.63,8.65,0,15-8.51a29.49,29.49,0,0,0,6.34-17.91q0-9.41-3.51-12.61c-2.33-2.14-5.72-3.21-10.14-3.21a26.48,26.48,0,0,0-12.39,3,34.19,34.19,0,0,0-9.77,7.46Q1633.24-1220.43,1630.41-1212.08Z" transform="translate(-1415.22 1354.3)"/><path d="M1752.33-1052.1q-10.14,6-18.2,6a43.12,43.12,0,0,1-14.25-2.16,25.69,25.69,0,0,1-10.75-7.24q-4.56-5.09-4.55-9.7a30.55,30.55,0,0,1,.52-6.72,12.79,12.79,0,0,1,2.16-4.33q1.65-2.23,2.62-3.65a23.22,23.22,0,0,1,3.95-4l4-3.43q1-.9,5.07-4t4.93-3.81l41.34-31.79,4.77-25.37q-19.1,17-31.71,22.91t-23.65,5.9q-11.05,0-16.49-9.26t-5.45-21.71a98.75,98.75,0,0,1,3.95-26.56,113.61,113.61,0,0,1,11.5-26.94,116.58,116.58,0,0,1,17.53-23,77.11,77.11,0,0,1,23.28-16.19,64.61,64.61,0,0,1,27-6q13.72,0,45.07,5.82l-22.83,96.56q4-3.73,12.16-11.42t11.57-11q9-8.2,20-20.29v16.71L1799-1131.19q-7,38.64-27.31,62.52A79.56,79.56,0,0,1,1752.33-1052.1Zm14.93-58.2-24.48,20.74c-.59.5-1.79,1.44-3.58,2.84s-3.08,2.43-3.88,3.13-1.89,1.79-3.28,3.28a16.62,16.62,0,0,0-3,4.18,25.82,25.82,0,0,0-2.68,11.42q0,5.89,2.61,8.13t8.43,2.24q11.94,0,19.47-15.37T1767.26-1110.3Zm-37.91-65.81q0,28.8,14.48,28.8,12.83,0,32.38-22.09l17.31-72.67q-10.89-2.7-14.62-2.69-10,0-19.4,6.57a58.43,58.43,0,0,0-15.82,16.56Q1729.36-1199.68,1729.35-1176.11Z" transform="translate(-1415.22 1354.3)"/><path d="M1850.53-1123.43q-17.46,0-17.46-25.07a65.39,65.39,0,0,1,2.09-16.57q9-33.87,24.77-79.39.6-3.74,24.18-3.73h5.22q0,.3-6.12,19.55-18.36,57.75-18.35,68.49t10,10.75q8.51,0,21.12-7.31t14.7-11.64l16.27-62.08q3.27-12.69,9-15.52,4.32-2.25,13.88-2.24h10.15q-19,68.49-22.39,83.72-1.2,11.34-1.19,13.58a5,5,0,0,0,.67,3.06c.45.54,1.47.82,3.06.82q7.61,0,53.72-46.12v16.72q-3.58,3.29-12.38,11.56T1968-1152.31q-4.63,4.24-12.47,10.67a135.91,135.91,0,0,1-13,9.7q-13.59,8.51-22.24,8.51-12.84,0-12.83-19.55a55.13,55.13,0,0,1,1.49-13.88Q1874.41-1123.44,1850.53-1123.43Z" transform="translate(-1415.22 1354.3)"/><path d="M2049.16-1236.55l17.91-2.09q4.32,0,4.32,2.09t-10.29,23.43q-23.58,48.34-23.58,58.2c0,.1,0,.47-.08,1.12a7.25,7.25,0,0,0,0,1.49c0,.35.13.82.23,1.42a3.22,3.22,0,0,0,.45,1.34,3.53,3.53,0,0,0,3,1.34q3.89,0,23.8-17.68t27.24-27.53v16.71q-53.28,53.28-71.78,53.28a10.6,10.6,0,0,1-9.85-5.9,23.65,23.65,0,0,1-3.29-11.56,45.84,45.84,0,0,1,2.24-13.06q2.24-7.4,6-16.94t7.08-17.31q3.29-7.75,7.24-16.79t4.55-10.52q-8.51,8.65-19.77,19t-21.12,20.45v-16.72l30.3-31.49q-18.21-4.47-23.58-14a6.75,6.75,0,0,1-1.19-3.44,25.18,25.18,0,0,1,7.9-18.35q7.92-7.9,21-7.91,6.71,0,6.71,7.91a23,23,0,0,1-2.68,10.07c-1.79,3.63-3.94,6.1-6.42,7.39Q2032.44-1236.55,2049.16-1236.55Z" transform="translate(-1415.22 1354.3)"/><path d="M2096.46-1123.43q-17.89,0-22.08-25.22a87.15,87.15,0,0,1-.9-12.69q0-16.26,8.06-32.83a106.44,106.44,0,0,1,21.27-29.55,106.33,106.33,0,0,1,31.63-21.19,91.81,91.81,0,0,1,37.68-8.21q9.4,0,25.08,4.93c-.1.69-1.1,5.25-3,13.65s-3.78,17-5.67,25.74q-7.76,36-7.76,44.63t4.48,8.65q9.84,0,45.66-37.9v16.71q-22.68,23.43-43.2,38.35t-27.38,14.93q-11.36,0-11.35-19.55a99.28,99.28,0,0,1,1.2-14.48,113.67,113.67,0,0,1-25,24Q2110.94-1123.44,2096.46-1123.43Zm8.81-46.27q0,22.4,14.62,22.39,6.27,0,15.45-6.57a113.83,113.83,0,0,0,16.64-14.47l17.16-73.43q-16.11,0-31.19,11.5a84.71,84.71,0,0,0-23.88,28.2Q2105.26-1185.37,2105.27-1169.7Z" transform="translate(-1415.22 1354.3)"/></svg>