<svg id="Layer_32" data-name="Layer 32" xmlns="http://www.w3.org/2000/svg" viewBox="0 0 383.29 629.87"><defs><style>.cls-1{fill:#3e3a39;fill-rule:evenodd;}</style></defs><title>logo-lion</title><path class="cls-1" d="M1019.41,795.94h0l-.42-.31-1.66-1.21-.8-.59-1.71-1.25-.74-.54-1.9-1.37-.55-.4c-4.7-3.4-9.49-6.83-14.31-10.3l-.7-.49-1.4-1-1.17-.83-1.32-1-1.33-1-1.14-.82-1.43-1-1.13-.83-1.44-1-1.13-.83-1.41-1-1.14-.83-1.45-1.07-1.08-.79-1.65-1.23-.86-.63-2.25-1.68-.26-.2-2.52-1.9-.66-.5L970,759.9l-.8-.61-1.69-1.3-.88-.68-1.58-1.23-1-.75-1.49-1.17-1-.79-1.43-1.14-1-.81-1.41-1.15-1-.79-1.42-1.18-.95-.78L953,746.31l-.89-.75-1.51-1.29-.8-.68-1.69-1.48-.58-.5c-1.51-1.34-3-2.68-4.48-4l-.5-.47-1.66-1.54-.7-.67-1.42-1.35-.79-.76-1.3-1.27-.81-.8-1.24-1.25-.8-.81-1.2-1.25-.79-.83c-.39-.41-.78-.82-1.16-1.24l-.78-.84-1.15-1.26c-.24-.27-.49-.54-.73-.82s-.77-.87-1.15-1.3l-.68-.79c-.41-.47-.8-.94-1.2-1.41l-.58-.69c-.47-.56-.93-1.13-1.38-1.7l-.34-.41q-.86-1.08-1.68-2.16l-.07-.08c-.52-.68-1-1.37-1.53-2l-.44-.62-1.1-1.53-.52-.77c-.32-.46-.64-.92-1-1.39-.19-.28-.37-.56-.55-.84l-.86-1.33-.55-.89c-.27-.43-.53-.87-.79-1.3s-.36-.6-.53-.91-.5-.87-.75-1.3l-.5-.91c-.24-.44-.48-.88-.71-1.32s-.32-.6-.47-.91l-.67-1.34c-.15-.3-.29-.59-.43-.89-.22-.47-.44-.94-.65-1.41l-.38-.84c-.22-.51-.43-1-.65-1.54-.09-.24-.2-.48-.29-.72-.26-.65-.51-1.31-.76-2,0-.1-.07-.2-.11-.3-.28-.76-.54-1.53-.79-2.3l-.15-.5q-.29-.9-.54-1.8c-.08-.27-.15-.53-.22-.8-.14-.5-.27-1-.4-1.51l-.21-.91c-.11-.47-.21-1-.31-1.42s-.13-.64-.19-1-.17-.92-.25-1.39l-.15-1c-.07-.46-.14-.91-.19-1.37s-.09-.67-.12-1-.1-.91-.14-1.37-.06-.68-.08-1,0-.93-.08-1.39,0-.67,0-1,0-.95,0-1.42v-1c0-.49,0-1,0-1.49,0-.31,0-.62,0-.94,0-.55.08-1.1.12-1.65l.06-.79c.08-.81.17-1.63.29-2.46C822,788.45,1081.11,846.05,1063.49,893.54,1097.84,859.89,1064.46,829.08,1019.41,795.94Z" transform="translate(-875.86 -263.67)"/><path class="cls-1" d="M1111.84,746.49l.11.15-.21-.31c-.79-1.2-1.61-2.39-2.44-3.59l-.74-1c-.64-.91-1.29-1.81-2-2.7-.31-.43-.63-.85-.94-1.27-.71-1-1.44-1.89-2.17-2.83l-.66-.85q-1.41-1.78-2.87-3.55l-.94-1.12c-.72-.87-1.45-1.73-2.2-2.6l-1-1.2c-.92-1.06-1.85-2.12-2.8-3.17l-.42-.47c-1-1.16-2.13-2.33-3.21-3.49l-1.09-1.16c-.82-.87-1.64-1.73-2.47-2.59l-1-1.09q-1.71-1.75-3.45-3.51l-.6-.59q-1.5-1.5-3-3l-1.19-1.15-2.77-2.67-1-.94c-1.23-1.17-2.47-2.33-3.72-3.5l-.88-.81-3-2.81c-.4-.35-.79-.71-1.18-1.07q-1.62-1.47-3.25-2.93l-.7-.63q-2-1.78-4-3.55l-1-.87-3.21-2.81c-.36-.32-.72-.64-1.09-.95q-4.15-3.63-8.39-7.25l-.78-.67-3.79-3.25-.54-.45c-6.64-5.66-13.35-11.33-20-17.05l-2-1.66-2.07-1.78-2.41-2.06c-.56-.48-1.12-1-1.67-1.45l-3.81-3.29-1.56-1.36-2.59-2.27-1.65-1.46c-1-.86-2-1.73-2.95-2.61l-1.26-1.12-3.67-3.3-1.48-1.34-2.63-2.41L986,625.72l-3.7-3.45-.87-.83q-1.56-1.47-3.1-3c-.46-.43-.91-.87-1.36-1.31-.9-.86-1.78-1.73-2.67-2.6l-1.22-1.2q-1.83-1.82-3.62-3.63l-.95-1c-.93-.94-1.85-1.89-2.76-2.84l-1.25-1.31c-.9-1-1.79-1.89-2.67-2.85l-.95-1q-1.73-1.86-3.39-3.73c-.34-.37-.66-.75-1-1.12-.84-.94-1.66-1.89-2.48-2.84-.37-.43-.74-.85-1.1-1.28-.93-1.09-1.84-2.17-2.74-3.26l-.57-.68q-1.58-1.94-3.1-3.87l-.94-1.22c-.75-1-1.49-1.93-2.22-2.9l-.94-1.25q-1.47-2-2.88-4c-.1-.13-.18-.26-.28-.4-.85-1.22-1.69-2.44-2.52-3.68l-.84-1.27c-.67-1-1.32-2-2-3.07l-.73-1.15c-.84-1.37-1.66-2.73-2.46-4.11-.16-.27-.31-.55-.47-.83-.64-1.13-1.28-2.27-1.89-3.4l-.71-1.33c-.58-1.1-1.15-2.21-1.7-3.32l-.49-1q-1-2.12-2-4.25l-.47-1.08c-.48-1.11-1-2.23-1.41-3.35-.18-.45-.36-.89-.53-1.33-.49-1.26-1-2.53-1.42-3.8-.07-.21-.15-.42-.23-.64-.51-1.46-1-2.94-1.44-4.42l-.36-1.24c-.34-1.14-.65-2.27-1-3.41-.11-.44-.23-.88-.34-1.32-.38-1.52-.73-3-1-4.57,0,0,0-.09,0-.14-.31-1.48-.57-3-.81-4.48l-.21-1.36c-.17-1.19-.33-2.38-.46-3.58,0-.41-.11-.83-.15-1.24-.16-1.57-.29-3.14-.38-4.73,0-.26,0-.52,0-.77-.06-1.35-.11-2.71-.13-4.07v-1.44c0-1.28,0-2.57.07-3.87,0-.36,0-.72,0-1.08.07-1.63.19-3.27.33-4.91l.12-1.14c.13-1.31.29-2.62.47-4l.21-1.49c.21-1.44.46-2.89.73-4.35,0-.25.09-.51.14-.76.33-1.7.7-3.4,1.11-5.12.11-.46.23-.92.35-1.38.33-1.32.69-2.65,1.07-4,.14-.5.28-1,.43-1.51.52-1.75,1.07-3.51,1.68-5.29-179.54,204.26,255.42,317.16,161.63,430.65C1140.78,834,1139.3,788.17,1111.84,746.49Z" transform="translate(-875.86 -263.67)"/><path class="cls-1" d="M1259.16,468.18c-14.81-13.95-27.79-29.72-39.74-46.53-4.5-32.14-15.21-27.66-36.73-52.24,5.47-5.83,9.15-13.33,11.08-22.44a49.16,49.16,0,0,1-12.42,13.27c-2.88-49.35-62.82-73.65-108.15-70.88l13.25,14c-19.17-.54-46.33,4.89-62.63,14.85,15.28-11.46,32.16-18.71,51.3-20l-14.51-12.64c22.44-4.81,49.69-3.88,69.38,2.6,0,0-7-19.45-29.14-22.85,0,0-132.61-27.2-165.44,141.57,3.9-20.44,20.92-47.06,48.46-57.42-36.46,30.42-48.57,86.92-41,133.07,17.84,108,171.46,166.89,205.3,264.43,18.65,53.76-5.19,106-56.38,146.61,154.94-83.7,169.69-177.44,134.24-243.28-40.93-76-127.15-75-149-168.48.4,37.57,14.19,69.77,38.44,97.8-41.56-29.1-80-116-19.54-156.14,5.64,21.14,18.11,37.8,36.15,50.83-1.52-11,.33-20.48,5-28.64a128.14,128.14,0,0,0,40.8,53.69c-15.33,4.67-24.88,16.2-29.7,33.28,50-40.83,94.59-13.93,106.65-47.6-7.28-6.44-23.95-13-21.83-19.32C1234.54,461.18,1253.76,471.37,1259.16,468.18ZM1038.71,342.43c17.6,5.41,25.3,28.73,33.49,30.72-25.49,12.09-39.09,28.69-46.45,57.62,4.1-10.41,10.32-20,20.59-26.28-18.13,22.21-26.46,57.82-15.93,97-21.48-37-9.17-91.67,8.82-118.2-30.4-86.39,38.17-21.73,66.7-21.87C1087.2,372.06,1052.22,336.8,1038.71,342.43ZM1171,411.54a102.15,102.15,0,0,1,34.72,6.08l-3,11.64,8,13.42A208.09,208.09,0,0,0,1171,411.54Z" transform="translate(-875.86 -263.67)"/><path class="cls-1" d="M1228.7,510.69c-15.94,1-34.63,7.42-50.49,18.15,14.06,4.23,25.06,15.94,29.4,30.88,8.52-7.06,13.87-15.64,12.84-27.29a27.78,27.78,0,0,1,1.23,16.62C1232.12,539.09,1236.81,527.12,1228.7,510.69Z" transform="translate(-875.86 -263.67)"/></svg>