<svg xmlns="http://www.w3.org/2000/svg" viewBox="0 0 1231.57 1103.39"><defs><style>.cls-1,.cls-2{fill:#cc1213;stroke-linecap:square;stroke-miterlimit:10;stroke-width:11px;}.cls-1{stroke:#fc0;}.cls-2{stroke:#fff;}.cls-3{fill:#020000;}.cls-4{fill:#fc0;}</style></defs><title>logo</title><g id="Xtras_--_Back_copy" data-name="Xtras -- Back copy"><path class="cls-1" d="M3649,640" transform="translate(-2348.23 -196.63)"/><path class="cls-2" d="M2409.51,780c31.4,49.69,115.12,129.49,115.12,129.49,20.88,50.77,70.65,59.34,111.21,56.79,63.24,132.32,164.63,253,325.24,328.21,0,0,.09.08.13.06l.13-.06c160.61-75.19,262-195.89,325.24-328.21,40.56,2.55,90.34-6,111.21-56.79,0,0,83.72-79.8,115.12-129.49,190.78-234.86-124-302.39-124-302.39l-4-61.26c-3-82.66-11.8-135.67-11.8-135.67C3223,223.09,3079.27,203,2961.34,202.13h-.26c-117.93.9-261.69,21-411.78,78.51,0,0-8.76,53-11.8,135.67l-5.61,60.27S2233,545.1,2409.51,780Z" transform="translate(-2348.23 -196.63)"/></g><g id="Banner_copy" data-name="Banner copy"><path class="cls-3" d="M2388.23,623s-1.3,44.47,153.38,27.47c0,0-9.48-92.88-6-148.68C2535.59,501.8,2385,544.81,2388.23,623Z" transform="translate(-2348.23 -196.63)"/><path class="cls-3" d="M2565.47,663.19C2369.7,712.07,2368,621,2368,621c-25.51,116.76,200.81,64.66,200.81,64.66s33.68-6.77,159.88-35.22c113.09-25.5,211.65-24.21,230.91-23.67v.12l1.7-.06,1.71.06v-.12c19.26-.54,117.82-1.83,230.91,23.67,126.2,28.45,159.87,35.22,159.87,35.22s226.33,52.1,200.82-64.66c0,0-1.75,90.81-196.82,42.32,27.47-200.93,2.59-367.63,2.59-367.63-108.17-41.65-211-63.25-303.69-72.06a948.11,948.11,0,0,0-94.84-4.89c-31.8,0-62.85,1.73-92.72,4.67-93.5,8.68-197.45,30.3-306.49,72.28,0,0-24.72,166.6,2.88,367.46ZM2578,419.59c53.64-22,190.8-69.14,383.23-69.14S3291.3,397.6,3345,419.62c2,63.68.66,147.34-11.49,237.79C3134.33,609.13,3055,609.12,3055,609.12L2963,604v-.19l-1.71.09-1.7-.09V604l-92.06,5.15s-79.13,0-277.85,48.13C2577.44,566.83,2576,483.23,2578,419.59Z" transform="translate(-2348.23 -196.63)"/><path class="cls-3" d="M3377,711.31C3250.9,688,3251.39,685.7,3251.39,685.7s-99.78-30.92-288.43-35.14v-.08l-1.71,0-1.7,0v.08c-188.66,4.22-288.43,35.14-288.43,35.14s.49,2.31-125.58,25.61C2413.41,735.73,2368,685.7,2368,685.7,2469,852.4,2531.8,894.78,2531.8,894.78c54.45,24,77.51,17.66,197.21-12.76,114.88-29.19,223.41-27.65,232-27.48h.56c8.55-.17,117.09-1.71,232,27.48,119.7,30.42,142.75,36.8,197.21,12.76,0,0,62.79-42.38,163.85-209.08C3554.56,685.7,3509.09,735.73,3377,711.31Z" transform="translate(-2348.23 -196.63)"/><path class="cls-3" d="M3289.65,925.19c-57.83-12.74-130.36-38.21-328.12-50v0H2961v0c-197.76,11.79-270.28,37.26-328.11,50s-91.25-15.74-91.25-15.74c27.47,61.76,102,38.44,102,38.44h0c60.49,135,159.15,258.51,318.14,332.48,158.89-73.93,257.45-197.34,317.87-332.24,8.12,2.3,75.43,19.32,101.23-38.67C3380.9,909.45,3347.54,938,3289.65,925.19Zm-72,89.17c-63.1,106.28-149.12,186.49-255.83,238.59-106.72-52.1-192.78-132.32-256-238.6a747.85,747.85,0,0,1-38.06-73.29c143.59-38.67,286.34-44.06,293.46-44.31,7.14.25,150.43,5.66,294.31,44.54A746.59,746.59,0,0,1,3217.63,1014.36Z" transform="translate(-2348.23 -196.63)"/><path class="cls-3" d="M3534.28,623c3.28-78.2-147.36-121.21-147.36-121.21,3.46,55.8-6,148.68-6,148.68C3535.57,667.48,3534.28,623,3534.28,623Z" transform="translate(-2348.23 -196.63)"/></g><g id="Text_copy" data-name="Text copy"><polygon class="cls-4" points="613.3 161.96 591.22 226.23 525.49 226.23 576.51 264.98 557.38 332.68 613.3 291.47 667.26 332.68 647.15 264.98 701.11 227.21 632.92 225.74 613.3 161.96"/><polygon class="cls-4" points="546.86 341.59 540 362.75 518.48 363.12 535.4 375.52 529.52 397.79 547.59 383.98 565.49 397.17 558.52 375.12 575.97 362.45 553.64 362.36 546.86 341.59"/><polygon class="cls-4" points="678.44 341.59 685.3 362.75 706.82 363.12 689.9 375.52 695.78 397.79 677.71 383.98 659.81 397.17 666.78 375.12 649.33 362.45 671.66 362.36 678.44 341.59"/><polygon class="cls-4" points="808.26 354.99 813.23 376.67 834.63 378.94 816.68 389.8 820.58 412.49 803.79 397.15 784.8 408.71 793.69 387.36 777.42 373.2 799.67 375.07 808.26 354.99"/><polygon class="cls-4" points="926.11 377.95 929.04 400 950.14 404.24 931.27 413.39 933.03 436.35 917.75 419.51 897.77 429.26 908.59 408.83 893.71 393.22 915.69 397.15 926.11 377.95"/><polygon class="cls-4" points="416.53 354.99 411.56 376.67 390.15 378.94 408.1 389.8 404.2 412.49 420.99 397.15 439.98 408.71 431.1 387.36 447.37 373.2 425.11 375.07 416.53 354.99"/><polygon class="cls-4" points="298.68 377.95 295.74 400 274.64 404.24 293.52 413.39 291.75 436.35 307.04 419.51 327.02 429.26 316.19 408.83 331.07 393.22 309.09 397.15 298.68 377.95"/><polygon class="cls-4" points="371.39 198.03 362.3 252.3 308.58 261.71 355.67 285.23 349.46 341.81 389.42 301.04 439.25 326.09 413.39 275.13 452.23 237.37 396.3 245.95 371.39 198.03"/><polygon class="cls-4" points="855.13 198.03 864.22 252.3 917.94 261.71 870.85 285.23 877.06 341.81 837.1 301.04 787.27 326.09 813.13 275.13 774.29 237.37 830.22 245.95 855.13 198.03"/><path class="cls-4" d="M2768.41,818q.39,4.53,6.35,5.53t19.33-.16l8.2-.72a33.31,33.31,0,0,0,9.28-2,17.59,17.59,0,0,0,6.66-4.61,29.48,29.48,0,0,0,4.87-7.7,81.24,81.24,0,0,0,3.92-11.1q.49-1.79,3.09-2a6.9,6.9,0,0,1,2.64.42l3.14,1c-.76,4.71-1.36,9.79-1.83,15.26s-.83,10.84-1.09,16.08c0,1.73-.37,2.85-1.12,3.35a5.25,5.25,0,0,1-2.43.87c-1.15.1-2.77.17-4.87.2s-4.37.13-6.82.27-4.95.25-7.47.33-4.73.2-6.6.36l-49,4.27q-6.26.54-14.31,1.57t-14.5,2a5,5,0,0,1-.63-2.23l-.18-2q-.29-3.24,1.86-3.64,8.07-2.22,11.47-4.26a6.17,6.17,0,0,0,3-6.35L2732,714.62a12.15,12.15,0,0,0-.74-3.52,5.25,5.25,0,0,0-1.94-2.33,10.92,10.92,0,0,0-4.15-1.49,60.85,60.85,0,0,0-7.35-.77c-1.48-.31-2.3-1.46-2.48-3.48l-.17-1.94a6.37,6.37,0,0,1,.23-2.41c4.62-.11,9.54-.29,14.73-.53s9.81-.52,13.84-.88q3-.25,6.89-.71l8.07-.92q4.2-.46,8.38-1c2.8-.39,5.33-.76,7.62-1.1a21.44,21.44,0,0,1,.53,2.34c.15.86.24,1.5.28,1.93.18,2-.44,3.3-1.84,3.86q-9.16,2.1-12.11,4.42a7.11,7.11,0,0,0-2.57,6.64Z" transform="translate(-2348.23 -196.63)"/><path class="cls-4" d="M2997.27,723.38a13,13,0,0,1-4.12.65c-2,0-3.46-.4-4.32-1.19a6.06,6.06,0,0,1-1.74-2.5q-5-12.33-12.88-17.75t-21.11-5.41q-10.39,0-17.65,5.09t-7.26,15.48a16.35,16.35,0,0,0,5.53,12.88,53.16,53.16,0,0,0,13.86,8.55q8.33,3.69,18,7.15a94.37,94.37,0,0,1,18,8.66,46.56,46.56,0,0,1,13.85,13.21q5.53,8,5.53,20.57a46.73,46.73,0,0,1-2.82,16,36.54,36.54,0,0,1-8.87,13.75,44.23,44.23,0,0,1-15.38,9.53q-9.3,3.57-22.3,3.57a97.18,97.18,0,0,1-25.55-3.08,107.12,107.12,0,0,1-18.62-6.68q-.65-9.28-2.06-18.28t-3.14-17.43a13.46,13.46,0,0,1,5-.87,6.48,6.48,0,0,1,3.9,1,7.05,7.05,0,0,1,2.16,3.35,79.51,79.51,0,0,0,6.28,14.19,36.29,36.29,0,0,0,8,9.74,28.63,28.63,0,0,0,10.51,5.52,49.16,49.16,0,0,0,13.75,1.73,31.78,31.78,0,0,0,11.47-1.84,22.25,22.25,0,0,0,7.8-4.88,19.65,19.65,0,0,0,4.55-7.16,24.26,24.26,0,0,0,1.51-8.45q0-9.33-5.3-14.64a44.26,44.26,0,0,0-13.21-8.89q-7.91-3.59-17.11-6.72a84.58,84.58,0,0,1-17.1-8,43.78,43.78,0,0,1-13.21-12.58q-5.31-7.7-5.31-20.71a41.38,41.38,0,0,1,3.14-16.16,36.57,36.57,0,0,1,9.2-13A45.12,45.12,0,0,1,2934.8,689a54.83,54.83,0,0,1,19.6-3.26,88.15,88.15,0,0,1,18.3,1.95,136.42,136.42,0,0,1,20.89,6.5q.43,6.5,1.4,14.61C2995.65,714.17,2996.4,719.05,2997.27,723.38Z" transform="translate(-2348.23 -196.63)"/><path class="cls-4" d="M3140.52,839.92q-18-3-30.49-10.74a61.21,61.21,0,0,1-19.7-18.95,64.6,64.6,0,0,1-9.36-25,90,90,0,0,1,.29-29,81.16,81.16,0,0,1,8.47-24.72,67,67,0,0,1,17.29-21,70.28,70.28,0,0,1,26.28-13q15.39-4.14,35.26-.87a133.76,133.76,0,0,1,20.16,4.87,200,200,0,0,1,19.87,7.89q-.53,5.83-.73,15a145.16,145.16,0,0,0,.75,18.12l-2.87.07a15.37,15.37,0,0,1-2.61-.1,6.94,6.94,0,0,1-2.8-1,3.08,3.08,0,0,1-1.23-2.51,56.6,56.6,0,0,0-3.39-12.74,26,26,0,0,0-5.89-8.87,28.34,28.34,0,0,0-9-5.77,59.18,59.18,0,0,0-12.83-3.43,50.29,50.29,0,0,0-21,.58,40.18,40.18,0,0,0-16.72,8.87,51.61,51.61,0,0,0-12,16.23,82.84,82.84,0,0,0-7,22.89,87.82,87.82,0,0,0-.53,26.46,69.58,69.58,0,0,0,6.84,22.42,48.48,48.48,0,0,0,13.23,16.23A40.37,40.37,0,0,0,3149.4,830a59.37,59.37,0,0,0,14.9.82,28.74,28.74,0,0,0,20.15-10.39,73.62,73.62,0,0,0,7.64-11,4.41,4.41,0,0,1,2.43-2.12,6,6,0,0,1,3-.27,13.89,13.89,0,0,1,2.62.76,16.18,16.18,0,0,1,2.54,1.18c-1.25,2.29-2.6,4.88-4,7.79s-2.91,5.88-4.43,8.92-2.95,6.1-4.26,9.17-2.5,6.07-3.56,9a213.65,213.65,0,0,1-21.82-.74Q3153.55,842.06,3140.52,839.92Z" transform="translate(-2348.23 -196.63)"/><circle class="cls-4" cx="519.25" cy="558.62" r="18.88"/><circle class="cls-4" cx="687.94" cy="558.62" r="18.88"/><path class="cls-4" d="M2856.26,1003.67,2843,978.47a5.22,5.22,0,0,0-2.29-2.41,12.56,12.56,0,0,0-3.53-1c-.67,0-1-.61-1-1.66V973a1.59,1.59,0,0,1,.08-.45l.09-.58c1.21.11,2.78.2,4.69.29s4,.12,6.28.12c.78,0,1.71,0,2.79,0l3.29-.08c1.1,0,2.14-.07,3.11-.13s1.76-.11,2.37-.16a5,5,0,0,1,.17,1v.46c0,.95-.33,1.47-1,1.58a9.15,9.15,0,0,0-3,.71,1.36,1.36,0,0,0-.83,1.21,3.94,3.94,0,0,0,.58,1.74l9.73,19.3,9.56-18a5.62,5.62,0,0,0,.92-2.66,1.52,1.52,0,0,0-.92-1.45,13,13,0,0,0-3.16-.88c-.72-.11-1.08-.63-1.08-1.58a10.5,10.5,0,0,1,.25-1.49c1.17.11,2.62.2,4.37.29s3.28.12,4.61.12,2.62,0,4-.08,2.84-.17,4.28-.33a3.61,3.61,0,0,1,.17,1v.54c0,1-.34,1.53-1,1.58a12.91,12.91,0,0,0-4.16,1.08,5.55,5.55,0,0,0-2,2.08l-13.73,25.28v16.56a3.73,3.73,0,0,0,.25,1.49,2.24,2.24,0,0,0,.92,1,6.57,6.57,0,0,0,1.78.71,28.65,28.65,0,0,0,3,.54,1.33,1.33,0,0,1,.7.37,1.75,1.75,0,0,1,.3,1.21,1.8,1.8,0,0,1-.05.37,2.19,2.19,0,0,0,0,.46l-.08.58c-.89,0-1.72,0-2.5,0s-1.55-.07-2.32-.12c-1.34-.12-2.71-.18-4.12-.21s-2.59-.05-3.54-.05-2.15,0-3.45.05-2.56.09-3.78.21l-2.12.12c-.7,0-1.4,0-2.12,0l-.09-.58a1.65,1.65,0,0,1-.08-.46v-.37a1.81,1.81,0,0,1,.29-1.21,1.32,1.32,0,0,1,.71-.37c1.16-.22,2.13-.43,2.91-.62a7.82,7.82,0,0,0,1.83-.67,2,2,0,0,0,.91-1,3.73,3.73,0,0,0,.25-1.49Z" transform="translate(-2348.23 -196.63)"/><path class="cls-4" d="M2934.86,1008.33V978.8a2.76,2.76,0,0,0-1.25-2.57,12.46,12.46,0,0,0-4.41-1.17,1.4,1.4,0,0,1-1.08-1.58v-.66a2,2,0,0,1,.17-.83c1.38.16,2.74.27,4.07.33s2.88.08,4.66.08,3.3,0,4.57-.08,2.55-.17,3.83-.33c0,.27.09.55.12.83a6,6,0,0,1,0,.66c0,.95-.33,1.47-1,1.58a9,9,0,0,0-3.75,1.17,2.83,2.83,0,0,0-1,2.41v48.65a7.32,7.32,0,0,1-1.12.13l-1,0a3.14,3.14,0,0,1-1.24-.29A4.14,4.14,0,0,1,2935,1026l-32.77-41.58v35.93a5.83,5.83,0,0,0,.13,1.37,1.5,1.5,0,0,0,.66.91,5.56,5.56,0,0,0,1.58.67c.7.19,1.63.4,2.79.62a1.43,1.43,0,0,1,.71.37,1.81,1.81,0,0,1,.29,1.21,7.61,7.61,0,0,1-.17,1.42c-1.39-.12-2.69-.21-3.91-.3s-2.63-.12-4.24-.12-3.15,0-4.61.12-2.82.18-4,.3a1.68,1.68,0,0,1-.16-.75v-.67a1.74,1.74,0,0,1,.29-1.16,1.28,1.28,0,0,1,.7-.42,10.29,10.29,0,0,0,4-1.24,2.75,2.75,0,0,0,1-2.33V978.22a2.5,2.5,0,0,0-.87-2,9.15,9.15,0,0,0-3.95-1.12c-.67-.17-1-.69-1-1.58v-.37a1.38,1.38,0,0,1,.09-.46l.08-.66,2.24.12c.72,0,1.45.07,2.17.12,1.21.06,2.45.1,3.7.13s2.26,0,3,0a14.66,14.66,0,0,1,3.16.21,3,3,0,0,1,1.33.79Z" transform="translate(-2348.23 -196.63)"/><path class="cls-4" d="M2991.49,971.57c.28-.06.53-.1.75-.13s.42,0,.58,0a1.34,1.34,0,0,1,1,.29,3.66,3.66,0,0,1,.62,1.13l13.64,35.93,10.15-29.36a5.1,5.1,0,0,0,.41-1.75,1.78,1.78,0,0,0-1.08-1.7,12.34,12.34,0,0,0-3.74-.88c-.66,0-1-.58-1-1.58a1.8,1.8,0,0,1,0-.37,3.23,3.23,0,0,0,0-.46l.09-.66c.94.11,2.29.2,4,.29s3.37.12,4.87.12,3.13,0,4.57-.08a38.37,38.37,0,0,0,3.83-.33l.08.66a2.81,2.81,0,0,0,0,.5,2.37,2.37,0,0,1,.05.42c0,1-.37,1.6-1.09,1.66a11.86,11.86,0,0,0-3.78.83,3.71,3.71,0,0,0-1.79,2.25l-17.55,49.06a3.29,3.29,0,0,1-.58.09h-.58a1.38,1.38,0,0,1-.88-.25,3.76,3.76,0,0,1-.7-1.17L2989.91,990l-13.22,37.42a3.34,3.34,0,0,1-.62.09h-.55a1.48,1.48,0,0,1-.95-.25,3.1,3.1,0,0,1-.63-1.17l-18.21-48.15a3.32,3.32,0,0,0-1.46-1.79,11.82,11.82,0,0,0-4.2-1c-.72-.06-1.08-.64-1.08-1.75v-.71a1.25,1.25,0,0,1,.17-.7l2.83.16c1.05.06,2.12.1,3.2.13l3.16.08c1,0,1.93,0,2.7,0q2.74,0,6-.12c2.16-.09,4.1-.18,5.82-.29a7.55,7.55,0,0,1,.13.83c0,.27,0,.49,0,.66,0,1-.36,1.53-1.08,1.58a10.86,10.86,0,0,0-3.74.83,1.76,1.76,0,0,0-1.09,1.58,2.18,2.18,0,0,0,.09.63,4.68,4.68,0,0,0,.25.7l10.89,30Z" transform="translate(-2348.23 -196.63)"/><path class="cls-4" d="M3055.28,1008.16h-17.46l-4.33,11.56a2.48,2.48,0,0,0-.33.92,4.33,4.33,0,0,0-.08.75,1.72,1.72,0,0,0,.87,1.49,10,10,0,0,0,3.53,1c.78.11,1.17.64,1.17,1.58a7.61,7.61,0,0,1-.17,1.42c-1.49-.12-3.07-.21-4.74-.3s-3.3-.12-4.9-.12c-1.12,0-2.28,0-3.5.08s-2.58.17-4.07.34a1.56,1.56,0,0,1-.17-.75v-.67c0-1,.36-1.61,1.08-1.66a14.62,14.62,0,0,0,3.7-1.08,4.07,4.07,0,0,0,1.79-2l20-47.9a2.14,2.14,0,0,1,2-1.42c.28,0,.55,0,.83,0s.58.07.92.13l20,49.4a3.41,3.41,0,0,0,1.91,1.87,11.57,11.57,0,0,0,3.08.87,1.5,1.5,0,0,1,1.25,1.67,7.91,7.91,0,0,1-.17,1.5c-1.78-.12-3.52-.21-5.24-.3s-3.33-.12-4.82-.12c-.78,0-1.72,0-2.83,0s-2.25.07-3.41.13l-3.45.12c-1.14,0-2.1.07-2.87.13a1.69,1.69,0,0,1-.17-.75v-.67a1.83,1.83,0,0,1,.29-1.12,1.25,1.25,0,0,1,.63-.46,13,13,0,0,0,3.2-1,1.75,1.75,0,0,0,1-1.63,3.93,3.93,0,0,0-.25-1.24Zm-1.58-4.16-7.07-18.71L3039.4,1004Z" transform="translate(-2348.23 -196.63)"/><path class="cls-4" d="M2873.1,1083.25a2.06,2.06,0,0,1,1.18-.52,1.58,1.58,0,0,1,.85.34,3.49,3.49,0,0,1,1,1.3,18,18,0,0,1-6.64,5,22.63,22.63,0,0,1-8.87,1.59,18.06,18.06,0,0,1-5.68-.92,14.33,14.33,0,0,1-5-2.9,14.58,14.58,0,0,1-3.6-4.94,18.43,18.43,0,0,1,.22-14.51,18.61,18.61,0,0,1,4-5.6,18,18,0,0,1,5.34-3.53,14.23,14.23,0,0,1,5.57-1.23q7.2,0,10.87,4.16t3.68,11.36a.46.46,0,0,1-.52.52l-21.23.89q0,5.79,2.59,8.87c1.72,2.06,4.31,3.08,7.77,3.08a14.3,14.3,0,0,0,4.51-.74A11.27,11.27,0,0,0,2873.1,1083.25Zm-12.67-22.64a5.35,5.35,0,0,0-4.61,2.49q-1.74,2.49-1.74,7.83l11.52-.52q1.11-.08,1.11-1a13.18,13.18,0,0,0-.37-3,10.15,10.15,0,0,0-1.15-2.86,7.11,7.11,0,0,0-2-2.16A4.75,4.75,0,0,0,2860.43,1060.61Z" transform="translate(-2348.23 -196.63)"/><path class="cls-4" d="M2901.74,1067.29c-.69,0-1.08-.32-1.18-.81a6.77,6.77,0,0,0-2.38-4.46,7.53,7.53,0,0,0-4.68-1.41,5.42,5.42,0,0,0-3.86,1.26,4,4,0,0,0-1.33,3,4.66,4.66,0,0,0,.22,1.49,2.94,2.94,0,0,0,.93,1.26,7.93,7.93,0,0,0,2,1.15,31.65,31.65,0,0,0,3.41,1.22,37.8,37.8,0,0,1,4.46,1.6,12.58,12.58,0,0,1,3.26,2,7.89,7.89,0,0,1,2,2.86,10.17,10.17,0,0,1,.71,4,11.84,11.84,0,0,1-.71,4.09,8.54,8.54,0,0,1-2.26,3.37,10.89,10.89,0,0,1-3.94,2.27,17.78,17.78,0,0,1-5.71.81,32.81,32.81,0,0,1-5.46-.52,18.27,18.27,0,0,1-5.6-1.85c-.1-1.29-.19-2.66-.26-4.12s-.12-2.91-.12-4.34h1a3.41,3.41,0,0,1,1.41.26,1,1,0,0,1,.67.85,6.54,6.54,0,0,0,2.45,4.79,9.47,9.47,0,0,0,5.94,1.67,7,7,0,0,0,4.23-1.19,3.67,3.67,0,0,0,1.63-3.12,3.9,3.9,0,0,0-1.44-3,15.66,15.66,0,0,0-5.46-2.45q-5.42-1.56-7.61-4.12a9.12,9.12,0,0,1-2.19-6.13,9.57,9.57,0,0,1,3.15-7.49,11.83,11.83,0,0,1,8.21-2.83,22.1,22.1,0,0,1,5.6.71,23.11,23.11,0,0,1,4.35,1.52c0,.4.09.93.14,1.6s.1,1.38.15,2.15.09,1.51.11,2.23,0,1.32,0,1.82Z" transform="translate(-2348.23 -196.63)"/><path class="cls-4" d="M2929.58,1085.26a2.6,2.6,0,0,1,1.27-.45c.49,0,1,.52,1.55,1.56a18.42,18.42,0,0,1-5.45,3.71,13.65,13.65,0,0,1-4.94.89,10.84,10.84,0,0,1-2.86-.37,6.18,6.18,0,0,1-2.48-1.33,6.7,6.7,0,0,1-1.79-2.64,11.71,11.71,0,0,1-.66-4.27V1062h-4.46v-1.86a2.41,2.41,0,0,1,.15-.74c.1-.3.4-.45.89-.45a6.48,6.48,0,0,0,3.71-1.15,8,8,0,0,0,2.75-3.45,10.34,10.34,0,0,1,1.82-2.75,2.83,2.83,0,0,1,2-1h1.56v7.73h8.68a8.56,8.56,0,0,1-.33,3,1.26,1.26,0,0,1-1.23.67h-7.12v18.33a32.75,32.75,0,0,0,.14,3.53,6,6,0,0,0,.49,2,1.56,1.56,0,0,0,.89.85,4.19,4.19,0,0,0,1.3.19,5.87,5.87,0,0,0,1.93-.41A10.69,10.69,0,0,0,2929.58,1085.26Z" transform="translate(-2348.23 -196.63)"/><path class="cls-4" d="M2953.12,1063.73a1.77,1.77,0,0,1-1,.44,2.23,2.23,0,0,1-1-.29,2.55,2.55,0,0,1-.93-.89,23.85,23.85,0,0,1,3-3.2,22.3,22.3,0,0,1,3.56-2.59,19.65,19.65,0,0,1,3.94-1.79,13.5,13.5,0,0,1,4.19-.66q5.49,0,8.13,2.59a9.31,9.31,0,0,1,2.63,6.91,11.69,11.69,0,0,1-.74,4.12,15.07,15.07,0,0,1-2.63,4.23,45.75,45.75,0,0,1-5.13,5.05q-3.22,2.77-8.2,6.49h10.91a5.73,5.73,0,0,0,2.53-.48,4.59,4.59,0,0,0,1.78-2.41,1.23,1.23,0,0,1,1.19-.82,6,6,0,0,1,1,.15,1.42,1.42,0,0,1,.34,0,2.48,2.48,0,0,0,.41,0c-.45,1.33-.87,2.78-1.26,4.34s-.72,3-1,4.49a1.25,1.25,0,0,1-.37.74,1.39,1.39,0,0,1-.74.15c-.89,0-2-.05-3.34-.15s-2.8-.15-4.38-.15h-15.89v-2.3q4.46-4.08,7.39-7.16a58.31,58.31,0,0,0,4.71-5.53,17.75,17.75,0,0,0,2.49-4.49,12.2,12.2,0,0,0,.7-4,7.19,7.19,0,0,0-1.3-4.64,4.46,4.46,0,0,0-3.67-1.59,7.72,7.72,0,0,0-3.3.7A25.37,25.37,0,0,0,2953.12,1063.73Z" transform="translate(-2348.23 -196.63)"/><path class="cls-4" d="M2999.52,1091a21.25,21.25,0,0,1-7.62-1.29,15.6,15.6,0,0,1-5.68-3.68,16,16,0,0,1-3.52-5.68,20.8,20.8,0,0,1-1.22-7.31,19.62,19.62,0,0,1,1.29-7.13,17.05,17.05,0,0,1,3.68-5.79,17.73,17.73,0,0,1,5.68-3.9,18.28,18.28,0,0,1,7.39-1.44,19.28,19.28,0,0,1,7.35,1.37,17.13,17.13,0,0,1,5.71,3.79,16.57,16.57,0,0,1,3.67,5.75,21.21,21.21,0,0,1,.08,14.4,17,17,0,0,1-3.53,5.72,15.9,15.9,0,0,1-5.67,3.82A20,20,0,0,1,2999.52,1091Zm-8.17-18a26.35,26.35,0,0,0,.67,6.38,13.89,13.89,0,0,0,1.81,4.38,7.64,7.64,0,0,0,2.68,2.53,6.6,6.6,0,0,0,3.15.81,6.1,6.1,0,0,0,2.93-.78,7.11,7.11,0,0,0,2.57-2.48,14.89,14.89,0,0,0,1.81-4.38,25.18,25.18,0,0,0,.71-6.46,27.23,27.23,0,0,0-.67-6.5,14.66,14.66,0,0,0-1.82-4.49,7.56,7.56,0,0,0-2.63-2.6,6.13,6.13,0,0,0-6.09,0,7.8,7.8,0,0,0-2.64,2.53,13.84,13.84,0,0,0-1.81,4.45A28.1,28.1,0,0,0,2991.35,1073Z" transform="translate(-2348.23 -196.63)"/><path class="cls-4" d="M3022.3,1055.41c1.24.15,2.6.25,4.09.3s3.19.08,5.12.08,3.62,0,5.09-.12,2.83-.18,4.12-.33c0,.25.08.49.11.74s0,.47,0,.67c0,.4-.08.66-.26.78a1.46,1.46,0,0,1-.55.26,8.38,8.38,0,0,0-3.38,1,2,2,0,0,0-.78,1.64v25.09a1.73,1.73,0,0,0,.93,1.63,11.74,11.74,0,0,0,3.23,1,1.64,1.64,0,0,1,.55.26.79.79,0,0,1,.26.7,7.83,7.83,0,0,1-.14,1.41c-1.29-.09-2.68-.18-4.16-.25s-3.19-.12-5.12-.12-3.62.05-5.05.15l-4,.3a2,2,0,0,1-.19-.71q0-.4,0-.78a.89.89,0,0,1,.81-1,11.23,11.23,0,0,0,3.27-1,1.75,1.75,0,0,0,.89-1.63v-25.09a1.75,1.75,0,0,0-1-1.6,10.34,10.34,0,0,0-3.2-.93,1.15,1.15,0,0,1-.59-.26c-.15-.12-.22-.38-.22-.78v-.66A2,2,0,0,1,3022.3,1055.41Z" transform="translate(-2348.23 -196.63)"/><path class="cls-4" d="M3048.36,1063.73a1.78,1.78,0,0,1-1,.44,2.27,2.27,0,0,1-1-.29,2.55,2.55,0,0,1-.93-.89,25.2,25.2,0,0,1,3-3.2,22.38,22.38,0,0,1,3.57-2.59,19.83,19.83,0,0,1,3.93-1.79,13.54,13.54,0,0,1,4.19-.66c3.67,0,6.37.86,8.13,2.59a9.28,9.28,0,0,1,2.64,6.91,11.69,11.69,0,0,1-.74,4.12,15.37,15.37,0,0,1-2.64,4.23,45.56,45.56,0,0,1-5.12,5.05q-3.22,2.77-8.2,6.49h10.91a5.66,5.66,0,0,0,2.52-.48,4.49,4.49,0,0,0,1.78-2.41,1.24,1.24,0,0,1,1.19-.82,6.24,6.24,0,0,1,1,.15,1.48,1.48,0,0,1,.34,0,2.46,2.46,0,0,0,.4,0c-.44,1.33-.86,2.78-1.26,4.34s-.72,3-1,4.49a1.31,1.31,0,0,1-.37.74,1.41,1.41,0,0,1-.75.15c-.89,0-2-.05-3.34-.15s-2.8-.15-4.38-.15h-15.89v-2.3q4.45-4.08,7.39-7.16a57.12,57.12,0,0,0,4.72-5.53,18,18,0,0,0,2.48-4.49,12.22,12.22,0,0,0,.71-4,7.25,7.25,0,0,0-1.3-4.64,4.48,4.48,0,0,0-3.68-1.59,7.75,7.75,0,0,0-3.3.7A25.37,25.37,0,0,0,3048.36,1063.73Z" transform="translate(-2348.23 -196.63)"/><path class="cls-4" d="M2635.44,361.07c.38,1.38,1.52,2.06,3.42,2a40.65,40.65,0,0,0,8.95-1.73l3.74-1a15.51,15.51,0,0,0,4.13-1.72,8.29,8.29,0,0,0,2.7-2.7,14,14,0,0,0,1.6-4,38.5,38.5,0,0,0,.87-5.48c.05-.58.47-1,1.26-1.19a3.22,3.22,0,0,1,1.26,0l1.54.21c.06,2.25.21,4.65.46,7.23s.54,5.1.86,7.55a1.83,1.83,0,0,1-.23,1.65,2.44,2.44,0,0,1-1.05.61c-.53.14-1.28.31-2.24.51s-2,.43-3.14.7-2.28.54-3.44.79-2.18.49-3,.73l-22.34,6.15q-2.85.79-6.5,1.95c-2.44.78-4.62,1.5-6.55,2.18a2.36,2.36,0,0,1-.48-1c-.12-.43-.21-.74-.26-.94-.27-1-.09-1.6.55-1.84a23.58,23.58,0,0,0,5-3,2.9,2.9,0,0,0,.86-3.2l-13.58-49.3a5.72,5.72,0,0,0-.64-1.57,2.52,2.52,0,0,0-1.1-.92,5.09,5.09,0,0,0-2.05-.33,25.3,25.3,0,0,0-3.47.27c-.72,0-1.2-.49-1.45-1.41-.05-.19-.14-.49-.24-.88a2.81,2.81,0,0,1-.1-1.14q3.2-.68,6.78-1.5t6.34-1.59c.92-.25,2-.55,3.14-.91l3.66-1.12c1.27-.38,2.54-.78,3.8-1.2s2.41-.8,3.44-1.16c.15.31.3.66.44,1s.24.68.3.87a1.58,1.58,0,0,1-.53,1.95q-4.07,1.75-5.24,3.08a3.36,3.36,0,0,0-.62,3.3Z" transform="translate(-2348.23 -196.63)"/><path class="cls-4" d="M2691,348.2a8.06,8.06,0,0,0,.53,1.6,2.09,2.09,0,0,0,1.06,1,5.65,5.65,0,0,0,2.09.4,28.35,28.35,0,0,0,3.48-.12c.69,0,1.16.46,1.39,1.45.05.2.1.5.16.91a7.09,7.09,0,0,1,.08,1q-3.22.54-6.89,1.24T2686.4,357q-2.88.67-6.43,1.65t-6.68,1.93a2.46,2.46,0,0,1-.43-.95c-.09-.4-.16-.7-.2-.9q-.37-1.58.6-1.92a27.31,27.31,0,0,0,3.18-1.42,5.17,5.17,0,0,0,1.64-1.27,2.48,2.48,0,0,0,.53-1.33,6.11,6.11,0,0,0-.18-1.69l-11.6-49.81a5.77,5.77,0,0,0-.59-1.59,2.43,2.43,0,0,0-1.06-1,5.12,5.12,0,0,0-2-.41,28.24,28.24,0,0,0-3.48.12c-.71,0-1.18-.52-1.39-1.45q-.08-.3-.21-.9A3.17,3.17,0,0,1,2658,295q3.24-.54,6.84-1.23t6.5-1.35c1.86-.43,4-1,6.38-1.64s4.64-1.31,6.73-1.94a9.85,9.85,0,0,1,.4,1.06c.13.39.21.69.26.89a1.56,1.56,0,0,1-.6,1.92,25.84,25.84,0,0,0-3.18,1.42,5.57,5.57,0,0,0-1.69,1.28,2.08,2.08,0,0,0-.53,1.33,7.84,7.84,0,0,0,.23,1.68Z" transform="translate(-2348.23 -196.63)"/><path class="cls-4" d="M2745.17,286a6.34,6.34,0,0,0,.1-2.2,2.21,2.21,0,0,0-1.69-1.81,15.51,15.51,0,0,0-4.71-.2c-.82.09-1.34-.48-1.57-1.68a2.17,2.17,0,0,1,0-.46,2.89,2.89,0,0,0-.06-.56l-.05-.82c.62,0,1.37-.12,2.25-.22s1.84-.22,2.88-.39l3.13-.48c1-.17,2-.33,2.87-.49q2.91-.56,5.55-1.15a40.1,40.1,0,0,0,4.49-1.27l.25.79a1.76,1.76,0,0,1,.21.58c0,.2.07.37.1.5.24,1.27,0,2-.83,2.23a12.84,12.84,0,0,0-4.36,1.92,5.28,5.28,0,0,0-1.66,3.06l-13.6,63.86a4.83,4.83,0,0,1-.79.25l-.7.14a1.78,1.78,0,0,1-1.21-.09,3.63,3.63,0,0,1-1-1.26l-34.43-53.65a9.89,9.89,0,0,0-.89-1.13,3,3,0,0,0-1.23-.75,6.66,6.66,0,0,0-2-.3q-1.2,0-3.15.12c-.88.1-1.44-.52-1.7-1.86,0-.2-.09-.48-.16-.85a1.6,1.6,0,0,1,0-.89c1-.12,2.17-.27,3.45-.44s2.58-.37,3.89-.58l3.83-.62q1.86-.3,3.27-.57c2.21-.41,4.6-.92,7.2-1.51s4.9-1.15,6.95-1.68a2.61,2.61,0,0,1,.39,1c.06.33.11.6.15.8.23,1.2,0,1.92-.84,2.13a13.23,13.23,0,0,0-4.33,1.86,2.16,2.16,0,0,0-.94,2.15,5.45,5.45,0,0,0,.6,1.55L2737,327.87Z" transform="translate(-2348.23 -196.63)"/><path class="cls-4" d="M2787.3,276l3.3,24.38,14.27-1.93a2.63,2.63,0,0,0,2.41-1.92,20.82,20.82,0,0,0,.53-5.28,1.24,1.24,0,0,1,.46-1.14,3,3,0,0,1,1.28-.43c.2,0,.52-.06,1-.08a4.17,4.17,0,0,1,1,0c.07,1.57.2,3.39.38,5.46s.36,3.81.55,5.23c.17,1.21.39,2.64.69,4.29s.67,3.49,1.16,5.55a2,2,0,0,1-.93.39l-.95.18c-1.21.16-1.92-.22-2.11-1.16a18.69,18.69,0,0,0-2.07-5,2.64,2.64,0,0,0-2.67-1l-14.26,1.93,3.07,22.66c.19,1.41,1.19,2.24,3,2.47a38.91,38.91,0,0,0,9-.49l4.25-.58a14.13,14.13,0,0,0,5-1.5,12.12,12.12,0,0,0,3.38-2.78,15.86,15.86,0,0,0,2.37-3.82q.95-2.13,1.83-4.73.21-.75,1.32-.9a3.27,3.27,0,0,1,1.25.14l1.5.42a14.52,14.52,0,0,1-.25,1.58c-.1.49-.19,1-.26,1.47a12.57,12.57,0,0,0-.48,2.54,16.74,16.74,0,0,1-.32,2.21c-.05.69-.09,1.47-.15,2.33s-.11,1.7-.18,2.5-.13,1.51-.22,2.14-.15,1.05-.19,1.27a1.65,1.65,0,0,1-1.51,1c-.54.08-1.32.15-2.34.22s-2.12.16-3.31.29-2.38.24-3.61.33-2.27.21-3.15.33l-23,3.11c-2,.26-4.19.62-6.71,1.06s-4.77.87-6.78,1.28a2.4,2.4,0,0,1-.34-1c-.06-.44-.1-.76-.13-1-.14-1,.12-1.6.79-1.76a23.29,23.29,0,0,0,5.31-2.27,2.88,2.88,0,0,0,1.28-3.05l-6.86-50.68a4,4,0,0,0-.53-1.63,2.47,2.47,0,0,0-1.32-.95,10,10,0,0,0-2.33-.51c-.94-.11-2.14-.21-3.59-.29q-1.05-.16-1.26-1.68c0-.34-.09-.66-.13-1a2.61,2.61,0,0,1,.07-1q4.39-.28,7.74-.64t5.78-.68l20.74-2.81c3-.41,5.63-.86,7.8-1.36s3.65-.81,4.46-.91a1.71,1.71,0,0,1,1.74.69,13,13,0,0,1,.91,2.91,37.62,37.62,0,0,0,1.32,4.41c.36,1.12.74,2.2,1.16,3.24s1,2.3,1.75,3.78c-.32.18-.67.37-1.06.56a3.71,3.71,0,0,1-1.19.36,1.73,1.73,0,0,1-1.74-.69,43.06,43.06,0,0,0-3-4.18,11.8,11.8,0,0,0-3-2.68,9.2,9.2,0,0,0-3.66-1.2,19.07,19.07,0,0,0-4.77.13Z" transform="translate(-2348.23 -196.63)"/><path class="cls-4" d="M2858.06,299.84l-4.38.36,1.75,21.26a3.39,3.39,0,0,0,2.25,3.15,24.3,24.3,0,0,0,6.9,1q1.44.09,1.59,1.92a9.91,9.91,0,0,1-.06,1.85c-2,0-4.44.1-7.4.24s-6.17.36-9.63.64q-3.66.3-7.06.73t-6.33.88a2,2,0,0,1-.27-.9c0-.34-.05-.61-.07-.81-.1-1.16.22-1.83,1-2,1.4-.39,2.53-.73,3.4-1a7,7,0,0,0,2-1,2.32,2.32,0,0,0,.88-1.19,5,5,0,0,0,.12-1.7l-4.18-51a3.22,3.22,0,0,0-1.72-2.83,15.51,15.51,0,0,0-5.76-1,1.89,1.89,0,0,1-.87-.55,2.54,2.54,0,0,1-.42-1.4c0-.27,0-.57-.07-.91a1.42,1.42,0,0,1,.13-.83q2.86,0,6.59-.19c2.49-.1,4.71-.23,6.68-.39l15.36-1.26a32.91,32.91,0,0,1,9.78.53,21.63,21.63,0,0,1,7.58,3.17,16.41,16.41,0,0,1,5.05,5.42,17.41,17.41,0,0,1,2.19,7.3,16.11,16.11,0,0,1-2.5,10.09,20.2,20.2,0,0,1-8.56,7.41l17.88,22a9.9,9.9,0,0,0,4.52,3.31,30.27,30.27,0,0,0,4.55,1.17,1.38,1.38,0,0,1,.85.39,1.94,1.94,0,0,1,.41,1.25c0,.27.05.57.08.91a2.62,2.62,0,0,1-.12,1c-.75,0-1.81,0-3.17.11s-2.77.14-4.23.2-2.93.11-4.39.2-2.67.17-3.61.25a6.74,6.74,0,0,1-4.42-1.43,23.21,23.21,0,0,1-4.56-4.39Zm-1.74-5a24.88,24.88,0,0,0,5.65-1.07,11,11,0,0,0,4.2-2.45,9.39,9.39,0,0,0,2.48-4.14,17.07,17.07,0,0,0,.45-6.29c-.34-4.2-1.63-7.45-3.87-9.72s-5.93-3.2-11.08-2.78l-3.05.25,2.17,26.45Z" transform="translate(-2348.23 -196.63)"/><path class="cls-4" d="M2925.16,297.59l.55,19.59a3.4,3.4,0,0,0,2.09,3.26,23.88,23.88,0,0,0,6.83,1.39c.95.11,1.45.78,1.48,2a8.8,8.8,0,0,1-.15,1.84c-2-.08-4.44-.13-7.41-.15s-6.17,0-9.64.13c-2.45.07-4.81.18-7.09.35s-4.4.35-6.37.54a2.08,2.08,0,0,1-.23-.92c0-.33,0-.61,0-.81,0-1.16.32-1.81,1.07-2,1.42-.31,2.57-.6,3.45-.86a7.71,7.71,0,0,0,2-.88,2.34,2.34,0,0,0,.94-1.15,4.67,4.67,0,0,0,.21-1.69l-1.45-51.12a3.23,3.23,0,0,0-1.57-2.92,15.75,15.75,0,0,0-5.7-1.27,1.79,1.79,0,0,1-.83-.59,2.37,2.37,0,0,1-.35-1.42c0-.27,0-.57,0-.91a1.43,1.43,0,0,1,.18-.82c1.91.08,4.11.13,6.6.17s4.71,0,6.68,0l15.41-.44q10.92-.3,17.18,4.42t6.51,13.5a19.26,19.26,0,0,1-1.31,7.64,17.71,17.71,0,0,1-4.37,6.46,23,23,0,0,1-7.17,4.54,27.24,27.24,0,0,1-9.75,1.91Zm2.91-5.19q6.22-.18,10-3.45t3.52-10.82q-.2-6.84-3.31-10.53t-11-3.46l-3.06.08.8,28.27Z" transform="translate(-2348.23 -196.63)"/><path class="cls-4" d="M2964.05,291.15a33.14,33.14,0,0,1,3.1-13.29,34.78,34.78,0,0,1,18.9-17.78,33.5,33.5,0,0,1,13.49-2.31,36.45,36.45,0,0,1,13.6,3,32.83,32.83,0,0,1,10.76,7.47,33.25,33.25,0,0,1,7,11.13,35.26,35.26,0,0,1,2.25,13.85,33.5,33.5,0,0,1-3.1,13.34,34.23,34.23,0,0,1-7.71,10.7,35.07,35.07,0,0,1-11.24,7,33.86,33.86,0,0,1-13.54,2.31,36.06,36.06,0,0,1-13.6-3,32.28,32.28,0,0,1-10.71-7.46,33.86,33.86,0,0,1-6.93-11.08A35.18,35.18,0,0,1,2964.05,291.15Zm35.17,30.13a15.9,15.9,0,0,0,7.81-1.66,18.73,18.73,0,0,0,6.12-5,24.39,24.39,0,0,0,4.1-7.54,30.69,30.69,0,0,0,1.65-9.34,61.62,61.62,0,0,0-1-13.51,34.64,34.64,0,0,0-3.87-10.89,21.49,21.49,0,0,0-6.83-7.35,18.5,18.5,0,0,0-9.77-2.89,16.17,16.17,0,0,0-7,1.38,17.59,17.59,0,0,0-6.05,4.42,23.18,23.18,0,0,0-4.29,7.18,28.62,28.62,0,0,0-1.82,9.65,62.82,62.82,0,0,0,1.07,14,37.22,37.22,0,0,0,4,11.19,21.59,21.59,0,0,0,6.67,7.45A16.93,16.93,0,0,0,2999.22,321.28Z" transform="translate(-2348.23 -196.63)"/><path class="cls-4" d="M3041.36,293.65a33.31,33.31,0,0,1,4-13,34.75,34.75,0,0,1,20-16.47,33.57,33.57,0,0,1,13.62-1.4,36.2,36.2,0,0,1,13.37,3.85,33,33,0,0,1,10.24,8.17,33.39,33.39,0,0,1,6.21,11.57,35.15,35.15,0,0,1,1.32,14,33.55,33.55,0,0,1-4,13.1,34.24,34.24,0,0,1-8.41,10.17,35.16,35.16,0,0,1-11.68,6.25,33.86,33.86,0,0,1-13.67,1.4,36.33,36.33,0,0,1-13.37-3.85,32.35,32.35,0,0,1-10.19-8.17,33.9,33.9,0,0,1-6.17-11.51A35.25,35.25,0,0,1,3041.36,293.65Zm33.07,32.42a15.94,15.94,0,0,0,7.91-1.13,18.74,18.74,0,0,0,6.43-4.56,24.42,24.42,0,0,0,4.6-7.25,31,31,0,0,0,2.28-9.21,63,63,0,0,0-.08-13.55,34.73,34.73,0,0,0-3.13-11.12,21.53,21.53,0,0,0-6.33-7.79,18.49,18.49,0,0,0-9.55-3.53,16.18,16.18,0,0,0-7.06.9,17.48,17.48,0,0,0-6.34,4,23.24,23.24,0,0,0-4.76,6.87,28.8,28.8,0,0,0-2.46,9.51,62.54,62.54,0,0,0,.13,14.06,37.71,37.71,0,0,0,3.2,11.43,21.67,21.67,0,0,0,6.17,7.88A16.85,16.85,0,0,0,3074.43,326.07Z" transform="translate(-2348.23 -196.63)"/><path class="cls-4" d="M3136,329.21c-.22,1.41.53,2.5,2.27,3.26a40.2,40.2,0,0,0,8.86,2.13l3.83.61a15.3,15.3,0,0,0,4.48.14A8.3,8.3,0,0,0,3159,334a13.66,13.66,0,0,0,3.11-3,37.93,37.93,0,0,0,3.06-4.63,1.44,1.44,0,0,1,1.64-.56,3.05,3.05,0,0,1,1.16.49l1.32.83c-.89,2.07-1.74,4.32-2.58,6.77s-1.62,4.86-2.34,7.23c-.19.79-.49,1.26-.89,1.41a2.52,2.52,0,0,1-1.21.12c-.54-.09-1.29-.25-2.25-.47s-2-.44-3.15-.65-2.29-.45-3.46-.71-2.18-.45-3.06-.59l-22.88-3.64q-2.92-.47-6.73-.91c-2.53-.3-4.82-.55-6.86-.73a2.43,2.43,0,0,1,0-1.09l.15-1c.16-1,.58-1.49,1.26-1.45a24.17,24.17,0,0,0,5.74-.64,2.92,2.92,0,0,0,2.11-2.56l8-50.51a6.22,6.22,0,0,0,.06-1.69,2.5,2.5,0,0,0-.62-1.29,5.21,5.21,0,0,0-1.73-1.15,27.8,27.8,0,0,0-3.27-1.2c-.65-.3-.89-.93-.74-1.87,0-.2.08-.5.14-.91a3,3,0,0,1,.38-1.07q3.2.7,6.8,1.44c2.41.48,4.55.88,6.43,1.18.94.15,2,.3,3.23.46l3.8.5c1.32.18,2.64.33,4,.47s2.52.27,3.61.37a11.28,11.28,0,0,1,0,1.14c0,.4-.06.71-.09.91-.15.94-.58,1.46-1.28,1.55-3-.05-5,.16-6.05.64a3.34,3.34,0,0,0-1.93,2.75Z" transform="translate(-2348.23 -196.63)"/><path class="cls-4" d="M3244.94,309.4a5.89,5.89,0,0,1-2-.15,3,3,0,0,1-1.86-1,2.88,2.88,0,0,1-.53-1.33q-.95-6.21-4-9.54t-9.1-4.77a14.08,14.08,0,0,0-8.65.43q-3.87,1.55-5,6.31a7.69,7.69,0,0,0,1.14,6.51,25.34,25.34,0,0,0,5.43,5.43c2.29,1.73,4.77,3.47,7.48,5.22a44.63,44.63,0,0,1,7.3,5.92,21.84,21.84,0,0,1,4.93,7.56,16.69,16.69,0,0,1,.31,10,22,22,0,0,1-3,7.05,17.24,17.24,0,0,1-5.56,5.35,21,21,0,0,1-8.09,2.71,29.34,29.34,0,0,1-10.62-.78,45.85,45.85,0,0,1-11.39-4.17,51.37,51.37,0,0,1-7.82-5.08q.71-4.33,1-8.61t.45-8.34a6.33,6.33,0,0,1,2.38.14,3.09,3.09,0,0,1,1.68.87,3.29,3.29,0,0,1,.63,1.77,37.61,37.61,0,0,0,1.35,7.19,17.07,17.07,0,0,0,2.62,5.34,13.39,13.39,0,0,0,4.22,3.67,23.13,23.13,0,0,0,6.12,2.28,15.14,15.14,0,0,0,5.47.4,10.42,10.42,0,0,0,4.1-1.4,9.17,9.17,0,0,0,2.86-2.79,11.4,11.4,0,0,0,1.61-3.72,9.34,9.34,0,0,0-.85-7.29,20.88,20.88,0,0,0-5.1-5.51q-3.24-2.49-7.12-4.93a39.39,39.39,0,0,1-7-5.54,20.75,20.75,0,0,1-4.7-7.2q-1.6-4.1-.19-10.07a19.36,19.36,0,0,1,3.19-7.08,17.14,17.14,0,0,1,5.63-5,21.24,21.24,0,0,1,7.65-2.45,25.79,25.79,0,0,1,9.35.63,41,41,0,0,1,8.18,2.87,64.76,64.76,0,0,1,8.89,5.24c-.34,2-.65,4.3-.94,6.86S3245,307.32,3244.94,309.4Z" transform="translate(-2348.23 -196.63)"/><path class="cls-4" d="M3275.09,371a39,39,0,0,1-13.61-6.85,28.84,28.84,0,0,1-8.08-10,30.45,30.45,0,0,1-2.88-12.26,42.59,42.59,0,0,1,1.88-13.56,38.13,38.13,0,0,1,5.44-11.05,31.66,31.66,0,0,1,9.34-8.76,33.19,33.19,0,0,1,13.07-4.51,39.13,39.13,0,0,1,16.54,1.71,62.7,62.7,0,0,1,9.13,3.48,95.14,95.14,0,0,1,8.82,4.88c-.39,1.8-.81,4.13-1.24,7a66.8,66.8,0,0,0-.73,8.52l-1.35-.14a8.72,8.72,0,0,1-1.22-.2,3.29,3.29,0,0,1-1.24-.64,1.47,1.47,0,0,1-.43-1.25,27.36,27.36,0,0,0-.82-6.16,12.17,12.17,0,0,0-2.22-4.5,13.38,13.38,0,0,0-3.88-3.24,27.79,27.79,0,0,0-5.79-2.37,23.56,23.56,0,0,0-9.88-1,18.75,18.75,0,0,0-8.35,3.15,24.21,24.21,0,0,0-6.58,6.87,38.67,38.67,0,0,0-4.63,10.28,41.09,41.09,0,0,0-1.83,12.34,32.64,32.64,0,0,0,1.85,10.9,23,23,0,0,0,5.22,8.38,19,19,0,0,0,8.22,4.91,28,28,0,0,0,6.92,1.28,14.31,14.31,0,0,0,5.46-.82,14,14,0,0,0,4.58-2.84,33.69,33.69,0,0,0,4.23-4.7,2.14,2.14,0,0,1,1.27-.84,2.83,2.83,0,0,1,1.42,0,7.1,7.1,0,0,1,1.18.51,8.86,8.86,0,0,1,1.12.71c-.72,1-1.51,2.13-2.35,3.4s-1.71,2.58-2.61,3.91-1.74,2.67-2.54,4-1.53,2.69-2.2,4a100.87,100.87,0,0,1-10.16-1.66Q3281.06,372.8,3275.09,371Z" transform="translate(-2348.23 -196.63)"/></g></svg>