<svg id="Layer_1" data-name="Layer 1" xmlns="http://www.w3.org/2000/svg" xmlns:xlink="http://www.w3.org/1999/xlink" viewBox="0 0 600.52 556.56"><defs><style>.cls-1,.cls-45{fill:#fff;}.cls-1{fill-opacity:0;}.cls-2,.cls-59{fill:#fbfbfb;}.cls-2,.cls-58{opacity:0.02;}.cls-10,.cls-11,.cls-12,.cls-13,.cls-14,.cls-144,.cls-145,.cls-147,.cls-15,.cls-156,.cls-158,.cls-16,.cls-17,.cls-18,.cls-19,.cls-2,.cls-20,.cls-21,.cls-22,.cls-23,.cls-24,.cls-25,.cls-26,.cls-27,.cls-28,.cls-29,.cls-3,.cls-30,.cls-31,.cls-32,.cls-33,.cls-34,.cls-35,.cls-36,.cls-37,.cls-38,.cls-39,.cls-4,.cls-40,.cls-41,.cls-5,.cls-6,.cls-7,.cls-8,.cls-9{isolation:isolate;}.cls-3,.cls-61{fill:#f6f6f8;}.cls-3,.cls-60{opacity:0.05;}.cls-4,.cls-63{fill:#f2f2f4;}.cls-4,.cls-62{opacity:0.07;}.cls-5,.cls-65{fill:#ededf0;}.cls-5,.cls-64{opacity:0.1;}.cls-6,.cls-67{fill:#e9e9ed;}.cls-6,.cls-66{opacity:0.12;}.cls-69,.cls-7{fill:#e4e4e9;}.cls-144,.cls-145,.cls-68,.cls-7{opacity:0.15;}.cls-71,.cls-8{fill:#e0e0e6;}.cls-158,.cls-70,.cls-8{opacity:0.17;}.cls-73,.cls-9{fill:#dbdbe2;}.cls-156,.cls-72,.cls-9{opacity:0.2;}.cls-10,.cls-75{fill:#d7d7de;}.cls-10,.cls-74{opacity:0.22;}.cls-11,.cls-77{fill:#d2d2db;}.cls-11,.cls-76{opacity:0.24;}.cls-12,.cls-79{fill:#ceced7;}.cls-12,.cls-78{opacity:0.27;}.cls-13,.cls-81{fill:#c9c9d3;}.cls-13,.cls-80{opacity:0.29;}.cls-14,.cls-83{fill:#c5c5d0;}.cls-14,.cls-82{opacity:0.32;}.cls-15,.cls-85{fill:#c1c1cc;}.cls-15,.cls-84{opacity:0.34;}.cls-16,.cls-87{fill:#bcbcc8;}.cls-16,.cls-86{opacity:0.37;}.cls-17,.cls-89{fill:#b8b8c5;}.cls-17,.cls-88{opacity:0.39;}.cls-18,.cls-91{fill:#b3b3c1;}.cls-18,.cls-90{opacity:0.41;}.cls-19,.cls-93{fill:#afafbe;}.cls-19,.cls-92{opacity:0.44;}.cls-20,.cls-95{fill:#aaaaba;}.cls-20,.cls-94{opacity:0.46;}.cls-21,.cls-97{fill:#a6a6b6;}.cls-21,.cls-96{opacity:0.49;}.cls-22,.cls-99{fill:#a1a1b3;}.cls-22,.cls-98{opacity:0.51;}.cls-101,.cls-23{fill:#9d9daf;}.cls-100,.cls-23{opacity:0.54;}.cls-103,.cls-24{fill:#9898ab;}.cls-102,.cls-24{opacity:0.56;}.cls-105,.cls-25{fill:#9494a8;}.cls-104,.cls-25{opacity:0.59;}.cls-107,.cls-26{fill:#8f8fa4;}.cls-106,.cls-26{opacity:0.61;}.cls-109,.cls-27{fill:#8b8ba1;}.cls-108,.cls-27{opacity:0.63;}.cls-111,.cls-28{fill:#86869d;}.cls-110,.cls-28{opacity:0.66;}.cls-113,.cls-29{fill:#828299;}.cls-112,.cls-29{opacity:0.68;}.cls-115,.cls-30{fill:#7e7e96;}.cls-114,.cls-30{opacity:0.71;}.cls-117,.cls-31{fill:#797992;}.cls-116,.cls-31{opacity:0.73;}.cls-119,.cls-32{fill:#75758e;}.cls-118,.cls-32{opacity:0.76;}.cls-121,.cls-33{fill:#70708b;}.cls-120,.cls-33{opacity:0.78;}.cls-123,.cls-34{fill:#6c6c87;}.cls-122,.cls-34{opacity:0.8;}.cls-125,.cls-35{fill:#676783;}.cls-124,.cls-35{opacity:0.83;}.cls-127,.cls-36{fill:#636380;}.cls-126,.cls-36{opacity:0.85;}.cls-129,.cls-37{fill:#5e5e7c;}.cls-128,.cls-37{opacity:0.88;}.cls-131,.cls-38{fill:#5a5a79;}.cls-130,.cls-38{opacity:0.9;}.cls-133,.cls-39{fill:#555575;}.cls-132,.cls-39{opacity:0.93;}.cls-135,.cls-40{fill:#515171;}.cls-134,.cls-40{opacity:0.95;}.cls-137,.cls-41{fill:#4c4c6e;}.cls-136,.cls-41{opacity:0.98;}.cls-42{fill:#48486a;}.cls-43{fill:url(#linear-gradient);}.cls-44{fill:#3f1152;}.cls-46{fill:url(#linear-gradient-2);}.cls-47{fill:#f7f7f7;}.cls-48{fill:#e5e9f4;}.cls-49{fill:#d3daed;}.cls-50{fill:url(#linear-gradient-3);}.cls-51{fill:#edf0f8;}.cls-52{fill:#dce1f1;}.cls-53{fill:url(#linear-gradient-4);}.cls-54{fill:#f9f7f9;}.cls-55{fill:#99a7d8;}.cls-56{fill:#f1f2f2;}.cls-57{opacity:0;}.cls-138{fill:url(#linear-gradient-5);}.cls-139{fill:url(#radial-gradient);}.cls-140{fill:#ffc107;}.cls-141{fill:#fafbfd;}.cls-142{fill:#ffcd39;}.cls-143{fill:url(#linear-gradient-6);}.cls-144{fill:#bcbec0;}.cls-145{fill:#808285;}.cls-146{fill:#c2cae8;}.cls-147,.cls-156,.cls-158{fill:#231f20;}.cls-147{opacity:0.3;}.cls-148{fill:url(#linear-gradient-7);}.cls-149{fill:#adb9e0;}.cls-150{fill:url(#linear-gradient-8);}.cls-151{fill:#dad9db;}.cls-152{fill:url(#linear-gradient-9);}.cls-153{fill:url(#linear-gradient-10);}.cls-154{fill:url(#linear-gradient-11);}.cls-155{fill:#ff9800;}.cls-157{fill:url(#linear-gradient-12);}.cls-159{fill:url(#linear-gradient-13);}.cls-160{fill:url(#linear-gradient-14);}.cls-161{fill:url(#linear-gradient-15);}.cls-162{fill:url(#linear-gradient-16);}.cls-163{fill:url(#linear-gradient-17);}.cls-164{fill:url(#linear-gradient-18);}.cls-165{fill:url(#linear-gradient-19);}</style><linearGradient id="linear-gradient" x1="114.73" y1="177.35" x2="377.9" y2="177.35" gradientTransform="translate(477.93 404.4) rotate(180)" gradientUnits="userSpaceOnUse"><stop offset="0" stop-color="#ebe9ec"/><stop offset="1" stop-color="#99a7d8"/></linearGradient><linearGradient id="linear-gradient-2" x1="-58.82" y1="16.86" x2="370.67" y2="16.86" gradientTransform="translate(477.93 404.4) rotate(180)" gradientUnits="userSpaceOnUse"><stop offset="0" stop-color="#fff"/><stop offset="1" stop-color="#99a7d8"/></linearGradient><linearGradient id="linear-gradient-3" x1="272.55" y1="-84.34" x2="470.64" y2="-84.34" gradientTransform="translate(477.93 404.4) rotate(180)" gradientUnits="userSpaceOnUse"><stop offset="0.01" stop-color="#eff1f8"/><stop offset="0.18" stop-color="#dbdff0"/><stop offset="0.53" stop-color="#b7c1e3"/><stop offset="0.82" stop-color="#a1aedb"/><stop offset="1" stop-color="#99a7d8"/></linearGradient><linearGradient id="linear-gradient-4" x1="-121.2" y1="-32.39" x2="-11.65" y2="-32.39" gradientTransform="translate(477.93 404.4) rotate(180)" gradientUnits="userSpaceOnUse"><stop offset="0" stop-color="#d3daed"/><stop offset="1" stop-color="#99a7d8"/></linearGradient><linearGradient id="linear-gradient-5" x1="-11.81" y1="-88.41" x2="74.03" y2="-88.41" gradientTransform="matrix(1, 0, 0, -1, 443.67, 404.4)" xlink:href="#linear-gradient-3"/><radialGradient id="radial-gradient" cx="92.45" cy="-8244.93" r="38.95" gradientTransform="translate(477.93 -3722.24) rotate(180) scale(1 0.52)" gradientUnits="userSpaceOnUse"><stop offset="0" stop-color="#48486a"/><stop offset="0.03" stop-color="#505070"/><stop offset="0.29" stop-color="#8d8da3"/><stop offset="0.52" stop-color="#bebeca"/><stop offset="0.72" stop-color="#e2e2e7"/><stop offset="0.89" stop-color="#f7f7f9"/><stop offset="1" stop-color="#fff"/></radialGradient><linearGradient id="linear-gradient-6" x1="145.48" y1="217.42" x2="341.05" y2="217.42" xlink:href="#linear-gradient"/><linearGradient id="linear-gradient-7" x1="54.3" y1="274.26" x2="139.49" y2="274.26" xlink:href="#linear-gradient"/><linearGradient id="linear-gradient-8" x1="19.48" y1="350.73" x2="103.28" y2="350.73" xlink:href="#linear-gradient"/><linearGradient id="linear-gradient-9" x1="27.97" y1="356.7" x2="72.31" y2="356.7" gradientTransform="translate(477.93 404.4) rotate(180)" gradientUnits="userSpaceOnUse"><stop offset="0.02" stop-color="#ffc107"/><stop offset="0.32" stop-color="#ffaf04"/><stop offset="0.71" stop-color="#ff9e01"/><stop offset="1" stop-color="#ff9800"/></linearGradient><linearGradient id="linear-gradient-10" x1="378.47" y1="251.73" x2="452.68" y2="251.73" xlink:href="#linear-gradient"/><linearGradient id="linear-gradient-11" x1="385.43" y1="238.2" x2="412.91" y2="238.2" gradientTransform="translate(477.93 404.4) rotate(180)" gradientUnits="userSpaceOnUse"><stop offset="0" stop-color="#ffc107"/><stop offset="1" stop-color="#ff9800"/></linearGradient><linearGradient id="linear-gradient-12" x1="289.58" y1="225.61" x2="368.69" y2="225.61" gradientTransform="translate(457.14 425.97) rotate(180)" xlink:href="#linear-gradient-9"/><linearGradient id="linear-gradient-13" x1="282.18" y1="306.95" x2="361.51" y2="306.95" xlink:href="#linear-gradient"/><linearGradient id="linear-gradient-14" x1="270.12" y1="352.85" x2="280.26" y2="352.85" gradientTransform="translate(457.14 425.97) rotate(180)" xlink:href="#linear-gradient-9"/><linearGradient id="linear-gradient-15" x1="293.04" y1="333.48" x2="301.05" y2="333.48" gradientTransform="translate(457.14 425.97) rotate(180)" xlink:href="#linear-gradient-9"/><linearGradient id="linear-gradient-16" x1="275.63" y1="337.4" x2="281.19" y2="337.4" gradientTransform="translate(457.14 425.97) rotate(180)" xlink:href="#linear-gradient-9"/><linearGradient id="linear-gradient-17" x1="264.01" y1="329.42" x2="273.92" y2="329.42" gradientTransform="translate(457.14 425.97) rotate(180)" xlink:href="#linear-gradient-9"/><linearGradient id="linear-gradient-18" x1="282" y1="313.5" x2="287.71" y2="313.5" gradientTransform="translate(457.14 425.97) rotate(180)" xlink:href="#linear-gradient-9"/><linearGradient id="linear-gradient-19" x1="264.01" y1="316.96" x2="270.42" y2="316.96" gradientTransform="translate(457.14 425.97) rotate(180)" xlink:href="#linear-gradient-9"/></defs><title>our-team</title><g id="Graphics"><g id="Layer_6" data-name="Layer 6"><path id="_Path_" data-name=" Path " class="cls-1" d="M355.74,272.7,98.05,421.49a5.32,5.32,0,0,0-2,2,5.37,5.37,0,0,0,2,7.34l165.52,94.58a21.32,21.32,0,0,0,21.27,0l257.7-148.82a5.37,5.37,0,0,0,0-9.31L377,272.66A21.38,21.38,0,0,0,355.74,272.7Z" transform="translate(0 -0.03)"/><path class="cls-2" d="M355.63,272.86,98.74,421.15a5.35,5.35,0,0,0,0,9.28l165,94.34a21.3,21.3,0,0,0,21.21,0l256.9-148.34a5.36,5.36,0,0,0,0-9.29l-165-94.33A21.3,21.3,0,0,0,355.63,272.86Z" transform="translate(0 -0.03)"/><path class="cls-3" d="M355.48,273,99.31,420.86a5.33,5.33,0,0,0,0,9.26l164.51,94a21.19,21.19,0,0,0,21.15,0L541.13,376.28a5.24,5.24,0,0,0,2-1.95,5.35,5.35,0,0,0-2-7.31L376.68,273A21.23,21.23,0,0,0,355.48,273Z" transform="translate(0 -0.03)"/><path class="cls-4" d="M355.42,273.16,100.14,420.59a5.35,5.35,0,0,0,0,9.2l164,93.76a21.24,21.24,0,0,0,21,0L540.52,376.07a5.25,5.25,0,0,0,0-9.19l-164-93.76A21.16,21.16,0,0,0,355.42,273.16Z" transform="translate(0 -0.03)"/><path class="cls-5" d="M355.3,273.32,100.72,420.25a5.27,5.27,0,0,0,0,9.2l163.5,93.46a21.07,21.07,0,0,0,21,0l254.59-147a5.26,5.26,0,0,0,0-9.2l-163.5-93.46A21.12,21.12,0,0,0,355.3,273.32Z" transform="translate(0 -0.03)"/><path class="cls-6" d="M355.2,273.47,101.42,420a5.25,5.25,0,0,0,0,9.2l163,93.17a21,21,0,0,0,21,0L539.16,375.8a5.25,5.25,0,0,0,0-9.2l-163-93.17A21,21,0,0,0,355.2,273.47Z" transform="translate(0 -0.03)"/><path class="cls-7" d="M355.09,273.62l-253,146a5.25,5.25,0,0,0,0,9.2l162.51,92.89a21,21,0,0,0,20.89,0l253-146.08a5.27,5.27,0,0,0,0-9.2L376,273.58A21,21,0,0,0,355.09,273.62Z" transform="translate(0 -0.03)"/><path class="cls-8" d="M355,273.75,102.77,419.35a5.24,5.24,0,0,0,0,9.11l162,92.62a21,21,0,0,0,20.82,0L537.81,375.46a5.27,5.27,0,0,0,0-9.12l-162-92.59A20.91,20.91,0,0,0,355,273.75Z" transform="translate(0 -0.03)"/><path class="cls-9" d="M354.88,273.93,103.45,419a5.25,5.25,0,0,0,0,9.09L265,520.46a20.85,20.85,0,0,0,20.76,0L537.13,375.29A5.35,5.35,0,0,0,539,373.4a5.26,5.26,0,0,0-1.89-7.19L375.61,273.89A20.82,20.82,0,0,0,354.88,273.93Z" transform="translate(0 -0.03)"/><path class="cls-10" d="M354.77,274.08,104.13,418.76a5.26,5.26,0,0,0,0,9.05l161,92a20.72,20.72,0,0,0,20.69,0L536.46,375.06a5.25,5.25,0,0,0,0-9.06l-161-92A20.81,20.81,0,0,0,354.77,274.08Z" transform="translate(0 -0.03)"/><path class="cls-11" d="M354.6,274.24,104.8,418.47a5.25,5.25,0,0,0,0,9l160.49,91.75a20.77,20.77,0,0,0,20.64,0L535.77,375a5.25,5.25,0,0,0,0-9L375.3,274.19A20.71,20.71,0,0,0,354.6,274.24Z" transform="translate(0 -0.03)"/><path class="cls-12" d="M354.6,274.39,105.49,418.16A5.38,5.38,0,0,0,103.7,420a5.25,5.25,0,0,0,1.79,7.21l160,91.46a20.66,20.66,0,0,0,20.58,0L535.1,374.8a5.18,5.18,0,0,0,0-9l-160-91.45A20.63,20.63,0,0,0,354.6,274.39Z" transform="translate(0 -0.03)"/><path class="cls-13" d="M354.44,274.54,106.16,417.9a5.17,5.17,0,0,0,0,9L265.63,518a20.58,20.58,0,0,0,20.51,0L534.42,374.68a5.16,5.16,0,0,0,0-9L374.94,274.5A20.53,20.53,0,0,0,354.44,274.54Z" transform="translate(0 -0.03)"/><path class="cls-14" d="M354.35,274.7,106.91,417.56a5,5,0,0,0-1.89,1.89,5.17,5.17,0,0,0,1.89,7.07l159,90.86a20.48,20.48,0,0,0,20.43,0L533.72,374.47a5.15,5.15,0,0,0,0-8.94l-159-90.88A20.48,20.48,0,0,0,354.35,274.7Z" transform="translate(0 -0.03)"/><path class="cls-15" d="M354.23,274.84,107.45,417.22a5.09,5.09,0,0,0-1.89,1.88,5.15,5.15,0,0,0,1.89,7l158.47,90.64a20.46,20.46,0,0,0,20.37,0L533.08,374.37a5.27,5.27,0,0,0,1.89-1.89,5.15,5.15,0,0,0-1.89-7L374.6,274.81A20.46,20.46,0,0,0,354.23,274.84Z" transform="translate(0 -0.03)"/><path class="cls-16" d="M354.12,275.07,108.19,417a5.12,5.12,0,0,0,0,8.89l158,90.3a20.4,20.4,0,0,0,20.31,0l245.93-142a5.15,5.15,0,0,0,0-8.9l-158-90.3A20.37,20.37,0,0,0,354.12,275.07Z" transform="translate(0 -0.03)"/><path class="cls-17" d="M354,275.16,108.86,416.67a5.11,5.11,0,0,0,0,8.86l157.47,90a20.32,20.32,0,0,0,20.24,0L531.73,374a5.12,5.12,0,0,0,0-8.86L374.3,275.07A20.32,20.32,0,0,0,354,275.16Z" transform="translate(0 -0.03)"/><path class="cls-18" d="M353.91,275.27,109.57,416.36a5.11,5.11,0,0,0,0,8.85l157,89.72a20.3,20.3,0,0,0,20.18,0L531,373.83a5.09,5.09,0,0,0,0-8.84L374.09,275.27A20.25,20.25,0,0,0,353.91,275.27Z" transform="translate(0 -0.03)"/><path class="cls-19" d="M353.81,275.46,110.26,416.1a5.14,5.14,0,0,0-1.88,1.88,5.08,5.08,0,0,0,1.88,6.94l156.41,89.39a20.22,20.22,0,0,0,20.11,0L530.37,373.67a5.07,5.07,0,0,0,0-8.81L373.91,275.42A20.2,20.2,0,0,0,353.81,275.46Z" transform="translate(0 -0.03)"/><path class="cls-20" d="M353.69,275.62,110.89,415.77a5.14,5.14,0,0,0-1.88,1.88,5.06,5.06,0,0,0,1.88,6.9l156,89.14a20.11,20.11,0,0,0,20.05,0L529.69,373.5a5,5,0,0,0,1.87-1.87,5.07,5.07,0,0,0-1.87-6.91l-156-89.14A20.06,20.06,0,0,0,353.69,275.62Z" transform="translate(0 -0.03)"/><path class="cls-21" d="M353.58,275.76l-242,139.75a5.1,5.1,0,0,0-1.86,1.86,5,5,0,0,0,1.86,6.89L267,513.08a20,20,0,0,0,20,0L529,373.34a5,5,0,0,0,1.86-1.86,5,5,0,0,0-1.86-6.89L373.56,275.73A20.07,20.07,0,0,0,353.58,275.76Z" transform="translate(0 -0.03)"/><path class="cls-22" d="M353.41,275.87,112.16,415.12a5,5,0,0,0,0,8.72l155,88.58a20,20,0,0,0,19.92,0L528.34,373.17a5,5,0,0,0,1.86-1.86,5,5,0,0,0-1.86-6.85l-155-88.58A20,20,0,0,0,353.41,275.87Z" transform="translate(0 -0.03)"/><path class="cls-23" d="M353.37,276.08,112.88,414.91a5,5,0,0,0,0,8.69l154.49,88.25a19.93,19.93,0,0,0,19.85,0L527.67,373a5,5,0,0,0,0-8.69L373.22,276A19.9,19.9,0,0,0,353.37,276.08Z" transform="translate(0 -0.03)"/><path class="cls-24" d="M353.28,276.22,113.59,414.56a5,5,0,0,0,0,8.66l154,88a19.85,19.85,0,0,0,19.78,0l239.6-138.37a5,5,0,0,0,0-8.67L373,276.18A19.94,19.94,0,0,0,353.28,276.22Z" transform="translate(0 -0.03)"/><path class="cls-25" d="M353.15,276.38,114.28,414.28a4.9,4.9,0,0,0-1.84,1.83,5,5,0,0,0,1.84,6.8l153.43,87.71a19.81,19.81,0,0,0,19.71,0l238.9-137.93a5.08,5.08,0,0,0,1.85-1.86,5,5,0,0,0-1.85-6.78L372.88,276.38A19.8,19.8,0,0,0,353.15,276.38Z" transform="translate(0 -0.03)"/><path class="cls-26" d="M353,276.54,115,414a5,5,0,0,0,0,8.61L267.89,510a19.71,19.71,0,0,0,19.71,0l238-137.47a5,5,0,0,0,0-8.61L372.7,276.5A19.72,19.72,0,0,0,353,276.54Z" transform="translate(0 -0.03)"/><path class="cls-27" d="M352.94,276.68l-237.32,137a4.94,4.94,0,0,0,0,8.58L268,509.38a19.7,19.7,0,0,0,19.6,0l237.31-137a5,5,0,0,0,0-8.58L372.53,276.64A19.73,19.73,0,0,0,352.94,276.68Z" transform="translate(0 -0.03)"/><path class="cls-28" d="M352.85,276.79,116.3,413.41a4.86,4.86,0,0,0-1.8,1.8,4.94,4.94,0,0,0,1.8,6.75l151.91,86.86a19.57,19.57,0,0,0,19.53,0L524.29,372.2a5,5,0,0,0,1.81-1.8,5,5,0,0,0-1.81-6.75L372.36,276.8A19.63,19.63,0,0,0,352.85,276.79Z" transform="translate(0 -0.03)"/><path class="cls-29" d="M352.72,277,117,413.07a4.9,4.9,0,0,0,0,8.51l151.43,86.57a19.52,19.52,0,0,0,19.45,0L523.61,372a4.82,4.82,0,0,0,1.82-1.82,4.91,4.91,0,0,0-1.82-6.7L372.18,277A19.51,19.51,0,0,0,352.72,277Z" transform="translate(0 -0.03)"/><path class="cls-30" d="M352.61,277.14l-235,135.68a4.88,4.88,0,0,0,0,8.48l150.93,86.28a19.46,19.46,0,0,0,19.39,0l235-135.71a4.9,4.9,0,0,0,0-8.49L372,277.1A19.52,19.52,0,0,0,352.61,277.14Z" transform="translate(0 -0.03)"/><path class="cls-31" d="M352.51,277.3,118.34,412.48a4.77,4.77,0,0,0-1.81,1.81,4.87,4.87,0,0,0,1.81,6.65l150.41,86a19.39,19.39,0,0,0,19.33,0L522.26,371.71a4.89,4.89,0,0,0,0-8.47l-150.42-86A19.39,19.39,0,0,0,352.51,277.3Z" transform="translate(0 -0.03)"/><path class="cls-32" d="M352.4,277.46,119,412.13a4.87,4.87,0,0,0,0,8.45l149.91,85.69a19.33,19.33,0,0,0,19.27,0l233.4-134.75a4.86,4.86,0,0,0,0-8.44L371.67,277.42A19.33,19.33,0,0,0,352.4,277.46Z" transform="translate(0 -0.03)"/><path class="cls-33" d="M352.3,277.6,119.69,411.88a4.87,4.87,0,0,0,0,8.43l149.4,85.38a19.27,19.27,0,0,0,19.21,0L520.9,371.36a4.85,4.85,0,0,0,0-8.41L371.5,277.56A19.3,19.3,0,0,0,352.3,277.6Z" transform="translate(0 -0.03)"/><path class="cls-34" d="M352.18,277.76,120.36,411.58a4.83,4.83,0,0,0,0,8.38l148.9,85.12a19.23,19.23,0,0,0,19.14,0L520.23,371.23a4.83,4.83,0,0,0,0-8.38L371.32,277.7A19.21,19.21,0,0,0,352.18,277.76Z" transform="translate(0 -0.03)"/><path class="cls-35" d="M352.07,277.92,121,411.27a4.7,4.7,0,0,0-1.77,1.77,4.81,4.81,0,0,0,1.77,6.58l148.44,84.84a19.19,19.19,0,0,0,19.09,0l231.07-133.4a4.9,4.9,0,0,0,1.78-1.78,4.82,4.82,0,0,0-1.78-6.57L371.15,277.88A19.14,19.14,0,0,0,352.07,277.92Z" transform="translate(0 -0.03)"/><path class="cls-36" d="M352,278.06,121.71,411a4.81,4.81,0,0,0,0,8.33l147.91,84.54a19.07,19.07,0,0,0,19,0l230.26-133a4.81,4.81,0,0,0,0-8.33L371,278A19.11,19.11,0,0,0,352,278.06Z" transform="translate(0 -0.03)"/><path class="cls-37" d="M351.86,278.22,122.35,410.68a4.79,4.79,0,0,0,0,8.3l147.41,84.26a19.05,19.05,0,0,0,18.94,0L518.2,370.73a4.78,4.78,0,0,0,0-8.29L370.81,278.18A19,19,0,0,0,351.86,278.22Z" transform="translate(0 -0.03)"/><path class="cls-38" d="M351.76,278.38,123,410.39a4.77,4.77,0,0,0,0,8.26l146.89,84a19,19,0,0,0,18.88,0l228.71-132a4.76,4.76,0,0,0,0-8.26l-146.86-84A18.9,18.9,0,0,0,351.76,278.38Z" transform="translate(0 -0.03)"/><path class="cls-39" d="M351.64,278.52,123.71,410.09a4.61,4.61,0,0,0-1.74,1.74,4.74,4.74,0,0,0,1.74,6.49L270.1,502a18.86,18.86,0,0,0,18.81,0L516.84,370.41a4.54,4.54,0,0,0,1.74-1.74,4.74,4.74,0,0,0-1.74-6.49l-146.38-83.7A19,19,0,0,0,351.64,278.52Z" transform="translate(0 -0.03)"/><path class="cls-40" d="M351.53,278.68,124.4,409.78a4.94,4.94,0,0,0-1.73,1.73A4.75,4.75,0,0,0,124.4,418l145.89,83.39a18.8,18.8,0,0,0,18.75,0L516.17,370.24a4.63,4.63,0,0,0,1.73-1.73,4.73,4.73,0,0,0-1.73-6.48L370.29,278.64A18.84,18.84,0,0,0,351.53,278.68Z" transform="translate(0 -0.03)"/><path class="cls-41" d="M351.43,278.84,125.06,409.48a4.73,4.73,0,0,0,0,8.18l145.38,83.11a18.8,18.8,0,0,0,18.7,0L515.49,370.08a4.71,4.71,0,0,0,0-8.18L370.11,278.8A18.74,18.74,0,0,0,351.43,278.84Z" transform="translate(0 -0.03)"/><path id="_Path_2" data-name=" Path 2" class="cls-42" d="M351.32,279,125.8,409.17a4.59,4.59,0,0,0-1.74,1.73,4.7,4.7,0,0,0,1.74,6.42l144.87,82.83a18.65,18.65,0,0,0,18.62,0L514.86,369.93a4.84,4.84,0,0,0,1.74-1.74,4.71,4.71,0,0,0-1.74-6.42L369.94,279A18.7,18.7,0,0,0,351.32,279Z" transform="translate(0 -0.03)"/><path id="_Path_3" data-name=" Path 3" class="cls-43" d="M100,207.59V396a5,5,0,0,0,.68,2.55,5.06,5.06,0,0,0,6.91,1.84L357.68,256.05a11,11,0,0,0,5.52-9.54V58.11a5.14,5.14,0,0,0-.68-2.54,5.08,5.08,0,0,0-6.93-1.85l-250,144.33A11,11,0,0,0,100,207.59Z" transform="translate(0 -0.03)"/><path id="_Path_4" data-name=" Path 4" class="cls-44" d="M103.33,209.74V398.1a5.15,5.15,0,0,0,.68,2.55,5.06,5.06,0,0,0,6.92,1.84l250-144.29a11,11,0,0,0,5.51-9.54V60.26a5.2,5.2,0,0,0-.68-2.55,5.06,5.06,0,0,0-6.91-1.84l-250,144.32A11,11,0,0,0,103.33,209.74Z" transform="translate(0 -0.03)"/><polygon id="_Path_5" data-name=" Path 5" class="cls-45" points="118.15 384.41 353.39 247.82 353.39 75.47 118.15 212.07 118.15 384.41"/><path id="_Path_6" data-name=" Path 6" class="cls-46" d="M356.32,267.32l-247.89,136s-3.94,10.42,2.63,14.45l157.53,90a20.32,20.32,0,0,0,20.24,0L534.12,366.17c3.41-1.94,2.53-14.45,2.53-14.45L376.56,267.28A20.32,20.32,0,0,0,356.32,267.32Z" transform="translate(0 -0.03)"/><path id="_Path_7" data-name=" Path 7" class="cls-47" d="M356.32,257.62,111,399.2a5,5,0,0,0-1.89,1.89,5.1,5.1,0,0,0,1.89,7l157.53,90.05a20.29,20.29,0,0,0,20.25,0L534.09,356.5a5,5,0,0,0,1.89-1.89,5.11,5.11,0,0,0-1.89-7L376.56,257.58A20.34,20.34,0,0,0,356.32,257.62Z" transform="translate(0 -0.03)"/><path id="_Path_8" data-name=" Path 8" class="cls-48" d="M385.23,374.2l-64.65,37.32a1.31,1.31,0,0,0-.57.57,1.33,1.33,0,0,0,.57,1.77l41.53,23.73a5.34,5.34,0,0,0,5.33,0l64.66-37.33a1.27,1.27,0,0,0,.55-.55,1.32,1.32,0,0,0-.55-1.78L390.52,374.2A5.31,5.31,0,0,0,385.23,374.2Z" transform="translate(0 -0.03)"/><path id="_Path_9" data-name=" Path 9" class="cls-49" d="M360.94,271.34l6.74,3.94a.81.81,0,0,1,0,1.4l-13.57,7.89a1.81,1.81,0,0,1-1.75,0l-6.74-3.94a.92.92,0,0,1-.29-.3.81.81,0,0,1,.29-1.11l13.57-7.88A1.81,1.81,0,0,1,360.94,271.34Z" transform="translate(0 -0.03)"/><path id="_Path_10" data-name=" Path 10" class="cls-49" d="M341.05,283.19l6.74,3.87a.81.81,0,0,1,.29.29.82.82,0,0,1-.29,1.12l-13.57,7.88a1.76,1.76,0,0,1-1.75,0l-6.74-3.88a.81.81,0,0,1-.29-.29.82.82,0,0,1,.29-1.11l13.57-7.88A1.72,1.72,0,0,1,341.05,283.19Z" transform="translate(0 -0.03)"/><path id="_Path_11" data-name=" Path 11" class="cls-49" d="M321.12,294.35l6.76,3.88a.81.81,0,0,1,.29.29.82.82,0,0,1-.29,1.11l-13.57,7.89a1.76,1.76,0,0,1-1.75,0l-6.79-3.84a.79.79,0,0,1-.3-.3.79.79,0,0,1,.3-1.09l13.57-7.88A1.73,1.73,0,0,1,321.12,294.35Z" transform="translate(0 -0.03)"/><path id="_Path_12" data-name=" Path 12" class="cls-49" d="M300.53,305.93l6.73,3.94a.74.74,0,0,1,.32.31.8.8,0,0,1-.32,1.09l-13.57,7.88a1.7,1.7,0,0,1-1.74,0l-6.74-3.87a.81.81,0,0,1-.29-.29.82.82,0,0,1,.29-1.12L298.78,306A1.74,1.74,0,0,1,300.53,305.93Z" transform="translate(0 -0.03)"/><path id="_Path_13" data-name=" Path 13" class="cls-49" d="M280.77,317l6.75,3.88a.81.81,0,0,1,0,1.4l-13.58,7.88a1.7,1.7,0,0,1-1.74,0l-6.75-3.87a.81.81,0,0,1-.29-.29.82.82,0,0,1,.29-1.12L279,317A1.76,1.76,0,0,1,280.77,317Z" transform="translate(0 -0.03)"/><path id="_Path_14" data-name=" Path 14" class="cls-49" d="M261.56,328.85l6.75,3.87a.79.79,0,0,1,.3.3.82.82,0,0,1-.3,1.11L254.74,342a1.7,1.7,0,0,1-1.74,0l-6.75-3.87a.76.76,0,0,1-.3-.29.83.83,0,0,1,.3-1.12l13.57-7.88A1.7,1.7,0,0,1,261.56,328.85Z" transform="translate(0 -0.03)"/><path id="_Path_15" data-name=" Path 15" class="cls-49" d="M241.46,340l6.74,3.87a.86.86,0,0,1,.3.3.8.8,0,0,1-.3,1.1l-13.57,7.88a1.74,1.74,0,0,1-1.74,0l-6.74-3.88a.81.81,0,0,1,0-1.4l13.57-7.88A1.72,1.72,0,0,1,241.46,340Z" transform="translate(0 -0.03)"/><path id="_Path_16" data-name=" Path 16" class="cls-49" d="M221.65,351.68l6.74,3.94a.8.8,0,0,1,0,1.39l-13.57,7.89a1.74,1.74,0,0,1-1.74,0L206.34,361a.81.81,0,0,1-.29-.29.82.82,0,0,1,.29-1.12l13.57-7.88A1.77,1.77,0,0,1,221.65,351.68Z" transform="translate(0 -0.03)"/><path id="_Path_17" data-name=" Path 17" class="cls-49" d="M202.21,363.21l6.7,3.89a.82.82,0,0,1,.32.32.8.8,0,0,1-.32,1.09l-13.57,7.88a1.76,1.76,0,0,1-1.75,0l-6.73-3.88a.76.76,0,0,1-.3-.29.82.82,0,0,1,.3-1.11l13.57-7.88A1.75,1.75,0,0,1,202.21,363.21Z" transform="translate(0 -0.03)"/><path id="_Path_18" data-name=" Path 18" class="cls-49" d="M181.63,375.1l6.74,3.88a.81.81,0,0,1,.29.29.82.82,0,0,1-.29,1.11l-13.57,7.89a1.81,1.81,0,0,1-1.75,0l-6.74-3.95a.76.76,0,0,1-.3-.29.81.81,0,0,1,.3-1.1l13.57-7.88A1.74,1.74,0,0,1,181.63,375.1Z" transform="translate(0 -0.03)"/><path id="_Path_19" data-name=" Path 19" class="cls-49" d="M161.7,386.23l6.74,3.87a.92.92,0,0,1,.29.3.81.81,0,0,1-.29,1.11l-13.57,7.88a1.72,1.72,0,0,1-1.75,0l-6.74-3.87a.86.86,0,0,1-.3-.3.81.81,0,0,1,.3-1.1L160,386.24A1.74,1.74,0,0,1,161.7,386.23Z" transform="translate(0 -0.03)"/><g id="_Group_" data-name=" Group "><path id="_Path_20" data-name=" Path 20" class="cls-49" d="M387.48,286.78a1.91,1.91,0,0,1-.66,2.63l-9.2,5.26a3.86,3.86,0,0,1-3.94,0l-8.93-5.49a1.92,1.92,0,0,1,0-3.29l9-5.17a3.83,3.83,0,0,1,3.87,0l9.19,5.38A1.88,1.88,0,0,1,387.48,286.78Z" transform="translate(0 -0.03)"/><path id="_Path_21" data-name=" Path 21" class="cls-49" d="M366.94,298.68a1.9,1.9,0,0,1-.71,2.6L357,306.53a3.82,3.82,0,0,1-3.94,0L344.16,301a2,2,0,0,1-.67-.68,1.89,1.89,0,0,1,.67-2.6l9-5.19a3.86,3.86,0,0,1,3.86,0l9.2,5.38A1.83,1.83,0,0,1,366.94,298.68Z" transform="translate(0 -0.03)"/><path id="_Path_22" data-name=" Path 22" class="cls-49" d="M347,310a1.92,1.92,0,0,1-.78,2.6l-9.2,5.26a3.86,3.86,0,0,1-3.94,0l-8.93-5.49a1.87,1.87,0,0,1-.65-.66,1.91,1.91,0,0,1,.65-2.63l9-5.25a3.86,3.86,0,0,1,3.86,0l9.19,5.38A2.05,2.05,0,0,1,347,310Z" transform="translate(0 -0.03)"/><path id="_Path_23" data-name=" Path 23" class="cls-49" d="M325.65,321.44a1.92,1.92,0,0,1-.66,2.63l-9.2,5.25a3.82,3.82,0,0,1-3.94,0l-8.93-5.48a1.82,1.82,0,0,1-.68-.67,1.91,1.91,0,0,1,.68-2.61l9-5.19a3.88,3.88,0,0,1,3.87,0l9.2,5.39A2,2,0,0,1,325.65,321.44Z" transform="translate(0 -0.03)"/><path id="_Path_24" data-name=" Path 24" class="cls-49" d="M306.92,332.46a1.92,1.92,0,0,1-.68,2.63l-9.2,5.25a3.86,3.86,0,0,1-3.94,0l-8.93-5.49a1.84,1.84,0,0,1-.65-.65,1.91,1.91,0,0,1,.65-2.63l9-5.19a3.86,3.86,0,0,1,3.86,0l9.19,5.39A1.81,1.81,0,0,1,306.92,332.46Z" transform="translate(0 -0.03)"/><path id="_Path_25" data-name=" Path 25" class="cls-49" d="M288,344.37a1.9,1.9,0,0,1-.81,2.57L278,352.19a3.86,3.86,0,0,1-3.94,0l-8.93-5.49a2,2,0,0,1-.66-.65,1.92,1.92,0,0,1,.66-2.63l9-5.26a3.86,3.86,0,0,1,3.86,0l9.2,5.39A1.88,1.88,0,0,1,288,344.37Z" transform="translate(0 -0.03)"/><path id="_Path_26" data-name=" Path 26" class="cls-49" d="M267.63,355.47a1.92,1.92,0,0,1-.76,2.61l-9.2,5.25a3.93,3.93,0,0,1-3.94-.06l-8.93-5.48a2,2,0,0,1-.68-.68,1.91,1.91,0,0,1,.68-2.61l9-5.18a3.81,3.81,0,0,1,3.86,0l9.19,5.38A2,2,0,0,1,267.63,355.47Z" transform="translate(0 -0.03)"/><path id="_Path_27" data-name=" Path 27" class="cls-49" d="M247.56,366.67a1.92,1.92,0,0,1-.67,2.63l-9.2,5.25a3.82,3.82,0,0,1-3.94,0l-8.93-5.48a1.84,1.84,0,0,1-.65-.65,1.91,1.91,0,0,1,.65-2.63l9-5.19a3.94,3.94,0,0,1,3.88,0l9.2,5.39A1.85,1.85,0,0,1,247.56,366.67Z" transform="translate(0 -0.03)"/><path id="_Path_28" data-name=" Path 28" class="cls-49" d="M228.08,378.7a1.9,1.9,0,0,1-.7,2.6l-9.19,5.26a3.88,3.88,0,0,1-3.95,0l-8.93-5.48a1.92,1.92,0,0,1,0-3.28l9-5.19a3.83,3.83,0,0,1,3.87,0l9.2,5.38A1.93,1.93,0,0,1,228.08,378.7Z" transform="translate(0 -0.03)"/><path id="_Path_29" data-name=" Path 29" class="cls-49" d="M206.75,391.26a1.9,1.9,0,0,1-.69,2.6l-9.19,5.26a3.88,3.88,0,0,1-4,0L184,393.64a1.92,1.92,0,0,1,0-3.29l9-5.18a3.81,3.81,0,0,1,3.86,0l9.19,5.38A1.89,1.89,0,0,1,206.75,391.26Z" transform="translate(0 -0.03)"/><path id="_Path_30" data-name=" Path 30" class="cls-49" d="M187.47,401.71a1.91,1.91,0,0,1-.68,2.62l-9.2,5.26a3.86,3.86,0,0,1-3.94,0l-8.93-5.5a1.84,1.84,0,0,1-.65-.65,1.91,1.91,0,0,1,.65-2.63l9-5.19a3.86,3.86,0,0,1,3.86,0l9.19,5.39A1.84,1.84,0,0,1,187.47,401.71Z" transform="translate(0 -0.03)"/></g><g id="_Group_2" data-name=" Group 2"><path id="_Path_31" data-name=" Path 31" class="cls-49" d="M408,298a1.91,1.91,0,0,1-.71,2.6l-9.19,5.25a3.82,3.82,0,0,1-3.94,0l-8.94-5.48a2,2,0,0,1-.67-.67,1.91,1.91,0,0,1,.67-2.62l9-5.18a3.81,3.81,0,0,1,3.86,0l9.2,5.37A1.9,1.9,0,0,1,408,298Z" transform="translate(0 -0.03)"/><path id="_Path_32" data-name=" Path 32" class="cls-49" d="M387.39,309.77a1.92,1.92,0,0,1-.66,2.63l-9.2,5.26a3.86,3.86,0,0,1-3.94,0l-8.93-5.48a1.8,1.8,0,0,1-.67-.67,1.92,1.92,0,0,1,.67-2.63l9-5.17a3.85,3.85,0,0,1,3.88,0l9.19,5.38A2,2,0,0,1,387.39,309.77Z" transform="translate(0 -0.03)"/><path id="_Path_33" data-name=" Path 33" class="cls-49" d="M367.44,321a1.89,1.89,0,0,1-.71,2.59l-9.19,5.26a3.86,3.86,0,0,1-3.94,0l-8.94-5.49a1.92,1.92,0,0,1,0-3.29l9-5.19a3.86,3.86,0,0,1,3.86,0l9.2,5.39A1.9,1.9,0,0,1,367.44,321Z" transform="translate(0 -0.03)"/><path id="_Path_34" data-name=" Path 34" class="cls-49" d="M346.23,332.72a1.9,1.9,0,0,1-.8,2.57l-9.2,5.25a3.86,3.86,0,0,1-3.94,0l-8.93-5.49a1.84,1.84,0,0,1-.65-.65,1.91,1.91,0,0,1,.65-2.63l9-5.26a3.86,3.86,0,0,1,3.86,0l9.2,5.39A1.83,1.83,0,0,1,346.23,332.72Z" transform="translate(0 -0.03)"/><path id="_Path_35" data-name=" Path 35" class="cls-49" d="M327.54,343.72a1.9,1.9,0,0,1-.81,2.57l-9.19,5.26a3.86,3.86,0,0,1-3.94,0l-8.94-5.49a1.92,1.92,0,0,1,0-3.29l9-5.25a3.86,3.86,0,0,1,3.86,0l9.2,5.39A1.91,1.91,0,0,1,327.54,343.72Z" transform="translate(0 -0.03)"/><path id="_Path_36" data-name=" Path 36" class="cls-49" d="M308.38,355.39a1.91,1.91,0,0,1-.7,2.62l-9.19,5.26a3.86,3.86,0,0,1-3.94,0l-8.92-5.49a2,2,0,0,1-.68-.68,1.91,1.91,0,0,1,.68-2.61l9-5.19a3.88,3.88,0,0,1,3.87,0l9.19,5.39A2,2,0,0,1,308.38,355.39Z" transform="translate(0 -0.03)"/><path id="_Path_37" data-name=" Path 37" class="cls-49" d="M288.12,366.62a1.92,1.92,0,0,1-.77,2.6l-9.2,5.25a3.84,3.84,0,0,1-3.94-.06l-8.93-5.48a1.92,1.92,0,0,1,0-3.29l9-5.18a3.93,3.93,0,0,1,3.87,0l9.2,5.38A2,2,0,0,1,288.12,366.62Z" transform="translate(0 -0.03)"/><path id="_Path_38" data-name=" Path 38" class="cls-49" d="M268.16,377.85a1.91,1.91,0,0,1-.71,2.6l-9.2,5.25a3.86,3.86,0,0,1-3.94,0l-8.93-5.49a1.84,1.84,0,0,1-.65-.65,1.91,1.91,0,0,1,.65-2.63l9-5.19a3.88,3.88,0,0,1,3.87,0l9.19,5.39A1.9,1.9,0,0,1,268.16,377.85Z" transform="translate(0 -0.03)"/><path id="_Path_39" data-name=" Path 39" class="cls-49" d="M248.57,389.84a1.91,1.91,0,0,1-.7,2.6l-9.19,5.26a3.86,3.86,0,0,1-3.94,0l-8.94-5.48a1.92,1.92,0,0,1,0-3.28l9-5.19a3.81,3.81,0,0,1,3.86,0l9.2,5.38A2,2,0,0,1,248.57,389.84Z" transform="translate(0 -0.03)"/><path id="_Path_40" data-name=" Path 40" class="cls-49" d="M227.31,402.47a1.92,1.92,0,0,1-.77,2.6l-9.2,5.25a3.82,3.82,0,0,1-3.94,0l-8.92-5.48a1.8,1.8,0,0,1-.67-.67,1.9,1.9,0,0,1,.67-2.61l9-5.25a3.81,3.81,0,0,1,3.86,0l9.2,5.38A2,2,0,0,1,227.31,402.47Z" transform="translate(0 -0.03)"/><path id="_Path_41" data-name=" Path 41" class="cls-49" d="M208,412.87a1.91,1.91,0,0,1-.71,2.6l-9.2,5.26a3.86,3.86,0,0,1-3.94,0l-8.93-5.5a1.89,1.89,0,0,1,0-3.28l9-5.19a3.86,3.86,0,0,1,3.86,0l9.19,5.39A1.9,1.9,0,0,1,208,412.87Z" transform="translate(0 -0.03)"/></g><g id="_Group_3" data-name=" Group 3"><path id="_Path_42" data-name=" Path 42" class="cls-49" d="M428.48,309.12a1.9,1.9,0,0,1-.74,2.59l-9.2,5.25a3.82,3.82,0,0,1-3.94,0l-8.93-5.48a1.89,1.89,0,0,1,0-3.28l9-5.19a3.86,3.86,0,0,1,3.94,0l9.2,5.39A1.86,1.86,0,0,1,428.48,309.12Z" transform="translate(0 -0.03)"/><path id="_Path_43" data-name=" Path 43" class="cls-49" d="M407.85,320.94a1.9,1.9,0,0,1-.71,2.6L398,328.8a3.88,3.88,0,0,1-3.95,0l-8.9-5.47a2,2,0,0,1-.65-.64,2,2,0,0,1,.65-2.66l9-5.17a3.83,3.83,0,0,1,3.87,0l9.19,5.37A1.93,1.93,0,0,1,407.85,320.94Z" transform="translate(0 -0.03)"/><path id="_Path_44" data-name=" Path 44" class="cls-49" d="M387.89,332.13a1.92,1.92,0,0,1-.66,2.63L378,340a3.86,3.86,0,0,1-3.94,0l-8.93-5.48a2,2,0,0,1-.67-.67,1.92,1.92,0,0,1,.67-2.63l9-5.18a3.88,3.88,0,0,1,3.87,0l9.2,5.39A1.88,1.88,0,0,1,387.89,332.13Z" transform="translate(0 -0.03)"/><path id="_Path_45" data-name=" Path 45" class="cls-49" d="M366.64,343.74a1.91,1.91,0,0,1-.68,2.62l-9.2,5.25a3.91,3.91,0,0,1-3.94,0l-8.93-5.49a1.89,1.89,0,0,1,0-3.28l9-5.19a3.88,3.88,0,0,1,3.87,0l9.19,5.39A1.77,1.77,0,0,1,366.64,343.74Z" transform="translate(0 -0.03)"/><path id="_Path_46" data-name=" Path 46" class="cls-49" d="M347.9,354.76a1.93,1.93,0,0,1-.74,2.61l-9.2,5.25a3.82,3.82,0,0,1-3.94,0l-8.93-5.49a2,2,0,0,1-.68-.67,1.91,1.91,0,0,1,.68-2.61l9-5.19a3.91,3.91,0,0,1,3.94,0l9.2,5.38A2,2,0,0,1,347.9,354.76Z" transform="translate(0 -0.03)"/><path id="_Path_47" data-name=" Path 47" class="cls-49" d="M328.87,366.53a1.91,1.91,0,0,1-.68,2.62L319,374.41a3.88,3.88,0,0,1-3.95,0l-8.93-5.48a2,2,0,0,1-.67-.67,1.92,1.92,0,0,1,.67-2.63l9-5.17a3.8,3.8,0,0,1,3.88,0l9.19,5.37A1.84,1.84,0,0,1,328.87,366.53Z" transform="translate(0 -0.03)"/><path id="_Path_48" data-name=" Path 48" class="cls-49" d="M308.55,377.71a1.89,1.89,0,0,1-.71,2.59l-9.19,5.26a3.86,3.86,0,0,1-3.94,0l-8.94-5.49a2,2,0,0,1-.65-.65,1.93,1.93,0,0,1,.65-2.64l9-5.18a3.86,3.86,0,0,1,3.86,0l9.2,5.38A1.9,1.9,0,0,1,308.55,377.71Z" transform="translate(0 -0.03)"/><path id="_Path_49" data-name=" Path 49" class="cls-49" d="M288.62,389a1.92,1.92,0,0,1-.68,2.63l-9.2,5.25a3.91,3.91,0,0,1-3.94,0l-8.93-5.49a1.89,1.89,0,0,1,0-3.28l9-5.19a3.94,3.94,0,0,1,3.88,0l9.19,5.39A1.81,1.81,0,0,1,288.62,389Z" transform="translate(0 -0.03)"/><path id="_Path_50" data-name=" Path 50" class="cls-49" d="M269.12,401a1.92,1.92,0,0,1-.75,2.61l-9.2,5.25a3.84,3.84,0,0,1-3.94-.06l-8.93-5.48a2,2,0,0,1-.68-.68,1.9,1.9,0,0,1,.68-2.6l9-5.19a3.83,3.83,0,0,1,3.87,0l9.19,5.38A2,2,0,0,1,269.12,401Z" transform="translate(0 -0.03)"/><path id="_Path_51" data-name=" Path 51" class="cls-49" d="M247.8,413.6a1.93,1.93,0,0,1-.75,2.61l-9.2,5.25a3.84,3.84,0,0,1-3.94-.06L225,415.92a1.91,1.91,0,0,1,0-3.29l9-5.19a4,4,0,0,1,3.87,0l9.2,5.39A1.93,1.93,0,0,1,247.8,413.6Z" transform="translate(0 -0.03)"/><path id="_Path_52" data-name=" Path 52" class="cls-49" d="M228.45,424a1.92,1.92,0,0,1-.69,2.62l-9.19,5.26a3.86,3.86,0,0,1-3.94,0l-8.94-5.5a1.8,1.8,0,0,1-.67-.67,1.9,1.9,0,0,1,.67-2.61l9-5.19a3.93,3.93,0,0,1,3.87,0l9.2,5.39A1.91,1.91,0,0,1,228.45,424Z" transform="translate(0 -0.03)"/></g><g id="_Group_4" data-name=" Group 4"><path id="_Path_53" data-name=" Path 53" class="cls-49" d="M449,320.24a1.92,1.92,0,0,1-.7,2.61l-9.19,5.25a3.82,3.82,0,0,1-3.94,0l-8.93-5.48a2,2,0,0,1-.66-.65,1.92,1.92,0,0,1,.66-2.63l9-5.19a3.81,3.81,0,0,1,3.86,0l9.2,5.39A1.86,1.86,0,0,1,449,320.24Z" transform="translate(0 -0.03)"/><path id="_Path_54" data-name=" Path 54" class="cls-49" d="M428.39,332.09a1.91,1.91,0,0,1-.7,2.6l-9.2,5.26a3.86,3.86,0,0,1-3.94,0l-8.92-5.48a1.93,1.93,0,0,1-.68-.68,1.9,1.9,0,0,1,.68-2.6l9-5.19a3.81,3.81,0,0,1,3.86,0l9.19,5.38A2,2,0,0,1,428.39,332.09Z" transform="translate(0 -0.03)"/><path id="_Path_55" data-name=" Path 55" class="cls-49" d="M408.42,343.32a1.9,1.9,0,0,1-.71,2.59l-9.2,5.26a3.86,3.86,0,0,1-3.94,0l-8.93-5.48a1.9,1.9,0,0,1-.65-.64,2,2,0,0,1,.65-2.66l9-5.17a3.76,3.76,0,0,1,3.86,0l9.2,5.37A1.92,1.92,0,0,1,408.42,343.32Z" transform="translate(0 -0.03)"/><path id="_Path_56" data-name=" Path 56" class="cls-49" d="M387.13,354.88a1.92,1.92,0,0,1-.69,2.62l-9.2,5.25a3.82,3.82,0,0,1-3.94,0l-8.93-5.49a1.84,1.84,0,0,1-.65-.65,1.91,1.91,0,0,1,.65-2.63l9-5.19a3.94,3.94,0,0,1,3.88,0l9.19,5.39A1.84,1.84,0,0,1,387.13,354.88Z" transform="translate(0 -0.03)"/><path id="_Path_57" data-name=" Path 57" class="cls-49" d="M366.59,367.05a1.9,1.9,0,0,1-.61,2.64l-47,27.13a3.88,3.88,0,0,1-3.95,0l-8.93-5.49a2,2,0,0,1-.68-.68,1.91,1.91,0,0,1,.68-2.61l46.75-27a3.88,3.88,0,0,1,3.87,0l9.19,5.39A1.76,1.76,0,0,1,366.59,367.05Z" transform="translate(0 -0.03)"/><path id="_Path_58" data-name=" Path 58" class="cls-49" d="M309.1,400.1a1.92,1.92,0,0,1-.68,2.63l-9.2,5.25a3.82,3.82,0,0,1-3.94,0l-8.93-5.49a1.84,1.84,0,0,1-.65-.65,1.91,1.91,0,0,1,.65-2.63l9-5.19a3.86,3.86,0,0,1,3.86,0l9.19,5.39A1.81,1.81,0,0,1,309.1,400.1Z" transform="translate(0 -0.03)"/><path id="_Path_59" data-name=" Path 59" class="cls-49" d="M289.54,412.11a1.93,1.93,0,0,1-.69,2.63l-9.2,5.25a3.86,3.86,0,0,1-3.94,0l-8.93-5.49a1.92,1.92,0,0,1,0-3.29l9-5.18a3.94,3.94,0,0,1,3.88,0l9.19,5.38A1.91,1.91,0,0,1,289.54,412.11Z" transform="translate(0 -0.03)"/><path id="_Path_60" data-name=" Path 60" class="cls-49" d="M268.24,424.7a1.9,1.9,0,0,1-.71,2.59l-9.2,5.26a3.86,3.86,0,0,1-3.94,0l-8.93-5.49a1.92,1.92,0,0,1,0-3.29l9-5.19a3.86,3.86,0,0,1,3.86,0l9.2,5.39A1.92,1.92,0,0,1,268.24,424.7Z" transform="translate(0 -0.03)"/><path id="_Path_61" data-name=" Path 61" class="cls-49" d="M248.93,435.15a1.91,1.91,0,0,1-.71,2.6L239,443a3.86,3.86,0,0,1-3.94,0l-8.93-5.5a1.84,1.84,0,0,1-.65-.65,1.91,1.91,0,0,1,.65-2.63l9-5.18a3.81,3.81,0,0,1,3.86,0l9.2,5.38A2,2,0,0,1,248.93,435.15Z" transform="translate(0 -0.03)"/></g></g><g id="Layer_18" data-name="Layer 18"><g id="_Group_5" data-name=" Group 5"><path id="_Path_62" data-name=" Path 62" class="cls-1" d="M1.71,478c-2.27,1.33-2.29,3.5,0,4.81L121,552a9.19,9.19,0,0,0,8.3,0l77.29-44.67c2.29-1.31,2.29-3.48,0-4.79L87,433.53a9.19,9.19,0,0,0-8.3,0Z" transform="translate(0 -0.03)"/><path class="cls-2" d="M2.21,477.92c-2.26,1.32-2.26,3.47,0,4.78L121,551.6a9.09,9.09,0,0,0,8.25,0l77-44.42c2.28-1.32,2.28-3.46,0-4.77l-119-68.73a9.17,9.17,0,0,0-8.26,0Z" transform="translate(0 -0.03)"/><path class="cls-3" d="M2.67,477.86c-2.26,1.31-2.26,3.45,0,4.76L120.9,551.21a9.09,9.09,0,0,0,8.22,0L205.71,507c2.27-1.31,2.27-3.44,0-4.75L87.2,433.82a9.09,9.09,0,0,0-8.22,0Z" transform="translate(0 -0.03)"/><path class="cls-4" d="M3.22,477.82c-2.25,1.3-2.25,3.43,0,4.74l117.65,68.31a9,9,0,0,0,8.18,0l76.2-44c2.24-1.3,2.24-3.42,0-4.73L87.28,434a9.11,9.11,0,0,0-8.2,0Z" transform="translate(0 -0.03)"/><path class="cls-5" d="M3.64,477.75c-2.25,1.29-2.25,3.4,0,4.72l117.1,67.95a9,9,0,0,0,8.14,0l75.89-43.81c2.25-1.3,2.25-3.4,0-4.71L87.36,434.1a9.09,9.09,0,0,0-8.16,0Z" transform="translate(0 -0.03)"/><path class="cls-6" d="M4.14,477.69c-2.22,1.28-2.22,3.37,0,4.69L120.7,550a9,9,0,0,0,8.12,0l75.53-43.61c2.24-1.29,2.24-3.38,0-4.69L87.44,434.24a9.07,9.07,0,0,0-8.12,0Z" transform="translate(0 -0.03)"/><path class="cls-7" d="M4.56,477.62c-2.22,1.27-2.22,3.35,0,4.66l116,67.34a8.92,8.92,0,0,0,8.08,0l75.2-43.4c2.22-1.28,2.22-3.35,0-4.67L87.52,434.39a9,9,0,0,0-8.08,0Z" transform="translate(0 -0.03)"/><path class="cls-8" d="M5,477.59c-2.2,1.28-2.2,3.34,0,4.65l115.49,67a8.86,8.86,0,0,0,8,0L203.38,506c2.21-1.27,2.21-3.33,0-4.65L87.6,434.53a9,9,0,0,0-8,0Z" transform="translate(0 -0.03)"/><path class="cls-9" d="M5.51,477.51c-2.21,1.28-2.21,3.32,0,4.63l114.93,66.71a8.83,8.83,0,0,0,8,0l74.5-43c2.19-1.28,2.19-3.31,0-4.63L87.67,434.68a8.94,8.94,0,0,0-8,0Z" transform="translate(0 -0.03)"/><path class="cls-10" d="M6,477.42c-2.19,1.28-2.2,3.3,0,4.61l114.39,66.4a8.85,8.85,0,0,0,8,0l74.13-42.8c2.19-1.28,2.19-3.3,0-4.61l-114.7-66.2a8.87,8.87,0,0,0-8,0Z" transform="translate(0 -0.03)"/><path class="cls-11" d="M6.48,477.38c-2.17,1.26-2.17,3.27,0,4.59l113.79,66.09a8.75,8.75,0,0,0,7.88,0l73.79-42.6c2.18-1.26,2.18-3.26,0-4.58L87.78,435a8.75,8.75,0,0,0-7.88,0Z" transform="translate(0 -0.03)"/><path class="cls-12" d="M6.91,477.34c-2.17,1.25-2.17,3.25,0,4.56l113.3,65.76a8.71,8.71,0,0,0,7.89,0l73.43-42.4c2.17-1.25,2.17-3.23,0-4.55L87.92,435.11a8.81,8.81,0,0,0-7.88,0Z" transform="translate(0 -0.03)"/><path class="cls-13" d="M7.37,477.28c-2.15,1.25-2.15,3.3,0,4.54l112.76,65.45a8.71,8.71,0,0,0,7.89,0l73.08-42.19c2.15-1.25,2.15-3.29,0-4.54L88,435.25a8.71,8.71,0,0,0-7.89,0Z" transform="translate(0 -0.03)"/><path class="cls-14" d="M7.79,477.21c-2.14,1.24-2.15,3.27,0,4.52l112.27,65.18a8.58,8.58,0,0,0,7.8,0l72.72-42c2.16-1.24,2.16-3.27,0-4.51l-112.52-65a8.66,8.66,0,0,0-7.81,0Z" transform="translate(0 -0.03)"/><path class="cls-15" d="M8.32,477.16c-2.13,1.24-2.13,3.26,0,4.51L120,546.48a8.56,8.56,0,0,0,7.76,0l72.38-41.79c2.14-1.23,2.14-3.25,0-4.49l-112-64.66a8.64,8.64,0,0,0-7.77,0Z" transform="translate(0 -0.03)"/><path class="cls-16" d="M8.76,477.13c-2.12,1.23-2.12,3.25,0,4.48l111.14,64.5a8.58,8.58,0,0,0,7.74,0l72-41.59c2.13-1.23,2.13-3.24,0-4.46L88.21,435.69a8.62,8.62,0,0,0-7.73,0Z" transform="translate(0 -0.03)"/><path class="cls-17" d="M9.22,477c-2.11,1.23-2.11,3.23,0,4.47l110.6,64.18a8.5,8.5,0,0,0,7.7,0l71.67-41.38c2.12-1.22,2.12-3.22,0-4.44l-110.9-64a8.56,8.56,0,0,0-7.7,0Z" transform="translate(0 -0.03)"/><path class="cls-18" d="M9.63,477c-2.1,1.22-2.11,3.21,0,4.44l110.05,63.87a8.45,8.45,0,0,0,7.65,0l71.39-41.17c2.1-1.23,2.1-3.21,0-4.43L88.37,436a8.47,8.47,0,0,0-7.66,0Z" transform="translate(0 -0.03)"/><path class="cls-19" d="M10.16,476.91c-2.09,1.21-2.09,3.19,0,4.4l109.55,63.58a8.39,8.39,0,0,0,7.62,0l70.94-41c2.1-1.21,2.1-3.19,0-4.4L88.45,436.12a8.45,8.45,0,0,0-7.62,0Z" transform="translate(0 -0.03)"/><path class="cls-20" d="M10.56,476.79c-2.07,1.21-2.07,3.18,0,4.39l109,63.25a8.37,8.37,0,0,0,7.58,0l70.62-40.72c2.09-1.21,2.09-3.18,0-4.39L88.53,436.27a8.39,8.39,0,0,0-7.59,0Z" transform="translate(0 -0.03)"/><path class="cls-21" d="M11.09,476.81C9,478,9,480,11.09,481.17L119.52,544.1a8.28,8.28,0,0,0,7.54,0l70.26-40.56c2.08-1.2,2.08-3.17,0-4.36L88.61,436.41a8.45,8.45,0,0,0-7.56,0Z" transform="translate(0 -0.03)"/><path class="cls-22" d="M11.55,476.74c-2.05,1.2-2.06,3.15,0,4.35l107.89,62.62a8.26,8.26,0,0,0,7.5,0l69.93-40.37c2.06-1.18,2.06-3.14,0-4.33L88.69,436.56a8.3,8.3,0,0,0-7.52,0Z" transform="translate(0 -0.03)"/><path class="cls-23" d="M12,476.63c-2,1.19-2,3.13,0,4.33l107.34,62.3a8.26,8.26,0,0,0,7.47,0l69.56-40.16c2.06-1.19,2.06-3.12,0-4.32L88.76,436.65a8.2,8.2,0,0,0-7.47,0Z" transform="translate(0 -0.03)"/><path class="cls-24" d="M12.43,476.63c-2,1.17-2,3.12,0,4.3l106.8,62a8.24,8.24,0,0,0,7.43,0l69.22-40c2.05-1.18,2.05-3.11,0-4.3L88.79,436.84a8.24,8.24,0,0,0-7.43,0Z" transform="translate(0 -0.03)"/><path class="cls-25" d="M13,476.5c-2,1.19-2,3.1,0,4.29l106.27,61.74a8.2,8.2,0,0,0,7.38,0l68.86-39.75c2-1.19,2-3.1,0-4.29L88.92,437a8.16,8.16,0,0,0-7.39,0Z" transform="translate(0 -0.03)"/><path class="cls-26" d="M13.41,476.6c-2,1.16-2,3.08,0,4.25L119.14,542.2a8.13,8.13,0,0,0,7.35,0L195,502.64c2-1.16,2-3.08,0-4.25L89,437.13a8.18,8.18,0,0,0-7.37,0Z" transform="translate(0 -0.03)"/><path class="cls-27" d="M13.89,476.52c-2,1.17-2,3.07,0,4.24l105.17,61a8.05,8.05,0,0,0,7.31,0l68.17-39.41c2-1.15,2-3.06,0-4.21L89.08,437.28a8.09,8.09,0,0,0-7.33,0Z" transform="translate(0 -0.03)"/><path class="cls-28" d="M14.36,476.4c-2,1.15-2,3.05,0,4.22L119,541.35a8,8,0,0,0,7.28,0l67.81-39.15c2-1.16,2-3.05,0-4.21L89.16,437.42a8.13,8.13,0,0,0-7.29,0Z" transform="translate(0 -0.03)"/><path class="cls-29" d="M14.82,476.32c-2,1.16-2,3.05,0,4.2L118.9,541a8,8,0,0,0,7.25,0l67.46-39c2-1.14,2-3,0-4.18L89.24,437.57a8,8,0,0,0-7.25,0Z" transform="translate(0 -0.03)"/><path class="cls-30" d="M15.27,476.29c-2,1.15-2,3,0,4.18l103.54,60.09a8,8,0,0,0,7.21,0l67.06-38.74c2-1.16,2-3,0-4.17L89.3,437.71a7.88,7.88,0,0,0-7.2,0Z" transform="translate(0 -0.03)"/><path class="cls-31" d="M15.67,476.23c-1.95,1.13-1.95,3,0,4.14l103.09,59.79a7.84,7.84,0,0,0,7.15,0l66.76-38.54c2-1.14,2-3,0-4.14L89.38,437.84a8,8,0,0,0-7.17,0Z" transform="translate(0 -0.03)"/><path class="cls-32" d="M16.21,476.15c-2,1.13-2,3,0,4.12l102.47,59.47a7.84,7.84,0,0,0,7.12,0l66.4-38.34c2-1.13,2-3,0-4.11L89.46,438a7.86,7.86,0,0,0-7.13,0Z" transform="translate(0 -0.03)"/><path class="cls-33" d="M16.63,476.12c-1.94,1.13-1.94,3,0,4.1l101.93,59.12a7.9,7.9,0,0,0,7.09,0l66-38.1c2-1.13,2-3,0-4.1l-102.16-59a7.9,7.9,0,0,0-7.09,0Z" transform="translate(0 -0.03)"/><path class="cls-34" d="M17.16,476.06c-1.95,1.13-1.95,3,0,4.08L118.53,539a7.84,7.84,0,0,0,7.06,0L191.27,501c1.94-1.11,1.94-3,0-4.07L89.62,438.28a7.9,7.9,0,0,0-7.06,0Z" transform="translate(0 -0.03)"/><path class="cls-35" d="M17.6,475.94c-1.91,1.12-1.93,2.94,0,4.06l100.87,58.59a7.79,7.79,0,0,0,7,0l65.36-37.73c1.93-1.12,1.93-2.94,0-4.06L89.68,438.42a7.73,7.73,0,0,0-7,0Z" transform="translate(0 -0.03)"/><path class="cls-36" d="M18.08,476c-1.92,1.11-1.92,2.92,0,4L118.4,538.19a7.75,7.75,0,0,0,7,0l65-37.53c1.92-1.1,1.92-2.91,0-4L89.78,438.57a7.73,7.73,0,0,0-7,0Z" transform="translate(0 -0.03)"/><path class="cls-37" d="M18.54,475.89c-1.91,1.1-1.91,2.91,0,4L118.3,537.8a7.69,7.69,0,0,0,6.93,0l64.65-37.28c1.91-1.09,1.91-2.91,0-4l-100-57.8a7.73,7.73,0,0,0-7,0Z" transform="translate(0 -0.03)"/><path class="cls-38" d="M19,475.83c-1.9,1-1.9,2.84,0,3.94l99.21,57.58a7.61,7.61,0,0,0,6.89,0l64.31-37.12c1.89-1.05,1.89-2.84,0-3.94L89.93,438.85a7.71,7.71,0,0,0-6.91,0Z" transform="translate(0 -0.03)"/><path class="cls-39" d="M19.47,475.78c-1.88,1.05-1.89,2.84,0,3.94L118.14,537a7.63,7.63,0,0,0,6.87,0l63.93-36.92c1.9-1.07,1.9-2.85,0-3.94L90,439a7.63,7.63,0,0,0-6.87,0Z" transform="translate(0 -0.03)"/><path class="cls-40" d="M19.94,475.78c-1.88,1.06-1.88,2.85,0,3.94l98.12,56.95a7.6,7.6,0,0,0,6.83,0l63.59-36.78c1.88-1.08,1.88-2.85,0-3.94L90.09,439.14a7.67,7.67,0,0,0-6.83,0Z" transform="translate(0 -0.03)"/><path class="cls-41" d="M20.34,475.65c-1.87,1.09-1.87,2.85,0,3.94l97.57,56.63a7.54,7.54,0,0,0,6.8,0L188,499.7c1.88-1.09,1.88-2.85,0-3.94L90.17,439.27a7.58,7.58,0,0,0-6.79,0Z" transform="translate(0 -0.03)"/><path id="_Path_63" data-name=" Path 63" class="cls-42" d="M20.91,475.56c-1.85,1.1-1.85,2.86,0,3.94l97,56.31a7.46,7.46,0,0,0,6.76,0l62.84-36.25c1.85-1.12,1.85-2.88,0-3.94l-97.3-56.19a7.54,7.54,0,0,0-6.77,0Z" transform="translate(0 -0.03)"/><path id="_Path_64" data-name=" Path 64" class="cls-50" d="M7.29,474.41v1.67a3.77,3.77,0,0,0,1.89,3.3l113.15,65.68a8.75,8.75,0,0,0,7.88,0l73.85-42.59a2.63,2.63,0,0,0,1.32-2.22v-2.16a1.42,1.42,0,0,0-.71-1.23L90,432.4a8.83,8.83,0,0,0-7.89,0Z" transform="translate(0 -0.03)"/><path id="_Path_65" data-name=" Path 65" class="cls-45" d="M9,472c-2.17,1.25-2.17,3.25,0,4.56l113.42,65.83a8.75,8.75,0,0,0,7.88,0l73.5-42.45c2.18-1.25,2.18-3.24,0-4.56L90,429.67a8.77,8.77,0,0,0-7.89,0Z" transform="translate(0 -0.03)"/><polygon id="_Path_66" data-name=" Path 66" class="cls-49" points="124.51 457.71 61.07 494.39 28.6 476.04 92.34 439.23 124.51 457.71"/><polygon id="_Path_67" data-name=" Path 67" class="cls-48" points="163.64 481.24 135.02 497.98 98.76 477.47 127.72 460.6 163.64 481.24"/><polygon id="_Path_68" data-name=" Path 68" class="cls-51" points="129.53 501.17 100.92 517.92 64.65 497.41 93.6 480.53 129.53 501.17"/><polygon id="_Path_69" data-name=" Path 69" class="cls-52" points="179.2 489.29 110.06 529.02 106.58 527.01 175.82 487.24 179.2 489.29"/><polygon id="_Path_70" data-name=" Path 70" class="cls-52" points="172.59 502.47 136.28 523.32 132.78 521.31 169.21 500.41 172.59 502.47"/></g><path id="_Path_71" data-name=" Path 71" class="cls-1" d="M598.55,452.16l-35.91,20.67a5.44,5.44,0,0,1-4.88,0l-70.2-40.49a3.45,3.45,0,0,1-1.31-4.52l.21-.43a1.92,1.92,0,0,1,.81-.88l37.51-21.57a4.29,4.29,0,0,1,4.27.47l71.47,42v1.31A3.92,3.92,0,0,1,598.55,452.16Z" transform="translate(0 -0.03)"/><path class="cls-2" d="M598.4,452l-35.8,20.6a5.34,5.34,0,0,1-4.86,0l-70-40.33a3.43,3.43,0,0,1-1.31-4.49l.21-.43a1.87,1.87,0,0,1,.81-.88L524.87,405a4.27,4.27,0,0,1,4.26.47l71.22,41.84v1.31A3.93,3.93,0,0,1,598.4,452Z" transform="translate(0 -0.03)"/><path class="cls-3" d="M598.22,451.94l-35.73,20.53a5.3,5.3,0,0,1-4.84,0L488,432.26a3.45,3.45,0,0,1-1.31-4.49l.21-.42a2,2,0,0,1,.83-.88L525,405.07a4.23,4.23,0,0,1,4.24.47l70.94,41.7v1.31A3.92,3.92,0,0,1,598.22,451.94Z" transform="translate(0 -0.03)"/><path class="cls-4" d="M598,451.82l-35.47,20.45a5.34,5.34,0,0,1-4.83,0l-69.4-40.08a3.42,3.42,0,0,1-1.38-4.46l.21-.44a2,2,0,0,1,.83-.86l37.13-21.32a4.19,4.19,0,0,1,4.22.46L600,447.16v1.31A3.93,3.93,0,0,1,598,451.82Z" transform="translate(0 -0.03)"/><path class="cls-5" d="M598,451.73l-35.47,20.39a5.34,5.34,0,0,1-4.8,0l-69.3-40a3.39,3.39,0,0,1-1.31-4.45l.19-.43a2.05,2.05,0,0,1,.83-.87l37-21.25a4.2,4.2,0,0,1,4.2.47L599.85,447v1.31A3.84,3.84,0,0,1,598,451.73Z" transform="translate(0 -0.03)"/><path class="cls-6" d="M597.75,451.58l-35.34,20.33a5.26,5.26,0,0,1-4.79,0L488.67,432.1a3.42,3.42,0,0,1-1.32-4.44l.21-.42a2,2,0,0,1,.82-.87l36.87-21.17a4.18,4.18,0,0,1,4.19.46l70.26,41.27v1.32A3.85,3.85,0,0,1,597.75,451.58Z" transform="translate(0 -0.03)"/><path class="cls-7" d="M597.62,451.48l-35.28,20.23a5.26,5.26,0,0,1-4.79,0l-68.7-39.65a3.38,3.38,0,0,1-1.31-4.42l.21-.42a1.9,1.9,0,0,1,.81-.87l36.78-21.11a4.21,4.21,0,0,1,4.18.47l70,41.12v1.31A3.89,3.89,0,0,1,597.62,451.48Z" transform="translate(0 -0.03)"/><path class="cls-8" d="M597.44,451.36l-35.05,20.16a5.25,5.25,0,0,1-4.76,0L489.13,432a3.4,3.4,0,0,1-1.32-4.42l.2-.42a2,2,0,0,1,.81-.85l36.62-21a4.2,4.2,0,0,1,4.16.46l69.75,41V448A3.79,3.79,0,0,1,597.44,451.36Z" transform="translate(0 -0.03)"/><path class="cls-9" d="M597.24,451.27l-34.92,20.1a5.23,5.23,0,0,1-4.75,0L489.35,432a3.37,3.37,0,0,1-1.31-4.4l.19-.42a2.06,2.06,0,0,1,.82-.86l36.49-20.95a4.09,4.09,0,0,1,4.14.46l69.52,40.83v1.31A3.83,3.83,0,0,1,597.24,451.27Z" transform="translate(0 -0.03)"/><path class="cls-10" d="M597.12,451.1l-34.8,20.06a5.25,5.25,0,0,1-4.73,0l-68-39.29a3.37,3.37,0,0,1-1.31-4.38l.21-.42a1.88,1.88,0,0,1,.8-.85l36.36-20.89a4.15,4.15,0,0,1,4.13.46L599,446.51v1.32A3.81,3.81,0,0,1,597.12,451.1Z" transform="translate(0 -0.03)"/><path class="cls-11" d="M597,451l-34.68,20a5.25,5.25,0,0,1-4.7,0L489.8,431.88a3.39,3.39,0,0,1-1.32-4.38l.21-.4a1.86,1.86,0,0,1,.8-.86l36.23-20.81a4.15,4.15,0,0,1,4.12.46l69,40.52v1.31A3.83,3.83,0,0,1,597,451Z" transform="translate(0 -0.03)"/><path class="cls-12" d="M596.81,450.91,562.26,470.8a5.27,5.27,0,0,1-4.71,0L490,431.8a3.36,3.36,0,0,1-1.31-4.35l.2-.42a1.86,1.86,0,0,1,.8-.84l36.1-20.74a4.13,4.13,0,0,1,4.11.46L598.7,446.3v1.32A3.81,3.81,0,0,1,596.81,450.91Z" transform="translate(0 -0.03)"/><path class="cls-13" d="M596.65,450.78l-34.43,19.83a5.27,5.27,0,0,1-4.68,0l-67.32-38.86a3.34,3.34,0,0,1-1.32-4.34l.2-.42a2.11,2.11,0,0,1,.8-.85l36-20.64A4.12,4.12,0,0,1,530,406l68.52,40.25v1.31A3.76,3.76,0,0,1,596.65,450.78Z" transform="translate(0 -0.03)"/><path class="cls-14" d="M596.44,450.7l-34.3,19.71a5.23,5.23,0,0,1-4.66,0l-67-38.69a3.32,3.32,0,0,1-1.31-4.32l.21-.41a1.94,1.94,0,0,1,.78-.85L526,405.55a4.08,4.08,0,0,1,4.07.45l68.31,40.11v1.31A3.76,3.76,0,0,1,596.44,450.7Z" transform="translate(0 -0.03)"/><path class="cls-15" d="M596.29,450.52l-34.15,19.7a5.07,5.07,0,0,1-4.64,0l-66.78-38.53a3.28,3.28,0,0,1-1.32-4.29l.2-.41a1.91,1.91,0,0,1,.79-.85l35.72-20.56a4,4,0,0,1,4,.46l68,40v1.31A3.72,3.72,0,0,1,596.29,450.52Z" transform="translate(0 -0.03)"/><path class="cls-16" d="M596.16,450.44l-34,19.6a5.11,5.11,0,0,1-4.63,0l-66.54-38.36a3.27,3.27,0,0,1-1.31-4.28l.19-.42a2.06,2.06,0,0,1,.79-.84l35.59-20.56a4,4,0,0,1,4,.45L598,445.84v1.32A3.71,3.71,0,0,1,596.16,450.44Z" transform="translate(0 -0.03)"/><path class="cls-17" d="M596,450.32l-33.93,19.54a5.13,5.13,0,0,1-4.61,0l-66.31-38.27a3.28,3.28,0,0,1-1.31-4.27l.19-.41a2,2,0,0,1,.79-.84l35.47-20.35a4,4,0,0,1,4,.45l67.55,39.67v1.32A3.7,3.7,0,0,1,596,450.32Z" transform="translate(0 -0.03)"/><path class="cls-18" d="M595.85,450.22l-33.74,19.37a5,5,0,0,1-4.58,0L491.46,431.5a3.28,3.28,0,0,1-1.31-4.26l.2-.41a1.89,1.89,0,0,1,.77-.84l35.34-20.28a4,4,0,0,1,3.94.45l67.3,39.53V447A3.75,3.75,0,0,1,595.85,450.22Z" transform="translate(0 -0.03)"/><path class="cls-19" d="M595.69,450.1,562,469.49a5.15,5.15,0,0,1-4.59,0l-65.86-38a3.26,3.26,0,0,1-1.32-4.25l.2-.39a2,2,0,0,1,.77-.84l35.33-20.28a4,4,0,0,1,3.94.44l67.06,39.41v1.32A3.69,3.69,0,0,1,595.69,450.1Z" transform="translate(0 -0.03)"/><path class="cls-20" d="M595.53,450,562,469.3a5,5,0,0,1-4.56,0l-65.53-37.84a3.27,3.27,0,0,1-1.31-4.23l.2-.41a2,2,0,0,1,.77-.83l35.08-20.13a3.91,3.91,0,0,1,3.94.44l66.81,39.19v1.31A3.66,3.66,0,0,1,595.53,450Z" transform="translate(0 -0.03)"/><path class="cls-21" d="M595.37,449.86l-33.44,19.26a5.06,5.06,0,0,1-4.55,0l-65.3-37.71a3.24,3.24,0,0,1-1.31-4.21l.2-.41a2,2,0,0,1,.77-.82l34.94-20.06a4,4,0,0,1,3.94.44l66.59,39.1v1.25A3.63,3.63,0,0,1,595.37,449.86Z" transform="translate(0 -0.03)"/><path class="cls-22" d="M595.22,449.78,561.9,468.92a5,5,0,0,1-4.53,0l-65.05-37.51A3.25,3.25,0,0,1,491,427.2l.19-.39A2,2,0,0,1,492,426l34.82-20a3.93,3.93,0,0,1,3.94.43L597,445.34v1.25A3.66,3.66,0,0,1,595.22,449.78Z" transform="translate(0 -0.03)"/><path class="cls-23" d="M595,449.64l-33.13,19.1a5,5,0,0,1-4.5,0L492.53,431.3a3.21,3.21,0,0,1-1.32-4.18l.2-.39a1.85,1.85,0,0,1,.76-.83L526.87,406a4,4,0,0,1,3.94.44l66.06,38.82v1.24A3.64,3.64,0,0,1,595,449.64Z" transform="translate(0 -0.03)"/><path class="cls-24" d="M594.9,449.52l-33.08,19a4.94,4.94,0,0,1-4.49,0l-64.59-37.35a3.18,3.18,0,0,1-1.32-4.15l.2-.41a2,2,0,0,1,.76-.81L527,406a3.93,3.93,0,0,1,3.94.43l65.82,38.72v1.23A3.62,3.62,0,0,1,594.9,449.52Z" transform="translate(0 -0.03)"/><path class="cls-25" d="M594.74,449.42l-32.94,18.9a5,5,0,0,1-4.47,0L493,431.17a3.18,3.18,0,0,1-1.31-4.15l.18-.4a2,2,0,0,1,.76-.81L527,406.1a3.88,3.88,0,0,1,4,.44l65.57,38.51v1.24A3.61,3.61,0,0,1,594.74,449.42Z" transform="translate(0 -0.03)"/><path class="cls-26" d="M594.6,449.28l-32.84,18.89a5,5,0,0,1-4.47,0l-64.12-37a3.16,3.16,0,0,1-1.31-4.12l.18-.4a2,2,0,0,1,.76-.81l34.3-19.71a3.93,3.93,0,0,1,3.94.44L596.39,445v1.22A3.62,3.62,0,0,1,594.6,449.28Z" transform="translate(0 -0.03)"/><path class="cls-27" d="M594.41,449.18,561.72,468a4.89,4.89,0,0,1-4.44,0L493.4,431.13a3.16,3.16,0,0,1-1.32-4.11l.2-.4a1.83,1.83,0,0,1,.75-.81l34.15-19.61a3.93,3.93,0,0,1,3.94.43l65.09,38.23v1.22A3.56,3.56,0,0,1,594.41,449.18Z" transform="translate(0 -0.03)"/><path class="cls-28" d="M594.31,449.1l-32.58,18.76a4.94,4.94,0,0,1-4.43,0l-63.64-36.78a3.15,3.15,0,0,1-1.32-4.1l.2-.4a1.86,1.86,0,0,1,.75-.8l34.05-19.54a3.93,3.93,0,0,1,3.86.43L596,444.77V446A3.54,3.54,0,0,1,594.31,449.1Z" transform="translate(0 -0.03)"/><path class="cls-29" d="M594.1,449l-32.45,18.68a5,5,0,0,1-4.41,0L493.83,431a3.15,3.15,0,0,1-1.25-4.09l.18-.39a1.93,1.93,0,0,1,.75-.8l33.92-19.47a3.84,3.84,0,0,1,3.85.43l64.61,37.91v1.21A3.61,3.61,0,0,1,594.1,449Z" transform="translate(0 -0.03)"/><path class="cls-30" d="M593.94,448.84l-32.33,18.6a4.77,4.77,0,0,1-4.38,0L494.1,431a3.13,3.13,0,0,1-1.31-4.08l.18-.38a2,2,0,0,1,.75-.8l33.79-19.39a3.84,3.84,0,0,1,3.84.42l64.37,37.81v1.23A3.55,3.55,0,0,1,593.94,448.84Z" transform="translate(0 -0.03)"/><path class="cls-31" d="M593.78,448.72l-32.21,18.54a4.87,4.87,0,0,1-4.37,0L494.34,431A3.11,3.11,0,0,1,493,427l.19-.38a1.9,1.9,0,0,1,.74-.8l33.66-19.32a3.81,3.81,0,0,1,3.82.42l64.12,37.66v1.14A3.54,3.54,0,0,1,593.78,448.72Z" transform="translate(0 -0.03)"/><path class="cls-32" d="M593.68,448.6l-32.13,18.47a4.79,4.79,0,0,1-4.36,0L494.5,430.89a3.09,3.09,0,0,1-1.24-4l.19-.39a1.86,1.86,0,0,1,.73-.79l33.53-19.25a3.84,3.84,0,0,1,3.81.42l63.87,37.52v1.2A3.49,3.49,0,0,1,593.68,448.6Z" transform="translate(0 -0.03)"/><path class="cls-33" d="M593.47,448.47l-32,18.39a4.77,4.77,0,0,1-4.35,0l-62.44-36a3.09,3.09,0,0,1-1.23-4l.18-.38a1.88,1.88,0,0,1,.74-.79l33.4-19.18a3.85,3.85,0,0,1,3.79.42l63.62,37.38v1.19A3.54,3.54,0,0,1,593.47,448.47Z" transform="translate(0 -0.03)"/><path class="cls-34" d="M593.31,448.38,561.47,466.7a4.77,4.77,0,0,1-4.32,0l-62.27-35.9a3.06,3.06,0,0,1-1.24-4l.19-.38a1.83,1.83,0,0,1,.73-.78l33.28-19.1a3.78,3.78,0,0,1,3.78.42L595,444.17v1.19A3.47,3.47,0,0,1,593.31,448.38Z" transform="translate(0 -0.03)"/><path class="cls-35" d="M593.15,448.26l-31.71,18.26a4.83,4.83,0,0,1-4.32,0l-61.95-35.81a3.06,3.06,0,0,1-1.24-3.94l.2-.38a1.84,1.84,0,0,1,.72-.79l33.15-19a3.78,3.78,0,0,1,3.77.4l63.12,37.09v1.18A3.47,3.47,0,0,1,593.15,448.26Z" transform="translate(0 -0.03)"/><path class="cls-36" d="M593,448.1l-31.53,18.2a4.85,4.85,0,0,1-4.3,0l-61.74-35.63a3,3,0,0,1-1.22-3.94l.18-.38a2,2,0,0,1,.73-.78l33-18.95a3.74,3.74,0,0,1,3.76.42L594.73,444v1.17A3.44,3.44,0,0,1,593,448.1Z" transform="translate(0 -0.03)"/><path class="cls-37" d="M592.93,448,561.4,466.13a4.72,4.72,0,0,1-4.27,0l-61.48-35.47a3,3,0,0,1-1.22-3.94l.19-.38a1.75,1.75,0,0,1,.72-.78l32.84-18.88a3.78,3.78,0,0,1,3.74.41l62.64,36.78v1.18A3.46,3.46,0,0,1,592.93,448Z" transform="translate(0 -0.03)"/><path class="cls-38" d="M592.67,447.92l-31.41,18a4.64,4.64,0,0,1-4.26,0l-61.24-35.33a3,3,0,0,1-1.21-3.94l.19-.38a1.7,1.7,0,0,1,.72-.78l32.76-18.81a3.72,3.72,0,0,1,3.72.42l62.45,36.65V445A3.46,3.46,0,0,1,592.67,447.92Z" transform="translate(0 -0.03)"/><path class="cls-39" d="M592.51,447.8l-31.21,18a4.74,4.74,0,0,1-4.25,0l-61-35.2a3,3,0,0,1-1.2-3.94l.17-.37a1.78,1.78,0,0,1,.73-.78l32.63-18.73a3.7,3.7,0,0,1,3.7.41l62.15,36.51v1.16A3.4,3.4,0,0,1,592.51,447.8Z" transform="translate(0 -0.03)"/><path class="cls-40" d="M592.37,447.69l-31.11,17.86a4.7,4.7,0,0,1-4.23,0l-60.76-35a3,3,0,0,1-1.19-3.94l.18-.38a1.86,1.86,0,0,1,.71-.76l32.5-18.66a3.71,3.71,0,0,1,3.69.41l61.9,36.36v1.16A3.4,3.4,0,0,1,592.37,447.69Z" transform="translate(0 -0.03)"/><path class="cls-41" d="M592.19,447.58l-31,17.82a4.64,4.64,0,0,1-4.2,0L496.5,430.51a3,3,0,0,1-1.2-3.94l.18-.37a1.92,1.92,0,0,1,.71-.76l32.37-18.59a3.72,3.72,0,0,1,3.68.41l61.66,36.22v1.15A3.4,3.4,0,0,1,592.19,447.58Z" transform="translate(0 -0.03)"/><path id="_Path_72" data-name=" Path 72" class="cls-42" d="M592,447.46l-30.85,17.76a4.68,4.68,0,0,1-4.19,0l-60.23-34.73a3,3,0,0,1-1.19-3.94l.18-.37a1.74,1.74,0,0,1,.71-.76l32.13-18.51a3.67,3.67,0,0,1,3.67.4l61.41,36.08v1.14A3.38,3.38,0,0,1,592,447.46Z" transform="translate(0 -0.03)"/><path id="_Path_73" data-name=" Path 73" class="cls-53" d="M597.19,449.39l-34.3,19.7a5.13,5.13,0,0,1-4.67,0l-67-38.67a3.32,3.32,0,0,1-1.32-4.31l.2-.42a1.94,1.94,0,0,1,.79-.84l35.85-20.58a4.06,4.06,0,0,1,4.07.46l68.31,40.1v1.31A3.78,3.78,0,0,1,597.19,449.39Z" transform="translate(0 -0.03)"/><path id="_Path_74" data-name=" Path 74" class="cls-54" d="M563,466.18a5.25,5.25,0,0,1-4.67,0l-67.13-38.75a1.42,1.42,0,0,1-.85-.86,1.43,1.43,0,0,1,.85-1.84l35.17-20.33a5.23,5.23,0,0,1,4.66,0l67.13,38.75a1.41,1.41,0,0,1,.86.86,1.42,1.42,0,0,1-.86,1.83Z" transform="translate(0 -0.03)"/><polygon id="_Path_75" data-name=" Path 75" class="cls-49" points="554.62 461.44 499.11 429.18 534.58 408.7 590.09 440.96 554.62 461.44"/><g id="_Group_6" data-name=" Group 6"><path class="cls-55" d="M508.29,419.57v0a.52.52,0,0,1,.27-.69l9.2-5.32.07,0a.52.52,0,1,1,.46.94l-9.2,5.32a.5.5,0,0,1-.26.08A.51.51,0,0,1,508.29,419.57Z" transform="translate(0 -0.03)"/></g><ellipse id="_Path_76" data-name=" Path 76" class="cls-56" cx="576.65" cy="453.73" rx="4.07" ry="2.35"/><g class="cls-57"><path id="_Path_77" data-name=" Path 77" class="cls-45" d="M518.21,489.25c3.51,2.05,3.49,5.37,0,7.38L474.4,522a13.85,13.85,0,0,1-12.64-.08l-29.82-17.7c-3.52-2.13-3.49-5.38,0-7.38l43.85-25.17a13.91,13.91,0,0,1,12.67.07Z" transform="translate(0 -0.03)"/></g><g class="cls-58"><path class="cls-59" d="M517.86,489.26c3.48,2.07,3.46,5.33,0,7.33l-43.45,25.12a13.76,13.76,0,0,1-12.54-.08L432.3,504.08c-3.5-2.08-3.47-5.35,0-7.33l43.48-25a13.86,13.86,0,0,1,12.57.06Z" transform="translate(0 -0.03)"/></g><g class="cls-60"><path class="cls-61" d="M517.49,489.29c3.45,2,3.44,5.26,0,7.25l-43.13,24.9a13.62,13.62,0,0,1-12.44-.06L432.65,504c-3.45-2-3.44-5.29,0-7.28l43.13-24.75a13.73,13.73,0,0,1,12.45.07Z" transform="translate(0 -0.03)"/></g><g class="cls-62"><path class="cls-63" d="M517.15,489.3c3.42,1.94,3.41,5.23,0,7.2l-42.78,24.69a13.45,13.45,0,0,1-12.33-.08L433,503.8c-3.43-1.94-3.41-5.24,0-7.2l42.76-24.55a13.63,13.63,0,0,1,12.36.07Z" transform="translate(0 -0.03)"/></g><g class="cls-64"><path class="cls-65" d="M517,489.27c3.38,2,3.36,5.19,0,7.14L474.54,520.9a13.39,13.39,0,0,1-12.23-.07l-28.9-17.08c-3.4-2-3.37-5.2,0-7.15l42.36-24.34a13.53,13.53,0,0,1,12.25.08Z" transform="translate(0 -0.03)"/></g><g class="cls-66"><path class="cls-67" d="M516.49,489.32c3.35,2,3.34,5.15,0,7.09l-42,24.28a13.33,13.33,0,0,1-12.14-.07l-28.58-17c-3.38-2-3.35-5.16,0-7.08l42-24.14a13.34,13.34,0,0,1,12.13.08Z" transform="translate(0 -0.03)"/></g><g class="cls-68"><path class="cls-69" d="M516.1,489.34c3.32,1.94,3.31,5.11,0,7l-41.77,24a13.14,13.14,0,0,1-12,0l-28.24-16.83c-3.35-2-3.32-5.12,0-7l41.68-23.92a13.26,13.26,0,0,1,12.05.06Z" transform="translate(0 -0.03)"/></g><g class="cls-70"><path class="cls-71" d="M515.74,489.35c3.3,1.93,3.28,5.06,0,7l-41.29,23.87a13,13,0,0,1-11.93-.08l-28.09-16.67c-3.33-1.94-3.3-5.08,0-7l41.32-23.65a13.16,13.16,0,0,1,11.94,0Z" transform="translate(0 -0.03)"/></g><g class="cls-72"><path class="cls-73" d="M515.39,489.39c3.27,1.92,3.25,5,0,6.9l-41,23.64a12.94,12.94,0,0,1-11.82-.08l-27.85-16.54c-3.3-1.91-3.27-5,0-6.89l41-23.45a13,13,0,0,1,11.83,0Z" transform="translate(0 -0.03)"/></g><g class="cls-74"><path class="cls-75" d="M515,489.38c3.25,1.9,3.23,5,0,6.84l-40.6,23.52a12.83,12.83,0,0,1-11.71-.07l-27.59-16.39c-3.27-1.91-3.24-5,0-6.85l40.61-23.3a12.9,12.9,0,0,1,11.73,0Z" transform="translate(0 -0.03)"/></g><g class="cls-76"><path class="cls-77" d="M514.68,489.46c3.21,1.86,3.2,4.92,0,6.76l-40.27,23.25a12.75,12.75,0,0,1-11.61-.06L435.49,503.1c-3.23-1.89-3.22-4.93,0-6.77l40.24-23.11a12.87,12.87,0,0,1,11.64.06Z" transform="translate(0 -0.03)"/></g><g class="cls-78"><path class="cls-79" d="M514.32,489.42c3.19,1.85,3.18,4.87,0,6.71l-39.84,23a12.63,12.63,0,0,1-11.51-.08L435.86,503c-3.19-1.88-3.18-4.9,0-6.73l39.89-22.9a12.68,12.68,0,0,1,11.52.07Z" transform="translate(0 -0.03)"/></g><g class="cls-80"><path class="cls-81" d="M514,489.43c3.16,1.84,3.15,4.83,0,6.65l-39.54,22.83a12.48,12.48,0,0,1-11.41-.07l-26.87-16c-3.17-1.86-3.16-4.86,0-6.66l39.52-22.7a12.68,12.68,0,0,1,11.43.07Z" transform="translate(0 -0.03)"/></g><g class="cls-82"><path class="cls-83" d="M513.55,489.47c3.14,1.8,3.12,4.77,0,6.57l-39.08,22.54a12.38,12.38,0,0,1-11.3-.07l-26.63-15.76c-3.14-1.81-3.11-4.78,0-6.57l39.17-22.49a12.53,12.53,0,0,1,11.33.07Z" transform="translate(0 -0.03)"/></g><g class="cls-84"><path class="cls-85" d="M513.26,489.43c3.1,1.84,3.08,4.78,0,6.57l-38.82,22.41a12.31,12.31,0,0,1-11.21-.07L436.9,502.75c-3.12-1.84-3.09-4.78,0-6.57l38.81-22.26a12.31,12.31,0,0,1,11.21,0Z" transform="translate(0 -0.03)"/></g><g class="cls-86"><path class="cls-87" d="M512.9,489.47c3.08,1.8,3.06,4.72,0,6.48l-38.46,22.22a12.15,12.15,0,0,1-11.09-.08l-26.1-15.47c-3.09-1.8-3.06-4.72,0-6.48l38.45-22.07a12.29,12.29,0,0,1,11.11,0Z" transform="translate(0 -0.03)"/></g><g class="cls-88"><path class="cls-89" d="M512.6,489.48c3,1.79,3,4.67,0,6.43l-38.09,22a12.06,12.06,0,0,1-11-.07L437.6,502.46c-3.06-1.79-3-4.68,0-6.42l38.1-21.86a12.09,12.09,0,0,1,11,.06Z" transform="translate(0 -0.03)"/></g><g class="cls-90"><path class="cls-91" d="M512.23,489.5c3,1.76,3,4.62,0,6.35l-37.72,21.8a11.94,11.94,0,0,1-10.9-.07L438,502.36c-3-1.78-3-4.64,0-6.36l37.73-21.66a12,12,0,0,1,10.9.06Z" transform="translate(0 -0.03)"/></g><g class="cls-92"><path class="cls-93" d="M511.84,489.47c3,1.73,3,4.57,0,6.29L474.4,517.4a11.82,11.82,0,0,1-10.77-.07l-25.32-15.09c-3-1.75-3-4.59,0-6.29l37.38-21.46a11.92,11.92,0,0,1,10.8.07Z" transform="translate(0 -0.03)"/></g><g class="cls-94"><path class="cls-95" d="M511.5,489.53c3,1.73,2.94,4.54,0,6.23l-37,21.32a11.7,11.7,0,0,1-10.68,0l-25.17-15c-3-1.73-3-4.54,0-6.24l37-21.21a11.83,11.83,0,0,1,10.7.06Z" transform="translate(0 -0.03)"/></g><g class="cls-96"><path class="cls-97" d="M511.14,489.59c2.93,1.71,2.92,4.48,0,6.17l-36.65,21.1a11.56,11.56,0,0,1-10.51-.07L439,502c-2.94-1.72-2.93-4.49,0-6.17l36.65-21a11.72,11.72,0,0,1,10.59.06Z" transform="translate(0 -0.03)"/></g><g class="cls-98"><path class="cls-99" d="M510.88,489.47c2.9,1.69,2.89,4.44,0,6.11l-36.31,21a11.47,11.47,0,0,1-10.51-.07l-24.68-14.65c-2.92-1.7-2.91-4.45,0-6.12L475.65,475a11.59,11.59,0,0,1,10.51.06Z" transform="translate(0 -0.03)"/></g><g class="cls-100"><path class="cls-101" d="M510.43,489.57c2.87,1.69,2.87,4.4,0,6.06l-35.9,20.7a11.4,11.4,0,0,1-10.36-.06l-24.44-14.45c-2.89-1.7-2.86-4.42,0-6.06l35.93-20.57a11.38,11.38,0,0,1,10.38,0Z" transform="translate(0 -0.03)"/></g><g class="cls-102"><path class="cls-103" d="M510.08,489.59c2.84,1.65,2.82,4.36,0,6l-35.54,20.54a11.19,11.19,0,0,1-10.26,0l-24.19-14.37c-2.87-1.67-2.84-4.36,0-6l35.58-20.41a11.31,11.31,0,0,1,10.29,0Z" transform="translate(0 -0.03)"/></g><g class="cls-104"><path class="cls-105" d="M509.72,489.6c2.82,1.64,2.8,4.31,0,5.94l-35.19,20.39a11.12,11.12,0,0,1-10.15-.07l-23.95-14.21c-2.83-1.66-2.8-4.33,0-5.93l35.22-20.22a11.27,11.27,0,0,1,10.18,0Z" transform="translate(0 -0.03)"/></g><g class="cls-106"><path class="cls-107" d="M509.37,489.61c2.78,1.63,2.77,4.27,0,5.88l-34.88,20.19a11,11,0,0,1-10.06-.07l-23.65-14.07c-2.79-1.63-2.77-4.28,0-5.87l34.87-20a11.08,11.08,0,0,1,10.06,0Z" transform="translate(0 -0.03)"/></g><g class="cls-108"><path class="cls-109" d="M509,489.63c2.76,1.61,2.75,4.23,0,5.82l-34.47,19.91a10.89,10.89,0,0,1-9.94,0l-23.46-13.92c-2.77-1.62-2.75-4.23,0-5.82l34.49-19.8a11,11,0,0,1,10,0Z" transform="translate(0 -0.03)"/></g><g class="cls-110"><path class="cls-111" d="M508.7,489.67c2.73,1.59,2.72,4.17,0,5.74l-34.16,19.7a10.83,10.83,0,0,1-9.85,0l-23.21-13.78c-2.73-1.6-2.72-4.19,0-5.75L475.63,476a10.87,10.87,0,0,1,9.87,0Z" transform="translate(0 -0.03)"/></g><g class="cls-112"><path class="cls-113" d="M508.29,489.67c2.71,1.57,2.63,4.13,0,5.68l-33.73,19.51a10.68,10.68,0,0,1-9.75-.06l-23-13.64c-2.71-1.58-2.63-4.14,0-5.69l33.77-19.39a10.79,10.79,0,0,1,9.76.07Z" transform="translate(0 -0.03)"/></g><g class="cls-114"><path class="cls-115" d="M508,489.68c2.63,1.56,2.63,4.08,0,5.62l-33.43,19.31a10.58,10.58,0,0,1-9.63-.06L442.2,501.06c-2.62-1.57-2.62-4.1,0-5.63l33.42-19.19a10.65,10.65,0,0,1,9.66.07Z" transform="translate(0 -0.03)"/></g><g class="cls-116"><path class="cls-117" d="M507.6,489.69c2.62,1.54,2.62,4.05,0,5.57l-33.12,19a10.55,10.55,0,0,1-9.54,0L442.61,501c-2.63-1.55-2.63-4.06,0-5.57l33-18.92a10.53,10.53,0,0,1,9.56,0Z" transform="translate(0 -0.03)"/></g><g class="cls-118"><path class="cls-119" d="M507.24,489.71c2.63,1.56,2.63,4,0,5.5L474.57,514.1a10.38,10.38,0,0,1-9.43,0l-22.23-13.2c-2.63-1.58-2.63-4,0-5.52l32.7-18.76a10.4,10.4,0,0,1,9.44,0Z" transform="translate(0 -0.03)"/></g><g class="cls-120"><path class="cls-121" d="M506.89,489.72c2.62,1.51,2.62,4,0,5.45l-32.31,18.67a10.21,10.21,0,0,1-9.32,0l-22-13.05c-2.63-1.51-2.63-4,0-5.45l32.33-18.56a10.28,10.28,0,0,1,9.35,0Z" transform="translate(0 -0.03)"/></g><g class="cls-122"><path class="cls-123" d="M506.54,489.73c2.55,1.45,2.54,3.92,0,5.39L474.6,513.63a10.15,10.15,0,0,1-9.2,0l-21.74-12.92c-2.63-1.44-2.55-3.91,0-5.38l32-18.39a10.15,10.15,0,0,1,9.2,0Z" transform="translate(0 -0.03)"/></g><g class="cls-124"><path class="cls-125" d="M506.19,489.74c2.52,1.49,2.51,3.88,0,5.34l-31.65,18.21a10,10,0,0,1-9.13,0l-21.49-12.77c-2.55-1.49-2.52-3.88,0-5.32l31.61-18.11a10.09,10.09,0,0,1,9.2,0Z" transform="translate(0 -0.03)"/></g><g class="cls-126"><path class="cls-127" d="M505.84,489.77c2.49,1.46,2.48,3.82,0,5.26l-31.22,18.05a9.94,9.94,0,0,1-9,0l-21.25-12.63c-2.51-1.46-2.5-3.82,0-5.25l31.25-17.95a10,10,0,0,1,9,0Z" transform="translate(0 -0.03)"/></g><g class="cls-128"><path class="cls-129" d="M505.48,489.73c2.47,1.5,2.46,3.84,0,5.26l-30.86,17.85a9.75,9.75,0,0,1-8.92,0l-21-12.47c-2.49-1.5-2.47-3.85,0-5.25l30.89-17.75a9.87,9.87,0,0,1,8.92,0Z" transform="translate(0 -0.03)"/></g><g class="cls-130"><path class="cls-131" d="M505.13,489.8c2.44,1.42,2.43,3.74,0,5.13L474.6,512.58a9.66,9.66,0,0,1-8.82,0L445,500.25c-2.45-1.43-2.43-3.75,0-5.15l30.54-17.53a9.74,9.74,0,0,1,8.83,0Z" transform="translate(0 -0.03)"/></g><g class="cls-132"><path class="cls-133" d="M504.8,489.8c2.41,1.4,2.4,3.69,0,5.08l-30.22,17.43a9.56,9.56,0,0,1-8.71,0l-20.51-12.19c-2.42-1.4-2.41-3.7,0-5.08l30.21-17.31a9.58,9.58,0,0,1,8.72,0Z" transform="translate(0 -0.03)"/></g><g class="cls-134"><path class="cls-135" d="M504.35,489.82c2.38,1.4,2.38,3.71,0,5L474.62,512a9.45,9.45,0,0,1-8.6,0l-20.28-12c-2.39-1.39-2.38-3.71,0-5l29.82-17.08a9.47,9.47,0,0,1,8.61,0Z" transform="translate(0 -0.03)"/></g><g class="cls-136"><path class="cls-137" d="M504.1,489.76c2.35,1.38,2.35,3.65,0,5L474.62,511.8a9.3,9.3,0,0,1-8.5,0l-20-11.89c-2.36-1.38-2.35-3.65,0-5L475.56,478a9.39,9.39,0,0,1,8.51,0Z" transform="translate(0 -0.03)"/></g><path id="_Path_78" data-name=" Path 78" class="cls-42" d="M503.76,489.81c2.33,1.37,2.31,3.59,0,4.9l-29.11,16.82a9.2,9.2,0,0,1-8.39,0l-19.81-11.71c-2.34-1.37-2.32-3.59,0-4.9l29.09-16.71a9.32,9.32,0,0,1,8.42,0Z" transform="translate(0 -0.03)"/><path id="_Path_79" data-name=" Path 79" class="cls-138" d="M515.24,485.71c3.29,1.92,3.27,5,0,6.92l-41.13,23.81a13,13,0,0,1-11.82-.08l-28-16.59c-3.29-1.93-3.28-5,0-6.94l41.12-23.64a13.06,13.06,0,0,1,11.82.06Z" transform="translate(0 -0.03)"/><path id="_Path_80" data-name=" Path 80" class="cls-45" d="M515.24,483.33c3.29,1.92,3.27,5,0,6.93L474.11,514a13,13,0,0,1-11.82-.07l-28-16.6c-3.29-1.93-3.28-5.05,0-6.93l41.12-23.65a13.12,13.12,0,0,1,11.82.08Z" transform="translate(0 -0.03)"/><polygon id="_Path_81" data-name=" Path 81" class="cls-49" points="510.38 484.27 488.06 497.42 489.45 498.25 511.77 485.06 510.38 484.27"/><polygon id="_Path_82" data-name=" Path 82" class="cls-49" points="505.56 481.69 460.92 507.97 462.31 508.81 506.96 482.48 505.56 481.69"/><polygon id="_Path_83" data-name=" Path 83" class="cls-49" points="500.96 478.95 456.32 505.25 457.72 506.08 502.37 479.74 500.96 478.95"/><polygon id="_Path_84" data-name=" Path 84" class="cls-49" points="496.3 476.29 451.66 502.59 453.05 503.42 497.69 477.08 496.3 476.29"/><polygon id="_Path_85" data-name=" Path 85" class="cls-49" points="491.63 473.58 447 499.88 448.39 500.71 493.03 474.37 491.63 473.58"/><polygon id="_Path_86" data-name=" Path 86" class="cls-49" points="486.97 470.92 442.33 497.21 443.73 498.06 488.36 471.7 486.97 470.92"/><polygon id="_Path_87" data-name=" Path 87" class="cls-49" points="482.18 469.32 439.15 494.84 440.51 495.65 483.54 470.1 482.18 469.32"/><ellipse id="_Path_88" data-name=" Path 88" class="cls-139" cx="385.48" cy="534.3" rx="38.58" ry="22.27"/><path id="_Path_89" data-name=" Path 89" class="cls-48" d="M358.4,533.11h0c0,4.11,2.66,8.22,8.06,11.34,10.73,6.18,28.31,6.18,39,0,5.42-3.12,8.05-7.23,8.05-11.34h0v-7.29h-3.09a19.91,19.91,0,0,0-5-3.94c-10.73-6.2-28.31-6.2-39,0a20,20,0,0,0-5,3.94H358.4Z" transform="translate(0 -0.03)"/><path id="_Path_90" data-name=" Path 90" class="cls-140" d="M399.73,519.37l5.26,18v7.36l.51-.28c5.42-3.11,8.05-7.22,8.05-11.34h0v-7.29h-3.09a20.37,20.37,0,0,0-5-3.94A30.25,30.25,0,0,0,399.73,519.37Z" transform="translate(0 -0.03)"/><ellipse id="_Path_91" data-name=" Path 91" class="cls-141" cx="385.98" cy="525.79" rx="27.61" ry="15.93"/><path id="_Path_92" data-name=" Path 92" class="cls-142" d="M386,528.31l19,9.05.51-.27c10.73-6.2,10.73-16.34,0-22.54A39.88,39.88,0,0,0,386,509.9Z" transform="translate(0 -0.03)"/><path class="cls-44" d="M405.5,514.57A40.11,40.11,0,0,0,386,509.92v18.39h27.2C414.51,523.44,412,518.28,405.5,514.57Z" transform="translate(0 -0.03)"/></g><g id="Layer_10" data-name="Layer 10"><path id="_Path_93" data-name=" Path 93" class="cls-143" d="M136.88,373.93l2.87-1.65L326.51,261.14a10.3,10.3,0,0,0,4.62-8L332.45,1.83,329.57.44a3.56,3.56,0,0,0-3.45.08L141.51,107.62a10.31,10.31,0,0,0-4.63,8Z" transform="translate(0 -0.03)"/><path id="_Path_94" data-name=" Path 94" class="cls-54" d="M139.75,372.28,334,259.45V4.92c0-2.91-2.09-4.1-4.63-2.63l-185,107.43a10.28,10.28,0,0,0-4.63,8Z" transform="translate(0 -0.03)"/><path id="_Path_95" data-name=" Path 95" class="cls-42" d="M139.75,117.71v12.07L334,17V4.92c0-2.91-2.09-4.1-4.63-2.63l-185,107.43A10.28,10.28,0,0,0,139.75,117.71Z" transform="translate(0 -0.03)"/><path id="_Path_96" data-name=" Path 96" class="cls-45" d="M322.21,15.07c0,1,.69,1.35,1.51.87a3.32,3.32,0,0,0,1.51-2.63c0-1-.68-1.35-1.51-.87A3.38,3.38,0,0,0,322.21,15.07Z" transform="translate(0 -0.03)"/><path id="_Path_97" data-name=" Path 97" class="cls-45" d="M315.65,18.91c0,1,.67,1.35,1.51.88a3.37,3.37,0,0,0,1.49-2.63c0-1-.67-1.35-1.49-.88A3.31,3.31,0,0,0,315.65,18.91Z" transform="translate(0 -0.03)"/><path id="_Path_98" data-name=" Path 98" class="cls-45" d="M309.08,22.85c0,1,.67,1.35,1.49.86a3.3,3.3,0,0,0,1.52-2.62c0-1-.67-1.36-1.5-.87A3.31,3.31,0,0,0,309.08,22.85Z" transform="translate(0 -0.03)"/><polygon id="_Path_99" data-name=" Path 99" class="cls-48" points="156.58 140.1 156.58 213.14 318.73 119.83 318.73 46.3 156.58 140.1"/><polygon id="_Path_100" data-name=" Path 100" class="cls-45" points="163.89 146.32 163.89 151.94 262.99 94.49 262.99 88.85 163.89 146.32"/><g id="_Group_7" data-name=" Group 7"><polygon id="_Path_101" data-name=" Path 101" class="cls-51" points="156.58 307.64 156.58 313.25 318.97 218.89 318.97 213.26 156.58 307.64"/><polygon id="_Path_102" data-name=" Path 102" class="cls-51" points="156.58 322.92 156.58 328.51 318.97 234.17 318.97 228.53 156.58 322.92"/><polygon id="_Path_103" data-name=" Path 103" class="cls-51" points="156.58 338.96 156.58 344.56 318.97 250.21 318.97 244.57 156.58 338.96"/></g><polygon id="_Path_104" data-name=" Path 104" class="cls-45" points="163.89 161.6 163.89 167.2 262.99 109.77 262.99 104.13 163.89 161.6"/><polygon id="_Path_105" data-name=" Path 105" class="cls-45" points="163.89 176.88 163.89 182.48 262.99 125.03 262.99 119.39 163.89 176.88"/><polygon id="_Path_106" data-name=" Path 106" class="cls-45" points="216.58 161.6 216.58 167.2 262.99 140.31 262.99 134.67 216.58 161.6"/><polygon id="_Path_107" data-name=" Path 107" class="cls-51" points="272.11 157.57 272.11 215.82 318.73 188.35 318.73 129.72 272.11 157.57"/><polygon id="_Path_108" data-name=" Path 108" class="cls-51" points="156.58 225.54 156.58 283.79 203.18 256.3 203.18 197.69 156.58 225.54"/><path id="_Path_109" data-name=" Path 109" class="cls-45" d="M271.7,109.85c0,13.7,9.63,19.3,21.48,12.47S314.71,98.7,314.71,85s-9.64-19.28-21.46-12.46S271.73,96.15,271.7,109.85Z" transform="translate(0 -0.03)"/><polygon id="_Path_110" data-name=" Path 110" class="cls-45" points="272.11 214.25 272.11 215.82 273.43 215.06 295.72 173.83 318.34 188.57 318.73 188.35 318.73 187.01 296.45 172.49 318.73 131.31 318.73 129.72 317.43 130.51 295.17 171.65 272.87 157.12 272.11 157.57 272.11 158.45 294.44 172.99 272.11 214.25"/><polygon id="_Path_111" data-name=" Path 111" class="cls-45" points="156.58 227.13 178.74 241.56 156.58 282.52 156.58 283.79 158.11 282.87 180.01 242.41 202.22 256.87 203.18 256.3 203.18 255.67 180.75 241.05 203.18 199.57 203.18 197.69 202.13 198.32 179.46 240.21 156.76 225.42 156.58 225.54 156.58 227.13"/><polygon id="_Path_112" data-name=" Path 112" class="cls-144" points="212.05 194.42 212.05 252.66 258.67 225.2 258.67 166.57 212.05 194.42"/><polygon id="_Path_113" data-name=" Path 113" class="cls-145" points="223.93 198.24 223.93 256.49 270.55 229.01 270.55 170.39 223.93 198.24"/><g id="_Group_8" data-name=" Group 8"><polygon id="_Path_114" data-name=" Path 114" class="cls-49" points="237.44 209.7 237.44 267.94 240.5 268.7 284.06 240.46 287.13 182.61 284.06 181.85 237.44 209.7"/><polygon id="_Path_115" data-name=" Path 115" class="cls-48" points="240.5 210.46 240.5 268.7 287.13 241.22 287.13 182.61 240.5 210.46"/></g><path id="_Path_116" data-name=" Path 116" class="cls-146" d="M285,109.55v4.53l16.49-9.64v-2.21a8.87,8.87,0,0,0-5.1-8A12.14,12.14,0,0,0,299.21,87c0-3.52-2.48-5-5.52-3.21a12.38,12.38,0,0,0-5.54,9.59,4.14,4.14,0,0,0,1.31,3.37A20.7,20.7,0,0,0,285,109.55Z" transform="translate(0 -0.03)"/></g><g id="Layer_11" data-name="Layer 11"><path class="cls-147" d="M335.51,157.92a1.73,1.73,0,0,0,1.48,2.43l2.54,1v12a2.93,2.93,0,0,0,2,2.78,1.12,1.12,0,0,0,1.07-.21h0a1.62,1.62,0,0,0,.51-.21l23.32-13.46V124l-24.79,14.32a4.77,4.77,0,0,0-2.12,3.66v7Z" transform="translate(0 -0.03)"/><path id="_Path_117" data-name=" Path 117" class="cls-148" d="M423.63,91.07v32.21a4.72,4.72,0,0,1-2.3,3.57l-75.64,43.77a1.14,1.14,0,0,1-1.08.21h0a2.94,2.94,0,0,1-2-2.78V155h-2.46a1.69,1.69,0,0,1-.7-.15,1.73,1.73,0,0,1-.88-2.29l4-8.9v-7a4.68,4.68,0,0,1,2.11-3.67l74.63-43.15a3.31,3.31,0,0,1,3.94.5h0A1.07,1.07,0,0,1,423.63,91.07Z" transform="translate(0 -0.03)"/><path id="_Path_118" data-name=" Path 118" class="cls-54" d="M423.68,123.18a4.72,4.72,0,0,1-2.12,3.67L346.2,170.36c-1.16.67-2.11.09-2.11-1.22V156h-2.5a1.61,1.61,0,0,1-.72-.16,1.74,1.74,0,0,1-.86-2.3l4-8.89v-7a4.7,4.7,0,0,1,2.12-3.66l75.36-43.51a1.3,1.3,0,0,1,2.12,1.22Z" transform="translate(0 -0.03)"/><g id="_Group_9" data-name=" Group 9"><polygon class="cls-149" points="348.92 149.78 392.52 124.73 392.51 127.55 348.92 152.64 348.92 149.78"/></g><g id="_Group_10" data-name=" Group 10"><polygon class="cls-149" points="348.92 155.44 392.52 130.4 392.52 133.22 348.92 158.23 348.92 155.44"/></g><g id="_Group_11" data-name=" Group 11"><polygon class="cls-149" points="368.27 149.93 392.52 136.03 392.52 138.84 368.27 152.71 368.27 149.93"/></g><g id="_Group_12" data-name=" Group 12"><polygon class="cls-149" points="370.32 124.94 392.52 111.71 392.52 119.21 370.32 132.35 370.32 124.94"/></g><path class="cls-44" d="M395.4,141.94l26.11-15.08a4.72,4.72,0,0,0,2.12-3.66V91.67c0-1.34-1-1.89-2.12-1.22L395.4,105.53Z" transform="translate(0 -0.03)"/><g id="_Group_13" data-name=" Group 13"><path id="_Compound_Path_" data-name=" Compound Path " class="cls-45" d="M404.47,121.69v-8.58l2.91-1.66v1.11l.3-.53a7.57,7.57,0,0,1,.93-1.31,5.64,5.64,0,0,1,1.38-1.15c1.42-.81,2.58-.86,3.46-.15a4.56,4.56,0,0,1,1.31,3.71,10.34,10.34,0,0,1-1.46,5.26,9.58,9.58,0,0,1-3.41,3.68,2.55,2.55,0,0,1-3.25,0,6.37,6.37,0,0,1-1,2.14,5,5,0,0,1-1.62,1.54,2,2,0,0,1-2.78-.2,6.33,6.33,0,0,1-1.05-4.14,18.17,18.17,0,0,1,2.63-9.19,17.59,17.59,0,0,1,6.49-6.77c2.58-1.47,4.79-1.66,6.63-.59s2.76,3.11,2.76,6.11a19.37,19.37,0,0,1-9.12,15.76,8.2,8.2,0,0,1-2.72,1,4.2,4.2,0,0,1-2.38-.15l1-2.46a4.08,4.08,0,0,0,4.14-.37,13.64,13.64,0,0,0,5-5.25,14.4,14.4,0,0,0,2-7.23c0-2.39-.72-4.1-2.17-5s-3.14-.77-5.25.44a12.92,12.92,0,0,0-5.05,5.36,15.71,15.71,0,0,0-1.88,7.35,5.68,5.68,0,0,0,.48,2.63c.31.53.68.76,1.1.53S404.51,122.68,404.47,121.69Zm3.58-2.33c.39.4.93.4,1.61,0a3.93,3.93,0,0,0,1.62-1.89,6.13,6.13,0,0,0,.59-2.63,2.45,2.45,0,0,0-.59-1.85q-.6-.57-1.59,0a4.17,4.17,0,0,0-1.62,1.81,5.74,5.74,0,0,0-.61,2.63A2.6,2.6,0,0,0,408.05,119.36Z" transform="translate(0 -0.03)"/></g></g><g id="Layer_14" data-name="Layer 14"><g id="_Group_14" data-name=" Group 14"><path id="_Path_119" data-name=" Path 119" class="cls-150" d="M457.38,48.52A3.13,3.13,0,0,1,456,51L376.35,98l-1.06-.9a1.44,1.44,0,0,1-.64-1.17V58a3.08,3.08,0,0,1,1.41-2.41L455.47,9.65a2.16,2.16,0,0,1,2.12,0l.86.74Z" transform="translate(0 -0.03)"/><path id="_Path_120" data-name=" Path 120" class="cls-54" d="M458.83,49.65a3,3,0,0,1-1.4,2.41l-79.9,46c-.77.43-1.4.08-1.4-.81V59a3.08,3.08,0,0,1,1.4-2.43l79.9-46.14c.77-.43,1.4-.08,1.4.82Z" transform="translate(0 -0.03)"/><path id="_Path_121" data-name=" Path 121" class="cls-151" d="M450,37.81a.49.49,0,0,1-.21.37L384,76a.17.17,0,0,1-.1,0,.12.12,0,0,1-.11-.14V70.2a.47.47,0,0,1,.21-.35l65.75-37.93c.11-.06.21,0,.21.12Z" transform="translate(0 -0.03)"/><path id="_Path_122" data-name=" Path 122" class="cls-152" d="M450,37.81a.49.49,0,0,1-.21.37l-43.93,25.3c-.12.06-.21,0-.21-.12v-5.7a.44.44,0,0,1,.21-.36l43.93-25.38c.11-.06.21,0,.21.12Z" transform="translate(0 -0.03)"/></g></g><g id="Layer_15" data-name="Layer 15"><path id="_Path_123" data-name=" Path 123" class="cls-153" d="M99.46,106.92v50.45a5.25,5.25,0,0,1-2.34,4L29.78,200.48a3.1,3.1,0,0,1-2.19.35l-.41-.09a2.33,2.33,0,0,1-1.85-2.28V147.93a5.26,5.26,0,0,1,2.35-4.07l67.32-39a3.26,3.26,0,0,1,4,.56h0A2.11,2.11,0,0,1,99.46,106.92Z" transform="translate(0 -0.03)"/><path id="_Path_124" data-name=" Path 124" class="cls-54" d="M99.46,157.51a5.25,5.25,0,0,1-2.34,4.07l-67.56,39c-1.29.79-2.34.18-2.34-1.31V149.09A5.25,5.25,0,0,1,29.56,145L97.19,106c1.28-.79,2.33-.17,2.33,1.31Z" transform="translate(0 -0.03)"/><path id="_Path_125" data-name=" Path 125" class="cls-44" d="M99.52,157.51v-9.6L27.31,189.58l-.16.1v9.63c0,1.45,1,2.06,2.34,1.31l67.63-39A5.25,5.25,0,0,0,99.52,157.51Z" transform="translate(0 -0.03)"/><path id="_Path_126" data-name=" Path 126" class="cls-44" d="M54,151.48l12.64-13.29c1.46-1.54,3.28-1.36,3.28.34v14.61c0,1.68-1.82,3.59-3.28,3.45L54,155.28c-1.45-.16-1.45-2.26,0-3.8l12.64-13.29c1.46-1.54,3.28-1.36,3.28.34v14.61c0,1.68-1.82,3.59-3.28,3.45L54,155.28C52.46,155.12,52.46,153,54,151.48Z" transform="translate(0 -0.03)"/><g id="_Group_15" data-name=" Group 15"><path class="cls-45" d="M35.88,192a1,1,0,0,1-.5-1.88L91,158a1,1,0,0,1,1,1.73L36.34,191.84a1,1,0,0,1-.5.14Z" transform="translate(0 -0.03)"/></g><g id="_Group_16" data-name=" Group 16"><path class="cls-154" d="M65.13,174a1,1,0,0,1,.37-1.31L91,158a1,1,0,0,1,1,1.73L66.5,174.43a1,1,0,0,1-.5.13A1,1,0,0,1,65.13,174Z" transform="translate(0 -0.03)"/></g><path id="_Path_127" data-name=" Path 127" class="cls-155" d="M64.53,171.79a1.1,1.1,0,0,1,.66-.67,1.08,1.08,0,0,1,1.37.67,3.9,3.9,0,0,1,0,3.55,1.06,1.06,0,0,1-.66.66,1.07,1.07,0,0,1-1.37-.66A4,4,0,0,1,64.53,171.79Z" transform="translate(0 -0.03)"/></g><g id="Layer_13" data-name="Layer 13"><path class="cls-156" d="M100.1,207.59v42.14l72-42.55V159.64l-66.53,38.41A11,11,0,0,0,100.1,207.59Z" transform="translate(0 -0.03)"/><polygon id="_Path_128" data-name=" Path 128" class="cls-140" points="88.45 249.41 165.98 201.64 167.56 151.3 165.98 150.25 86.97 196.93 86.87 248.36 88.45 249.41"/><polygon id="_Path_129" data-name=" Path 129" class="cls-157" points="167.56 202.69 167.56 151.3 88.56 197.98 88.45 249.41 167.56 202.69"/><path id="_Path_130" data-name=" Path 130" class="cls-158" d="M141.26,184.27c0,4.23,2.91,5.95,6.57,3.85a14.77,14.77,0,0,0,6.64-11.51c0-4.22-2.91-5.94-6.56-3.84A14.79,14.79,0,0,0,141.26,184.27Z" transform="translate(0 -0.03)"/><polygon id="_Path_131" data-name=" Path 131" class="cls-158" points="88.45 249.41 88.33 224.84 100.23 206.24 123.08 212.52 135.18 191.91 167.56 202.69 88.45 249.41"/><polygon id="_Path_132" data-name=" Path 132" class="cls-158" points="162.51 201.01 135.18 191.91 141.27 200.28 149.06 200.91 149.81 198.78 162.51 201.01"/><polygon id="_Path_133" data-name=" Path 133" class="cls-158" points="115.46 216.7 123.08 212.52 100.23 206.24 107.03 214.16 107.03 211.92 115.46 216.7"/></g><g id="Layer_16" data-name="Layer 16"><path class="cls-156" d="M198.88,118.59h0l1.74-1V73.29l-59.11,34.33a10.31,10.31,0,0,0-4.63,8V154.4Z" transform="translate(0 -0.03)"/><g id="_Group_17" data-name=" Group 17"><path id="_Path_134" data-name=" Path 134" class="cls-159" d="M195,115.33l-76,43.9-1.51-.75a1.84,1.84,0,0,1-1-1.64V83.28a8.31,8.31,0,0,1,3.78-6.57l70.19-40.65a2.85,2.85,0,0,1,3,.08l1.71,1.11a1.38,1.38,0,0,1,.66,1.18V40Z" transform="translate(0 -0.03)"/><path id="_Path_135" data-name=" Path 135" class="cls-44" d="M196.72,114.33,119,159.18V85a8.38,8.38,0,0,1,3.78-6.57l70.13-40.48c2.07-1.21,3.78-.23,3.78,2.18Z" transform="translate(0 -0.03)"/><path id="_Path_136" data-name=" Path 136" class="cls-45" d="M119,84.94V95.53l77.69-44.85V40.1c0-2.41-1.71-3.39-3.78-2.18L122.81,78.4A8.41,8.41,0,0,0,119,84.94Z" transform="translate(0 -0.03)"/><path id="_Path_137" data-name=" Path 137" class="cls-42" d="M187.91,49.11c0,.9.64,1.27,1.41.81a3.12,3.12,0,0,0,1.44-2.45c0-.91-.65-1.28-1.44-.83A3.16,3.16,0,0,0,187.91,49.11Z" transform="translate(0 -0.03)"/><path id="_Path_138" data-name=" Path 138" class="cls-42" d="M180.92,53.21c0,.9.64,1.27,1.43.82a3.2,3.2,0,0,0,1.42-2.47c0-.9-.65-1.27-1.42-.82A3.17,3.17,0,0,0,180.92,53.21Z" transform="translate(0 -0.03)"/><path id="_Path_139" data-name=" Path 139" class="cls-42" d="M173.94,57.3c0,.91.65,1.28,1.42.83a3.17,3.17,0,0,0,1.43-2.47c0-.9-.64-1.27-1.43-.83A3.22,3.22,0,0,0,173.94,57.3Z" transform="translate(0 -0.03)"/><polygon id="_Path_140" data-name=" Path 140" class="cls-45" points="178.79 69.4 143.23 89.93 143.23 87.61 178.79 67.07 178.79 69.4"/><polygon id="_Path_141" data-name=" Path 141" class="cls-45" points="193.13 61.15 180.93 68.24 180.93 65.9 193.13 58.81 193.13 61.15"/><polygon id="_Path_142" data-name=" Path 142" class="cls-160" points="187.04 71.34 176.88 77.21 176.88 74.89 187.04 69.02 187.04 71.34"/><polygon id="_Path_143" data-name=" Path 143" class="cls-45" points="175.14 78.15 161.33 86.19 161.33 83.85 175.14 75.81 175.14 78.15"/><polygon id="_Path_144" data-name=" Path 144" class="cls-45" points="152.84 97.83 122.63 115.27 122.63 112.94 152.84 95.49 152.84 97.83"/><polygon id="_Path_145" data-name=" Path 145" class="cls-161" points="164.1 91.35 156.09 95.97 156.09 93.64 164.1 89.01 164.1 91.35"/><polygon id="_Path_146" data-name=" Path 146" class="cls-45" points="193.13 74.63 167.74 89.29 167.74 86.96 193.13 72.3 193.13 74.63"/><polygon id="_Path_147" data-name=" Path 147" class="cls-45" points="174.43 92.27 149.69 106.55 149.69 104.22 174.43 89.93 174.43 92.27"/><polygon id="_Path_148" data-name=" Path 148" class="cls-162" points="181.51 88.12 175.95 91.35 175.95 89.01 181.51 85.78 181.51 88.12"/><polygon id="_Path_149" data-name=" Path 149" class="cls-45" points="171.47 100.57 128 125.6 128 123.27 171.47 98.23 171.47 100.57"/><polygon id="_Path_150" data-name=" Path 150" class="cls-45" points="189.67 90.18 173.59 99.4 173.59 97.08 189.67 87.86 189.67 90.18"/><polygon id="_Path_151" data-name=" Path 151" class="cls-45" points="162.83 112.41 122.63 135.5 122.63 133.18 162.83 110.08 162.83 112.41"/><polygon id="_Path_152" data-name=" Path 152" class="cls-45" points="181.63 101.6 164.94 111.25 164.94 108.91 181.63 99.27 181.63 101.6"/><polygon id="_Path_153" data-name=" Path 153" class="cls-163" points="193.13 94.86 183.22 100.57 183.22 98.23 193.13 92.53 193.13 94.86"/><polygon id="_Path_154" data-name=" Path 154" class="cls-164" points="175.14 112 169.44 115.27 169.44 112.94 175.14 109.67 175.14 112"/><polygon id="_Path_155" data-name=" Path 155" class="cls-45" points="182.4 107.72 176.88 110.84 176.88 108.5 182.4 105.38 182.4 107.72"/><polygon id="_Path_156" data-name=" Path 156" class="cls-45" points="161 126.77 122.63 148.99 122.63 146.65 161 124.44 161 126.77"/><polygon id="_Path_157" data-name=" Path 157" class="cls-45" points="178.24 116.87 166.01 123.95 166.01 121.63 178.24 114.55 178.24 116.87"/><polygon id="_Path_158" data-name=" Path 158" class="cls-165" points="193.13 108.35 186.72 112 186.72 109.67 193.13 106.01 193.13 108.35"/></g></g></g></svg>