<svg id="Layer_1" data-name="Layer 1" xmlns="http://www.w3.org/2000/svg" viewBox="0 0 79.6 77.8"><defs><style>.cls-1{fill:#010101;}</style></defs><title>segura-script-icon</title><path class="cls-1" d="M91.7,135.66c5.6.2,9.2,5.4,19.6,5.4,6,0,11.5-3.2,10.7-8.4-.4-2.5-3.4-5.2-8.4-6.9-8.7-3.1-20.7-6.5-29.5-10.7-5.7-2.81-11.2-8-11.2-14.91,0-4.3,1.1-6.3,3.2-9.1,8-10.5,28.1-22.7,46.8-22.7,12.4,0,29.6,6.6,29.6,18.9,0,7.3-8.2,12.3-15.3,13.8-.6.1-5.2-.5-5.1-2.6,0-2.3,8.5,1.8,8.5-9.6,0-9.3-14.5-12.8-22.7-12.8-12.7,0-32.1,7-32.1,21.2,0,9.8,12.7,12.3,27.8,17.91,9.3,3.3,19.3,7.8,18.4,17-1,10.5-14.1,14-24.9,14-7.3,0-17.8-.3-17.8-7.6C89.3,137.46,90.1,135.66,91.7,135.66Z" transform="translate(-72.9 -68.35)"/></svg>