<svg id="Layer_1" data-name="Layer 1" xmlns="http://www.w3.org/2000/svg" viewBox="0 0 501 501"><defs><style>.cls-1{fill:#010101;}.cls-2{fill:#231f20;}</style></defs><title>segura-square-icon</title><path class="cls-1" d="M272.33,438.2l-34.42-79.62c-3.73-9.12-20.32-51.84-29.86-78,0,28.2,0,80.86-.82,101.18l-2.08,56.4h-63l16.59-280.74h58.88l64.69,161.72c3.73,10,10.78,29.45,17,50.18,6.22-20.32,13.26-39.81,17.41-50.18l64.69-161.72H439L455.62,438.2H391.35l-2.49-56.4c-.83-20.73-.83-73.4-.42-101.18-8.29,23.64-23.22,61-29,74.23L324.17,438.2Z" transform="translate(-50 -50)"/><path class="cls-2" d="M551,551H50V50H551ZM91.75,509.25h417.5V91.75H91.75Z" transform="translate(-50 -50)"/></svg>