<svg id="Layer_1" data-name="Layer 1" xmlns="http://www.w3.org/2000/svg" viewBox="0 0 325.93 98"><defs><style>.cls-1{fill:#010101;}</style></defs><title>segura-script-logo</title><path class="cls-1" d="M91.7,135.66c5.6.2,9.2,5.4,19.6,5.4,6,0,11.5-3.2,10.7-8.4-.4-2.5-3.4-5.2-8.4-6.9-8.7-3.1-20.7-6.5-29.5-10.7-5.7-2.81-11.2-8-11.2-14.91,0-4.3,1.1-6.3,3.2-9.1,8-10.5,28.1-22.7,46.8-22.7,12.4,0,29.6,6.6,29.6,18.9,0,7.3-8.2,12.3-15.3,13.8-.6.1-5.2-.5-5.1-2.6,0-2.3,8.5,1.8,8.5-9.6,0-9.3-14.5-12.8-22.7-12.8-12.7,0-32.1,7-32.1,21.2,0,9.8,12.7,12.3,27.8,17.91,9.3,3.3,19.3,7.8,18.4,17-1,10.5-14.1,14-24.9,14-7.3,0-17.8-.3-17.8-7.6C89.3,137.46,90.1,135.66,91.7,135.66Z" transform="translate(-72.9 -68.35)"/><path class="cls-1" d="M197.8,126.26c.9-.5,3-.9,3,0,0,1.1-1.9,3.1-2.5,3.7a54.27,54.27,0,0,1-27.8,9.8c-9.3.5-23.1-1.4-23.1-14.6.1-9.5,15-22.61,24.8-23.11,5.8-.3,9.9,2.5,9.3,7.91-1.2,8.2-14.3,13.3-21.6,16.3,1.8,5,7,7.4,16.9,6.7C184.5,132.36,192.2,128.76,197.8,126.26Zm-38.5-5.7c5.6-.7,12.4-3.3,12.4-9,0-1.51-.7-2.81-2.4-2.6-3.5.29-9,5.7-9.7,8.8A14.07,14.07,0,0,0,159.3,120.56Z" transform="translate(-72.9 -68.35)"/><path class="cls-1" d="M222.8,143.36a73.07,73.07,0,0,0-.4-8.6c-4.2,3.5-10.61,6.3-16.31,6.3-7.5,0-11-6.1-11-11.8.1-9.4,14.31-27.51,29-27.51,4.6,0,13.8,5,12.9,9.71-.4,1.89-3.6,4.2-6.3,4.2-2.1,0-6.9-6.41-11.1-6.41-5.7.21-13.41,10-13.81,15-.4,4.7.9,8.5,6.81,8.5,7.7,0,10.8-7.5,15.4-7.5,3.8,0,4.3,4.3,4.4,6.6-.1,1.3.3,4.7-.1,9.4,3.5-.2,7.4.1,6.2,3-.5,1.2-3.4,2.8-7.2,3.4-2.5,9.6-8.7,17.5-14.8,18.6-3.9.9-7.1-4.6-6.9-7.4C210.2,152.16,216.5,146.16,222.8,143.36Zm-.1,5.1c-5.7,1.7-6.1,6-6.1,7.5,0,1,.2,2.9,1.7,2.9C221.5,158.86,222.5,151.76,222.7,148.46Z" transform="translate(-72.9 -68.35)"/><path class="cls-1" d="M252.09,101.75c1.1-1,3.9-.4,3.9,1.6-.5,5.9-.5,9.31,0,19.91,0,2.5,1.2,5.6,4.2,5.6,5.2,0,11.31-7.6,13.81-13.6,1.6-7.51,4.4-9.11,7.4-10.71,2.1-1.1,4.2-1.3,4.8.7a47.86,47.86,0,0,1,.6,11.81c0,4.8,1.8,10.3,5.7,11.5,4.2,1.4,7.5.4,11-.3.8-.1,1.4,1.5.9,2.4-4.4,5-12,7.4-16.5,7.4-9.7,0-12.2-9.5-13.61-13.5-2.29.9-10.3,15-19.3,15s-9.3-9.8-9.6-15.3C245.29,118.06,244,108.15,252.09,101.75Z" transform="translate(-72.9 -68.35)"/><path class="cls-1" d="M303.39,137.06a234.84,234.84,0,0,1-1.1-29.31c-.2-2.3,2.8-8.5,6.3-8.5,2.8,0,3.4,2.5,3.3,3.9.1,5-1.4,11.11-.6,16.51,4.1-5.4,8.7-18.51,15.5-18.51,3.7,0,4.1,7.2,6.4,10,4.2,5,9,5.11,12.6,4.61,1.5-.1,1.81,1.3.5,3-2.79,3.3-9.4,4.6-12,4.6-8,0-9.8-9.1-12.2-9.1-1.9,0-4,3-4.8,4.3-3.8,6.9-4.4,15.8-6.6,22.9-.5,1.6-1.5,2.5-2.5,2.5-1.6,0-3.8-.5-4.3-2.1A16.69,16.69,0,0,1,303.39,137.06Z" transform="translate(-72.9 -68.35)"/><path class="cls-1" d="M355.19,139.26c-5.7.3-12.7-3.4-13.2-8.9-1.1-12.6,11.5-24.21,25.21-27.71,3.3-.7,8.1.8,10,4.3,1.3,2.3,2.7,5,.5,6.9-.6.81-2.1,1.31-2.3.71-1-1.5-3.7-5-6.61-4.6-9.2.5-15.2,5.8-15.7,12.6-.9,5.6,1.8,9.3,6.7,9a20.84,20.84,0,0,0,11.5-3.8c1.81-1.2,3.31-4.5,5.91-4.5,2.8,0,3.4,5.1,6.7,6.5,4.3,1.9,10,.2,14.1-.9.8-.1,1,1.1.7,1.5-5.8,6.2-14,8.9-18,8.9-4.2,0-6.91-2.6-9.2-4.9C369.29,132.36,361.59,138.76,355.19,139.26Z" transform="translate(-72.9 -68.35)"/></svg>