<svg xmlns="http://www.w3.org/2000/svg" viewBox="0 0 1658.06 1092.45"><defs><style>.cls-1{fill:#cc1213;}.cls-2{fill:#e6a821;}</style></defs><title>logo</title><g id="Xtras_--_Back" data-name="Xtras -- Back"><path class="cls-1" d="M1821,571.41s106-63.12,125.58-196.06c0,0-54.84,79.63-240.65,32.54,0,0-90.32-31-149-60.18-3-82.66-11.8-135.67-11.8-135.67-150.08-57.55-293.85-77.61-411.78-78.51h-.26c-117.93.9-261.69,21-411.78,78.51,0,0-8.76,53-11.8,135.67-58.65,29.2-149,60.18-149,60.18C374.73,455,319.88,375.35,319.88,375.35,339.5,508.29,445.46,571.41,445.46,571.41c-47.09,44.48-141.28,103.35-141.28,103.35,98.11,70.64,277.33,36.6,277.33,36.6,31.4,49.69,115.12,129.49,115.12,129.49,20.88,50.77,70.65,59.34,111.21,56.79,63.24,132.32,164.63,253,325.24,328.21v.12l.13-.06.13.06v-.12c160.61-75.19,262-195.89,325.24-328.21,40.56,2.55,90.34-6,111.21-56.79,0,0,83.72-79.8,115.12-129.49,0,0,179.22,34,277.33-36.6C1962.24,674.76,1868.05,615.89,1821,571.41Z" transform="translate(-304.18 -133.53)"/></g><g id="Shield"><path d="M1532.33,227.13c-108.17-41.65-211-63.25-303.69-72.06a948.11,948.11,0,0,0-94.84-4.89c-31.8,0-62.85,1.73-92.72,4.67-93.5,8.68-197.45,30.3-306.49,72.28,0,0-25.34,170.82,3.94,375L762.37,594C749.49,501.52,748,415.88,750,351c53.64-22,190.8-69.14,383.23-69.14S1463.3,329,1517,351c2.06,64.56.63,149.66-12,241.56l23.85,8.22C1557.72,397.18,1532.33,227.13,1532.33,227.13Z" transform="translate(-304.18 -133.53)"/><path d="M1389.63,945.76c-63.1,106.28-149.12,186.49-255.83,238.59C1027.08,1132.25,941,1052,877.85,945.75a755.05,755.05,0,0,1-42.37-82.94L810,866.3c59.94,140,159.75,269.12,323.83,345.46,164.27-76.43,264.06-205.76,323.88-346l-25.49-3.49A755.52,755.52,0,0,1,1389.63,945.76Z" transform="translate(-304.18 -133.53)"/></g><g id="Banner"><path d="M1133.53,786S1020.7,783,901,813.42s-142.76,36.8-197.21,12.76c0,0-62.79-42.38-163.85-209.08,0,0,45.46,50,177.58,25.61,126.08-23.3,125.59-25.61,125.59-25.61s101-31.3,291.84-35.22Z" transform="translate(-304.18 -133.53)"/><path d="M1133.53,806.56v21.58s-162.86,5.16-317.88,51.15c0,0-74.57,23.32-102-38.44,0,0,33.36,28.5,91.25,15.74S935.35,818.33,1133.53,806.56Z" transform="translate(-304.18 -133.53)"/><path d="M540,552.44s1.75,91,197.52,42.15c216.52-54.07,302-54.07,302-54.07l95.47-5.34v23.15s-108.12-4.91-234.32,23.55S740.76,617.1,740.76,617.1,514.44,669.2,540,552.44Z" transform="translate(-304.18 -133.53)"/><path d="M707.59,433.2S557,476.21,560.23,554.41c0,0-1.3,44.47,153.38,27.47C713.61,581.88,704.13,489,707.59,433.2Z" transform="translate(-304.18 -133.53)"/><path d="M340.45,407.89S360.08,502.4,466,564.38c0,0-37.94,54.13-138.67,109.07,0,0,66.72,49.3,240.71,25.3l-52.33-89.4s-41.86-71.46,77.18-139.73l111.2-52.57V367.34S464.73,494.23,340.45,407.89Z" transform="translate(-304.18 -133.53)"/><path d="M1133,786S1245.8,783,1365.5,813.42s142.75,36.8,197.21,12.76c0,0,62.79-42.38,163.85-209.08,0,0-45.47,50-177.59,25.61-126.07-23.3-125.58-25.61-125.58-25.61s-101-31.3-291.84-35.22Z" transform="translate(-304.18 -133.53)"/><path d="M1133,806.56v21.58s162.87,5.16,317.89,51.15c0,0,74.56,23.32,102-38.44,0,0-33.36,28.5-91.25,15.74S1331.16,818.33,1133,806.56Z" transform="translate(-304.18 -133.53)"/><path d="M1726.56,552.44s-1.75,91-197.52,42.15c-216.52-54.07-302-54.07-302-54.07l-95.47-5.34v23.15s108.12-4.91,234.32,23.55,159.87,35.22,159.87,35.22S1752.06,669.2,1726.56,552.44Z" transform="translate(-304.18 -133.53)"/><path d="M1558.92,433.2s150.64,43,147.36,121.21c0,0,1.29,44.47-153.38,27.47C1552.9,581.88,1562.38,489,1558.92,433.2Z" transform="translate(-304.18 -133.53)"/><path d="M1926.05,407.89s-19.62,94.51-125.58,156.49c0,0,37.93,54.13,138.66,109.07,0,0-66.71,49.3-240.7,25.3l52.33-89.4s41.86-71.46-77.19-139.73l-111.19-52.57V367.34S1801.78,494.23,1926.05,407.89Z" transform="translate(-304.18 -133.53)"/></g><g id="Xtras_--_Front" data-name="Xtras -- Front"><path class="cls-1" d="M455.48,473.44c-36.59,0-74.43-5.46-110.44-19.95L349.66,442c156.19,62.86,352.85-49.86,354.82-51l6.22,10.7c-.5.29-51.27,29.65-121.11,50.56C552.33,463.42,505.05,473.44,455.48,473.44Z" transform="translate(-304.18 -133.53)"/><path class="cls-1" d="M471.22,687.41c-35.6,0-78-5.83-120.28-25.35l-5.61-2.59,5.18-11.24,5.62,2.6c98.5,45.46,201.07,12.25,202.09,11.91l5.87-2L568,672.52l-5.86,2C559.56,675.34,522.41,687.41,471.22,687.41Z" transform="translate(-304.18 -133.53)"/><path class="cls-1" d="M1809,473.44c-49.58,0-96.84-10-134.11-21.18-69.84-20.91-120.61-50.27-121.12-50.56L1560,391c2,1.15,198.64,113.87,354.81,51l4.62,11.48C1883.46,468,1845.61,473.44,1809,473.44Z" transform="translate(-304.18 -133.53)"/><path class="cls-1" d="M1793.29,687.41c-51.2,0-88.35-12.07-90.93-12.93l-5.86-2,3.91-11.73,5.87,2c1,.34,103.59,33.55,202.1-11.91l5.61-2.6,5.19,11.24-5.62,2.59C1871.28,681.57,1828.89,687.41,1793.29,687.41Z" transform="translate(-304.18 -133.53)"/></g><g id="Text"><polygon class="cls-2" points="829.35 156.46 807.28 220.73 741.54 220.73 792.56 259.48 773.43 327.18 829.35 285.97 883.32 327.18 863.2 259.48 917.16 221.71 848.98 220.24 829.35 156.46"/><polygon class="cls-2" points="762.91 336.09 756.05 357.25 734.53 357.62 751.45 370.02 745.57 392.29 763.64 378.48 781.54 391.67 774.58 369.62 792.03 356.95 769.7 356.86 762.91 336.09"/><polygon class="cls-2" points="894.49 336.09 901.36 357.25 922.88 357.62 905.96 370.02 911.84 392.29 893.76 378.48 875.87 391.67 882.83 369.62 865.38 356.95 887.71 356.86 894.49 336.09"/><polygon class="cls-2" points="1024.31 349.49 1029.28 371.17 1050.68 373.44 1032.74 384.3 1036.63 406.99 1019.85 391.65 1000.86 403.21 1009.74 381.86 993.47 367.7 1015.72 369.57 1024.31 349.49"/><polygon class="cls-2" points="1142.16 372.45 1145.1 394.5 1166.2 398.74 1147.32 407.89 1149.09 430.85 1133.8 414.01 1113.82 423.75 1124.65 403.33 1109.77 387.72 1131.75 391.65 1142.16 372.45"/><polygon class="cls-2" points="632.58 349.49 627.61 371.17 606.21 373.44 624.15 384.3 620.26 406.99 637.04 391.65 656.03 403.21 647.15 381.86 663.42 367.7 641.17 369.57 632.58 349.49"/><polygon class="cls-2" points="514.73 372.45 511.79 394.5 490.7 398.74 509.57 407.89 507.8 430.85 523.09 414.01 543.07 423.75 532.25 403.33 547.13 387.72 525.14 391.65 514.73 372.45"/><polygon class="cls-2" points="587.44 192.53 578.35 246.8 524.64 256.21 571.72 279.73 565.51 336.31 605.47 295.54 655.31 320.59 629.45 269.63 668.28 231.87 612.36 240.45 587.44 192.53"/><polygon class="cls-2" points="1071.18 192.53 1080.28 246.8 1133.99 256.21 1086.91 279.73 1093.12 336.31 1053.15 295.54 1003.32 320.59 1029.18 269.63 990.35 231.87 1046.27 240.45 1071.18 192.53"/><path class="cls-2" d="M940.41,749.35q.39,4.53,6.35,5.53t19.33-.16l8.2-.72a33.31,33.31,0,0,0,9.28-2,17.59,17.59,0,0,0,6.66-4.61,29.48,29.48,0,0,0,4.87-7.7,81.24,81.24,0,0,0,3.92-11.1q.5-1.79,3.09-2a6.9,6.9,0,0,1,2.64.42l3.14,1c-.76,4.71-1.36,9.79-1.83,15.26s-.83,10.84-1.09,16.08c0,1.73-.37,2.86-1.12,3.35a5.25,5.25,0,0,1-2.43.87c-1.15.1-2.77.17-4.87.2s-4.37.13-6.82.27-5,.25-7.47.33-4.73.2-6.6.36l-49,4.27q-6.26.54-14.31,1.57t-14.5,2a5,5,0,0,1-.63-2.23l-.18-2q-.29-3.24,1.86-3.64,8.05-2.22,11.47-4.26a6.16,6.16,0,0,0,3-6.35L904,646a12.15,12.15,0,0,0-.74-3.52,5.25,5.25,0,0,0-1.94-2.33,10.92,10.92,0,0,0-4.15-1.49,60.85,60.85,0,0,0-7.35-.77c-1.48-.31-2.3-1.46-2.48-3.48l-.17-1.94a6.37,6.37,0,0,1,.23-2.41c4.62-.11,9.54-.29,14.73-.53S912,629,916,628.67c2-.17,4.31-.4,6.89-.71l8.07-.92q4.2-.46,8.38-1c2.8-.39,5.33-.76,7.62-1.1a21.44,21.44,0,0,1,.53,2.34c.15.86.24,1.5.28,1.93.18,2-.44,3.3-1.84,3.86q-9.17,2.1-12.11,4.42a7.1,7.1,0,0,0-2.57,6.64Z" transform="translate(-304.18 -133.53)"/><path class="cls-2" d="M1169.27,654.78a13,13,0,0,1-4.12.65c-2,0-3.46-.4-4.32-1.19a6.1,6.1,0,0,1-1.74-2.49q-5-12.35-12.88-17.76t-21.11-5.41q-10.39,0-17.65,5.09t-7.26,15.48a16.35,16.35,0,0,0,5.53,12.88,53.16,53.16,0,0,0,13.86,8.55q8.33,3.69,18,7.15a94.37,94.37,0,0,1,18,8.66,46.56,46.56,0,0,1,13.85,13.21q5.54,8,5.53,20.57a46.73,46.73,0,0,1-2.82,16,36.54,36.54,0,0,1-8.87,13.75,44.23,44.23,0,0,1-15.38,9.53q-9.3,3.57-22.3,3.57A97.13,97.13,0,0,1,1100,760a107.12,107.12,0,0,1-18.62-6.68q-.64-9.28-2.06-18.28t-3.14-17.43a13.46,13.46,0,0,1,5-.87,6.48,6.48,0,0,1,3.9,1,7.05,7.05,0,0,1,2.16,3.35,79.51,79.51,0,0,0,6.28,14.19,36.29,36.29,0,0,0,8,9.74,28.63,28.63,0,0,0,10.51,5.52,49.14,49.14,0,0,0,13.75,1.74,31.81,31.81,0,0,0,11.47-1.85,22.34,22.34,0,0,0,7.8-4.88,19.65,19.65,0,0,0,4.55-7.16,24.49,24.49,0,0,0,1.51-8.45q0-9.33-5.3-14.64a44.18,44.18,0,0,0-13.22-8.89q-7.89-3.58-17.1-6.72a84.58,84.58,0,0,1-17.1-8A43.67,43.67,0,0,1,1085.15,679q-5.31-7.69-5.31-20.71a41.38,41.38,0,0,1,3.14-16.16,36.57,36.57,0,0,1,9.2-13,45,45,0,0,1,14.62-8.78,54.83,54.83,0,0,1,19.6-3.26,88.15,88.15,0,0,1,18.3,1.95,136.42,136.42,0,0,1,20.89,6.5q.44,6.5,1.4,14.61C1167.65,645.58,1168.4,650.45,1169.27,654.78Z" transform="translate(-304.18 -133.53)"/><path class="cls-2" d="M1312.52,771.32q-18-3-30.49-10.74a61.29,61.29,0,0,1-19.7-18.94,64.71,64.71,0,0,1-9.36-25,90,90,0,0,1,.29-29,81.16,81.16,0,0,1,8.47-24.72,67,67,0,0,1,17.29-21,70.28,70.28,0,0,1,26.28-13q15.39-4.14,35.26-.87a134.06,134.06,0,0,1,20.16,4.87,200,200,0,0,1,19.87,7.89q-.52,5.84-.73,15a143.27,143.27,0,0,0,.75,18.12l-2.87.07a15.37,15.37,0,0,1-2.61-.1,6.94,6.94,0,0,1-2.8-1,3.08,3.08,0,0,1-1.23-2.51,57.68,57.68,0,0,0-3.39-12.74,26,26,0,0,0-5.89-8.87,28.34,28.34,0,0,0-9-5.77,59.18,59.18,0,0,0-12.83-3.43,50.29,50.29,0,0,0-21,.58A40.18,40.18,0,0,0,1302.2,649a51.54,51.54,0,0,0-12,16.24,82.66,82.66,0,0,0-7,22.88,87.82,87.82,0,0,0-.53,26.46,69.58,69.58,0,0,0,6.84,22.42,48.48,48.48,0,0,0,13.23,16.23,40.26,40.26,0,0,0,18.63,8.12,59.37,59.37,0,0,0,14.9.82,28.74,28.74,0,0,0,20.15-10.39,73.62,73.62,0,0,0,7.64-11,4.41,4.41,0,0,1,2.43-2.12,6,6,0,0,1,3-.27,13.89,13.89,0,0,1,2.62.76,16.18,16.18,0,0,1,2.54,1.18c-1.25,2.29-2.6,4.88-4,7.79s-2.91,5.88-4.43,8.92-3,6.1-4.26,9.17-2.5,6.07-3.56,9a213.65,213.65,0,0,1-21.82-.74Q1325.55,773.46,1312.52,771.32Z" transform="translate(-304.18 -133.53)"/><circle class="cls-2" cx="735.31" cy="553.12" r="18.88"/><circle class="cls-2" cx="904" cy="553.12" r="18.88"/><path class="cls-2" d="M1028.26,935.07,1015,909.87a5.27,5.27,0,0,0-2.29-2.41,12.56,12.56,0,0,0-3.53-1c-.67-.05-1-.61-1-1.66v-.37a1.65,1.65,0,0,1,.08-.46l.09-.58c1.21.11,2.78.2,4.69.29s4,.12,6.28.12c.78,0,1.71,0,2.79,0l3.28-.08c1.11,0,2.15-.07,3.12-.13s1.76-.11,2.37-.16a4.94,4.94,0,0,1,.17,1v.45c0,1-.33,1.47-1,1.58a9.15,9.15,0,0,0-3,.71,1.36,1.36,0,0,0-.83,1.21,3.94,3.94,0,0,0,.58,1.74l9.73,19.3,9.56-18a5.62,5.62,0,0,0,.92-2.66,1.52,1.52,0,0,0-.92-1.45,13,13,0,0,0-3.16-.88c-.72-.11-1.08-.63-1.08-1.58a10.5,10.5,0,0,1,.25-1.49c1.17.11,2.62.2,4.37.29s3.28.12,4.61.12,2.62,0,4-.08,2.84-.17,4.28-.33a3.61,3.61,0,0,1,.17,1v.54c0,1-.34,1.53-1,1.58a12.91,12.91,0,0,0-4.16,1.08,5.65,5.65,0,0,0-2,2.08l-13.72,25.28v16.56A3.73,3.73,0,0,0,1039,953a2.24,2.24,0,0,0,.92,1,6.57,6.57,0,0,0,1.78.71,28.65,28.65,0,0,0,3,.54,1.33,1.33,0,0,1,.7.37,1.75,1.75,0,0,1,.3,1.21,1.8,1.8,0,0,1-.05.37,2.19,2.19,0,0,0,0,.46l-.08.58c-.89,0-1.72,0-2.5,0l-2.33-.12c-1.33-.12-2.7-.18-4.11-.21s-2.59,0-3.54,0-2.15,0-3.45,0-2.56.09-3.78.21l-2.12.12c-.7,0-1.4,0-2.12,0l-.09-.58a1.65,1.65,0,0,1-.08-.46v-.37a1.81,1.81,0,0,1,.29-1.21,1.32,1.32,0,0,1,.71-.37c1.16-.22,2.13-.43,2.91-.62a8,8,0,0,0,1.83-.67,2,2,0,0,0,.91-1,3.73,3.73,0,0,0,.25-1.49Z" transform="translate(-304.18 -133.53)"/><path class="cls-2" d="M1106.86,939.73V910.2a2.76,2.76,0,0,0-1.25-2.57,12.46,12.46,0,0,0-4.41-1.17c-.72-.16-1.08-.69-1.08-1.58v-.66a2,2,0,0,1,.17-.83c1.38.16,2.74.27,4.07.33s2.88.08,4.66.08,3.3,0,4.57-.08,2.55-.17,3.83-.33c0,.27.09.55.12.83a6.16,6.16,0,0,1,0,.66c0,1-.33,1.47-1,1.58a9,9,0,0,0-3.75,1.17,2.83,2.83,0,0,0-1,2.41v48.65a7.32,7.32,0,0,1-1.12.13l-1,0a3.14,3.14,0,0,1-1.24-.29,4.14,4.14,0,0,1-1.42-1.21l-32.77-41.58v35.93a5.83,5.83,0,0,0,.13,1.37,1.5,1.5,0,0,0,.66.91,5.56,5.56,0,0,0,1.58.67c.7.19,1.63.4,2.79.62a1.43,1.43,0,0,1,.71.37,1.81,1.81,0,0,1,.29,1.21,7.61,7.61,0,0,1-.17,1.42c-1.39-.12-2.69-.21-3.91-.3s-2.63-.12-4.24-.12-3.15,0-4.62.12-2.81.18-4,.3a1.68,1.68,0,0,1-.16-.75v-.67a1.74,1.74,0,0,1,.29-1.16,1.28,1.28,0,0,1,.7-.42,10.17,10.17,0,0,0,4-1.24,2.73,2.73,0,0,0,1-2.33V909.62a2.5,2.5,0,0,0-.87-2,9.15,9.15,0,0,0-4-1.12c-.67-.16-1-.69-1-1.58v-.37a1.38,1.38,0,0,1,.09-.46l.08-.66,2.24.12c.72,0,1.45.07,2.17.12,1.21.06,2.45.1,3.7.13s2.26,0,3,0a14.66,14.66,0,0,1,3.16.21,3,3,0,0,1,1.33.79Z" transform="translate(-304.18 -133.53)"/><path class="cls-2" d="M1163.49,903a6.38,6.38,0,0,1,.75-.12,4.54,4.54,0,0,1,.58-.05,1.34,1.34,0,0,1,1,.29,3.66,3.66,0,0,1,.62,1.13L1180,940.15l10.15-29.36a5.34,5.34,0,0,0,.41-1.75,1.78,1.78,0,0,0-1.08-1.7,12.34,12.34,0,0,0-3.74-.88c-.66-.05-1-.58-1-1.58a1.3,1.3,0,0,1,0-.37,3.23,3.23,0,0,0,0-.46l.09-.66c.94.11,2.29.2,4,.29s3.37.12,4.87.12,3.13,0,4.57-.08a38.37,38.37,0,0,0,3.83-.33l.08.66a2.81,2.81,0,0,0,0,.5,2.48,2.48,0,0,1,.05.42c0,1-.37,1.6-1.09,1.66a11.86,11.86,0,0,0-3.78.83,3.71,3.71,0,0,0-1.79,2.25l-17.55,49.07a4.13,4.13,0,0,1-.58.08h-.58a1.32,1.32,0,0,1-.88-.25,3.76,3.76,0,0,1-.7-1.17l-13.56-36.09-13.22,37.43a4.14,4.14,0,0,1-.62.08h-.55a1.42,1.42,0,0,1-1-.25,3,3,0,0,1-.63-1.17l-18.21-48.15a3.36,3.36,0,0,0-1.46-1.79,11.82,11.82,0,0,0-4.2-1c-.72-.06-1.08-.64-1.08-1.75v-.71a1.25,1.25,0,0,1,.17-.7l2.83.16c1,.06,2.12.1,3.2.13l3.16.08c1,0,1.93,0,2.7,0q2.75,0,6-.12c2.16-.09,4.1-.18,5.82-.29a7.55,7.55,0,0,1,.13.83c0,.27,0,.5,0,.66,0,1-.36,1.53-1.08,1.58a11,11,0,0,0-3.75.83,1.77,1.77,0,0,0-1.08,1.58,2.13,2.13,0,0,0,.09.63,4.68,4.68,0,0,0,.25.7l10.89,30Z" transform="translate(-304.18 -133.53)"/><path class="cls-2" d="M1227.28,939.56h-17.46l-4.33,11.56a2.48,2.48,0,0,0-.33.92,4.33,4.33,0,0,0-.08.75,1.72,1.72,0,0,0,.87,1.49,9.77,9.77,0,0,0,3.53,1c.78.11,1.17.64,1.17,1.58a7.61,7.61,0,0,1-.17,1.42c-1.49-.12-3.07-.21-4.74-.3s-3.3-.12-4.9-.12c-1.12,0-2.28,0-3.5.08s-2.58.17-4.07.34a1.56,1.56,0,0,1-.17-.75v-.67c0-1.05.36-1.61,1.08-1.66a14.62,14.62,0,0,0,3.7-1.08,4.07,4.07,0,0,0,1.79-2l20-47.9a2.14,2.14,0,0,1,2-1.42,7.7,7.7,0,0,1,.83.05,8.47,8.47,0,0,1,.91.12l20,49.4a3.41,3.41,0,0,0,1.91,1.87,11.57,11.57,0,0,0,3.08.87,1.5,1.5,0,0,1,1.25,1.67,7.91,7.91,0,0,1-.17,1.5c-1.78-.12-3.52-.21-5.24-.3s-3.33-.12-4.82-.12c-.78,0-1.72,0-2.83,0s-2.25.07-3.41.13l-3.45.12c-1.14,0-2.1.07-2.87.13a1.69,1.69,0,0,1-.17-.75v-.67a1.83,1.83,0,0,1,.29-1.12,1.25,1.25,0,0,1,.63-.46,12.15,12.15,0,0,0,3.2-.95,1.74,1.74,0,0,0,1-1.63,3.93,3.93,0,0,0-.25-1.24Zm-1.58-4.16-7.07-18.71-7.23,18.71Z" transform="translate(-304.18 -133.53)"/><path class="cls-2" d="M1045.1,1014.65a2.06,2.06,0,0,1,1.18-.52,1.58,1.58,0,0,1,.85.34,3.59,3.59,0,0,1,1,1.3,18,18,0,0,1-6.64,5,22.63,22.63,0,0,1-8.87,1.59,18.06,18.06,0,0,1-5.68-.92,14.33,14.33,0,0,1-5-2.9,14.58,14.58,0,0,1-3.6-4.94,18.43,18.43,0,0,1,.22-14.51,18.61,18.61,0,0,1,4.05-5.6,18,18,0,0,1,5.34-3.53,14.23,14.23,0,0,1,5.57-1.23q7.2,0,10.87,4.16t3.68,11.36a.46.46,0,0,1-.52.52l-21.23.89q0,5.79,2.58,8.87c1.73,2.06,4.32,3.08,7.78,3.08a14,14,0,0,0,4.51-.74A11.27,11.27,0,0,0,1045.1,1014.65ZM1032.43,992a5.35,5.35,0,0,0-4.61,2.49q-1.74,2.49-1.74,7.83l11.52-.52c.73,0,1.1-.37,1.1-1a12.7,12.7,0,0,0-.37-3,9.84,9.84,0,0,0-1.14-2.86,7.11,7.11,0,0,0-2-2.16A4.75,4.75,0,0,0,1032.43,992Z" transform="translate(-304.18 -133.53)"/><path class="cls-2" d="M1073.74,998.69c-.69-.05-1.08-.32-1.18-.81a6.77,6.77,0,0,0-2.38-4.46,7.53,7.53,0,0,0-4.68-1.41,5.42,5.42,0,0,0-3.86,1.26,4,4,0,0,0-1.33,3,4.66,4.66,0,0,0,.22,1.49,2.89,2.89,0,0,0,.93,1.26,7.93,7.93,0,0,0,2,1.15,33.65,33.65,0,0,0,3.41,1.23,35.39,35.39,0,0,1,4.45,1.59,12.48,12.48,0,0,1,3.27,2,7.89,7.89,0,0,1,2,2.86,10.17,10.17,0,0,1,.71,4,11.84,11.84,0,0,1-.71,4.09,8.54,8.54,0,0,1-2.26,3.37,10.89,10.89,0,0,1-3.94,2.27,17.78,17.78,0,0,1-5.71.81,33.8,33.8,0,0,1-5.46-.51,18.56,18.56,0,0,1-5.6-1.86c-.1-1.29-.19-2.66-.26-4.12s-.12-2.91-.12-4.34h1a3.41,3.41,0,0,1,1.41.26,1,1,0,0,1,.67.85,6.54,6.54,0,0,0,2.45,4.79,9.47,9.47,0,0,0,5.94,1.67,7,7,0,0,0,4.23-1.19,3.67,3.67,0,0,0,1.63-3.12,3.88,3.88,0,0,0-1.45-3,15.49,15.49,0,0,0-5.45-2.45c-3.62-1-6.15-2.41-7.61-4.12a9.12,9.12,0,0,1-2.19-6.13,9.57,9.57,0,0,1,3.15-7.49,11.83,11.83,0,0,1,8.21-2.83,22.15,22.15,0,0,1,5.6.71,23.11,23.11,0,0,1,4.35,1.52c0,.4.09.93.14,1.6s.1,1.39.15,2.15.09,1.51.11,2.23,0,1.32,0,1.82Z" transform="translate(-304.18 -133.53)"/><path class="cls-2" d="M1101.58,1016.66a2.6,2.6,0,0,1,1.27-.45c.49,0,1,.52,1.55,1.56a18.42,18.42,0,0,1-5.45,3.71,13.65,13.65,0,0,1-4.94.89,10.84,10.84,0,0,1-2.86-.37,6.18,6.18,0,0,1-2.48-1.33,6.7,6.7,0,0,1-1.79-2.64,11.71,11.71,0,0,1-.66-4.27V993.35h-4.46v-1.86a2.41,2.41,0,0,1,.15-.74c.1-.3.4-.45.89-.45a6.48,6.48,0,0,0,3.71-1.15,8,8,0,0,0,2.75-3.45,10.34,10.34,0,0,1,1.82-2.75,2.83,2.83,0,0,1,2-1h1.55v7.73h8.69a8.56,8.56,0,0,1-.33,3,1.26,1.26,0,0,1-1.23.67h-7.13v18.33a32.3,32.3,0,0,0,.15,3.53,6,6,0,0,0,.49,2,1.56,1.56,0,0,0,.89.85,4.19,4.19,0,0,0,1.3.19,5.87,5.87,0,0,0,1.93-.41A10.69,10.69,0,0,0,1101.58,1016.66Z" transform="translate(-304.18 -133.53)"/><path class="cls-2" d="M1125.12,995.13a1.77,1.77,0,0,1-1,.44,2.23,2.23,0,0,1-1-.29,2.55,2.55,0,0,1-.93-.89,24.47,24.47,0,0,1,3-3.2,22.3,22.3,0,0,1,3.56-2.59,19.65,19.65,0,0,1,3.94-1.79,13.5,13.5,0,0,1,4.19-.66q5.49,0,8.13,2.59a9.31,9.31,0,0,1,2.63,6.91,11.69,11.69,0,0,1-.74,4.12,15.07,15.07,0,0,1-2.63,4.23,45.75,45.75,0,0,1-5.13,5q-3.23,2.78-8.2,6.49h10.91a5.73,5.73,0,0,0,2.53-.48,4.59,4.59,0,0,0,1.78-2.41,1.23,1.23,0,0,1,1.19-.82,6.17,6.17,0,0,1,1,.15,1.42,1.42,0,0,1,.34,0,2.48,2.48,0,0,0,.41,0c-.45,1.33-.87,2.78-1.27,4.34s-.71,3.05-1,4.49a1.25,1.25,0,0,1-.37.74,1.39,1.39,0,0,1-.74.15c-.89,0-2,0-3.34-.15s-2.8-.15-4.38-.15h-15.89v-2.3q4.46-4.08,7.39-7.16a57.08,57.08,0,0,0,4.71-5.53,17.75,17.75,0,0,0,2.49-4.49,12.2,12.2,0,0,0,.7-4,7.19,7.19,0,0,0-1.3-4.64,4.46,4.46,0,0,0-3.67-1.59,7.72,7.72,0,0,0-3.3.7A25.37,25.37,0,0,0,1125.12,995.13Z" transform="translate(-304.18 -133.53)"/><path class="cls-2" d="M1171.52,1022.37a21.25,21.25,0,0,1-7.62-1.29,15.6,15.6,0,0,1-5.68-3.68,16,16,0,0,1-3.52-5.68,20.8,20.8,0,0,1-1.22-7.31,19.62,19.62,0,0,1,1.29-7.13,17.05,17.05,0,0,1,3.68-5.79,17.73,17.73,0,0,1,5.68-3.9,18.28,18.28,0,0,1,7.39-1.44,19.19,19.19,0,0,1,7.34,1.37,17.07,17.07,0,0,1,5.72,3.79,16.57,16.57,0,0,1,3.67,5.75,21.21,21.21,0,0,1,.08,14.4,17,17,0,0,1-3.53,5.72,15.72,15.72,0,0,1-5.68,3.82A20,20,0,0,1,1171.52,1022.37Zm-8.17-18a26.9,26.9,0,0,0,.66,6.38,14,14,0,0,0,1.82,4.38,7.64,7.64,0,0,0,2.68,2.53,6.6,6.6,0,0,0,3.15.81,6.1,6.1,0,0,0,2.93-.78,7,7,0,0,0,2.57-2.48,14.89,14.89,0,0,0,1.81-4.38,25.63,25.63,0,0,0,.71-6.46,27.23,27.23,0,0,0-.67-6.5,14.66,14.66,0,0,0-1.82-4.49,7.56,7.56,0,0,0-2.63-2.6,6.13,6.13,0,0,0-6.09,0,7.8,7.8,0,0,0-2.64,2.53,14.07,14.07,0,0,0-1.82,4.45A28.69,28.69,0,0,0,1163.35,1004.41Z" transform="translate(-304.18 -133.53)"/><path class="cls-2" d="M1194.3,986.81c1.24.15,2.6.25,4.09.3s3.19.08,5.12.08,3.62,0,5.09-.12,2.83-.18,4.12-.33c0,.25.08.49.11.74s0,.47,0,.67c0,.4-.08.66-.26.78a1.54,1.54,0,0,1-.55.26,8.18,8.18,0,0,0-3.38,1,1.92,1.92,0,0,0-.78,1.63v25.09a1.73,1.73,0,0,0,.93,1.63,11.74,11.74,0,0,0,3.23,1,1.73,1.73,0,0,1,.55.26.79.79,0,0,1,.26.7,8,8,0,0,1-.14,1.42c-1.29-.1-2.68-.19-4.16-.26s-3.19-.12-5.12-.12-3.62,0-5,.15l-4,.3a2,2,0,0,1-.19-.71q0-.4,0-.78a.89.89,0,0,1,.81-1,11.34,11.34,0,0,0,3.27-1,1.75,1.75,0,0,0,.89-1.63V991.79a1.74,1.74,0,0,0-1-1.6,10.17,10.17,0,0,0-3.19-.93,1.15,1.15,0,0,1-.59-.26c-.15-.12-.22-.38-.22-.78v-.66A2,2,0,0,1,1194.3,986.81Z" transform="translate(-304.18 -133.53)"/><path class="cls-2" d="M1220.36,995.13a1.77,1.77,0,0,1-1,.44,2.27,2.27,0,0,1-1-.29,2.55,2.55,0,0,1-.93-.89,25.89,25.89,0,0,1,3-3.2,22.3,22.3,0,0,1,3.56-2.59,20.17,20.17,0,0,1,3.94-1.79,13.54,13.54,0,0,1,4.19-.66q5.49,0,8.13,2.59a9.28,9.28,0,0,1,2.64,6.91,11.69,11.69,0,0,1-.74,4.12,15.37,15.37,0,0,1-2.64,4.23,45.56,45.56,0,0,1-5.12,5q-3.23,2.78-8.21,6.49h10.92a5.66,5.66,0,0,0,2.52-.48,4.54,4.54,0,0,0,1.78-2.41,1.24,1.24,0,0,1,1.19-.82,6.24,6.24,0,0,1,1,.15,1.48,1.48,0,0,1,.34,0,2.46,2.46,0,0,0,.4,0c-.44,1.33-.86,2.78-1.26,4.34s-.72,3.05-1,4.49a1.31,1.31,0,0,1-.37.74,1.41,1.41,0,0,1-.75.15c-.89,0-2,0-3.34-.15s-2.8-.15-4.38-.15h-15.89v-2.3q4.45-4.08,7.39-7.16a57.35,57.35,0,0,0,4.72-5.53,18,18,0,0,0,2.48-4.49,12.22,12.22,0,0,0,.71-4,7.25,7.25,0,0,0-1.3-4.64,4.48,4.48,0,0,0-3.68-1.59,7.75,7.75,0,0,0-3.3.7A25.37,25.37,0,0,0,1220.36,995.13Z" transform="translate(-304.18 -133.53)"/><path class="cls-2" d="M807.44,292.47c.38,1.38,1.52,2.06,3.42,2a40.05,40.05,0,0,0,8.95-1.73l3.74-1a15.51,15.51,0,0,0,4.13-1.72,8.29,8.29,0,0,0,2.7-2.7,14,14,0,0,0,1.6-4,38.5,38.5,0,0,0,.87-5.48c0-.58.47-1,1.26-1.19a3.22,3.22,0,0,1,1.26,0l1.54.21c.06,2.25.21,4.65.46,7.23s.54,5.1.86,7.55a1.83,1.83,0,0,1-.23,1.65,2.44,2.44,0,0,1-1,.61c-.53.14-1.28.31-2.24.51s-2,.43-3.14.7-2.28.54-3.44.79-2.18.5-3,.73l-22.34,6.15q-2.85.8-6.5,1.95c-2.44.78-4.62,1.5-6.55,2.18a2.25,2.25,0,0,1-.48-1c-.12-.43-.21-.74-.26-.94-.27-1-.09-1.6.55-1.84a23.58,23.58,0,0,0,5-3,2.9,2.9,0,0,0,.86-3.2l-13.58-49.3a5.72,5.72,0,0,0-.64-1.57,2.52,2.52,0,0,0-1.1-.92,5.12,5.12,0,0,0-2-.33,25.54,25.54,0,0,0-3.48.27q-1.07,0-1.44-1.41c-.06-.19-.14-.49-.24-.88a3,3,0,0,1-.11-1.14q3.21-.67,6.79-1.5t6.34-1.59c.92-.25,2-.55,3.14-.91l3.66-1.12c1.27-.38,2.54-.78,3.8-1.2l3.44-1.16c.15.31.3.66.44,1s.24.68.29.87a1.57,1.57,0,0,1-.52,1.95q-4.07,1.76-5.24,3.08a3.36,3.36,0,0,0-.62,3.3Z" transform="translate(-304.18 -133.53)"/><path class="cls-2" d="M863,279.6a8.06,8.06,0,0,0,.53,1.6,2.09,2.09,0,0,0,1.06,1,5.65,5.65,0,0,0,2.09.4,26.47,26.47,0,0,0,3.48-.12c.69,0,1.16.46,1.39,1.45,0,.2.1.5.16.91a7.09,7.09,0,0,1,.08,1q-3.22.54-6.89,1.24t-6.45,1.34q-2.88.68-6.43,1.65T845.29,292a2.46,2.46,0,0,1-.43-.95c-.09-.4-.16-.7-.2-.9q-.37-1.58.6-1.92a27.31,27.31,0,0,0,3.18-1.42,5.17,5.17,0,0,0,1.64-1.27,2.57,2.57,0,0,0,.53-1.33,6.11,6.11,0,0,0-.18-1.69l-11.6-49.81a5.77,5.77,0,0,0-.59-1.59,2.43,2.43,0,0,0-1.06-1,5.31,5.31,0,0,0-2-.41,26.65,26.65,0,0,0-3.48.13c-.71-.05-1.18-.53-1.39-1.46q-.07-.3-.21-.9a3.17,3.17,0,0,1-.06-1.14c2.15-.36,4.44-.77,6.84-1.22s4.58-.91,6.5-1.36,4-1,6.38-1.64,4.64-1.31,6.73-1.94a9.85,9.85,0,0,1,.4,1.06c.13.39.21.69.26.89.22.93,0,1.56-.6,1.92a25.84,25.84,0,0,0-3.18,1.42,5.57,5.57,0,0,0-1.69,1.28,2.08,2.08,0,0,0-.53,1.33,7.84,7.84,0,0,0,.23,1.68Z" transform="translate(-304.18 -133.53)"/><path class="cls-2" d="M917.17,217.41a6.34,6.34,0,0,0,.1-2.2,2.21,2.21,0,0,0-1.69-1.81,15.51,15.51,0,0,0-4.71-.2c-.82.09-1.34-.47-1.57-1.68a2.17,2.17,0,0,1,0-.46,2.89,2.89,0,0,0-.06-.56l-.05-.82c.62-.05,1.37-.12,2.25-.22s1.84-.22,2.88-.39l3.13-.48c1.05-.16,2-.33,2.87-.49q2.91-.56,5.55-1.15a40.1,40.1,0,0,0,4.49-1.27l.25.79a1.76,1.76,0,0,1,.21.58c0,.2.07.37.1.5.24,1.27,0,2-.83,2.23a12.84,12.84,0,0,0-4.36,1.92,5.28,5.28,0,0,0-1.66,3.06l-13.6,63.86a4,4,0,0,1-.79.25l-.7.14a1.78,1.78,0,0,1-1.21-.09,3.63,3.63,0,0,1-1-1.26L872.29,224a9.89,9.89,0,0,0-.89-1.13,3,3,0,0,0-1.23-.75,6.66,6.66,0,0,0-2-.3q-1.2,0-3.15.12c-.88.1-1.44-.52-1.7-1.86,0-.2-.09-.48-.16-.85a1.51,1.51,0,0,1,0-.89c1-.12,2.17-.27,3.45-.44s2.58-.37,3.89-.58l3.83-.62q1.86-.3,3.27-.57c2.21-.41,4.6-.92,7.19-1.51s4.91-1.15,7-1.68a2.61,2.61,0,0,1,.39,1c.06.33.11.6.15.8.23,1.2-.05,1.92-.84,2.13a13.23,13.23,0,0,0-4.33,1.86,2.16,2.16,0,0,0-.94,2.15,5.45,5.45,0,0,0,.6,1.55L909,259.27Z" transform="translate(-304.18 -133.53)"/><path class="cls-2" d="M959.3,207.42l3.3,24.38,14.27-1.93a2.63,2.63,0,0,0,2.41-1.92,20.82,20.82,0,0,0,.53-5.28,1.24,1.24,0,0,1,.46-1.14,3,3,0,0,1,1.28-.43c.2,0,.52-.06,1-.08a4.17,4.17,0,0,1,1,0c.07,1.57.2,3.39.38,5.46s.36,3.81.55,5.23c.17,1.21.39,2.64.68,4.29s.68,3.49,1.17,5.56a2,2,0,0,1-.93.38l-1,.18c-1.21.16-1.92-.22-2.11-1.16a18.29,18.29,0,0,0-2.08-5,2.62,2.62,0,0,0-2.66-1l-14.26,1.93,3.07,22.66c.19,1.41,1.19,2.24,3,2.47a38.91,38.91,0,0,0,9-.49l4.25-.58a14.13,14.13,0,0,0,5-1.5,12.12,12.12,0,0,0,3.38-2.78,16.18,16.18,0,0,0,2.37-3.82q.95-2.13,1.83-4.73.21-.75,1.32-.9a3.29,3.29,0,0,1,1.25.14l1.5.42a14.52,14.52,0,0,1-.25,1.58c-.1.49-.19,1-.26,1.47a12.57,12.57,0,0,0-.48,2.54,18.61,18.61,0,0,1-.32,2.21c-.05.69-.09,1.47-.15,2.33s-.11,1.7-.18,2.5-.13,1.51-.22,2.14-.15,1.05-.19,1.27a1.65,1.65,0,0,1-1.51,1c-.54.08-1.32.15-2.34.22s-2.12.16-3.31.29-2.39.24-3.61.34-2.27.2-3.15.32l-23,3.11c-2,.26-4.19.62-6.71,1.06s-4.77.87-6.78,1.28a2.4,2.4,0,0,1-.34-1c-.06-.44-.11-.76-.13-1-.14-1,.12-1.6.79-1.76a23.84,23.84,0,0,0,5.31-2.26,2.91,2.91,0,0,0,1.28-3.06l-6.86-50.68a4,4,0,0,0-.53-1.63,2.47,2.47,0,0,0-1.32-1,10,10,0,0,0-2.33-.51c-.94-.11-2.14-.21-3.59-.29q-1.05-.17-1.26-1.68c0-.34-.09-.66-.13-1a2.62,2.62,0,0,1,.07-1q4.4-.28,7.74-.64t5.78-.68l20.74-2.81c3-.41,5.63-.86,7.8-1.36s3.65-.81,4.46-.91a1.73,1.73,0,0,1,1.74.69,13,13,0,0,1,.91,2.91,37.62,37.62,0,0,0,1.32,4.41c.36,1.12.74,2.2,1.16,3.24s1,2.3,1.75,3.78c-.32.18-.67.37-1.06.56a3.71,3.71,0,0,1-1.19.36,1.73,1.73,0,0,1-1.74-.69,43.06,43.06,0,0,0-3-4.18,11.8,11.8,0,0,0-3-2.68,9.2,9.2,0,0,0-3.66-1.2,19.07,19.07,0,0,0-4.77.13Z" transform="translate(-304.18 -133.53)"/><path class="cls-2" d="M1030.06,231.24l-4.38.36,1.75,21.26a3.39,3.39,0,0,0,2.25,3.15,24.3,24.3,0,0,0,6.9,1q1.44.09,1.59,1.92a9.91,9.91,0,0,1-.06,1.85c-2,0-4.44.11-7.4.24s-6.17.36-9.63.64q-3.66.3-7.06.73t-6.33.88a1.9,1.9,0,0,1-.27-.9c0-.34,0-.61-.07-.81-.1-1.16.22-1.83,1-2,1.4-.38,2.53-.73,3.4-1a7.54,7.54,0,0,0,2-1,2.44,2.44,0,0,0,.88-1.2,5,5,0,0,0,.12-1.7l-4.18-51a3.22,3.22,0,0,0-1.72-2.83,15.51,15.51,0,0,0-5.76-1,1.84,1.84,0,0,1-.87-.55,2.54,2.54,0,0,1-.42-1.4c0-.27-.05-.57-.07-.91a1.42,1.42,0,0,1,.13-.83q2.87,0,6.59-.19c2.49-.1,4.71-.23,6.68-.39l15.36-1.26a32.91,32.91,0,0,1,9.78.53,21.63,21.63,0,0,1,7.58,3.17,16.41,16.41,0,0,1,5,5.42,17.41,17.41,0,0,1,2.19,7.3,16.11,16.11,0,0,1-2.5,10.09,20.2,20.2,0,0,1-8.56,7.41l17.88,22a9.9,9.9,0,0,0,4.52,3.31,30.27,30.27,0,0,0,4.55,1.17,1.38,1.38,0,0,1,.85.39,1.94,1.94,0,0,1,.41,1.25c0,.27,0,.57.08.91a2.62,2.62,0,0,1-.12,1c-.75,0-1.81,0-3.17.11s-2.77.14-4.23.2-2.93.11-4.39.2-2.67.17-3.62.25a6.73,6.73,0,0,1-4.41-1.43,23.21,23.21,0,0,1-4.56-4.39Zm-1.74-5a24.88,24.88,0,0,0,5.65-1.07,11,11,0,0,0,4.2-2.45,9.39,9.39,0,0,0,2.48-4.14,17.27,17.27,0,0,0,.45-6.29q-.51-6.3-3.87-9.72t-11.08-2.78l-3.05.25,2.17,26.45Z" transform="translate(-304.18 -133.53)"/><path class="cls-2" d="M1097.16,229l.55,19.59a3.4,3.4,0,0,0,2.09,3.26,23.88,23.88,0,0,0,6.83,1.39c.95.11,1.45.78,1.48,2a8.8,8.8,0,0,1-.15,1.84c-2-.08-4.44-.13-7.41-.14s-6.17,0-9.64.12c-2.45.07-4.81.18-7.09.35s-4.4.35-6.37.54a2.08,2.08,0,0,1-.23-.91c0-.34,0-.62,0-.82,0-1.16.32-1.81,1.07-2,1.42-.31,2.57-.6,3.44-.86a7.65,7.65,0,0,0,2-.88,2.34,2.34,0,0,0,.94-1.15,4.67,4.67,0,0,0,.21-1.69l-1.45-51.12a3.23,3.23,0,0,0-1.57-2.92,15.75,15.75,0,0,0-5.7-1.27,1.84,1.84,0,0,1-.83-.58,2.42,2.42,0,0,1-.35-1.42c0-.27,0-.58,0-.92a1.43,1.43,0,0,1,.18-.82c1.91.08,4.11.13,6.6.17s4.71,0,6.68,0l15.41-.44q10.92-.3,17.18,4.42t6.51,13.5a19.26,19.26,0,0,1-1.31,7.64,17.71,17.71,0,0,1-4.37,6.46,23,23,0,0,1-7.17,4.54,27.24,27.24,0,0,1-9.75,1.91Zm2.91-5.19c4.15-.12,7.47-1.26,10-3.45s3.67-5.78,3.53-10.82c-.13-4.56-1.24-8.06-3.31-10.53s-5.74-3.61-11-3.46l-3.06.08.8,28.27Z" transform="translate(-304.18 -133.53)"/><path class="cls-2" d="M1136.05,222.55a33.14,33.14,0,0,1,3.1-13.29,34.78,34.78,0,0,1,18.9-17.78,33.5,33.5,0,0,1,13.49-2.31,36.45,36.45,0,0,1,13.6,3,32.83,32.83,0,0,1,10.76,7.47,33.25,33.25,0,0,1,7,11.13,35.26,35.26,0,0,1,2.25,13.85,33.5,33.5,0,0,1-3.1,13.34,34.23,34.23,0,0,1-7.71,10.7,35.07,35.07,0,0,1-11.24,7,33.86,33.86,0,0,1-13.54,2.31,36.06,36.06,0,0,1-13.6-2.95,32.28,32.28,0,0,1-10.71-7.46,33.92,33.92,0,0,1-6.93-11.07A35.26,35.26,0,0,1,1136.05,222.55Zm35.17,30.13A15.9,15.9,0,0,0,1179,251a18.73,18.73,0,0,0,6.12-5,24.39,24.39,0,0,0,4.1-7.54,30.69,30.69,0,0,0,1.65-9.34,62.24,62.24,0,0,0-1-13.51,34.64,34.64,0,0,0-3.87-10.89,21.49,21.49,0,0,0-6.83-7.35,18.5,18.5,0,0,0-9.77-2.89,16.17,16.17,0,0,0-7,1.38,17.59,17.59,0,0,0-6,4.42,23.18,23.18,0,0,0-4.29,7.18,28.67,28.67,0,0,0-1.82,9.65,62.82,62.82,0,0,0,1.07,14,37.38,37.38,0,0,0,4,11.2,21.65,21.65,0,0,0,6.67,7.44A16.93,16.93,0,0,0,1171.22,252.68Z" transform="translate(-304.18 -133.53)"/><path class="cls-2" d="M1213.36,225.05a33.15,33.15,0,0,1,4-13.05,34.75,34.75,0,0,1,20.05-16.47,33.57,33.57,0,0,1,13.62-1.4,36.2,36.2,0,0,1,13.37,3.85,32.85,32.85,0,0,1,10.23,8.17,33.24,33.24,0,0,1,6.22,11.57,35.33,35.33,0,0,1,1.32,14,33.59,33.59,0,0,1-4,13.11,34.2,34.2,0,0,1-8.41,10.16,35.26,35.26,0,0,1-11.68,6.25,33.86,33.86,0,0,1-13.67,1.4,36.33,36.33,0,0,1-13.37-3.85,32.35,32.35,0,0,1-10.19-8.17,33.9,33.9,0,0,1-6.17-11.51A35.25,35.25,0,0,1,1213.36,225.05Zm33.07,32.42a15.94,15.94,0,0,0,7.91-1.13,18.74,18.74,0,0,0,6.43-4.56,24.29,24.29,0,0,0,4.6-7.25,31,31,0,0,0,2.28-9.21,63,63,0,0,0-.08-13.55,34.81,34.81,0,0,0-3.13-11.12,21.53,21.53,0,0,0-6.33-7.79,18.49,18.49,0,0,0-9.55-3.53,16.18,16.18,0,0,0-7.06.9,17.48,17.48,0,0,0-6.34,4,23.24,23.24,0,0,0-4.76,6.87,28.86,28.86,0,0,0-2.46,9.51,62.53,62.53,0,0,0,.13,14.06,37.71,37.71,0,0,0,3.2,11.43,21.67,21.67,0,0,0,6.17,7.88A16.85,16.85,0,0,0,1246.43,257.47Z" transform="translate(-304.18 -133.53)"/><path class="cls-2" d="M1308,260.61c-.22,1.41.53,2.5,2.27,3.26a40.2,40.2,0,0,0,8.86,2.13l3.83.61a15.3,15.3,0,0,0,4.48.14,8.3,8.3,0,0,0,3.57-1.34,13.66,13.66,0,0,0,3.11-3,37.93,37.93,0,0,0,3.06-4.63,1.44,1.44,0,0,1,1.64-.56,3.12,3.12,0,0,1,1.16.49l1.32.83c-.89,2.07-1.74,4.32-2.58,6.77s-1.62,4.86-2.34,7.23c-.19.79-.49,1.26-.89,1.41a2.52,2.52,0,0,1-1.21.12c-.54-.09-1.29-.25-2.25-.47s-2-.44-3.15-.65-2.29-.45-3.46-.71-2.18-.45-3.06-.59L1299.47,268q-2.92-.46-6.73-.91c-2.53-.3-4.82-.55-6.86-.73a2.43,2.43,0,0,1,0-1.09l.15-1c.16-1,.58-1.49,1.26-1.45a24.17,24.17,0,0,0,5.74-.64,2.92,2.92,0,0,0,2.11-2.56l8-50.51a6.22,6.22,0,0,0,.06-1.69,2.5,2.5,0,0,0-.62-1.29,5.21,5.21,0,0,0-1.73-1.15,27.39,27.39,0,0,0-3.28-1.2c-.64-.3-.88-.93-.73-1.87,0-.2.08-.5.14-.91a3,3,0,0,1,.38-1.07q3.2.7,6.8,1.44c2.4.48,4.55.88,6.43,1.18.94.15,2,.3,3.23.46l3.8.5c1.31.18,2.64.33,4,.47s2.52.27,3.6.37a8.85,8.85,0,0,1,0,1.14c0,.4-.06.71-.09.91-.15.94-.58,1.46-1.28,1.55-3-.05-5,.16-6,.64a3.34,3.34,0,0,0-1.93,2.75Z" transform="translate(-304.18 -133.53)"/><path class="cls-2" d="M1416.94,240.8a6,6,0,0,1-2-.15,3,3,0,0,1-1.85-1,2.88,2.88,0,0,1-.53-1.33q-.94-6.21-4-9.54t-9.1-4.77a14.08,14.08,0,0,0-8.65.43q-3.87,1.55-5,6.31a7.69,7.69,0,0,0,1.14,6.51,25.12,25.12,0,0,0,5.43,5.43c2.29,1.73,4.77,3.47,7.48,5.22a44.63,44.63,0,0,1,7.3,5.92,21.84,21.84,0,0,1,4.93,7.56,16.69,16.69,0,0,1,.31,10,22,22,0,0,1-3,7,17.24,17.24,0,0,1-5.56,5.35,20.8,20.8,0,0,1-8.09,2.71,29.54,29.54,0,0,1-10.62-.77,45.85,45.85,0,0,1-11.39-4.18,50.62,50.62,0,0,1-7.82-5.08q.71-4.33,1-8.61t.45-8.34a6.33,6.33,0,0,1,2.38.14,3.09,3.09,0,0,1,1.68.87,3.37,3.37,0,0,1,.63,1.77,37.46,37.46,0,0,0,1.35,7.19,17.07,17.07,0,0,0,2.62,5.34,13.39,13.39,0,0,0,4.22,3.67,23.13,23.13,0,0,0,6.12,2.28,14.92,14.92,0,0,0,5.47.4,10.42,10.42,0,0,0,4.1-1.4,9.17,9.17,0,0,0,2.86-2.79,11.4,11.4,0,0,0,1.61-3.72,9.34,9.34,0,0,0-.85-7.29,20.88,20.88,0,0,0-5.1-5.51q-3.24-2.49-7.12-4.93a39.39,39.39,0,0,1-7-5.54,20.61,20.61,0,0,1-4.7-7.2q-1.6-4.09-.19-10.07a19.36,19.36,0,0,1,3.19-7.08,17.14,17.14,0,0,1,5.63-5,21.24,21.24,0,0,1,7.65-2.45,25.79,25.79,0,0,1,9.35.63,41,41,0,0,1,8.18,2.87,64.76,64.76,0,0,1,8.89,5.24c-.34,2-.65,4.3-.94,6.86S1417,238.72,1416.94,240.8Z" transform="translate(-304.18 -133.53)"/><path class="cls-2" d="M1447.09,302.42a39,39,0,0,1-13.61-6.85,28.84,28.84,0,0,1-8.08-10,30.45,30.45,0,0,1-2.88-12.26,42.59,42.59,0,0,1,1.88-13.56,38.13,38.13,0,0,1,5.44-11,31.66,31.66,0,0,1,9.34-8.76,33.19,33.19,0,0,1,13.07-4.51,39.29,39.29,0,0,1,16.54,1.71,63.87,63.87,0,0,1,9.13,3.48,95.14,95.14,0,0,1,8.82,4.88q-.6,2.7-1.24,7a66.8,66.8,0,0,0-.73,8.52l-1.35-.14a7.43,7.43,0,0,1-1.22-.2A3.29,3.29,0,0,1,1481,260a1.44,1.44,0,0,1-.43-1.25,27.44,27.44,0,0,0-.82-6.16,12.17,12.17,0,0,0-2.22-4.5,13.38,13.38,0,0,0-3.88-3.24,27.79,27.79,0,0,0-5.79-2.37,23.56,23.56,0,0,0-9.88-1,18.87,18.87,0,0,0-8.35,3.15,24.21,24.21,0,0,0-6.58,6.87,38.67,38.67,0,0,0-4.63,10.28,41.1,41.1,0,0,0-1.83,12.35A32.62,32.62,0,0,0,1438.4,285a22.89,22.89,0,0,0,5.22,8.38,18.91,18.91,0,0,0,8.22,4.91,28,28,0,0,0,6.92,1.28,14.31,14.31,0,0,0,5.46-.82,14.11,14.11,0,0,0,4.58-2.83,34.39,34.39,0,0,0,4.23-4.71,2.14,2.14,0,0,1,1.27-.84,2.84,2.84,0,0,1,1.42.05,7.1,7.1,0,0,1,1.18.51,8.86,8.86,0,0,1,1.12.71c-.72,1-1.51,2.13-2.35,3.4s-1.71,2.58-2.61,3.91-1.74,2.67-2.54,4-1.53,2.69-2.2,4a100.87,100.87,0,0,1-10.16-1.66Q1453.06,304.2,1447.09,302.42Z" transform="translate(-304.18 -133.53)"/></g></svg>