<svg xmlns="http://www.w3.org/2000/svg" viewBox="0 0 4916.29 1275.17"><defs><style>.cls-1{font-size:1205.42px;fill:#fff;font-family:Kefa-Regular, Kefa;}.cls-2{fill:#f4d3d0;}.cls-3{fill:#f98b78;}.cls-4{fill:#f7b6ad;}.cls-5{fill:#fc3c1d;}.cls-6{fill:#ff5a38;}</style></defs><title>segura-full-logo</title><g id="Layer_54" data-name="Layer 54"><text class="cls-1" transform="translate(1204.08 1004.42)">Segura</text></g><g id="Layer_52" data-name="Layer 52"><path class="cls-2" d="M1023-2158.23h374.29v-187.83H1023c-51.65,0-93.91,42.26-93.91,93.91h0C929.06-2200.49,971.32-2158.23,1023-2158.23Z" transform="translate(-928.42 2454.31)"/><path class="cls-3" d="M1679.08-2158.23H1396.74v189.65H1023c-51.65,0-93.91,42.26-93.91,93.91h0c0,51.66,42.26,93.92,93.91,93.92h373.77v-.11H1777.3c49.28,0,90,38.48,93.62,86.89h.29v-180.7h0v-91.43C1871.21-2072.21,1785.19-2158.23,1679.08-2158.23Z" transform="translate(-928.42 2454.31)"/><path class="cls-4" d="M1023-1968.58h374.29v-189.65H1023c-51.65,0-93.91-42.26-93.91-93.92v377.48C929.06-1926.32,971.32-1968.58,1023-1968.58Z" transform="translate(-928.42 2454.31)"/><path class="cls-5" d="M1777.18-1780.75H1023c-51.65,0-93.91-42.27-93.91-93.92h0c0-.63,0-1.26,0-1.89h-.68v279.66c0,106.11,86,192.13,192.13,192.13h276.19v-188.15h380.44c51.65,0,93.91-42.26,93.91-93.91h0C1871.09-1738.49,1828.83-1780.75,1777.18-1780.75Z" transform="translate(-928.42 2454.31)"/><path class="cls-6" d="M1871.09-1691.59v-.17h0Z" transform="translate(-928.42 2454.31)"/><path class="cls-6" d="M1777.3-1593.07H1396.74v375.66H1775a96.06,96.06,0,0,0,96.06-96.06v-368.91C1868.67-1632.84,1827.4-1593.07,1777.3-1593.07Z" transform="translate(-928.42 2454.31)"/></g></svg>