<svg id="Layer_77" data-name="Layer 77" xmlns="http://www.w3.org/2000/svg" viewBox="0 0 400.92 400.92"><defs><style>.cls-1{fill:#1e2b30;}.cls-2{fill:#6c777a;}</style></defs><title>segura</title><rect class="cls-1" width="400.92" height="400.92" rx="20"/><path class="cls-2" d="M1524.84,863.45l-111.46-.59-54.74,85.35,46.19,99.79,110.38,1.44,55.07-85.4ZM1390.59,987.3l-17.7-39.46,47.79-72.63,13.52-.31-47.53,73.71,12.22,25.82ZM1480,1035l-66.87.19-5.5-11.65,65.37.09,7.68-11.92-79-.72-5-12.56,26.16,1L1400.45,950l47.83-74.17,67.32-.52,5.2,11.76-65.36-.39L1446.9,900l80-.52,5.47,11.32-26.42,1.35,22.17,48.26Zm27.76.62-13.52.31,47.53-73.71-12.21-25.82,8.3-12.87L1555.53,963Z" transform="translate(-1264.08 -755.45)"/><path class="cls-2" d="M1439.93,912.09l-25.6,39.69,23.2,47.57,51.72,1.28,26-40.29-22.41-48.43Zm42.66,74.7-37,.15-16.32-35.45L1446.67,924l38.11.38,15.86,34.42Z" transform="translate(-1264.08 -755.45)"/></svg>