<svg id="Layer_2" data-name="Layer 2" xmlns="http://www.w3.org/2000/svg" viewBox="0 0 318.27 261.87"><defs><style>.cls-1{fill:#fec;}.cls-2{fill:#ffbe2e;}.cls-3{fill:#16110d;}.cls-4{fill:#191410;}</style></defs><title>mail</title><g id="_8" data-name="8"><path class="cls-1" d="M285.68,206.24h-3.85v-1.65a12.44,12.44,0,0,1,5.71-9.89l2.8-1.62a4.78,4.78,0,0,1,7.63,4.41c0,.8.22,1.29.43,1.41s.74.07,1.44-.33l3.07-1.78a8.63,8.63,0,0,0,3.79-6.56,12.45,12.45,0,0,1,5.71-9.89l2.66-1.54a4.79,4.79,0,0,1,7.64,4.41c0,.8.21,1.29.43,1.41s.74.07,1.43-.33l2.24-1.29a8.65,8.65,0,0,0,3.79-6.56,12.47,12.47,0,0,1,5.71-9.9L339,165a4.78,4.78,0,0,1,7.64,4.41v2.13h-3.85v-2.13c0-.81-.21-1.29-.43-1.41s-.74-.07-1.43.33l-2.66,1.53a8.65,8.65,0,0,0-3.79,6.57,12.47,12.47,0,0,1-5.71,9.89l-2.23,1.29a4.78,4.78,0,0,1-7.64-4.41c0-.8-.22-1.28-.43-1.41s-.74-.07-1.44.33l-2.65,1.54a8.63,8.63,0,0,0-3.79,6.56,12.47,12.47,0,0,1-5.71,9.9l-3.08,1.77a4.78,4.78,0,0,1-7.63-4.41c0-.8-.22-1.29-.43-1.41s-.74-.07-1.44.33L289.47,198a8.63,8.63,0,0,0-3.79,6.56Z" transform="translate(-265.72 -46.8)"/><polygon class="cls-2" points="76.32 115 81.55 148.68 163.81 70.66 76.32 115"/><path class="cls-3" d="M346.88,196.42l-5.42-34.91.34-.18L429.29,117l.66.82-82.34,78.09Zm-4.26-34.32,5,32.3,78.89-74.83Z" transform="translate(-265.72 -46.8)"/><polygon class="cls-3" points="92.05 124.72 81 148.56 81.16 149.62 105.6 131.7 92.05 124.72"/><polygon class="cls-2" points="163.81 70.66 49.61 98.66 76.32 115 163.81 70.66"/><polygon class="cls-2" points="163.81 70.66 125.96 144.66 92.99 124.67 163.81 70.66"/><path class="cls-1" d="M429.52,122.74l-36.9,72.16-33-20,69.17-52.75A.46.46,0,0,1,429.52,122.74Z" transform="translate(-265.72 -46.8)"/><polygon class="cls-1" points="75.74 114.7 76.9 115.3 77.23 117.42 154.09 78.46 162.7 71.22 151.71 76.79 48.5 102.1 75.21 118.44 76.24 117.92 75.74 114.7"/><path class="cls-3" d="M430,117.79l-.66-.82h0l-87.71,21.51h0L315.2,145l-1.24.3L342,162.41,374.35,146h0l49.15-24.91,1.14-.59L400.47,139l-42.08,32.09-.62.47,34.12,20.68,5.59-10.93h0L430,117.79ZM342.06,161.2l-25.38-15.52L343.87,139l28.87,6.64Zm32.15-16.3-28-6.45,59.28-14.54,19.74-4.84Zm17.26,45.81-31.82-19.29,22.08-16.84,15.12,25.61Zm5.95-11.64-14.84-25.14L411,132.27l17-13Z" transform="translate(-265.72 -46.8)"/><path class="cls-2" d="M381.14,167.38l-5.76,6.81,9,8.65,5.72-6.9Zm3.08,12.08-6.14-5.79,3.15-3.78,6.12,5.74Z" transform="translate(-265.72 -46.8)"/><path class="cls-3" d="M384.2,179.46l-7-6.65,3.86-4.55,6.93,6.58ZM378,172.77l6.2,5.92,3.15-3.8L381.14,169Z" transform="translate(-265.72 -46.8)"/><path class="cls-3" d="M384.33,182.17l-9.61-9.2,6.28-7.42,9.56,9.1Zm-8.52-9.26,8.45,8.1,5.21-6.29-8.41-8Z" transform="translate(-265.72 -46.8)"/><path class="cls-3" d="M389.52,160.7c0,5.12-4.55,9.28-10.14,9.28a10,10,0,0,1-9.85-7.12l-.52.39a10.63,10.63,0,0,0,10.37,7.33c5.93,0,10.75-4.43,10.75-9.88a9.87,9.87,0,0,0-6.1-8.9l-.55.42A9.3,9.3,0,0,1,389.52,160.7Z" transform="translate(-265.72 -46.8)"/><path class="cls-3" d="M387.44,160.7c0,4-3.55,7.23-7.92,7.23a7.67,7.67,0,0,1-7.87-6.58l-.56.42a8.33,8.33,0,0,0,8.43,6.77c4.7,0,8.52-3.52,8.52-7.84a7.94,7.94,0,0,0-5.8-7.43l-.61.46A7.39,7.39,0,0,1,387.44,160.7Z" transform="translate(-265.72 -46.8)"/><path class="cls-3" d="M289.46,207.44h-3.84v-1.66a12.45,12.45,0,0,1,5.71-9.89l2.79-1.62a4.78,4.78,0,0,1,7.64,4.41c0,.8.22,1.29.43,1.41s.74.07,1.44-.33L306.7,198a8.67,8.67,0,0,0,3.79-6.57,12.45,12.45,0,0,1,5.71-9.89l2.66-1.54a4.78,4.78,0,0,1,7.63,4.41c0,.8.22,1.29.43,1.41s.74.07,1.44-.33l2.23-1.29a8.65,8.65,0,0,0,3.79-6.56,12.46,12.46,0,0,1,5.72-9.9l2.65-1.53a4.79,4.79,0,0,1,7.64,4.41v2.14h-3.85v-2.14c0-.81-.22-1.29-.43-1.41s-.74-.07-1.44.33L342,171.06a8.65,8.65,0,0,0-3.79,6.57,12.47,12.47,0,0,1-5.71,9.89l-2.24,1.29a4.78,4.78,0,0,1-7.63-4.41c0-.8-.22-1.28-.43-1.41s-.75-.06-1.44.34l-2.66,1.53a8.66,8.66,0,0,0-3.79,6.56,12.45,12.45,0,0,1-5.71,9.9l-3.07,1.77a4.79,4.79,0,0,1-7.64-4.41c0-.8-.21-1.28-.43-1.41s-.74-.07-1.43.34l-2.8,1.61a8.63,8.63,0,0,0-3.79,6.56Z" transform="translate(-265.72 -46.8)"/><path class="cls-1" d="M268.6,235.06h-2.88v-.79a6.4,6.4,0,0,1,3-5.16l1.33-.77a2.79,2.79,0,0,1,4.42,2.56v.1l.09-.05,1.46-.84a3.57,3.57,0,0,0,1.54-2.67,6.4,6.4,0,0,1,3-5.16l1.26-.73a2.81,2.81,0,0,1,4.43,2.56v.1l.09-.05,1.07-.61a3.59,3.59,0,0,0,1.53-2.66,6.42,6.42,0,0,1,3-5.17l1.26-.72a2.8,2.8,0,0,1,4.43,2.55v1h-2.89v-1.13l-.09.05-1.26.73a3.57,3.57,0,0,0-1.54,2.67,6.4,6.4,0,0,1-3,5.16l-1.06.61a2.8,2.8,0,0,1-4.43-2.55V224l-.09.05-1.27.73a3.59,3.59,0,0,0-1.53,2.66,6.4,6.4,0,0,1-3,5.17l-1.46.84a2.8,2.8,0,0,1-4.43-2.55v-.11l-.09.05-1.33.77a3.57,3.57,0,0,0-1.54,2.66Z" transform="translate(-265.72 -46.8)"/><path class="cls-1" d="M369.83,121.92h-2.12v-.65a5.16,5.16,0,0,1,2.4-4.15l1.09-.63a2.18,2.18,0,0,1,3.46,2,.83.83,0,0,0,0,.3s.11-.06.24-.13l1.21-.7a3.09,3.09,0,0,0,1.33-2.32,5.16,5.16,0,0,1,2.4-4.15l1-.6a2.18,2.18,0,0,1,3.46,2,.83.83,0,0,0,0,.3s.11-.06.24-.14l.88-.5a3.12,3.12,0,0,0,1.34-2.32,5.16,5.16,0,0,1,2.39-4.15l1-.6a2.18,2.18,0,0,1,3.46,2v.84h-2.12v-.84a.77.77,0,0,0,0-.29s-.11,0-.24.13l-1,.6a3.12,3.12,0,0,0-1.34,2.32,5.16,5.16,0,0,1-2.39,4.15l-.88.51a2.18,2.18,0,0,1-3.46-2,.81.81,0,0,0,0-.29s-.11.06-.24.13l-1,.6a3.12,3.12,0,0,0-1.34,2.32,5.14,5.14,0,0,1-2.4,4.15l-1.2.7a2.33,2.33,0,0,1-2.38.13,2.37,2.37,0,0,1-1.08-2.13.81.81,0,0,0,0-.29s-.11.06-.24.13l-1.1.64a3.09,3.09,0,0,0-1.33,2.31Z" transform="translate(-265.72 -46.8)"/></g><g id="_7" data-name="7"><path class="cls-1" d="M400.54,229.83h-2.87v-1.24a9.29,9.29,0,0,1,4.26-7.38L404,220a3.56,3.56,0,0,1,5.69,3.29c0,.6.16,1,.32,1s.55.05,1.07-.25l2.29-1.32a6.45,6.45,0,0,0,2.83-4.89,9.29,9.29,0,0,1,4.26-7.38l2-1.15a3.57,3.57,0,0,1,5.7,3.29c0,.6.16,1,.32,1s.55.05,1.07-.25l1.66-1A6.45,6.45,0,0,0,434,207.6a9.29,9.29,0,0,1,4.26-7.38l2-1.15a3.58,3.58,0,0,1,5.7,3.29V204h-2.87v-1.6c0-.6-.16-1-.32-1.05s-.55-.05-1.07.25l-2,1.14a6.45,6.45,0,0,0-2.83,4.9,9.3,9.3,0,0,1-4.26,7.38l-1.67,1a3.56,3.56,0,0,1-5.69-3.29c0-.6-.16-1-.32-1.05s-.56,0-1.07.25l-2,1.14a6.47,6.47,0,0,0-2.82,4.9,9.27,9.27,0,0,1-4.26,7.37l-2.29,1.33a3.57,3.57,0,0,1-5.7-3.29c0-.6-.16-1-.32-1.05s-.55-.05-1.07.25l-2.08,1.2a6.45,6.45,0,0,0-2.83,4.89Z" transform="translate(-265.72 -46.8)"/><path class="cls-3" d="M402,230.83h-2.87v-1.24a9.29,9.29,0,0,1,4.26-7.38l2.08-1.2a3.57,3.57,0,0,1,5.7,3.29c0,.6.16,1,.32,1s.55.05,1.07-.25l2.29-1.32a6.45,6.45,0,0,0,2.83-4.89,9.29,9.29,0,0,1,4.26-7.38l2-1.15a3.56,3.56,0,0,1,5.69,3.29c0,.6.16,1,.32,1s.56.05,1.07-.25l1.67-1a6.45,6.45,0,0,0,2.83-4.89,9.29,9.29,0,0,1,4.26-7.38l2-1.15a3.57,3.57,0,0,1,5.69,3.29V205h-2.87v-1.6c0-.6-.16-1-.32-1.05s-.55-.05-1.07.25l-2,1.14a6.47,6.47,0,0,0-2.82,4.9,9.33,9.33,0,0,1-4.26,7.38l-1.67,1a3.57,3.57,0,0,1-5.7-3.29c0-.6-.16-1-.32-1.05s-.55,0-1.07.25l-2,1.14a6.47,6.47,0,0,0-2.82,4.9,9.28,9.28,0,0,1-4.27,7.37L414,227.59a3.56,3.56,0,0,1-5.69-3.29c0-.6-.16-1-.32-1.05s-.55-.05-1.07.25l-2.09,1.2a6.47,6.47,0,0,0-2.82,4.89Z" transform="translate(-265.72 -46.8)"/><path class="cls-1" d="M425.42,202h-1.65v-.71a5.31,5.31,0,0,1,2.45-4.24l1.2-.69a2.21,2.21,0,0,1,2.26-.15,2.25,2.25,0,0,1,1,2c0,.34.09.55.18.6s.32,0,.62-.14l1.32-.76a3.73,3.73,0,0,0,1.62-2.82,5.37,5.37,0,0,1,2.45-4.24l1.14-.65a2.21,2.21,0,0,1,2.26-.15,2.25,2.25,0,0,1,1,2c0,.34.09.55.18.6s.32,0,.62-.14l1-.56a3.71,3.71,0,0,0,1.62-2.81,5.35,5.35,0,0,1,2.45-4.24l1.14-.66a2.05,2.05,0,0,1,3.27,1.89v.92h-1.65v-.92c0-.34-.09-.55-.18-.6s-.32,0-.62.14l-1.13.66a3.69,3.69,0,0,0-1.63,2.81,5.31,5.31,0,0,1-2.45,4.24l-1,.55a2.21,2.21,0,0,1-2.26.15,2.24,2.24,0,0,1-1-2c0-.35-.09-.56-.18-.61s-.32,0-.62.14l-1.14.66a3.73,3.73,0,0,0-1.62,2.81,5.37,5.37,0,0,1-2.45,4.25l-1.32.76a2.05,2.05,0,0,1-3.27-1.89c0-.35-.09-.56-.18-.61s-.32,0-.62.14l-1.2.7a3.71,3.71,0,0,0-1.62,2.81Z" transform="translate(-265.72 -46.8)"/></g><g id="_6" data-name="6"><path class="cls-1" d="M505.34,80.62h-2.2v-1A7.18,7.18,0,0,1,506.41,74l1.61-.92a2.74,2.74,0,0,1,4.38,2.53c0,.46.12.74.25.81s.42,0,.82-.19l1.76-1a5,5,0,0,0,2.18-3.77,7.17,7.17,0,0,1,3.28-5.68l1.52-.88a2.74,2.74,0,0,1,4.38,2.53c0,.46.13.74.25.81s.42,0,.82-.19l1.29-.74a5,5,0,0,0,2.17-3.76,7.14,7.14,0,0,1,3.28-5.68l1.52-.88a2.74,2.74,0,0,1,4.38,2.53v1.22h-2.2V59.49c0-.46-.13-.74-.25-.81s-.42,0-.82.19l-1.53.88a5,5,0,0,0-2.17,3.77,7.13,7.13,0,0,1-3.28,5.67l-1.28.74a2.75,2.75,0,0,1-4.39-2.53c0-.46-.12-.73-.24-.81a1.07,1.07,0,0,0-.83.2l-1.52.88a4.92,4.92,0,0,0-2.17,3.76,7.15,7.15,0,0,1-3.28,5.68l-1.77,1a2.74,2.74,0,0,1-4.38-2.53c0-.46-.12-.74-.25-.81s-.42,0-.82.19l-1.6.93a5,5,0,0,0-2.18,3.76Z" transform="translate(-265.72 -46.8)"/><path class="cls-3" d="M506.47,81.56h-2.21v-1a7.15,7.15,0,0,1,3.28-5.68l1.6-.92a2.74,2.74,0,0,1,4.38,2.53,1,1,0,0,0,.25.81c.12.07.43,0,.82-.2l1.77-1a5,5,0,0,0,2.17-3.77,7.15,7.15,0,0,1,3.28-5.68l1.53-.88a2.74,2.74,0,0,1,4.38,2.53c0,.46.12.74.24.81s.43,0,.83-.19l1.28-.74a5,5,0,0,0,2.18-3.77,7.18,7.18,0,0,1,3.27-5.68l1.53-.88a2.74,2.74,0,0,1,4.38,2.53v1.23h-2.21V60.42c0-.46-.12-.73-.24-.8s-.43,0-.83.19l-1.52.88a5,5,0,0,0-2.18,3.76,7.17,7.17,0,0,1-3.27,5.68l-1.29.74a2.74,2.74,0,0,1-4.38-2.53c0-.46-.12-.74-.25-.81s-.42,0-.82.19l-1.52.88a5,5,0,0,0-2.18,3.77,7.15,7.15,0,0,1-3.28,5.68l-1.76,1a2.74,2.74,0,0,1-4.38-2.53c0-.46-.13-.74-.25-.81s-.42,0-.82.19l-1.61.92a5,5,0,0,0-2.17,3.77Z" transform="translate(-265.72 -46.8)"/></g><g id="_5" data-name="5"><path class="cls-2" d="M501.71,295.59,432,255.36c-1-.58-.89-1.61.28-2.29l36.39-21a4.4,4.4,0,0,1,4-.16l69.68,40.23c1,.59.89,1.61-.28,2.29l-36.39,21A4.4,4.4,0,0,1,501.71,295.59Z" transform="translate(-265.72 -46.8)"/><path class="cls-1" d="M501.71,299.39,432,259.16c-1-.59-.89-1.62.28-2.29l36.39-21a4.4,4.4,0,0,1,4-.17l69.68,40.23c1,.59.89,1.62-.28,2.3l-36.39,21A4.4,4.4,0,0,1,501.71,299.39Z" transform="translate(-265.72 -46.8)"/><path class="cls-3" d="M503.44,296.59a4.09,4.09,0,0,1-2-.48l-69.68-40.23a1.75,1.75,0,0,1-1-1.51,2.23,2.23,0,0,1,1.27-1.82l36.39-21a5,5,0,0,1,4.57-.17l69.68,40.23a1.76,1.76,0,0,1,1,1.51,2.21,2.21,0,0,1-1.27,1.82L506,296A5.26,5.26,0,0,1,503.44,296.59ZM502,295.08a3.82,3.82,0,0,0,3.38-.17l36.39-21c.49-.28.67-.59.67-.78s-.24-.39-.39-.48l-69.68-40.23a3.83,3.83,0,0,0-3.37.17l-36.39,21c-.5.28-.67.59-.67.78s.24.39.38.48Z" transform="translate(-265.72 -46.8)"/><path class="cls-3" d="M543,274.41l-55.31-5.55c-4.59-.46-8.22-2.62-9-5.37l-9.43-32.44.67-.11a4.93,4.93,0,0,1,3.11.49l69.4,40.07a2,2,0,0,1,1.08,1.34,1.6,1.6,0,0,1-.3,1.3Zm-72.22-42.34,9,31.09c.66,2.29,3.87,4.1,8,4.52l54.53,5.47v-.07a1,1,0,0,0-.52-.55l-69.4-40.07A3.34,3.34,0,0,0,470.81,232.07Z" transform="translate(-265.72 -46.8)"/><polygon class="cls-2" points="232.01 231.23 221.68 225.26 236.08 216.94 246.42 222.91 232.01 231.23"/><path class="cls-3" d="M497.73,278.55l-11.23-6.49,15.3-8.83L513,269.71Zm-9.44-6.49,9.44,5.45,13.51-7.8-9.44-5.45Z" transform="translate(-265.72 -46.8)"/><polygon class="cls-1" points="232.12 228.81 225.85 225.2 235.98 219.35 242.24 222.97 232.12 228.81"/><path class="cls-3" d="M497.84,276.13,490.68,272l11-6.36,7.16,4.13ZM492.47,272l5.37,3.1,9.22-5.33-5.37-3.1Z" transform="translate(-265.72 -46.8)"/><path class="cls-2" d="M499.64,279.85l-8.54,4.93,10.14,5.85,8.54-4.93Zm1.49,8.29-5.72-3.3,4.35-2.51,5.71,3.3Z" transform="translate(-265.72 -46.8)"/><path class="cls-3" d="M501.13,288.66l-6.61-3.82,5.24-3,6.61,3.81Zm-4.82-3.82,4.82,2.79,3.45-2-4.82-2.78Z" transform="translate(-265.72 -46.8)"/><path class="cls-3" d="M453.05,259.35a11.84,11.84,0,0,1-5.82-1.39c-1.64-.95-2.54-2.23-2.54-3.62s.9-2.67,2.54-3.62a12.9,12.9,0,0,1,11.64,0c1.64.95,2.54,2.23,2.54,3.62a4.34,4.34,0,0,1-2.54,3.62A11.87,11.87,0,0,1,453.05,259.35Zm0-9.13a10.91,10.91,0,0,0-5.37,1.28,3,3,0,0,0,0,5.69,11.88,11.88,0,0,0,10.74,0,3,3,0,0,0,0-5.69A10.93,10.93,0,0,0,453.05,250.22Z" transform="translate(-265.72 -46.8)"/><path class="cls-3" d="M453.05,258a8.41,8.41,0,0,1-4.13-1,2.81,2.81,0,0,1,0-5.28,9.17,9.17,0,0,1,8.26,0,2.81,2.81,0,0,1,0,5.28A8.44,8.44,0,0,1,453.05,258Zm0-6.37a7.47,7.47,0,0,0-3.68.88,1.95,1.95,0,0,0,0,3.73,8.16,8.16,0,0,0,7.36,0,1.95,1.95,0,0,0,0-3.73A7.5,7.5,0,0,0,453.05,251.6Z" transform="translate(-265.72 -46.8)"/><path class="cls-3" d="M516.57,281.6a21.51,21.51,0,0,1-10.48-2.5c-2.88-1.67-4.47-3.91-4.47-6.31s1.59-4.64,4.47-6.31c5.78-3.33,15.17-3.33,20.95,0,2.88,1.67,4.47,3.91,4.47,6.31s-1.59,4.64-4.47,6.31A21.5,21.5,0,0,1,516.57,281.6Zm0-16.73a20.42,20.42,0,0,0-10,2.39c-2.6,1.5-4,3.46-4,5.53s1.42,4,4,5.53c5.53,3.19,14.52,3.19,20.05,0,2.6-1.5,4-3.46,4-5.53s-1.42-4-4-5.53A20.44,20.44,0,0,0,516.56,264.87Z" transform="translate(-265.72 -46.8)"/><path class="cls-3" d="M516.56,279.48a16.19,16.19,0,0,1-7.88-1.88c-2.19-1.27-3.39-3-3.39-4.81s1.2-3.54,3.39-4.81a17.45,17.45,0,0,1,15.77,0c2.19,1.27,3.39,3,3.39,4.81s-1.2,3.54-3.39,4.81A16.2,16.2,0,0,1,516.56,279.48Zm0-12.5a15.12,15.12,0,0,0-7.43,1.78c-1.9,1.09-2.95,2.53-2.95,4s1.05,2.94,2.95,4a16.44,16.44,0,0,0,14.87,0h0c1.9-1.09,3-2.53,3-4s-1.05-2.94-3-4A15.14,15.14,0,0,0,516.56,267Z" transform="translate(-265.72 -46.8)"/><path class="cls-3" d="M464.44,268.21l-.45-.77,1.84-1.06c.29-.17.45-.38.45-.57s-.16-.39-.45-.56l-.25-.14a3.22,3.22,0,0,0-2.84,0l-.19.12a4.09,4.09,0,0,1-3.73,0l-.25-.14a1.45,1.45,0,0,1,0-2.68l.2-.11c.29-.17.45-.37.45-.56s-.16-.39-.45-.56l-.15-.09a3.22,3.22,0,0,0-2.84,0l-.19.12a4.11,4.11,0,0,1-3.74,0,1.45,1.45,0,0,1,0-2.68l.2-.11c.29-.17.46-.37.45-.56s-.16-.39-.45-.56l-.2-.11a3.14,3.14,0,0,0-2.83,0l-1.84,1.06-.45-.78,1.84-1.06a4.09,4.09,0,0,1,3.73,0l.2.11a1.45,1.45,0,0,1,0,2.68l-.2.11c-.29.17-.45.37-.46.56s.17.39.46.56a3.16,3.16,0,0,0,2.84,0l.2-.11a4,4,0,0,1,3.73,0l.14.08a1.44,1.44,0,0,1,0,2.68l-.19.11c-.29.17-.46.37-.46.56s.17.39.46.56l.24.14a3.22,3.22,0,0,0,2.84,0l.2-.11a4,4,0,0,1,3.73,0l.24.14a1.43,1.43,0,0,1,0,2.67Z" transform="translate(-265.72 -46.8)"/><path class="cls-3" d="M501.24,291.15l-11-6.37,9.43-5.45,11,6.37ZM492,284.78l9.24,5.33,7.65-4.41-9.25-5.34Z" transform="translate(-265.72 -46.8)"/><path class="cls-2" d="M495.77,258.74l-.45-.78,1.84-1.06c.29-.17.46-.37.46-.56s-.17-.4-.46-.56l-.24-.14a3.16,3.16,0,0,0-2.84,0l-.19.11a4.11,4.11,0,0,1-3.74,0l-.24-.14a1.44,1.44,0,0,1,0-2.67l.19-.11c.29-.17.46-.38.46-.57s-.17-.39-.46-.56l-.14-.08a3.16,3.16,0,0,0-2.84,0l-.2.11a4,4,0,0,1-3.73,0,1.44,1.44,0,0,1,0-2.67l.19-.11c.29-.17.46-.38.46-.57s-.17-.39-.46-.56l-.19-.11a3.22,3.22,0,0,0-2.84,0l-1.84,1.06-.44-.77,1.83-1.06a4.05,4.05,0,0,1,3.74,0l.19.11a1.43,1.43,0,0,1,0,2.67l-.19.11c-.29.17-.46.38-.46.56s.17.4.46.57a3.22,3.22,0,0,0,2.84,0l.19-.12a4.11,4.11,0,0,1,3.74,0l.14.09a1.44,1.44,0,0,1,0,2.67l-.19.11c-.29.17-.46.37-.46.56s.17.4.46.57l.24.13a3.16,3.16,0,0,0,2.84,0l.19-.11a4.11,4.11,0,0,1,3.74,0l.24.14a1.44,1.44,0,0,1,0,2.67Z" transform="translate(-265.72 -46.8)"/><path class="cls-3" d="M487.86,298.58a.47.47,0,0,1,0,.89,1.7,1.7,0,0,1-1.55,0c-.43-.25-.43-.65,0-.89A1.7,1.7,0,0,1,487.86,298.58Z" transform="translate(-265.72 -46.8)"/><path class="cls-3" d="M491.91,296.23a.48.48,0,0,1,0,.9,1.7,1.7,0,0,1-1.55,0,.48.48,0,0,1,0-.9A1.76,1.76,0,0,1,491.91,296.23Z" transform="translate(-265.72 -46.8)"/><path class="cls-3" d="M483.8,296.23a.48.48,0,0,1,0,.9,1.7,1.7,0,0,1-1.55,0,.48.48,0,0,1,0-.9A1.76,1.76,0,0,1,483.8,296.23Z" transform="translate(-265.72 -46.8)"/><path class="cls-3" d="M487.86,293.89a.48.48,0,0,1,0,.9,1.7,1.7,0,0,1-1.55,0,.48.48,0,0,1,0-.9A1.76,1.76,0,0,1,487.86,293.89Z" transform="translate(-265.72 -46.8)"/><path class="cls-3" d="M479.75,293.89a.48.48,0,0,1,0,.9,1.72,1.72,0,0,1-1.56,0,.48.48,0,0,1,0-.9A1.78,1.78,0,0,1,479.75,293.89Z" transform="translate(-265.72 -46.8)"/><path class="cls-3" d="M483.8,291.55a.48.48,0,0,1,0,.9,1.76,1.76,0,0,1-1.55,0,.48.48,0,0,1,0-.9A1.7,1.7,0,0,1,483.8,291.55Z" transform="translate(-265.72 -46.8)"/><path class="cls-3" d="M475.69,291.55a.48.48,0,0,1,0,.9,1.76,1.76,0,0,1-1.55,0,.48.48,0,0,1,0-.9A1.7,1.7,0,0,1,475.69,291.55Z" transform="translate(-265.72 -46.8)"/><path class="cls-3" d="M479.75,289.21a.48.48,0,0,1,0,.9,1.78,1.78,0,0,1-1.56,0,.48.48,0,0,1,0-.9A1.72,1.72,0,0,1,479.75,289.21Z" transform="translate(-265.72 -46.8)"/><path class="cls-3" d="M471.64,289.21a.48.48,0,0,1,0,.9,1.78,1.78,0,0,1-1.56,0,.48.48,0,0,1,0-.9A1.72,1.72,0,0,1,471.64,289.21Z" transform="translate(-265.72 -46.8)"/><path class="cls-3" d="M475.69,286.87c.43.25.43.65,0,.89a1.7,1.7,0,0,1-1.55,0c-.43-.24-.43-.64,0-.89A1.7,1.7,0,0,1,475.69,286.87Z" transform="translate(-265.72 -46.8)"/><ellipse class="cls-3" cx="201.05" cy="240.49" rx="1.1" ry="0.63"/><path class="cls-3" d="M471.6,284.5a.48.48,0,0,1,0,.9,1.7,1.7,0,0,1-1.55,0,.48.48,0,0,1,0-.9A1.76,1.76,0,0,1,471.6,284.5Z" transform="translate(-265.72 -46.8)"/><path class="cls-3" d="M463.49,284.5a.48.48,0,0,1,0,.9,1.7,1.7,0,0,1-1.55,0,.48.48,0,0,1,0-.9A1.76,1.76,0,0,1,463.49,284.5Z" transform="translate(-265.72 -46.8)"/><path class="cls-3" d="M467.55,282.16a.48.48,0,0,1,0,.9,1.72,1.72,0,0,1-1.56,0,.48.48,0,0,1,0-.9A1.72,1.72,0,0,1,467.55,282.16Z" transform="translate(-265.72 -46.8)"/><path class="cls-3" d="M459.43,282.16a.48.48,0,0,1,0,.9,1.7,1.7,0,0,1-1.55,0,.48.48,0,0,1,0-.9A1.7,1.7,0,0,1,459.43,282.16Z" transform="translate(-265.72 -46.8)"/><path class="cls-3" d="M463.49,279.82a.48.48,0,0,1,0,.9,1.76,1.76,0,0,1-1.55,0,.48.48,0,0,1,0-.9A1.7,1.7,0,0,1,463.49,279.82Z" transform="translate(-265.72 -46.8)"/><path class="cls-3" d="M455.38,279.82a.48.48,0,0,1,0,.9,1.76,1.76,0,0,1-1.55,0,.48.48,0,0,1,0-.9A1.7,1.7,0,0,1,455.38,279.82Z" transform="translate(-265.72 -46.8)"/><path class="cls-3" d="M459.43,277.48a.48.48,0,0,1,0,.9,1.76,1.76,0,0,1-1.55,0,.48.48,0,0,1,0-.9A1.7,1.7,0,0,1,459.43,277.48Z" transform="translate(-265.72 -46.8)"/><path class="cls-3" d="M451.32,277.48a.48.48,0,0,1,0,.9,1.76,1.76,0,0,1-1.55,0,.48.48,0,0,1,0-.9A1.7,1.7,0,0,1,451.32,277.48Z" transform="translate(-265.72 -46.8)"/><ellipse class="cls-3" cx="188.89" cy="228.78" rx="1.1" ry="0.63"/><path class="cls-3" d="M447.27,275.14c.43.25.43.65,0,.89a1.7,1.7,0,0,1-1.55,0c-.43-.24-.43-.64,0-.89A1.7,1.7,0,0,1,447.27,275.14Z" transform="translate(-265.72 -46.8)"/><path class="cls-3" d="M451.32,272.8a.47.47,0,0,1,0,.89,1.7,1.7,0,0,1-1.55,0,.47.47,0,0,1,0-.89A1.7,1.7,0,0,1,451.32,272.8Z" transform="translate(-265.72 -46.8)"/><path class="cls-3" d="M443.21,272.8a.47.47,0,0,1,0,.89,1.7,1.7,0,0,1-1.55,0,.47.47,0,0,1,0-.89A1.7,1.7,0,0,1,443.21,272.8Z" transform="translate(-265.72 -46.8)"/><path class="cls-3" d="M447.27,270.46c.43.24.43.64,0,.89a1.7,1.7,0,0,1-1.55,0c-.43-.25-.43-.65,0-.89A1.7,1.7,0,0,1,447.27,270.46Z" transform="translate(-265.72 -46.8)"/><path class="cls-3" d="M439.16,270.46c.43.24.43.64,0,.89a1.7,1.7,0,0,1-1.55,0c-.43-.25-.43-.65,0-.89A1.7,1.7,0,0,1,439.16,270.46Z" transform="translate(-265.72 -46.8)"/><path class="cls-3" d="M443.21,268.11a.48.48,0,0,1,0,.9,1.7,1.7,0,0,1-1.55,0,.48.48,0,0,1,0-.9A1.76,1.76,0,0,1,443.21,268.11Z" transform="translate(-265.72 -46.8)"/><path class="cls-3" d="M435.07,268.09a.48.48,0,0,1,0,.9,1.76,1.76,0,0,1-1.55,0,.48.48,0,0,1,0-.9A1.7,1.7,0,0,1,435.07,268.09Z" transform="translate(-265.72 -46.8)"/><path class="cls-3" d="M439.12,265.75c.43.25.43.65,0,.89a1.7,1.7,0,0,1-1.55,0c-.43-.24-.43-.64,0-.89A1.7,1.7,0,0,1,439.12,265.75Z" transform="translate(-265.72 -46.8)"/><path class="cls-3" d="M431,265.75c.43.25.43.65,0,.89a1.7,1.7,0,0,1-1.55,0c-.43-.24-.43-.64,0-.89A1.7,1.7,0,0,1,431,265.75Z" transform="translate(-265.72 -46.8)"/><path class="cls-3" d="M435.07,263.41a.47.47,0,0,1,0,.89,1.7,1.7,0,0,1-1.55,0,.47.47,0,0,1,0-.89A1.7,1.7,0,0,1,435.07,263.41Z" transform="translate(-265.72 -46.8)"/><path class="cls-3" d="M431,261.07c.43.24.43.64,0,.89a1.7,1.7,0,0,1-1.55,0c-.43-.25-.43-.65,0-.89A1.7,1.7,0,0,1,431,261.07Z" transform="translate(-265.72 -46.8)"/><path class="cls-3" d="M512.38,307.59a.48.48,0,0,1,0,.9,1.76,1.76,0,0,1-1.55,0,.48.48,0,0,1,0-.9A1.7,1.7,0,0,1,512.38,307.59Z" transform="translate(-265.72 -46.8)"/><path class="cls-3" d="M516.44,305.25a.48.48,0,0,1,0,.9,1.76,1.76,0,0,1-1.55,0,.48.48,0,0,1,0-.9A1.7,1.7,0,0,1,516.44,305.25Z" transform="translate(-265.72 -46.8)"/><path class="cls-3" d="M520.49,302.91c.43.25.43.65,0,.89a1.7,1.7,0,0,1-1.55,0c-.43-.24-.43-.64,0-.89A1.7,1.7,0,0,1,520.49,302.91Z" transform="translate(-265.72 -46.8)"/><path class="cls-3" d="M504.24,307.57a.47.47,0,0,1,0,.89,1.72,1.72,0,0,1-1.56,0,.47.47,0,0,1,0-.89A1.72,1.72,0,0,1,504.24,307.57Z" transform="translate(-265.72 -46.8)"/><ellipse class="cls-3" cx="241.8" cy="258.87" rx="1.1" ry="0.63"/><path class="cls-3" d="M512.35,302.88a.48.48,0,0,1,0,.9,1.7,1.7,0,0,1-1.55,0,.48.48,0,0,1,0-.9A1.76,1.76,0,0,1,512.35,302.88Z" transform="translate(-265.72 -46.8)"/><path class="cls-3" d="M516.4,300.54a.48.48,0,0,1,0,.9,1.7,1.7,0,0,1-1.55,0,.48.48,0,0,1,0-.9A1.76,1.76,0,0,1,516.4,300.54Z" transform="translate(-265.72 -46.8)"/><path class="cls-3" d="M500.18,305.22a.48.48,0,0,1,0,.9,1.7,1.7,0,0,1-1.55,0,.48.48,0,0,1,0-.9A1.76,1.76,0,0,1,500.18,305.22Z" transform="translate(-265.72 -46.8)"/><path class="cls-3" d="M504.24,302.88a.48.48,0,0,1,0,.9,1.72,1.72,0,0,1-1.56,0,.48.48,0,0,1,0-.9A1.78,1.78,0,0,1,504.24,302.88Z" transform="translate(-265.72 -46.8)"/><path class="cls-3" d="M508.29,300.54a.48.48,0,0,1,0,.9,1.7,1.7,0,0,1-1.55,0,.48.48,0,0,1,0-.9A1.76,1.76,0,0,1,508.29,300.54Z" transform="translate(-265.72 -46.8)"/><path class="cls-3" d="M512.35,298.2a.48.48,0,0,1,0,.9,1.76,1.76,0,0,1-1.55,0,.48.48,0,0,1,0-.9A1.7,1.7,0,0,1,512.35,298.2Z" transform="translate(-265.72 -46.8)"/><path class="cls-3" d="M496.13,302.88a.48.48,0,0,1,0,.9,1.72,1.72,0,0,1-1.56,0,.48.48,0,0,1,0-.9A1.78,1.78,0,0,1,496.13,302.88Z" transform="translate(-265.72 -46.8)"/><path class="cls-3" d="M500.18,300.54a.48.48,0,0,1,0,.9,1.7,1.7,0,0,1-1.55,0,.48.48,0,0,1,0-.9A1.76,1.76,0,0,1,500.18,300.54Z" transform="translate(-265.72 -46.8)"/><path class="cls-3" d="M492.07,300.54a.48.48,0,0,1,0,.9,1.7,1.7,0,0,1-1.55,0,.48.48,0,0,1,0-.9A1.76,1.76,0,0,1,492.07,300.54Z" transform="translate(-265.72 -46.8)"/><path class="cls-3" d="M496.13,298.2a.48.48,0,0,1,0,.9,1.78,1.78,0,0,1-1.56,0,.48.48,0,0,1,0-.9A1.72,1.72,0,0,1,496.13,298.2Z" transform="translate(-265.72 -46.8)"/><path class="cls-3" d="M523,300.6a1.7,1.7,0,0,1,1.55,0c.43.25.43.65,0,.89a1.73,1.73,0,0,1-1.55,0A.48.48,0,0,1,523,300.6Z" transform="translate(-265.72 -46.8)"/><path class="cls-3" d="M528.61,298.26c.43.24.43.64,0,.89a1.7,1.7,0,0,1-1.55,0,.47.47,0,0,1,0-.89A1.7,1.7,0,0,1,528.61,298.26Z" transform="translate(-265.72 -46.8)"/><path class="cls-3" d="M532.67,295.91a.48.48,0,0,1,0,.9,1.7,1.7,0,0,1-1.55,0,.48.48,0,0,1,0-.9A1.76,1.76,0,0,1,532.67,295.91Z" transform="translate(-265.72 -46.8)"/><path class="cls-3" d="M536.73,293.57a.48.48,0,0,1,0,.9,1.72,1.72,0,0,1-1.56,0,.48.48,0,0,1,0-.9A1.78,1.78,0,0,1,536.73,293.57Z" transform="translate(-265.72 -46.8)"/><path class="cls-3" d="M540.78,291.23a.48.48,0,0,1,0,.9,1.76,1.76,0,0,1-1.55,0,.48.48,0,0,1,0-.9A1.7,1.7,0,0,1,540.78,291.23Z" transform="translate(-265.72 -46.8)"/><path class="cls-3" d="M544.84,288.89a.48.48,0,0,1,0,.9,1.78,1.78,0,0,1-1.56,0,.48.48,0,0,1,0-.9A1.72,1.72,0,0,1,544.84,288.89Z" transform="translate(-265.72 -46.8)"/><path class="cls-3" d="M548.89,286.55c.43.25.43.65,0,.89a1.7,1.7,0,0,1-1.55,0c-.43-.24-.43-.64,0-.89A1.7,1.7,0,0,1,548.89,286.55Z" transform="translate(-265.72 -46.8)"/><path class="cls-3" d="M518.91,298.23a1.76,1.76,0,0,1,1.55,0,.48.48,0,0,1,0,.9,1.7,1.7,0,0,1-1.55,0A.48.48,0,0,1,518.91,298.23Z" transform="translate(-265.72 -46.8)"/><path class="cls-3" d="M524.52,295.89a.48.48,0,0,1,0,.9,1.76,1.76,0,0,1-1.55,0,.48.48,0,0,1,0-.9A1.7,1.7,0,0,1,524.52,295.89Z" transform="translate(-265.72 -46.8)"/><path class="cls-3" d="M528.58,293.55c.43.25.43.65,0,.89a1.7,1.7,0,0,1-1.55,0c-.43-.24-.43-.64,0-.89A1.7,1.7,0,0,1,528.58,293.55Z" transform="translate(-265.72 -46.8)"/><path class="cls-3" d="M532.63,291.21a.47.47,0,0,1,0,.89,1.7,1.7,0,0,1-1.55,0,.47.47,0,0,1,0-.89A1.7,1.7,0,0,1,532.63,291.21Z" transform="translate(-265.72 -46.8)"/><path class="cls-3" d="M536.69,288.87c.43.24.43.64,0,.89a1.7,1.7,0,0,1-1.55,0c-.43-.25-.43-.65,0-.89A1.7,1.7,0,0,1,536.69,288.87Z" transform="translate(-265.72 -46.8)"/><path class="cls-3" d="M540.75,286.52a.48.48,0,0,1,0,.9,1.72,1.72,0,0,1-1.56,0,.48.48,0,0,1,0-.9A1.78,1.78,0,0,1,540.75,286.52Z" transform="translate(-265.72 -46.8)"/><path class="cls-3" d="M544.8,284.18a.48.48,0,0,1,0,.9,1.7,1.7,0,0,1-1.55,0,.48.48,0,0,1,0-.9A1.76,1.76,0,0,1,544.8,284.18Z" transform="translate(-265.72 -46.8)"/><path class="cls-3" d="M548.86,281.84a.48.48,0,0,1,0,.9,1.72,1.72,0,0,1-1.56,0,.48.48,0,0,1,0-.9A1.78,1.78,0,0,1,548.86,281.84Z" transform="translate(-265.72 -46.8)"/><path class="cls-3" d="M514.86,295.89a1.73,1.73,0,0,1,1.55,0,.48.48,0,0,1,0,.9,1.73,1.73,0,0,1-1.55,0A.48.48,0,0,1,514.86,295.89Z" transform="translate(-265.72 -46.8)"/><path class="cls-3" d="M520.47,293.55c.43.25.43.65,0,.89a1.7,1.7,0,0,1-1.55,0c-.43-.24-.43-.64,0-.89A1.7,1.7,0,0,1,520.47,293.55Z" transform="translate(-265.72 -46.8)"/><path class="cls-3" d="M524.52,291.21a.47.47,0,0,1,0,.89,1.7,1.7,0,0,1-1.55,0,.47.47,0,0,1,0-.89A1.7,1.7,0,0,1,524.52,291.21Z" transform="translate(-265.72 -46.8)"/><path class="cls-3" d="M528.58,288.87c.43.24.43.64,0,.89a1.7,1.7,0,0,1-1.55,0c-.43-.25-.43-.65,0-.89A1.7,1.7,0,0,1,528.58,288.87Z" transform="translate(-265.72 -46.8)"/><path class="cls-3" d="M532.63,286.52a.48.48,0,0,1,0,.9,1.7,1.7,0,0,1-1.55,0,.48.48,0,0,1,0-.9A1.76,1.76,0,0,1,532.63,286.52Z" transform="translate(-265.72 -46.8)"/><path class="cls-3" d="M536.69,284.18a.48.48,0,0,1,0,.9,1.7,1.7,0,0,1-1.55,0,.48.48,0,0,1,0-.9A1.76,1.76,0,0,1,536.69,284.18Z" transform="translate(-265.72 -46.8)"/><path class="cls-3" d="M540.75,281.84a.48.48,0,0,1,0,.9,1.72,1.72,0,0,1-1.56,0,.48.48,0,0,1,0-.9A1.78,1.78,0,0,1,540.75,281.84Z" transform="translate(-265.72 -46.8)"/><path class="cls-3" d="M544.8,279.5a.48.48,0,0,1,0,.9,1.76,1.76,0,0,1-1.55,0,.48.48,0,0,1,0-.9A1.7,1.7,0,0,1,544.8,279.5Z" transform="translate(-265.72 -46.8)"/></g><g id="_4" data-name="4"><path class="cls-2" d="M340,279.21l-27-15.6c-2-1.16-1.76-3.18.56-4.52l38.73-22.36c2.32-1.34,5.83-1.48,7.84-.32l27,15.59c2,1.16,1.76,3.19-.56,4.53l-38.73,22.36C345.53,280.23,342,280.37,340,279.21Z" transform="translate(-265.72 -46.8)"/><path class="cls-1" d="M340,282.1l-27-15.6c-2-1.16-1.76-3.19.56-4.53l38.73-22.36c2.32-1.33,5.83-1.48,7.84-.32l27,15.6c2,1.16,1.76,3.18-.56,4.52l-38.73,22.36C345.53,283.11,342,283.26,340,282.1Z" transform="translate(-265.72 -46.8)"/><path class="cls-3" d="M343.43,280.49a7.5,7.5,0,0,1-3.66-.86l-27-15.6a2.8,2.8,0,0,1-1.6-2.38,3.7,3.7,0,0,1,2.16-3l38.73-22.36c2.49-1.44,6.15-1.58,8.32-.32l27,15.59A2.8,2.8,0,0,1,389,254a3.69,3.69,0,0,1-2.16,3L348.1,279.31A9.61,9.61,0,0,1,343.43,280.49Zm-3.17-1.7c1.87,1.08,5.17.94,7.35-.32l38.73-22.36c1.06-.62,1.68-1.4,1.68-2.14a1.91,1.91,0,0,0-1.12-1.55l-27-15.59c-1.87-1.08-5.17-.94-7.36.32l-38.72,22.36a2.78,2.78,0,0,0-1.68,2.14,1.91,1.91,0,0,0,1.11,1.54Z" transform="translate(-265.72 -46.8)"/><polygon class="cls-2" points="82.85 225.18 73.55 219.81 81.38 215.28 90.69 220.65 82.85 225.18"/><path class="cls-3" d="M348.57,272.49l-10.18-5.88,8.71-5,10.18,5.87Zm-8.43-5.88,8.43,4.86,7-4-8.43-4.86Z" transform="translate(-265.72 -46.8)"/><polygon class="cls-1" points="82.75 222.89 77.5 219.87 81.49 217.56 86.73 220.59 82.75 222.89"/><path class="cls-3" d="M348.46,270.2l-6.12-3.53,4.87-2.81,6.12,3.53Zm-4.36-3.53,4.36,2.52,3.11-1.8-4.36-2.52Z" transform="translate(-265.72 -46.8)"/><path class="cls-3" d="M335.31,271.25a13.17,13.17,0,0,1-6.43-1.53c-1.78-1-2.76-2.42-2.76-3.91s1-2.88,2.76-3.91a14.26,14.26,0,0,1,12.85,0c1.78,1,2.76,2.42,2.76,3.91s-1,2.88-2.76,3.91h0A13.16,13.16,0,0,1,335.31,271.25Zm0-10.2a12.37,12.37,0,0,0-6.08,1.45c-1.56.9-2.42,2.07-2.42,3.31s.86,2.41,2.42,3.31a13.43,13.43,0,0,0,12.16,0h0c1.55-.9,2.41-2.07,2.41-3.31s-.86-2.41-2.41-3.31A12.42,12.42,0,0,0,335.31,261.05Z" transform="translate(-265.72 -46.8)"/><path class="cls-3" d="M335.31,270a9.94,9.94,0,0,1-4.85-1.16,3.18,3.18,0,0,1,0-6,10.74,10.74,0,0,1,9.69,0,3.18,3.18,0,0,1,0,6h0A9.93,9.93,0,0,1,335.31,270Zm0-7.62a9.16,9.16,0,0,0-4.5,1.07,2.52,2.52,0,0,0,0,4.8,10,10,0,0,0,9,0,2.51,2.51,0,0,0,0-4.8A9.23,9.23,0,0,0,335.31,262.34Z" transform="translate(-265.72 -46.8)"/><path class="cls-2" d="M352.29,262.88l-.37-.64,1.52-.88c.25-.14.38-.31.38-.46s-.13-.33-.38-.47l-.2-.11a2.63,2.63,0,0,0-2.35,0l-.16.09a3.37,3.37,0,0,1-3.09,0l-.2-.11a1.2,1.2,0,0,1,0-2.22l.16-.09c.24-.14.38-.31.38-.47s-.14-.32-.38-.46l-.12-.07a2.65,2.65,0,0,0-2.36,0l-.16.09a3.37,3.37,0,0,1-3.09,0,1.31,1.31,0,0,1-.75-1.11,1.3,1.3,0,0,1,.75-1.1l.16-.1c.24-.14.38-.31.38-.46s-.14-.33-.38-.47l-.16-.09a2.63,2.63,0,0,0-2.35,0l-1.53.88-.37-.64,1.53-.88a3.37,3.37,0,0,1,3.09,0l.16.09a1.31,1.31,0,0,1,.75,1.11,1.3,1.3,0,0,1-.75,1.1l-.16.1c-.24.14-.38.31-.38.46s.14.33.38.47a2.63,2.63,0,0,0,2.35,0l.16-.09a3.33,3.33,0,0,1,3.1,0l.12.06a1.2,1.2,0,0,1,0,2.22l-.16.09c-.24.14-.38.31-.38.47s.14.32.38.46l.2.12a2.66,2.66,0,0,0,2.35,0l.16-.09a3.36,3.36,0,0,1,3.1,0l.2.11a1.28,1.28,0,0,1,.74,1.11,1.31,1.31,0,0,1-.74,1.11Z" transform="translate(-265.72 -46.8)"/><path class="cls-3" d="M358.67,265.37l-.43-.73,1.74-1c.27-.16.43-.35.43-.53s-.16-.37-.43-.53l-.23-.13a3,3,0,0,0-2.68,0l-.18.1a3.86,3.86,0,0,1-3.53,0l-.22-.13a1.35,1.35,0,0,1,0-2.52l.18-.11c.27-.16.43-.35.43-.53s-.16-.37-.43-.53l-.14-.08a3,3,0,0,0-2.68,0l-.18.11a3.84,3.84,0,0,1-3.52,0,1.5,1.5,0,0,1-.86-1.26,1.48,1.48,0,0,1,.86-1.26l.18-.11c.27-.16.43-.35.43-.53s-.16-.37-.43-.53l-.18-.1a3,3,0,0,0-2.68,0l-1.74,1-.42-.73,1.73-1a3.86,3.86,0,0,1,3.53,0l.18.1a1.49,1.49,0,0,1,.85,1.26,1.47,1.47,0,0,1-.85,1.26l-.18.11c-.28.16-.43.35-.43.53s.15.37.43.53a3,3,0,0,0,2.68,0l.18-.11a3.84,3.84,0,0,1,3.52,0l.14.08a1.49,1.49,0,0,1,.85,1.26,1.47,1.47,0,0,1-.85,1.26l-.18.11c-.28.16-.43.35-.43.53s.15.37.43.53l.23.13a3,3,0,0,0,2.68,0l.18-.11a3.87,3.87,0,0,1,3.52,0l.23.14a1.47,1.47,0,0,1,.85,1.26,1.49,1.49,0,0,1-.85,1.26Z" transform="translate(-265.72 -46.8)"/><path class="cls-1" d="M353.6,237.1a17.87,17.87,0,0,1-3.7-.2A8.49,8.49,0,0,1,347,236a3.76,3.76,0,0,1-1.69-1.81,2.62,2.62,0,0,1,.33-2.38,7,7,0,0,1,2.57-2.32,17.59,17.59,0,0,1,5.55-1.9,20.43,20.43,0,0,1,6.15-.3,11.61,11.61,0,0,1,4.38,1.25A3.87,3.87,0,0,1,366,230.2a2.67,2.67,0,0,1,0,2.21l2.63-1,2.49,1.43-11.33,4.23c-1.58.59-2.44.93-2.58,1a.58.58,0,0,0-.36.53.71.71,0,0,0,.42.56,7.75,7.75,0,0,0,2.78.62,18.87,18.87,0,0,0,5.49-.27,15.44,15.44,0,0,0,4.78-1.69,7.24,7.24,0,0,0,3.15-3.19,4.17,4.17,0,0,0-.32-3.91,10.23,10.23,0,0,0-4-3.71,21.58,21.58,0,0,0-7.46-2.55,25.28,25.28,0,0,0-8.54.11,23.6,23.6,0,0,0-7.57,2.67c-2.27,1.31-3.74,2.72-4.39,4.24a4.44,4.44,0,0,0,.65,4.57,15.52,15.52,0,0,0,5,4.26,23.54,23.54,0,0,0,7.33,2.82,22.87,22.87,0,0,0,6.66.41l2.51,1.45a23.08,23.08,0,0,1-5.4.31,29.4,29.4,0,0,1-6.51-1,26.88,26.88,0,0,1-6.6-2.8,20.54,20.54,0,0,1-4.91-3.74,7.22,7.22,0,0,1-2.05-3.94,5.37,5.37,0,0,1,.89-3.71,13.27,13.27,0,0,1,4.51-3.95,27.13,27.13,0,0,1,7.85-2.93,31,31,0,0,1,10.59-.55,25.35,25.35,0,0,1,9.57,3.21,12.28,12.28,0,0,1,4.78,4.39,5.11,5.11,0,0,1,.13,4.93,9.28,9.28,0,0,1-3.88,3.8,21,21,0,0,1-10,2.49Q357,241.72,354,240a3.43,3.43,0,0,1-1.26-1.06.94.94,0,0,1,0-1A3.17,3.17,0,0,1,353.6,237.1Zm-3-6.06c-1.27.74-2,1.48-2.06,2.23s.18.75,1,1.2a15.93,15.93,0,0,0,3.07.45,14.55,14.55,0,0,0,3,.15c1.13,0,1.42.59,2.7.24a14.11,14.11,0,0,0,3.33-1.35c1.26-.72,1.92-1.47,2-2.23a2,2,0,0,0-1.24-1.92,6,6,0,0,0-2.13-.71,12.49,12.49,0,0,0-3,0,17.7,17.7,0,0,0-3.62.72A14.92,14.92,0,0,0,350.64,231Z" transform="translate(-265.72 -46.8)"/><path d="M353.6,235.25a17.87,17.87,0,0,1-3.7-.2,8.07,8.07,0,0,1-2.87-.93,3.74,3.74,0,0,1-1.69-1.8,2.62,2.62,0,0,1,.33-2.38,6.91,6.91,0,0,1,2.56-2.33,17.75,17.75,0,0,1,5.56-1.9,20.76,20.76,0,0,1,6.15-.3,11.61,11.61,0,0,1,4.38,1.25,3.89,3.89,0,0,1,1.67,1.7,2.64,2.64,0,0,1,0,2.2l2.63-1,2.49,1.43-11.33,4.23c-1.58.59-2.44.93-2.58,1a.58.58,0,0,0-.36.54.71.71,0,0,0,.42.55A7.92,7.92,0,0,0,360,238a18.54,18.54,0,0,0,5.49-.28,15.44,15.44,0,0,0,4.78-1.69,7.19,7.19,0,0,0,3.15-3.19,4.17,4.17,0,0,0-.32-3.91,10.21,10.21,0,0,0-4-3.7,21.38,21.38,0,0,0-7.46-2.56,25,25,0,0,0-8.54.12,23.36,23.36,0,0,0-7.57,2.66,9.87,9.87,0,0,0-4.39,4.24,4.44,4.44,0,0,0,.65,4.57,15.66,15.66,0,0,0,5,4.27,23.51,23.51,0,0,0,7.33,2.81,22.87,22.87,0,0,0,6.66.41l2.51,1.45a23.63,23.63,0,0,1-5.41.32,29.42,29.42,0,0,1-6.5-1,27.06,27.06,0,0,1-6.61-2.79,21,21,0,0,1-4.9-3.75,7.12,7.12,0,0,1-2.05-3.94,5.38,5.38,0,0,1,.89-3.71,13.27,13.27,0,0,1,4.51-3.95,27.42,27.42,0,0,1,7.85-2.93,31.27,31.27,0,0,1,10.59-.55,25.19,25.19,0,0,1,9.57,3.22,12.21,12.21,0,0,1,4.78,4.39,5.09,5.09,0,0,1,.13,4.92,9.23,9.23,0,0,1-3.88,3.8,21.06,21.06,0,0,1-10,2.5c-3.56.1-6.34-.42-8.34-1.58a3.43,3.43,0,0,1-1.26-1.06.94.94,0,0,1,0-1A3.17,3.17,0,0,1,353.6,235.25Zm-3-6.05c-1.27.73-2,1.47-2.06,2.23a1.73,1.73,0,0,0,1,1.8,6.39,6.39,0,0,0,2.1.68,14.49,14.49,0,0,0,3,.15,16.46,16.46,0,0,0,3.62-.6,14.55,14.55,0,0,0,3.33-1.34c1.26-.73,1.92-1.48,2-2.24a2,2,0,0,0-1.24-1.92,6.21,6.21,0,0,0-2.13-.71,12.5,12.5,0,0,0-3,0,17.74,17.74,0,0,0-3.62.73A14.39,14.39,0,0,0,350.64,229.2Z" transform="translate(-265.72 -46.8)"/><ellipse class="cls-3" cx="85.7" cy="244.74" rx="1.1" ry="0.63"/><path class="cls-3" d="M356.25,288.75a.48.48,0,0,1,0,.9,1.76,1.76,0,0,1-1.55,0,.48.48,0,0,1,0-.9A1.7,1.7,0,0,1,356.25,288.75Z" transform="translate(-265.72 -46.8)"/><path class="cls-3" d="M344.08,291.09a.48.48,0,0,1,0,.9,1.7,1.7,0,0,1-1.55,0,.48.48,0,0,1,0-.9A1.76,1.76,0,0,1,344.08,291.09Z" transform="translate(-265.72 -46.8)"/><path class="cls-3" d="M348.14,288.75a.48.48,0,0,1,0,.9,1.76,1.76,0,0,1-1.55,0,.48.48,0,0,1,0-.9A1.7,1.7,0,0,1,348.14,288.75Z" transform="translate(-265.72 -46.8)"/><path class="cls-3" d="M352.19,286.41a.48.48,0,0,1,0,.9,1.76,1.76,0,0,1-1.55,0,.48.48,0,0,1,0-.9A1.7,1.7,0,0,1,352.19,286.41Z" transform="translate(-265.72 -46.8)"/><path class="cls-3" d="M340,288.75a.48.48,0,0,1,0,.9,1.76,1.76,0,0,1-1.55,0,.48.48,0,0,1,0-.9A1.7,1.7,0,0,1,340,288.75Z" transform="translate(-265.72 -46.8)"/><path class="cls-3" d="M344.08,286.41a.48.48,0,0,1,0,.9,1.76,1.76,0,0,1-1.55,0,.48.48,0,0,1,0-.9A1.7,1.7,0,0,1,344.08,286.41Z" transform="translate(-265.72 -46.8)"/><path class="cls-3" d="M348.14,284.07a.47.47,0,0,1,0,.89,1.7,1.7,0,0,1-1.55,0c-.43-.24-.43-.64,0-.89A1.7,1.7,0,0,1,348.14,284.07Z" transform="translate(-265.72 -46.8)"/><path class="cls-3" d="M335.94,286.39a.47.47,0,0,1,0,.89,1.72,1.72,0,0,1-1.56,0,.47.47,0,0,1,0-.89A1.72,1.72,0,0,1,335.94,286.39Z" transform="translate(-265.72 -46.8)"/><path class="cls-3" d="M340,284a.48.48,0,0,1,0,.9,1.7,1.7,0,0,1-1.55,0,.48.48,0,0,1,0-.9A1.76,1.76,0,0,1,340,284Z" transform="translate(-265.72 -46.8)"/><path class="cls-3" d="M331.88,284a.48.48,0,0,1,0,.9,1.7,1.7,0,0,1-1.55,0,.48.48,0,0,1,0-.9A1.76,1.76,0,0,1,331.88,284Z" transform="translate(-265.72 -46.8)"/><path class="cls-3" d="M335.94,281.7a.48.48,0,0,1,0,.9,1.72,1.72,0,0,1-1.56,0,.48.48,0,0,1,0-.9A1.78,1.78,0,0,1,335.94,281.7Z" transform="translate(-265.72 -46.8)"/><path class="cls-3" d="M327.83,281.7a.48.48,0,0,1,0,.9,1.72,1.72,0,0,1-1.56,0,.48.48,0,0,1,0-.9A1.78,1.78,0,0,1,327.83,281.7Z" transform="translate(-265.72 -46.8)"/><path class="cls-3" d="M331.88,279.36a.48.48,0,0,1,0,.9,1.76,1.76,0,0,1-1.55,0,.48.48,0,0,1,0-.9A1.7,1.7,0,0,1,331.88,279.36Z" transform="translate(-265.72 -46.8)"/><path class="cls-3" d="M323.77,279.36a.48.48,0,0,1,0,.9,1.7,1.7,0,0,1-1.55,0,.48.48,0,0,1,0-.9A1.7,1.7,0,0,1,323.77,279.36Z" transform="translate(-265.72 -46.8)"/><path class="cls-3" d="M327.83,277a.48.48,0,0,1,0,.9,1.78,1.78,0,0,1-1.56,0,.48.48,0,0,1,0-.9A1.72,1.72,0,0,1,327.83,277Z" transform="translate(-265.72 -46.8)"/><path class="cls-3" d="M319.71,277a.48.48,0,0,1,0,.9,1.76,1.76,0,0,1-1.55,0,.48.48,0,0,1,0-.9A1.7,1.7,0,0,1,319.71,277Z" transform="translate(-265.72 -46.8)"/><path class="cls-3" d="M323.77,274.68a.48.48,0,0,1,0,.9,1.76,1.76,0,0,1-1.55,0,.48.48,0,0,1,0-.9A1.7,1.7,0,0,1,323.77,274.68Z" transform="translate(-265.72 -46.8)"/><path class="cls-3" d="M315.66,274.68a.48.48,0,0,1,0,.9,1.76,1.76,0,0,1-1.55,0,.48.48,0,0,1,0-.9A1.7,1.7,0,0,1,315.66,274.68Z" transform="translate(-265.72 -46.8)"/><path class="cls-3" d="M319.72,272.34a.47.47,0,0,1,0,.89,1.72,1.72,0,0,1-1.56,0,.47.47,0,0,1,0-.89A1.72,1.72,0,0,1,319.72,272.34Z" transform="translate(-265.72 -46.8)"/><path class="cls-3" d="M311.6,272.34c.43.25.43.65,0,.89a1.7,1.7,0,0,1-1.55,0,.47.47,0,0,1,0-.89A1.7,1.7,0,0,1,311.6,272.34Z" transform="translate(-265.72 -46.8)"/><path class="cls-3" d="M315.66,270a.47.47,0,0,1,0,.89,1.7,1.7,0,0,1-1.55,0,.47.47,0,0,1,0-.89A1.7,1.7,0,0,1,315.66,270Z" transform="translate(-265.72 -46.8)"/><path class="cls-3" d="M311.6,267.66c.43.24.43.64,0,.89a1.7,1.7,0,0,1-1.55,0,.47.47,0,0,1,0-.89A1.7,1.7,0,0,1,311.6,267.66Z" transform="translate(-265.72 -46.8)"/><path class="cls-3" d="M358.76,286.44a1.76,1.76,0,0,1,1.55,0,.48.48,0,0,1,0,.9,1.7,1.7,0,0,1-1.55,0A.48.48,0,0,1,358.76,286.44Z" transform="translate(-265.72 -46.8)"/><path class="cls-3" d="M364.37,284.1a.48.48,0,0,1,0,.9,1.76,1.76,0,0,1-1.55,0,.48.48,0,0,1,0-.9A1.7,1.7,0,0,1,364.37,284.1Z" transform="translate(-265.72 -46.8)"/><path class="cls-3" d="M368.43,281.76a.47.47,0,0,1,0,.89,1.72,1.72,0,0,1-1.56,0,.47.47,0,0,1,0-.89A1.72,1.72,0,0,1,368.43,281.76Z" transform="translate(-265.72 -46.8)"/><path class="cls-3" d="M372.48,279.42a.47.47,0,0,1,0,.89,1.7,1.7,0,0,1-1.55,0,.47.47,0,0,1,0-.89A1.7,1.7,0,0,1,372.48,279.42Z" transform="translate(-265.72 -46.8)"/><path class="cls-3" d="M376.54,277.08a.47.47,0,0,1,0,.89,1.72,1.72,0,0,1-1.56,0,.47.47,0,0,1,0-.89A1.72,1.72,0,0,1,376.54,277.08Z" transform="translate(-265.72 -46.8)"/><path class="cls-3" d="M380.59,274.73a.48.48,0,0,1,0,.9,1.7,1.7,0,0,1-1.55,0,.48.48,0,0,1,0-.9A1.76,1.76,0,0,1,380.59,274.73Z" transform="translate(-265.72 -46.8)"/><path class="cls-3" d="M384.65,272.39a.48.48,0,0,1,0,.9,1.7,1.7,0,0,1-1.55,0,.48.48,0,0,1,0-.9A1.76,1.76,0,0,1,384.65,272.39Z" transform="translate(-265.72 -46.8)"/><path class="cls-3" d="M388.7,270.05a.48.48,0,0,1,0,.9,1.76,1.76,0,0,1-1.55,0,.48.48,0,0,1,0-.9A1.7,1.7,0,0,1,388.7,270.05Z" transform="translate(-265.72 -46.8)"/><ellipse class="cls-3" cx="126.26" cy="221.36" rx="1.1" ry="0.63"/><path class="cls-3" d="M354.7,284.1a1.7,1.7,0,0,1,1.55,0,.48.48,0,0,1,0,.9,1.76,1.76,0,0,1-1.55,0A.48.48,0,0,1,354.7,284.1Z" transform="translate(-265.72 -46.8)"/><path class="cls-3" d="M360.31,281.76c.43.25.43.65,0,.89a1.7,1.7,0,0,1-1.55,0,.47.47,0,0,1,0-.89A1.7,1.7,0,0,1,360.31,281.76Z" transform="translate(-265.72 -46.8)"/><path class="cls-3" d="M364.37,279.42a.47.47,0,0,1,0,.89,1.7,1.7,0,0,1-1.55,0,.47.47,0,0,1,0-.89A1.7,1.7,0,0,1,364.37,279.42Z" transform="translate(-265.72 -46.8)"/><path class="cls-3" d="M368.43,277.08a.47.47,0,0,1,0,.89,1.72,1.72,0,0,1-1.56,0,.47.47,0,0,1,0-.89A1.72,1.72,0,0,1,368.43,277.08Z" transform="translate(-265.72 -46.8)"/><path class="cls-3" d="M372.48,274.73a.48.48,0,0,1,0,.9,1.7,1.7,0,0,1-1.55,0,.48.48,0,0,1,0-.9A1.76,1.76,0,0,1,372.48,274.73Z" transform="translate(-265.72 -46.8)"/><path class="cls-3" d="M376.54,272.39a.48.48,0,0,1,0,.9,1.72,1.72,0,0,1-1.56,0,.48.48,0,0,1,0-.9A1.78,1.78,0,0,1,376.54,272.39Z" transform="translate(-265.72 -46.8)"/><path class="cls-3" d="M380.59,270.05a.48.48,0,0,1,0,.9,1.76,1.76,0,0,1-1.55,0,.48.48,0,0,1,0-.9A1.7,1.7,0,0,1,380.59,270.05Z" transform="translate(-265.72 -46.8)"/><path class="cls-3" d="M384.65,267.71a.48.48,0,0,1,0,.9,1.76,1.76,0,0,1-1.55,0,.48.48,0,0,1,0-.9A1.7,1.7,0,0,1,384.65,267.71Z" transform="translate(-265.72 -46.8)"/><path class="cls-3" d="M388.7,265.37c.43.25.43.65,0,.89a1.7,1.7,0,0,1-1.55,0c-.43-.24-.43-.64,0-.89A1.7,1.7,0,0,1,388.7,265.37Z" transform="translate(-265.72 -46.8)"/><ellipse class="cls-3" cx="126.26" cy="216.67" rx="1.1" ry="0.63"/><path class="cls-3" d="M350.65,281.76a1.7,1.7,0,0,1,1.55,0,.48.48,0,0,1,0,.9,1.76,1.76,0,0,1-1.55,0A.48.48,0,0,1,350.65,281.76Z" transform="translate(-265.72 -46.8)"/><path class="cls-3" d="M356.26,279.42a.47.47,0,0,1,0,.89,1.7,1.7,0,0,1-1.55,0,.47.47,0,0,1,0-.89A1.7,1.7,0,0,1,356.26,279.42Z" transform="translate(-265.72 -46.8)"/><path class="cls-3" d="M360.31,277.08c.43.24.43.64,0,.89a1.7,1.7,0,0,1-1.55,0,.47.47,0,0,1,0-.89A1.7,1.7,0,0,1,360.31,277.08Z" transform="translate(-265.72 -46.8)"/><path class="cls-3" d="M364.37,274.73a.48.48,0,0,1,0,.9,1.7,1.7,0,0,1-1.55,0,.48.48,0,0,1,0-.9A1.76,1.76,0,0,1,364.37,274.73Z" transform="translate(-265.72 -46.8)"/><path class="cls-3" d="M368.43,272.39a.48.48,0,0,1,0,.9,1.72,1.72,0,0,1-1.56,0,.48.48,0,0,1,0-.9A1.78,1.78,0,0,1,368.43,272.39Z" transform="translate(-265.72 -46.8)"/><path class="cls-3" d="M372.48,270.05a.48.48,0,0,1,0,.9,1.76,1.76,0,0,1-1.55,0,.48.48,0,0,1,0-.9A1.7,1.7,0,0,1,372.48,270.05Z" transform="translate(-265.72 -46.8)"/><path class="cls-3" d="M376.54,267.71a.48.48,0,0,1,0,.9,1.78,1.78,0,0,1-1.56,0,.48.48,0,0,1,0-.9A1.72,1.72,0,0,1,376.54,267.71Z" transform="translate(-265.72 -46.8)"/><path class="cls-3" d="M380.59,265.37c.43.25.43.65,0,.89a1.7,1.7,0,0,1-1.55,0c-.43-.24-.43-.64,0-.89A1.7,1.7,0,0,1,380.59,265.37Z" transform="translate(-265.72 -46.8)"/><path class="cls-3" d="M384.65,263a.47.47,0,0,1,0,.89,1.7,1.7,0,0,1-1.55,0c-.43-.24-.43-.64,0-.89A1.7,1.7,0,0,1,384.65,263Z" transform="translate(-265.72 -46.8)"/><path class="cls-3" d="M388.7,260.69c.43.24.43.64,0,.89a1.7,1.7,0,0,1-1.55,0c-.43-.25-.43-.65,0-.89A1.7,1.7,0,0,1,388.7,260.69Z" transform="translate(-265.72 -46.8)"/></g><g id="_3" data-name="3"><path class="cls-2" d="M368.14,79.25,314.93,48.52a.88.88,0,0,1-.47-1.24l43.89,3.13c3.48.25,6.11,1.76,6.56,3.76l5.68,25.29A3.49,3.49,0,0,1,368.14,79.25Z" transform="translate(-265.72 -46.8)"/><path class="cls-1" d="M350.21,52.84l16.38,9.71-1.44-5.78a4.56,4.56,0,0,0-2-2.75l-1-.6a6.75,6.75,0,0,0-3.05-1l-8.58-.66A.58.58,0,0,0,350.21,52.84Z" transform="translate(-265.72 -46.8)"/><path class="cls-1" d="M337.08,100.15,283.66,69.3c-.78-.45-.68-1.23.22-1.75l27.9-16.11a3.38,3.38,0,0,1,3-.13l53.42,30.85c.78.45.69,1.23-.21,1.75L340.13,100A3.4,3.4,0,0,1,337.08,100.15Z" transform="translate(-265.72 -46.8)"/><path class="cls-3" d="M338.46,98.09a3.13,3.13,0,0,1-1.56-.37L283.48,66.88a1.35,1.35,0,0,1-.76-1.16,1.68,1.68,0,0,1,1-1.39l27.9-16.11a3.84,3.84,0,0,1,3.5-.13l53.42,30.85a1.34,1.34,0,0,1,.76,1.16,1.71,1.71,0,0,1-1,1.39L340.41,97.6A4.09,4.09,0,0,1,338.46,98.09ZM313.55,48.64a3.17,3.17,0,0,0-1.5.37L284.16,65.12c-.39.22-.52.45-.52.6s.19.3.3.36l53.42,30.85A2.94,2.94,0,0,0,340,96.8l27.9-16.1c.38-.22.51-.46.51-.6s-.18-.31-.29-.37L314.64,48.89A2.14,2.14,0,0,0,313.55,48.64Z" transform="translate(-265.72 -46.8)"/><path class="cls-3" d="M369.6,80a3.38,3.38,0,0,1-1.69-.4L314.7,48.92a1.34,1.34,0,0,1-.64-1.86l.14-.26L358.38,50c3.68.26,6.49,1.92,7,4.12l5.77,25.72-.43.11A4,4,0,0,1,369.6,80Zm-1.23-1.19a2.8,2.8,0,0,0,1.67.25l-5.57-24.83c-.41-1.8-2.88-3.17-6.15-3.41l-43.5-3.1a.62.62,0,0,0,.34.37Z" transform="translate(-265.72 -46.8)"/><polygon class="cls-2" points="42.72 23.77 34.2 18.85 46.07 11.99 54.59 16.91 42.72 23.77"/><path class="cls-3" d="M308.43,71l-9.2-5.31,12.56-7.26L321,63.71Zm-7.83-5.31,7.83,4.52,11.19-6.46-7.83-4.52Z" transform="translate(-265.72 -46.8)"/><polygon class="cls-1" points="42.8 21.78 37.64 18.8 45.98 13.98 51.15 16.96 42.8 21.78"/><path class="cls-3" d="M308.52,69l-5.85-3.37,9-5.22,5.85,3.38ZM304,65.6l4.48,2.58,7.66-4.42-4.48-2.58Z" transform="translate(-265.72 -46.8)"/><polygon class="cls-2" points="47.8 32.79 40.53 28.6 46.65 25.07 53.91 29.26 47.8 32.79"/><path class="cls-3" d="M313.51,80l-7.94-4.59,6.8-3.93,7.95,4.59Zm-6.57-4.59,6.57,3.8,5.43-3.14-6.57-3.8Z" transform="translate(-265.72 -46.8)"/><polygon class="cls-1" points="47.71 31.01 43.62 28.64 46.73 26.85 50.83 29.21 47.71 31.01"/><path class="cls-3" d="M313.43,78.21l-4.78-2.76,3.8-2.2L317.23,76ZM310,75.45l3.41,2,2.43-1.4-3.41-2Z" transform="translate(-265.72 -46.8)"/><path class="cls-3" d="M299.23,68.44a6.6,6.6,0,0,1-3.19-.76,2.11,2.11,0,0,1,0-4,7,7,0,0,1,6.37,0,2.11,2.11,0,0,1,0,4A6.59,6.59,0,0,1,299.23,68.44Zm0-5a6,6,0,0,0-2.94.7,1.63,1.63,0,0,0,0,3.11,6.48,6.48,0,0,0,5.88,0,1.63,1.63,0,0,0,0-3.11A6,6,0,0,0,299.23,63.44Z" transform="translate(-265.72 -46.8)"/><path class="cls-3" d="M299.23,64.2a4.16,4.16,0,0,0-2,.48,1.26,1.26,0,0,0-.76,1,1.29,1.29,0,0,0,.76,1,4.47,4.47,0,0,0,4,0,1.29,1.29,0,0,0,.76-1,1.26,1.26,0,0,0-.76-1A4.12,4.12,0,0,0,299.23,64.2Z" transform="translate(-265.72 -46.8)"/><path class="cls-3" d="M346.16,85.31a13.13,13.13,0,0,1-6.42-1.53c-1.78-1-2.76-2.42-2.76-3.91S338,77,339.74,76a14.23,14.23,0,0,1,12.84,0c1.78,1,2.76,2.42,2.76,3.91s-1,2.88-2.76,3.91h0A13.16,13.16,0,0,1,346.16,85.31Zm0-10.2a12.42,12.42,0,0,0-6.08,1.45c-1.56.9-2.42,2.08-2.42,3.31s.86,2.41,2.42,3.31a13.43,13.43,0,0,0,12.16,0h0c1.56-.9,2.42-2.07,2.42-3.31s-.86-2.41-2.42-3.31A12.42,12.42,0,0,0,346.16,75.11Z" transform="translate(-265.72 -46.8)"/><path class="cls-3" d="M346.16,84a9.9,9.9,0,0,1-4.84-1.16,3.17,3.17,0,0,1,0-6,10.72,10.72,0,0,1,9.68,0,3.17,3.17,0,0,1,0,6h0A9.9,9.9,0,0,1,346.16,84Zm0-7.62a9.27,9.27,0,0,0-4.5,1.07,2.52,2.52,0,0,0,0,4.8,10,10,0,0,0,9,0,2.52,2.52,0,0,0,0-4.8A9.27,9.27,0,0,0,346.16,76.4Z" transform="translate(-265.72 -46.8)"/><path class="cls-2" d="M358.3,73.57l-37-21.36,6.38-3.91a6.81,6.81,0,0,1,6.15-.26L365.12,66.1c1.58.91,1.38,2.5-.44,3.55Z" transform="translate(-265.72 -46.8)"/><path class="cls-1" d="M358.14,73.5,322.67,53.07l4.86-3a6.84,6.84,0,0,1,6.15-.25l29.76,17.13c1.58.91,1.38,2.5-.44,3.55Z" transform="translate(-265.72 -46.8)"/><path class="cls-3" d="M358.3,74,320.64,52.21,327.53,48a7.21,7.21,0,0,1,6.49-.26L365.3,65.8a2.17,2.17,0,0,1,1.23,1.84A2.87,2.87,0,0,1,364.85,70ZM322,52.21l36.29,21,6.21-3.82c.85-.49,1.34-1.11,1.34-1.71a1.5,1.5,0,0,0-.9-1.25l-31.27-18a6.47,6.47,0,0,0-5.81.25Z" transform="translate(-265.72 -46.8)"/><path class="cls-3" d="M346.08,79.83l-.42-.73,1.73-1c.28-.15.43-.35.43-.52s-.15-.38-.43-.53l-.23-.14a3,3,0,0,0-2.68,0l-.18.11a3.84,3.84,0,0,1-3.52,0l-.23-.13a1.49,1.49,0,0,1-.85-1.26,1.47,1.47,0,0,1,.85-1.26l.18-.11c.28-.16.43-.35.43-.53s-.15-.37-.43-.53l-.13-.08a3,3,0,0,0-2.68,0l-.19.11a3.84,3.84,0,0,1-3.52,0,1.49,1.49,0,0,1-.85-1.26,1.47,1.47,0,0,1,.85-1.26l.18-.11c.28-.16.43-.35.43-.53s-.15-.37-.43-.53l-.18-.11a3,3,0,0,0-2.68,0l-1.73,1-.43-.74,1.74-1a3.84,3.84,0,0,1,3.52,0l.18.11a1.35,1.35,0,0,1,0,2.52l-.18.11c-.27.15-.43.35-.43.53s.16.37.43.53a3,3,0,0,0,2.68,0l.18-.11a3.86,3.86,0,0,1,3.53,0l.13.08a1.35,1.35,0,0,1,0,2.52l-.18.11c-.27.15-.43.35-.43.53s.16.37.43.53l.23.13a3,3,0,0,0,2.68,0l.18-.11a3.86,3.86,0,0,1,3.53,0l.22.13a1.36,1.36,0,0,1,0,2.53Z" transform="translate(-265.72 -46.8)"/><path class="cls-2" d="M338.48,92.4l-.37-.64,1.52-.88c.24-.14.38-.31.38-.47s-.14-.32-.38-.46l-.2-.12a2.63,2.63,0,0,0-2.35,0l-.16.1a3.39,3.39,0,0,1-3.1,0l-.2-.12a1.31,1.31,0,0,1-.75-1.11,1.3,1.3,0,0,1,.75-1.1l.16-.1c.24-.14.38-.31.38-.46s-.14-.33-.38-.47l-.12-.07a2.63,2.63,0,0,0-2.35,0l-.16.1a3.37,3.37,0,0,1-3.09,0,1.2,1.2,0,0,1,0-2.22l.16-.09c.24-.14.38-.31.37-.47s-.13-.32-.37-.46l-.16-.09a2.65,2.65,0,0,0-2.36,0l-1.52.87-.37-.64,1.52-.88a3.39,3.39,0,0,1,3.1,0l.16.1a1.3,1.3,0,0,1,.75,1.1,1.31,1.31,0,0,1-.75,1.11l-.16.09c-.24.14-.38.31-.38.47s.14.32.38.46a2.63,2.63,0,0,0,2.35,0l.16-.09a3.37,3.37,0,0,1,3.09,0l.12.07A1.29,1.29,0,0,1,334.9,87a1.28,1.28,0,0,1-.75,1.1l-.16.1c-.24.14-.37.31-.37.46s.13.33.37.47l.2.11a2.65,2.65,0,0,0,2.36,0l.16-.09a3.37,3.37,0,0,1,3.09,0l.2.12a1.19,1.19,0,0,1,0,2.21Z" transform="translate(-265.72 -46.8)"/><rect class="cls-3" x="356.76" y="44.55" width="0.77" height="21.5" transform="translate(-138.32 287.47) rotate(-59.33)"/><path class="cls-3" d="M323,99.43a.48.48,0,0,1,0,.9,1.76,1.76,0,0,1-1.55,0,.48.48,0,0,1,0-.9A1.7,1.7,0,0,1,323,99.43Z" transform="translate(-265.72 -46.8)"/><path class="cls-3" d="M327.08,97.09a.48.48,0,0,1,0,.9,1.76,1.76,0,0,1-1.55,0,.48.48,0,0,1,0-.9A1.7,1.7,0,0,1,327.08,97.09Z" transform="translate(-265.72 -46.8)"/><path class="cls-3" d="M319,97.09a.48.48,0,0,1,0,.9,1.76,1.76,0,0,1-1.55,0,.48.48,0,0,1,0-.9A1.7,1.7,0,0,1,319,97.09Z" transform="translate(-265.72 -46.8)"/><path class="cls-3" d="M323,94.75c.43.25.43.65,0,.89a1.7,1.7,0,0,1-1.55,0c-.43-.24-.43-.64,0-.89A1.7,1.7,0,0,1,323,94.75Z" transform="translate(-265.72 -46.8)"/><path class="cls-3" d="M314.92,94.75c.43.25.43.65,0,.89a1.7,1.7,0,0,1-1.55,0c-.43-.24-.43-.64,0-.89A1.7,1.7,0,0,1,314.92,94.75Z" transform="translate(-265.72 -46.8)"/><path class="cls-3" d="M319,92.41c.43.25.43.65,0,.89a1.7,1.7,0,0,1-1.55,0,.47.47,0,0,1,0-.89A1.7,1.7,0,0,1,319,92.41Z" transform="translate(-265.72 -46.8)"/><path class="cls-3" d="M310.86,92.41c.43.25.43.65,0,.89a1.7,1.7,0,0,1-1.55,0c-.43-.24-.43-.64,0-.89A1.7,1.7,0,0,1,310.86,92.41Z" transform="translate(-265.72 -46.8)"/><path class="cls-3" d="M314.92,90.07c.43.24.43.64,0,.89a1.7,1.7,0,0,1-1.55,0c-.43-.25-.43-.65,0-.89A1.7,1.7,0,0,1,314.92,90.07Z" transform="translate(-265.72 -46.8)"/><path class="cls-3" d="M306.81,90.07c.43.24.43.64,0,.89a1.7,1.7,0,0,1-1.55,0c-.43-.25-.43-.65,0-.89A1.7,1.7,0,0,1,306.81,90.07Z" transform="translate(-265.72 -46.8)"/><path class="cls-3" d="M310.86,87.73c.43.24.43.64,0,.89a1.7,1.7,0,0,1-1.55,0c-.43-.25-.43-.65,0-.89A1.7,1.7,0,0,1,310.86,87.73Z" transform="translate(-265.72 -46.8)"/><path class="cls-3" d="M302.72,87.7a.48.48,0,0,1,0,.9,1.76,1.76,0,0,1-1.55,0,.48.48,0,0,1,0-.9A1.7,1.7,0,0,1,302.72,87.7Z" transform="translate(-265.72 -46.8)"/><path class="cls-3" d="M306.77,85.36c.43.25.43.65,0,.89a1.7,1.7,0,0,1-1.55,0c-.43-.24-.43-.64,0-.89A1.7,1.7,0,0,1,306.77,85.36Z" transform="translate(-265.72 -46.8)"/><path class="cls-3" d="M298.66,85.36c.43.25.43.65,0,.89a1.7,1.7,0,0,1-1.55,0c-.43-.24-.43-.64,0-.89A1.7,1.7,0,0,1,298.66,85.36Z" transform="translate(-265.72 -46.8)"/><path class="cls-3" d="M302.72,83c.43.25.43.65,0,.89a1.7,1.7,0,0,1-1.55,0c-.43-.24-.43-.64,0-.89A1.7,1.7,0,0,1,302.72,83Z" transform="translate(-265.72 -46.8)"/><path class="cls-3" d="M294.61,83c.43.25.43.65,0,.89a1.7,1.7,0,0,1-1.55,0c-.43-.24-.43-.64,0-.89A1.7,1.7,0,0,1,294.61,83Z" transform="translate(-265.72 -46.8)"/><path class="cls-3" d="M298.66,80.68c.43.24.43.64,0,.89a1.7,1.7,0,0,1-1.55,0c-.43-.25-.43-.65,0-.89A1.7,1.7,0,0,1,298.66,80.68Z" transform="translate(-265.72 -46.8)"/><path class="cls-3" d="M290.55,80.68c.43.24.43.64,0,.89a1.7,1.7,0,0,1-1.55,0c-.43-.25-.43-.65,0-.89A1.7,1.7,0,0,1,290.55,80.68Z" transform="translate(-265.72 -46.8)"/><path class="cls-3" d="M294.61,78.34c.43.24.43.64,0,.89a1.7,1.7,0,0,1-1.55,0c-.43-.25-.43-.65,0-.89A1.7,1.7,0,0,1,294.61,78.34Z" transform="translate(-265.72 -46.8)"/><path class="cls-3" d="M286.5,78.34c.43.24.43.64,0,.89a1.7,1.7,0,0,1-1.55,0c-.43-.25-.43-.65,0-.89A1.7,1.7,0,0,1,286.5,78.34Z" transform="translate(-265.72 -46.8)"/><path class="cls-3" d="M290.55,76a.48.48,0,0,1,0,.9,1.7,1.7,0,0,1-1.55,0,.48.48,0,0,1,0-.9A1.76,1.76,0,0,1,290.55,76Z" transform="translate(-265.72 -46.8)"/><path class="cls-3" d="M282.44,76a.48.48,0,0,1,0,.9,1.7,1.7,0,0,1-1.55,0,.48.48,0,0,1,0-.9A1.76,1.76,0,0,1,282.44,76Z" transform="translate(-265.72 -46.8)"/><path class="cls-3" d="M286.5,73.65a.48.48,0,0,1,0,.9,1.7,1.7,0,0,1-1.55,0,.48.48,0,0,1,0-.9A1.76,1.76,0,0,1,286.5,73.65Z" transform="translate(-265.72 -46.8)"/><path class="cls-3" d="M282.44,71.31a.48.48,0,0,1,0,.9,1.76,1.76,0,0,1-1.55,0,.48.48,0,0,1,0-.9A1.7,1.7,0,0,1,282.44,71.31Z" transform="translate(-265.72 -46.8)"/><path class="cls-3" d="M347.55,108.45a.47.47,0,0,1,0,.89,1.7,1.7,0,0,1-1.55,0,.47.47,0,0,1,0-.89A1.7,1.7,0,0,1,347.55,108.45Z" transform="translate(-265.72 -46.8)"/><ellipse class="cls-3" cx="85.12" cy="59.75" rx="1.1" ry="0.63"/><ellipse class="cls-3" cx="89.17" cy="57.41" rx="1.1" ry="0.63"/><path class="cls-3" d="M339.41,108.42a.48.48,0,0,1,0,.9,1.76,1.76,0,0,1-1.55,0,.48.48,0,0,1,0-.9A1.7,1.7,0,0,1,339.41,108.42Z" transform="translate(-265.72 -46.8)"/><ellipse class="cls-3" cx="76.97" cy="59.73" rx="1.1" ry="0.63"/><path class="cls-3" d="M347.52,103.74a.48.48,0,0,1,0,.9,1.76,1.76,0,0,1-1.55,0,.48.48,0,0,1,0-.9A1.7,1.7,0,0,1,347.52,103.74Z" transform="translate(-265.72 -46.8)"/><path class="cls-3" d="M351.58,101.4a.47.47,0,0,1,0,.89,1.72,1.72,0,0,1-1.56,0,.47.47,0,0,1,0-.89A1.72,1.72,0,0,1,351.58,101.4Z" transform="translate(-265.72 -46.8)"/><path class="cls-3" d="M335.35,106.08a.48.48,0,0,1,0,.9,1.76,1.76,0,0,1-1.55,0,.48.48,0,0,1,0-.9A1.7,1.7,0,0,1,335.35,106.08Z" transform="translate(-265.72 -46.8)"/><path class="cls-3" d="M339.41,103.74a.48.48,0,0,1,0,.9,1.76,1.76,0,0,1-1.55,0,.48.48,0,0,1,0-.9A1.7,1.7,0,0,1,339.41,103.74Z" transform="translate(-265.72 -46.8)"/><path class="cls-3" d="M343.46,101.4c.43.25.43.65,0,.89a1.7,1.7,0,0,1-1.55,0,.47.47,0,0,1,0-.89A1.7,1.7,0,0,1,343.46,101.4Z" transform="translate(-265.72 -46.8)"/><path class="cls-3" d="M347.52,99.06a.47.47,0,0,1,0,.89,1.7,1.7,0,0,1-1.55,0,.47.47,0,0,1,0-.89A1.7,1.7,0,0,1,347.52,99.06Z" transform="translate(-265.72 -46.8)"/><path class="cls-3" d="M331.3,103.74a.48.48,0,0,1,0,.9,1.76,1.76,0,0,1-1.55,0,.48.48,0,0,1,0-.9A1.7,1.7,0,0,1,331.3,103.74Z" transform="translate(-265.72 -46.8)"/><path class="cls-3" d="M335.35,101.4c.43.25.43.65,0,.89a1.7,1.7,0,0,1-1.55,0c-.43-.24-.43-.64,0-.89A1.7,1.7,0,0,1,335.35,101.4Z" transform="translate(-265.72 -46.8)"/><path class="cls-3" d="M327.24,101.4c.43.25.43.65,0,.89a1.7,1.7,0,0,1-1.55,0c-.43-.24-.43-.64,0-.89A1.7,1.7,0,0,1,327.24,101.4Z" transform="translate(-265.72 -46.8)"/><path class="cls-3" d="M331.3,99.06a.47.47,0,0,1,0,.89,1.7,1.7,0,0,1-1.55,0,.47.47,0,0,1,0-.89A1.7,1.7,0,0,1,331.3,99.06Z" transform="translate(-265.72 -46.8)"/><path class="cls-3" d="M358.18,101.46a1.73,1.73,0,0,1,1.55,0,.48.48,0,0,1,0,.9,1.7,1.7,0,0,1-1.55,0C357.75,102.1,357.75,101.7,358.18,101.46Z" transform="translate(-265.72 -46.8)"/><path class="cls-3" d="M363.79,99.11a.48.48,0,0,1,0,.9,1.76,1.76,0,0,1-1.55,0,.48.48,0,0,1,0-.9A1.7,1.7,0,0,1,363.79,99.11Z" transform="translate(-265.72 -46.8)"/><path class="cls-3" d="M367.84,96.77a.48.48,0,0,1,0,.9,1.76,1.76,0,0,1-1.55,0,.48.48,0,0,1,0-.9A1.7,1.7,0,0,1,367.84,96.77Z" transform="translate(-265.72 -46.8)"/><path class="cls-3" d="M371.9,94.43c.43.25.43.65,0,.89a1.7,1.7,0,0,1-1.55,0c-.43-.24-.43-.64,0-.89A1.7,1.7,0,0,1,371.9,94.43Z" transform="translate(-265.72 -46.8)"/><path class="cls-3" d="M376,92.09c.43.25.43.65,0,.89a1.7,1.7,0,0,1-1.55,0c-.43-.24-.43-.64,0-.89A1.7,1.7,0,0,1,376,92.09Z" transform="translate(-265.72 -46.8)"/><path class="cls-3" d="M354.09,99.09a1.7,1.7,0,0,1,1.55,0c.43.25.43.65,0,.89a1.73,1.73,0,0,1-1.55,0A.48.48,0,0,1,354.09,99.09Z" transform="translate(-265.72 -46.8)"/><path class="cls-3" d="M359.7,96.75c.43.24.43.64,0,.89a1.7,1.7,0,0,1-1.55,0c-.43-.25-.43-.65,0-.89A1.7,1.7,0,0,1,359.7,96.75Z" transform="translate(-265.72 -46.8)"/><path class="cls-3" d="M363.75,94.4a.48.48,0,0,1,0,.9,1.7,1.7,0,0,1-1.55,0,.48.48,0,0,1,0-.9A1.76,1.76,0,0,1,363.75,94.4Z" transform="translate(-265.72 -46.8)"/><path class="cls-3" d="M367.81,92.06a.48.48,0,0,1,0,.9,1.7,1.7,0,0,1-1.55,0,.48.48,0,0,1,0-.9A1.76,1.76,0,0,1,367.81,92.06Z" transform="translate(-265.72 -46.8)"/><path class="cls-3" d="M371.86,89.72a.48.48,0,0,1,0,.9,1.76,1.76,0,0,1-1.55,0,.48.48,0,0,1,0-.9A1.7,1.7,0,0,1,371.86,89.72Z" transform="translate(-265.72 -46.8)"/><path class="cls-3" d="M375.92,87.38a.48.48,0,0,1,0,.9,1.76,1.76,0,0,1-1.55,0,.48.48,0,0,1,0-.9A1.7,1.7,0,0,1,375.92,87.38Z" transform="translate(-265.72 -46.8)"/><path class="cls-3" d="M350,96.75a1.7,1.7,0,0,1,1.55,0,.47.47,0,0,1,0,.89,1.72,1.72,0,0,1-1.56,0A.47.47,0,0,1,350,96.75Z" transform="translate(-265.72 -46.8)"/><path class="cls-3" d="M355.64,94.4a.48.48,0,0,1,0,.9,1.7,1.7,0,0,1-1.55,0,.48.48,0,0,1,0-.9A1.76,1.76,0,0,1,355.64,94.4Z" transform="translate(-265.72 -46.8)"/><path class="cls-3" d="M359.7,92.06a.48.48,0,0,1,0,.9,1.7,1.7,0,0,1-1.55,0,.48.48,0,0,1,0-.9A1.76,1.76,0,0,1,359.7,92.06Z" transform="translate(-265.72 -46.8)"/><path class="cls-3" d="M363.75,89.72a.48.48,0,0,1,0,.9,1.76,1.76,0,0,1-1.55,0,.48.48,0,0,1,0-.9A1.7,1.7,0,0,1,363.75,89.72Z" transform="translate(-265.72 -46.8)"/><path class="cls-3" d="M367.81,87.38a.48.48,0,0,1,0,.9,1.76,1.76,0,0,1-1.55,0,.48.48,0,0,1,0-.9A1.7,1.7,0,0,1,367.81,87.38Z" transform="translate(-265.72 -46.8)"/><path class="cls-3" d="M371.86,85a.48.48,0,0,1,0,.9,1.76,1.76,0,0,1-1.55,0,.48.48,0,0,1,0-.9A1.7,1.7,0,0,1,371.86,85Z" transform="translate(-265.72 -46.8)"/></g><g id="_2" data-name="2"><polygon class="cls-2" points="304.49 94.25 259.96 119.88 194.14 81.87 238.66 56.24 304.49 94.25"/><polygon class="cls-1" points="304.49 97.63 259.96 123.26 194.14 85.25 238.66 59.62 304.49 97.63"/><polygon class="cls-2" points="194.14 81.87 194.14 120.74 259.96 158.74 259.96 119.88 194.14 81.87"/><polygon class="cls-2" points="217.98 98.13 230.76 105.51 269.35 82.76 256.95 75.49 217.98 98.13"/><path class="cls-3" d="M570.2,140.44l-65.82-38h0l-44.52,25.63-.53.31v39.47l65.82,38,.53.3.53-.3,44.52-25.63V140.74Zm-45.05,64.18-64.76-37.39V129.59L525.15,167Zm-64.23-75.94,43.46-25,64.76,37.39-17.85,10.28-25.61,14.74Z" transform="translate(-265.72 -46.8)"/><path class="cls-4" d="M537.11,126.84l-14-8.18-39.76,23.09-.4-.23V142l-.4.23.4.23v38.91l14.37,8.3V150.28Zm-14-7.26,12.4,7.26L497,149.59l-12.78-7.38Zm-39.37,61.31v-38l12.79,7.38v38Z" transform="translate(-265.72 -46.8)"/><path class="cls-2" d="M502,120.14l-9.34,5.39,11.09,6.4,9.33-5.39Zm1.62,9.07-6.25-3.61,4.75-2.74,6.25,3.61Z" transform="translate(-265.72 -46.8)"/><path class="cls-3" d="M503.65,129.78l-7.23-4.18,5.73-3.3,7.23,4.17Zm-5.27-4.18,5.27,3.05,3.77-2.18-5.27-3Z" transform="translate(-265.72 -46.8)"/><path class="cls-3" d="M503.78,132.5l-12.07-7,10.32-6,12.06,7Zm-10.11-7,10.11,5.84,8.36-4.83L502,120.71Z" transform="translate(-265.72 -46.8)"/><path class="cls-2" d="M550.36,145.42l-.48-.83,2-1.14c.31-.18.49-.39.49-.6s-.18-.42-.49-.6l-.26-.15a3.43,3.43,0,0,0-3,0l-.21.12a4.33,4.33,0,0,1-4,0l-.26-.15a1.53,1.53,0,0,1,0-2.85l.2-.12c.31-.18.49-.4.49-.6s-.18-.43-.49-.61l-.15-.08a3.39,3.39,0,0,0-3,0l-.2.11a4.35,4.35,0,0,1-4,0,1.53,1.53,0,0,1,0-2.85l.21-.12c.31-.18.49-.4.49-.6s-.18-.42-.49-.6l-.21-.12a3.39,3.39,0,0,0-3,0l-2,1.13-.48-.83,2-1.13a4.33,4.33,0,0,1,4,0l.21.12a1.55,1.55,0,0,1,0,2.86l-.21.12c-.31.17-.49.39-.49.6s.18.42.49.6a3.45,3.45,0,0,0,3,0l.2-.12a4.35,4.35,0,0,1,4,0l.15.09a1.53,1.53,0,0,1,0,2.85l-.2.12c-.31.18-.49.4-.49.6s.18.43.49.61l.25.14a3.39,3.39,0,0,0,3,0l.21-.12a4.39,4.39,0,0,1,4,0l.26.15a1.54,1.54,0,0,1,0,2.86Z" transform="translate(-265.72 -46.8)"/><polygon class="cls-2" points="261.83 111.06 250.53 104.53 266.28 95.44 277.58 101.96 261.83 111.06"/><path class="cls-3" d="M527.55,158.42l-12.28-7.08L532,141.68l12.28,7.09Zm-10.32-7.08,10.32,5.95,14.77-8.52-10.32-6Z" transform="translate(-265.72 -46.8)"/><polygon class="cls-1" points="261.95 108.42 255.1 104.47 266.17 98.08 273.01 102.03 261.95 108.42"/><path class="cls-3" d="M527.67,155.79l-7.83-4.52,12-7,7.83,4.52Zm-5.87-4.52,5.87,3.39,10.08-5.83-5.87-3.39Z" transform="translate(-265.72 -46.8)"/><path class="cls-3" d="M486.78,132.69a13.07,13.07,0,0,1-6.37-1.52c-1.79-1-2.78-2.44-2.78-4s1-2.92,2.78-4a14.13,14.13,0,0,1,12.73,0c1.79,1,2.78,2.44,2.78,4s-1,2.92-2.78,4A13,13,0,0,1,486.78,132.69Zm0-10a12.08,12.08,0,0,0-5.88,1.4c-1.47.85-2.29,2-2.29,3.11s.82,2.26,2.29,3.11a13,13,0,0,0,11.75,0c1.48-.85,2.29-2,2.29-3.11s-.81-2.26-2.29-3.11A12,12,0,0,0,486.78,122.7Z" transform="translate(-265.72 -46.8)"/><path class="cls-3" d="M486.78,131.18a9.17,9.17,0,0,1-4.51-1.08,3.08,3.08,0,0,1,0-5.78,10,10,0,0,1,9,0,3.08,3.08,0,0,1,0,5.78A9.2,9.2,0,0,1,486.78,131.18Zm0-7a8.25,8.25,0,0,0-4,1,2.13,2.13,0,0,0,0,4.08,8.92,8.92,0,0,0,8.05,0,2.13,2.13,0,0,0,0-4.08A8.24,8.24,0,0,0,486.78,124.21Z" transform="translate(-265.72 -46.8)"/><path class="cls-3" d="M539.14,138.46l-.53-.9,2.16-1.25c.34-.2.53-.44.53-.66s-.19-.46-.53-.66l-.29-.16a3.75,3.75,0,0,0-3.33,0l-.23.13a4.77,4.77,0,0,1-4.38,0l-.28-.16a1.85,1.85,0,0,1-1.06-1.57,1.83,1.83,0,0,1,1.06-1.57l.23-.13c.34-.2.53-.44.53-.66s-.19-.46-.54-.66l-.17-.1a3.75,3.75,0,0,0-3.33,0l-.23.13a4.77,4.77,0,0,1-4.38,0,1.69,1.69,0,0,1,0-3.13l.23-.13c.34-.2.54-.44.53-.66s-.19-.47-.53-.66l-.23-.13a3.69,3.69,0,0,0-3.33,0l-2.16,1.24-.52-.91,2.15-1.24a4.79,4.79,0,0,1,4.39,0l.22.13a1.83,1.83,0,0,1,1.06,1.57,1.81,1.81,0,0,1-1.06,1.56l-.22.14c-.34.19-.54.43-.54.65s.2.47.54.66a3.69,3.69,0,0,0,3.33,0l.23-.13a4.77,4.77,0,0,1,4.38,0l.17.1a1.69,1.69,0,0,1,0,3.14l-.23.13c-.34.2-.53.44-.53.66s.19.46.53.66l.29.16a3.75,3.75,0,0,0,3.33,0l.23-.13a4.77,4.77,0,0,1,4.38,0l.28.16a1.69,1.69,0,0,1,0,3.14Z" transform="translate(-265.72 -46.8)"/><polygon class="cls-2" points="239.09 140.21 226.24 132.79 226.24 113.01 239.09 120.43 239.09 140.21"/><path class="cls-3" d="M505.2,187.7l-13.64-7.88V159.13L505.2,167Zm-12.85-8.34,12.06,7V167.46l-12.06-7Z" transform="translate(-265.72 -46.8)"/><polygon class="cls-1" points="237.77 137.62 229.32 132.74 229.32 118.61 237.77 123.48 237.77 137.62"/><path class="cls-3" d="M503,183.61l-9.24-5.34V163.22l9.24,5.34Zm-8.45-5.8,7.66,4.42V169l-7.66-4.42Z" transform="translate(-265.72 -46.8)"/><ellipse class="cls-1" cx="472.74" cy="164.93" rx="4.11" ry="7.13" transform="translate(-284.85 211.66) rotate(-30)"/><path class="cls-3" d="M471.47,169.32a13.66,13.66,0,0,1-6.15-10.67c0-3.92,2.76-5.52,6.15-3.56a13.63,13.63,0,0,1,6.16,10.67C477.63,169.68,474.87,171.28,471.47,169.32Zm0-13.43c-3-1.74-5.47-.33-5.47,3.16a12.12,12.12,0,0,0,5.47,9.47c3,1.74,5.47.33,5.47-3.16A12.09,12.09,0,0,0,471.47,155.89Z" transform="translate(-265.72 -46.8)"/><path class="cls-3" d="M471.47,167.52a10.06,10.06,0,0,1-4.55-7.88c0-2.9,2-4.08,4.55-2.63A10.09,10.09,0,0,1,476,164.9C476,167.79,474,169,471.47,167.52Zm0-9.71c-2.13-1.23-3.86-.23-3.86,2.23a8.55,8.55,0,0,0,3.86,6.69c2.14,1.23,3.87.23,3.87-2.23A8.53,8.53,0,0,0,471.47,157.81Z" transform="translate(-265.72 -46.8)"/><path class="cls-3" d="M505.42,190.72a13.66,13.66,0,0,1-6.16-10.67c0-3.92,2.77-5.51,6.16-3.55a13.61,13.61,0,0,1,6.16,10.66C511.58,191.08,508.82,192.68,505.42,190.72Zm0-13.43c-3-1.74-5.47-.32-5.47,3.16a12.12,12.12,0,0,0,5.47,9.47c3,1.74,5.47.33,5.47-3.15A12.09,12.09,0,0,0,505.42,177.29Z" transform="translate(-265.72 -46.8)"/><path class="cls-3" d="M505.42,188.93a10.08,10.08,0,0,1-4.55-7.89c0-2.9,2-4.08,4.55-2.63A10.08,10.08,0,0,1,510,186.3C510,189.2,507.93,190.37,505.42,188.93Zm0-9.72c-2.13-1.23-3.86-.23-3.86,2.23a8.55,8.55,0,0,0,3.86,6.69c2.13,1.23,3.87.23,3.87-2.23A8.56,8.56,0,0,0,505.42,179.21Z" transform="translate(-265.72 -46.8)"/><polygon class="cls-2" points="294.13 139.82 294.13 121.97 282.62 128.64 282.62 146.44 283.51 145.93 283.51 129.15 293.24 123.52 293.24 140.33 294.13 139.82"/><path class="cls-2" d="M540.37,186.23h-.66v-.29a2.27,2.27,0,0,1,1-1.78l.48-.28a.84.84,0,0,1,.91-.06.94.94,0,0,1,.41.85c0,.14,0,.23.07.25s.13,0,.25-.06l.53-.32a1.59,1.59,0,0,0,.65-1.18,2.25,2.25,0,0,1,1-1.77l.46-.27a.84.84,0,0,1,.91-.06,1,1,0,0,1,.4.85c0,.14,0,.23.08.25s.12,0,.24-.06l.39-.23a1.59,1.59,0,0,0,.65-1.18,2.25,2.25,0,0,1,1-1.77l.46-.28a.89.89,0,0,1,.91-.06,1,1,0,0,1,.4.85V180h-.66v-.39a.35.35,0,0,0-.07-.25s-.13,0-.25.06l-.46.28a1.57,1.57,0,0,0-.65,1.17,2.27,2.27,0,0,1-1,1.78l-.39.23a.89.89,0,0,1-.91.06,1,1,0,0,1-.4-.85.38.38,0,0,0-.07-.26s-.13,0-.25.06l-.46.28a1.56,1.56,0,0,0-.65,1.17,2.25,2.25,0,0,1-1,1.78l-.53.32a.89.89,0,0,1-.91.06,1,1,0,0,1-.4-.85c0-.15,0-.24-.08-.26s-.13,0-.25.06l-.48.29a1.59,1.59,0,0,0-.65,1.18Z" transform="translate(-265.72 -46.8)"/><path class="cls-3" d="M506.41,206.46a.47.47,0,0,1,0,.89,1.7,1.7,0,0,1-1.55,0c-.43-.25-.43-.65,0-.89A1.7,1.7,0,0,1,506.41,206.46Z" transform="translate(-265.72 -46.8)"/><path class="cls-3" d="M510.46,204.11a.48.48,0,0,1,0,.9,1.7,1.7,0,0,1-1.55,0,.48.48,0,0,1,0-.9A1.76,1.76,0,0,1,510.46,204.11Z" transform="translate(-265.72 -46.8)"/><path class="cls-3" d="M514.52,201.77a.48.48,0,0,1,0,.9,1.7,1.7,0,0,1-1.55,0,.48.48,0,0,1,0-.9A1.76,1.76,0,0,1,514.52,201.77Z" transform="translate(-265.72 -46.8)"/><path class="cls-3" d="M502.35,204.11a.48.48,0,0,1,0,.9,1.7,1.7,0,0,1-1.55,0,.48.48,0,0,1,0-.9A1.76,1.76,0,0,1,502.35,204.11Z" transform="translate(-265.72 -46.8)"/><path class="cls-3" d="M506.41,201.77a.48.48,0,0,1,0,.9,1.7,1.7,0,0,1-1.55,0,.48.48,0,0,1,0-.9A1.76,1.76,0,0,1,506.41,201.77Z" transform="translate(-265.72 -46.8)"/><path class="cls-3" d="M510.46,199.43a.48.48,0,0,1,0,.9,1.76,1.76,0,0,1-1.55,0,.48.48,0,0,1,0-.9A1.7,1.7,0,0,1,510.46,199.43Z" transform="translate(-265.72 -46.8)"/><path class="cls-3" d="M498.3,201.77a.48.48,0,0,1,0,.9,1.72,1.72,0,0,1-1.56,0,.48.48,0,0,1,0-.9A1.78,1.78,0,0,1,498.3,201.77Z" transform="translate(-265.72 -46.8)"/><path class="cls-3" d="M502.35,199.43a.48.48,0,0,1,0,.9,1.76,1.76,0,0,1-1.55,0,.48.48,0,0,1,0-.9A1.7,1.7,0,0,1,502.35,199.43Z" transform="translate(-265.72 -46.8)"/><path class="cls-3" d="M506.41,197.09a.48.48,0,0,1,0,.9,1.76,1.76,0,0,1-1.55,0,.48.48,0,0,1,0-.9A1.7,1.7,0,0,1,506.41,197.09Z" transform="translate(-265.72 -46.8)"/><path class="cls-3" d="M494.24,199.43a.48.48,0,0,1,0,.9,1.76,1.76,0,0,1-1.55,0,.48.48,0,0,1,0-.9A1.7,1.7,0,0,1,494.24,199.43Z" transform="translate(-265.72 -46.8)"/><path class="cls-3" d="M498.3,197.09a.48.48,0,0,1,0,.9,1.78,1.78,0,0,1-1.56,0,.48.48,0,0,1,0-.9A1.72,1.72,0,0,1,498.3,197.09Z" transform="translate(-265.72 -46.8)"/><path class="cls-3" d="M502.35,194.75c.43.25.43.65,0,.89a1.7,1.7,0,0,1-1.55,0c-.43-.24-.43-.64,0-.89A1.7,1.7,0,0,1,502.35,194.75Z" transform="translate(-265.72 -46.8)"/><path class="cls-3" d="M490.19,197.09a.48.48,0,0,1,0,.9,1.78,1.78,0,0,1-1.56,0,.48.48,0,0,1,0-.9A1.72,1.72,0,0,1,490.19,197.09Z" transform="translate(-265.72 -46.8)"/><path class="cls-3" d="M494.24,194.75c.43.25.43.65,0,.89a1.7,1.7,0,0,1-1.55,0c-.43-.24-.43-.64,0-.89A1.7,1.7,0,0,1,494.24,194.75Z" transform="translate(-265.72 -46.8)"/><path class="cls-3" d="M498.3,192.41a.47.47,0,0,1,0,.89,1.72,1.72,0,0,1-1.56,0,.47.47,0,0,1,0-.89A1.72,1.72,0,0,1,498.3,192.41Z" transform="translate(-265.72 -46.8)"/><ellipse class="cls-3" cx="219.6" cy="148.37" rx="1.1" ry="0.63"/><path class="cls-3" d="M490.15,192.38a.48.48,0,0,1,0,.9,1.7,1.7,0,0,1-1.55,0,.48.48,0,0,1,0-.9A1.76,1.76,0,0,1,490.15,192.38Z" transform="translate(-265.72 -46.8)"/><path class="cls-3" d="M494.21,190a.48.48,0,0,1,0,.9,1.78,1.78,0,0,1-1.56,0,.48.48,0,0,1,0-.9A1.72,1.72,0,0,1,494.21,190Z" transform="translate(-265.72 -46.8)"/><path class="cls-3" d="M482,192.38a.48.48,0,0,1,0,.9,1.7,1.7,0,0,1-1.55,0,.48.48,0,0,1,0-.9A1.76,1.76,0,0,1,482,192.38Z" transform="translate(-265.72 -46.8)"/><path class="cls-3" d="M486.09,190a.48.48,0,0,1,0,.9,1.76,1.76,0,0,1-1.55,0,.48.48,0,0,1,0-.9A1.7,1.7,0,0,1,486.09,190Z" transform="translate(-265.72 -46.8)"/><path class="cls-3" d="M490.15,187.7a.48.48,0,0,1,0,.9,1.76,1.76,0,0,1-1.55,0,.48.48,0,0,1,0-.9A1.7,1.7,0,0,1,490.15,187.7Z" transform="translate(-265.72 -46.8)"/><path class="cls-3" d="M478,190a.48.48,0,0,1,0,.9,1.76,1.76,0,0,1-1.55,0,.48.48,0,0,1,0-.9A1.7,1.7,0,0,1,478,190Z" transform="translate(-265.72 -46.8)"/><path class="cls-3" d="M482,187.7a.48.48,0,0,1,0,.9,1.76,1.76,0,0,1-1.55,0,.48.48,0,0,1,0-.9A1.7,1.7,0,0,1,482,187.7Z" transform="translate(-265.72 -46.8)"/><path class="cls-3" d="M486.09,185.36c.43.25.43.65,0,.89a1.7,1.7,0,0,1-1.55,0,.47.47,0,0,1,0-.89A1.7,1.7,0,0,1,486.09,185.36Z" transform="translate(-265.72 -46.8)"/><path class="cls-3" d="M473.93,187.7a.48.48,0,0,1,0,.9,1.76,1.76,0,0,1-1.55,0,.48.48,0,0,1,0-.9A1.7,1.7,0,0,1,473.93,187.7Z" transform="translate(-265.72 -46.8)"/><path class="cls-3" d="M478,185.36c.43.25.43.65,0,.89a1.7,1.7,0,0,1-1.55,0,.47.47,0,0,1,0-.89A1.7,1.7,0,0,1,478,185.36Z" transform="translate(-265.72 -46.8)"/><path class="cls-3" d="M482,183c.43.25.43.65,0,.89a1.7,1.7,0,0,1-1.55,0c-.43-.24-.43-.64,0-.89A1.7,1.7,0,0,1,482,183Z" transform="translate(-265.72 -46.8)"/><path class="cls-3" d="M469.87,185.36c.43.25.43.65,0,.89a1.7,1.7,0,0,1-1.55,0c-.43-.24-.43-.64,0-.89A1.7,1.7,0,0,1,469.87,185.36Z" transform="translate(-265.72 -46.8)"/><path class="cls-3" d="M473.93,183c.43.25.43.65,0,.89a1.7,1.7,0,0,1-1.55,0c-.43-.24-.43-.64,0-.89A1.7,1.7,0,0,1,473.93,183Z" transform="translate(-265.72 -46.8)"/><path class="cls-3" d="M478,180.68a.47.47,0,0,1,0,.89,1.7,1.7,0,0,1-1.55,0,.47.47,0,0,1,0-.89A1.7,1.7,0,0,1,478,180.68Z" transform="translate(-265.72 -46.8)"/><path class="cls-3" d="M465.82,183c.43.25.43.65,0,.89a1.7,1.7,0,0,1-1.55,0c-.43-.24-.43-.64,0-.89A1.7,1.7,0,0,1,465.82,183Z" transform="translate(-265.72 -46.8)"/><path class="cls-3" d="M469.87,180.68a.47.47,0,0,1,0,.89,1.7,1.7,0,0,1-1.55,0,.47.47,0,0,1,0-.89A1.7,1.7,0,0,1,469.87,180.68Z" transform="translate(-265.72 -46.8)"/><path class="cls-3" d="M473.93,178.34c.43.24.43.64,0,.89a1.7,1.7,0,0,1-1.55,0c-.43-.25-.43-.65,0-.89A1.7,1.7,0,0,1,473.93,178.34Z" transform="translate(-265.72 -46.8)"/><path class="cls-3" d="M461.76,180.68a.47.47,0,0,1,0,.89,1.7,1.7,0,0,1-1.55,0,.47.47,0,0,1,0-.89A1.7,1.7,0,0,1,461.76,180.68Z" transform="translate(-265.72 -46.8)"/><path class="cls-3" d="M465.82,178.34c.43.24.43.64,0,.89a1.7,1.7,0,0,1-1.55,0c-.43-.25-.43-.65,0-.89A1.7,1.7,0,0,1,465.82,178.34Z" transform="translate(-265.72 -46.8)"/><path class="cls-3" d="M469.87,176a.48.48,0,0,1,0,.9,1.7,1.7,0,0,1-1.55,0,.48.48,0,0,1,0-.9A1.76,1.76,0,0,1,469.87,176Z" transform="translate(-265.72 -46.8)"/><path class="cls-3" d="M461.76,176a.48.48,0,0,1,0,.9,1.7,1.7,0,0,1-1.55,0,.48.48,0,0,1,0-.9A1.76,1.76,0,0,1,461.76,176Z" transform="translate(-265.72 -46.8)"/><path class="cls-3" d="M465.82,173.65a.48.48,0,0,1,0,.9,1.7,1.7,0,0,1-1.55,0,.48.48,0,0,1,0-.9A1.76,1.76,0,0,1,465.82,173.65Z" transform="translate(-265.72 -46.8)"/><ellipse class="cls-3" cx="195.24" cy="124.93" rx="1.1" ry="0.63"/><ellipse class="cls-3" cx="272.55" cy="173.8" rx="1.1" ry="0.63"/><ellipse class="cls-3" cx="276.6" cy="171.46" rx="1.1" ry="0.63"/><path class="cls-3" d="M547.15,215.47a.48.48,0,0,1,0,.9,1.76,1.76,0,0,1-1.55,0,.48.48,0,0,1,0-.9A1.7,1.7,0,0,1,547.15,215.47Z" transform="translate(-265.72 -46.8)"/><path class="cls-3" d="M530.93,220.15a.48.48,0,0,1,0,.9,1.7,1.7,0,0,1-1.55,0,.48.48,0,0,1,0-.9A1.76,1.76,0,0,1,530.93,220.15Z" transform="translate(-265.72 -46.8)"/><path class="cls-3" d="M535,217.81a.48.48,0,0,1,0,.9,1.76,1.76,0,0,1-1.55,0,.48.48,0,0,1,0-.9A1.7,1.7,0,0,1,535,217.81Z" transform="translate(-265.72 -46.8)"/><path class="cls-3" d="M539,215.47a.48.48,0,0,1,0,.9,1.76,1.76,0,0,1-1.55,0,.48.48,0,0,1,0-.9A1.7,1.7,0,0,1,539,215.47Z" transform="translate(-265.72 -46.8)"/><path class="cls-3" d="M543.1,213.13c.43.25.43.65,0,.89a1.7,1.7,0,0,1-1.55,0c-.43-.24-.43-.64,0-.89A1.7,1.7,0,0,1,543.1,213.13Z" transform="translate(-265.72 -46.8)"/><path class="cls-3" d="M526.88,217.81a.48.48,0,0,1,0,.9,1.76,1.76,0,0,1-1.55,0,.48.48,0,0,1,0-.9A1.7,1.7,0,0,1,526.88,217.81Z" transform="translate(-265.72 -46.8)"/><path class="cls-3" d="M530.93,215.47a.48.48,0,0,1,0,.9,1.76,1.76,0,0,1-1.55,0,.48.48,0,0,1,0-.9A1.7,1.7,0,0,1,530.93,215.47Z" transform="translate(-265.72 -46.8)"/><path class="cls-3" d="M535,213.13c.43.25.43.65,0,.89a1.7,1.7,0,0,1-1.55,0c-.43-.24-.43-.64,0-.89A1.7,1.7,0,0,1,535,213.13Z" transform="translate(-265.72 -46.8)"/><path class="cls-3" d="M539,210.79c.43.25.43.65,0,.89a1.7,1.7,0,0,1-1.55,0c-.43-.24-.43-.64,0-.89A1.7,1.7,0,0,1,539,210.79Z" transform="translate(-265.72 -46.8)"/><path class="cls-3" d="M522.79,215.45a.47.47,0,0,1,0,.89,1.72,1.72,0,0,1-1.56,0,.47.47,0,0,1,0-.89A1.72,1.72,0,0,1,522.79,215.45Z" transform="translate(-265.72 -46.8)"/><ellipse class="cls-3" cx="260.35" cy="166.75" rx="1.1" ry="0.63"/><path class="cls-3" d="M530.9,210.76a.48.48,0,0,1,0,.9,1.7,1.7,0,0,1-1.55,0,.48.48,0,0,1,0-.9A1.76,1.76,0,0,1,530.9,210.76Z" transform="translate(-265.72 -46.8)"/><path class="cls-3" d="M535,208.42a.48.48,0,0,1,0,.9,1.76,1.76,0,0,1-1.55,0,.48.48,0,0,1,0-.9A1.7,1.7,0,0,1,535,208.42Z" transform="translate(-265.72 -46.8)"/><path class="cls-3" d="M518.73,213.1a.48.48,0,0,1,0,.9,1.7,1.7,0,0,1-1.55,0,.48.48,0,0,1,0-.9A1.76,1.76,0,0,1,518.73,213.1Z" transform="translate(-265.72 -46.8)"/><path class="cls-3" d="M522.79,210.76a.48.48,0,0,1,0,.9,1.72,1.72,0,0,1-1.56,0,.48.48,0,0,1,0-.9A1.78,1.78,0,0,1,522.79,210.76Z" transform="translate(-265.72 -46.8)"/><path class="cls-3" d="M526.84,208.42a.48.48,0,0,1,0,.9,1.76,1.76,0,0,1-1.55,0,.48.48,0,0,1,0-.9A1.7,1.7,0,0,1,526.84,208.42Z" transform="translate(-265.72 -46.8)"/><path class="cls-3" d="M530.9,206.08a.48.48,0,0,1,0,.9,1.76,1.76,0,0,1-1.55,0,.48.48,0,0,1,0-.9A1.7,1.7,0,0,1,530.9,206.08Z" transform="translate(-265.72 -46.8)"/><path class="cls-3" d="M514.68,210.76a.48.48,0,0,1,0,.9,1.72,1.72,0,0,1-1.56,0,.48.48,0,0,1,0-.9A1.78,1.78,0,0,1,514.68,210.76Z" transform="translate(-265.72 -46.8)"/><path class="cls-3" d="M518.73,208.42a.48.48,0,0,1,0,.9,1.76,1.76,0,0,1-1.55,0,.48.48,0,0,1,0-.9A1.7,1.7,0,0,1,518.73,208.42Z" transform="translate(-265.72 -46.8)"/><path class="cls-3" d="M522.79,206.08a.48.48,0,0,1,0,.9,1.78,1.78,0,0,1-1.56,0,.48.48,0,0,1,0-.9A1.72,1.72,0,0,1,522.79,206.08Z" transform="translate(-265.72 -46.8)"/><path class="cls-3" d="M510.62,208.42a.48.48,0,0,1,0,.9,1.76,1.76,0,0,1-1.55,0,.48.48,0,0,1,0-.9A1.7,1.7,0,0,1,510.62,208.42Z" transform="translate(-265.72 -46.8)"/><path class="cls-3" d="M514.68,206.08a.48.48,0,0,1,0,.9,1.78,1.78,0,0,1-1.56,0,.48.48,0,0,1,0-.9A1.72,1.72,0,0,1,514.68,206.08Z" transform="translate(-265.72 -46.8)"/><path class="cls-3" d="M518.73,203.74a.48.48,0,0,1,0,.9,1.76,1.76,0,0,1-1.55,0,.48.48,0,0,1,0-.9A1.7,1.7,0,0,1,518.73,203.74Z" transform="translate(-265.72 -46.8)"/><path class="cls-3" d="M549.66,213.16a1.7,1.7,0,0,1,1.55,0c.43.25.44.65,0,.9a1.76,1.76,0,0,1-1.55,0A.48.48,0,0,1,549.66,213.16Z" transform="translate(-265.72 -46.8)"/><path class="cls-3" d="M555.28,210.82a.47.47,0,0,1,0,.89,1.72,1.72,0,0,1-1.56,0,.47.47,0,0,1,0-.89A1.72,1.72,0,0,1,555.28,210.82Z" transform="translate(-265.72 -46.8)"/><path class="cls-3" d="M559.33,208.48a.47.47,0,0,1,0,.89,1.7,1.7,0,0,1-1.55,0,.47.47,0,0,1,0-.89A1.7,1.7,0,0,1,559.33,208.48Z" transform="translate(-265.72 -46.8)"/><path class="cls-3" d="M563.39,206.14a.47.47,0,0,1,0,.89,1.72,1.72,0,0,1-1.56,0,.47.47,0,0,1,0-.89A1.72,1.72,0,0,1,563.39,206.14Z" transform="translate(-265.72 -46.8)"/><path class="cls-3" d="M567.44,203.79a.48.48,0,0,1,0,.9,1.7,1.7,0,0,1-1.55,0,.48.48,0,0,1,0-.9A1.76,1.76,0,0,1,567.44,203.79Z" transform="translate(-265.72 -46.8)"/><path class="cls-3" d="M571.5,201.45a.48.48,0,0,1,0,.9,1.7,1.7,0,0,1-1.55,0,.48.48,0,0,1,0-.9A1.76,1.76,0,0,1,571.5,201.45Z" transform="translate(-265.72 -46.8)"/><path class="cls-3" d="M575.55,199.11a.48.48,0,0,1,0,.9,1.76,1.76,0,0,1-1.55,0,.48.48,0,0,1,0-.9A1.7,1.7,0,0,1,575.55,199.11Z" transform="translate(-265.72 -46.8)"/><path class="cls-3" d="M579.61,196.77a.48.48,0,0,1,0,.9,1.76,1.76,0,0,1-1.55,0,.48.48,0,0,1,0-.9A1.7,1.7,0,0,1,579.61,196.77Z" transform="translate(-265.72 -46.8)"/><path class="cls-3" d="M583.66,194.43c.43.25.43.65,0,.89a1.7,1.7,0,0,1-1.55,0c-.43-.24-.43-.64,0-.89A1.7,1.7,0,0,1,583.66,194.43Z" transform="translate(-265.72 -46.8)"/><path class="cls-3" d="M545.61,210.82a1.7,1.7,0,0,1,1.55,0,.48.48,0,0,1,0,.9,1.76,1.76,0,0,1-1.55,0A.48.48,0,0,1,545.61,210.82Z" transform="translate(-265.72 -46.8)"/><path class="cls-3" d="M551.22,208.48a.47.47,0,0,1,0,.89,1.7,1.7,0,0,1-1.55,0,.47.47,0,0,1,0-.89A1.7,1.7,0,0,1,551.22,208.48Z" transform="translate(-265.72 -46.8)"/><path class="cls-3" d="M555.28,206.14a.47.47,0,0,1,0,.89,1.72,1.72,0,0,1-1.56,0,.47.47,0,0,1,0-.89A1.72,1.72,0,0,1,555.28,206.14Z" transform="translate(-265.72 -46.8)"/><path class="cls-3" d="M559.33,203.79a.48.48,0,0,1,0,.9,1.7,1.7,0,0,1-1.55,0,.48.48,0,0,1,0-.9A1.76,1.76,0,0,1,559.33,203.79Z" transform="translate(-265.72 -46.8)"/><path class="cls-3" d="M563.39,201.45a.48.48,0,0,1,0,.9,1.72,1.72,0,0,1-1.56,0,.48.48,0,0,1,0-.9A1.78,1.78,0,0,1,563.39,201.45Z" transform="translate(-265.72 -46.8)"/><path class="cls-3" d="M567.44,199.11a.48.48,0,0,1,0,.9,1.76,1.76,0,0,1-1.55,0,.48.48,0,0,1,0-.9A1.7,1.7,0,0,1,567.44,199.11Z" transform="translate(-265.72 -46.8)"/><path class="cls-3" d="M571.5,196.77a.48.48,0,0,1,0,.9,1.76,1.76,0,0,1-1.55,0,.48.48,0,0,1,0-.9A1.7,1.7,0,0,1,571.5,196.77Z" transform="translate(-265.72 -46.8)"/><path class="cls-3" d="M575.55,194.43c.43.25.43.65,0,.89a1.7,1.7,0,0,1-1.55,0c-.43-.24-.43-.64,0-.89A1.7,1.7,0,0,1,575.55,194.43Z" transform="translate(-265.72 -46.8)"/><path class="cls-3" d="M579.61,192.09a.47.47,0,0,1,0,.89,1.7,1.7,0,0,1-1.55,0c-.43-.24-.43-.64,0-.89A1.7,1.7,0,0,1,579.61,192.09Z" transform="translate(-265.72 -46.8)"/><path class="cls-3" d="M583.66,189.75c.43.24.43.64,0,.89a1.7,1.7,0,0,1-1.55,0c-.43-.25-.43-.65,0-.89A1.7,1.7,0,0,1,583.66,189.75Z" transform="translate(-265.72 -46.8)"/><path class="cls-3" d="M541.55,208.48a1.7,1.7,0,0,1,1.55,0c.43.25.43.65,0,.89a1.73,1.73,0,0,1-1.55,0A.48.48,0,0,1,541.55,208.48Z" transform="translate(-265.72 -46.8)"/><path class="cls-3" d="M547.16,206.14c.43.24.43.64,0,.89a1.7,1.7,0,0,1-1.55,0,.47.47,0,0,1,0-.89A1.7,1.7,0,0,1,547.16,206.14Z" transform="translate(-265.72 -46.8)"/><path class="cls-3" d="M551.22,203.79a.48.48,0,0,1,0,.9,1.7,1.7,0,0,1-1.55,0,.48.48,0,0,1,0-.9A1.76,1.76,0,0,1,551.22,203.79Z" transform="translate(-265.72 -46.8)"/><path class="cls-3" d="M555.28,201.45a.48.48,0,0,1,0,.9,1.72,1.72,0,0,1-1.56,0,.48.48,0,0,1,0-.9A1.78,1.78,0,0,1,555.28,201.45Z" transform="translate(-265.72 -46.8)"/><path class="cls-3" d="M559.33,199.11a.48.48,0,0,1,0,.9,1.76,1.76,0,0,1-1.55,0,.48.48,0,0,1,0-.9A1.7,1.7,0,0,1,559.33,199.11Z" transform="translate(-265.72 -46.8)"/><path class="cls-3" d="M563.39,196.77a.48.48,0,0,1,0,.9,1.78,1.78,0,0,1-1.56,0,.48.48,0,0,1,0-.9A1.72,1.72,0,0,1,563.39,196.77Z" transform="translate(-265.72 -46.8)"/><path class="cls-3" d="M567.44,194.43c.43.25.43.65,0,.89a1.7,1.7,0,0,1-1.55,0c-.43-.24-.43-.64,0-.89A1.7,1.7,0,0,1,567.44,194.43Z" transform="translate(-265.72 -46.8)"/><path class="cls-3" d="M571.5,192.09a.47.47,0,0,1,0,.89,1.7,1.7,0,0,1-1.55,0c-.43-.24-.43-.64,0-.89A1.7,1.7,0,0,1,571.5,192.09Z" transform="translate(-265.72 -46.8)"/><path class="cls-3" d="M575.55,189.75c.43.24.43.64,0,.89a1.7,1.7,0,0,1-1.55,0c-.43-.25-.43-.65,0-.89A1.7,1.7,0,0,1,575.55,189.75Z" transform="translate(-265.72 -46.8)"/><path class="cls-3" d="M579.61,187.41a.47.47,0,0,1,0,.89,1.7,1.7,0,0,1-1.55,0c-.43-.25-.43-.65,0-.89A1.7,1.7,0,0,1,579.61,187.41Z" transform="translate(-265.72 -46.8)"/><path class="cls-3" d="M583.66,185.06a.48.48,0,0,1,0,.9,1.7,1.7,0,0,1-1.55,0,.48.48,0,0,1,0-.9A1.76,1.76,0,0,1,583.66,185.06Z" transform="translate(-265.72 -46.8)"/><path class="cls-3" d="M537.46,206.11a1.76,1.76,0,0,1,1.55,0,.48.48,0,0,1,0,.9,1.7,1.7,0,0,1-1.55,0A.48.48,0,0,1,537.46,206.11Z" transform="translate(-265.72 -46.8)"/><path class="cls-3" d="M543.07,203.77a.48.48,0,0,1,0,.9,1.76,1.76,0,0,1-1.55,0,.48.48,0,0,1,0-.9A1.7,1.7,0,0,1,543.07,203.77Z" transform="translate(-265.72 -46.8)"/><path class="cls-3" d="M547.13,201.43c.43.25.43.65,0,.89a1.7,1.7,0,0,1-1.55,0c-.43-.24-.43-.64,0-.89A1.7,1.7,0,0,1,547.13,201.43Z" transform="translate(-265.72 -46.8)"/><path class="cls-3" d="M551.18,199.09a.47.47,0,0,1,0,.89,1.7,1.7,0,0,1-1.55,0,.47.47,0,0,1,0-.89A1.7,1.7,0,0,1,551.18,199.09Z" transform="translate(-265.72 -46.8)"/><path class="cls-3" d="M555.24,196.75c.43.24.43.64,0,.89a1.7,1.7,0,0,1-1.55,0c-.43-.25-.43-.65,0-.89A1.7,1.7,0,0,1,555.24,196.75Z" transform="translate(-265.72 -46.8)"/><path class="cls-3" d="M559.3,194.4a.48.48,0,0,1,0,.9,1.72,1.72,0,0,1-1.56,0,.48.48,0,0,1,0-.9A1.78,1.78,0,0,1,559.3,194.4Z" transform="translate(-265.72 -46.8)"/><path class="cls-3" d="M563.35,192.06a.48.48,0,0,1,0,.9,1.7,1.7,0,0,1-1.55,0,.48.48,0,0,1,0-.9A1.76,1.76,0,0,1,563.35,192.06Z" transform="translate(-265.72 -46.8)"/><path class="cls-3" d="M567.41,189.72a.48.48,0,0,1,0,.9,1.78,1.78,0,0,1-1.56,0,.48.48,0,0,1,0-.9A1.72,1.72,0,0,1,567.41,189.72Z" transform="translate(-265.72 -46.8)"/><path class="cls-3" d="M571.46,187.38a.48.48,0,0,1,0,.9,1.76,1.76,0,0,1-1.55,0,.48.48,0,0,1,0-.9A1.7,1.7,0,0,1,571.46,187.38Z" transform="translate(-265.72 -46.8)"/><path class="cls-3" d="M575.52,185a.48.48,0,0,1,0,.9,1.76,1.76,0,0,1-1.55,0,.48.48,0,0,1,0-.9A1.7,1.7,0,0,1,575.52,185Z" transform="translate(-265.72 -46.8)"/><path class="cls-3" d="M579.57,182.7c.43.25.43.65,0,.89a1.7,1.7,0,0,1-1.55,0c-.43-.24-.43-.64,0-.89A1.7,1.7,0,0,1,579.57,182.7Z" transform="translate(-265.72 -46.8)"/><path class="cls-3" d="M533.41,203.77a1.73,1.73,0,0,1,1.55,0,.48.48,0,0,1,0,.9,1.73,1.73,0,0,1-1.55,0A.48.48,0,0,1,533.41,203.77Z" transform="translate(-265.72 -46.8)"/><path class="cls-3" d="M539,201.43c.43.25.43.65,0,.89a1.7,1.7,0,0,1-1.55,0c-.43-.24-.43-.64,0-.89A1.7,1.7,0,0,1,539,201.43Z" transform="translate(-265.72 -46.8)"/><path class="cls-3" d="M543.07,199.09a.47.47,0,0,1,0,.89,1.7,1.7,0,0,1-1.55,0,.47.47,0,0,1,0-.89A1.7,1.7,0,0,1,543.07,199.09Z" transform="translate(-265.72 -46.8)"/><path class="cls-3" d="M547.13,196.75c.43.24.43.64,0,.89a1.7,1.7,0,0,1-1.55,0c-.43-.25-.43-.65,0-.89A1.7,1.7,0,0,1,547.13,196.75Z" transform="translate(-265.72 -46.8)"/><path class="cls-3" d="M551.18,194.4a.48.48,0,0,1,0,.9,1.7,1.7,0,0,1-1.55,0,.48.48,0,0,1,0-.9A1.76,1.76,0,0,1,551.18,194.4Z" transform="translate(-265.72 -46.8)"/><path class="cls-3" d="M555.24,192.06a.48.48,0,0,1,0,.9,1.7,1.7,0,0,1-1.55,0,.48.48,0,0,1,0-.9A1.76,1.76,0,0,1,555.24,192.06Z" transform="translate(-265.72 -46.8)"/><path class="cls-3" d="M559.3,189.72a.48.48,0,0,1,0,.9,1.78,1.78,0,0,1-1.56,0,.48.48,0,0,1,0-.9A1.72,1.72,0,0,1,559.3,189.72Z" transform="translate(-265.72 -46.8)"/><path class="cls-3" d="M563.35,187.38a.48.48,0,0,1,0,.9,1.76,1.76,0,0,1-1.55,0,.48.48,0,0,1,0-.9A1.7,1.7,0,0,1,563.35,187.38Z" transform="translate(-265.72 -46.8)"/><path class="cls-3" d="M567.41,185a.48.48,0,0,1,0,.9,1.78,1.78,0,0,1-1.56,0,.48.48,0,0,1,0-.9A1.72,1.72,0,0,1,567.41,185Z" transform="translate(-265.72 -46.8)"/><path class="cls-3" d="M571.46,182.7c.43.25.43.65,0,.89a1.7,1.7,0,0,1-1.55,0c-.43-.24-.43-.64,0-.89A1.7,1.7,0,0,1,571.46,182.7Z" transform="translate(-265.72 -46.8)"/><path class="cls-3" d="M575.52,180.36a.47.47,0,0,1,0,.89,1.7,1.7,0,0,1-1.55,0,.47.47,0,0,1,0-.89A1.7,1.7,0,0,1,575.52,180.36Z" transform="translate(-265.72 -46.8)"/></g><g id="_1" data-name="1"><path class="cls-2" d="M416.54,81.36h0l.12-6.8h56l-.07,6.62c0,.17,0,0,0,.18h0a4.13,4.13,0,0,1-2.29,2.79L449.4,96.23c-2.79,1.61-7,1.79-9.43.39L418.15,84A2.69,2.69,0,0,1,416.54,81.36Z" transform="translate(-265.72 -46.8)"/><path class="cls-2" d="M416.54,81.36h0l.12-6.79h56l-.07,6.62c0,.17,0,0,0,.17h0a4.13,4.13,0,0,1-2.29,2.79L449.4,96.23c-2.79,1.61-7,1.79-9.43.39L418.15,84A2.71,2.71,0,0,1,416.54,81.36Z" transform="translate(-265.72 -46.8)"/><path class="cls-3" d="M444.06,97.92a8.76,8.76,0,0,1-4.28-1L418,84.33a3.07,3.07,0,0,1-1.79-3l.06-6.6,56.81-.53-.07,7a.56.56,0,0,1,0,.24,4.53,4.53,0,0,1-2.47,3l-20.9,12.08A11.35,11.35,0,0,1,444.06,97.92Zm-27-23-.12,6.48a2.37,2.37,0,0,0,1.44,2.29l21.81,12.6c2.31,1.34,6.38,1.16,9.06-.39l20.91-12.08a3.73,3.73,0,0,0,2.1-2.52l0-.11v0l.07-6.25Z" transform="translate(-265.72 -46.8)"/><path class="cls-2" d="M418.24,77.39,440.05,90c2.42,1.39,6.64,1.22,9.43-.39l20.9-12.08c2.79-1.62,3.1-4.06.68-5.45L449.25,59.47c-2.42-1.4-6.64-1.22-9.43.39L418.91,71.94C416.12,73.55,415.82,76,418.24,77.39Z" transform="translate(-265.72 -46.8)"/><path class="cls-1" d="M418,79.92l21.81,12.6c2.42,1.4,6.64,1.22,9.43-.39l20.9-12.08c2.79-1.61,3.1-4,.68-5.45L449,62c-2.42-1.4-6.64-1.22-9.43.39L418.69,74.47C415.9,76.08,415.6,78.52,418,79.92Z" transform="translate(-265.72 -46.8)"/><path class="cls-3" d="M444.14,91.3a8.69,8.69,0,0,1-4.27-1l-21.82-12.6A3.17,3.17,0,0,1,416.24,75c0-1.24.91-2.48,2.49-3.4l20.9-12.07c2.89-1.67,7.29-1.85,9.8-.4l21.81,12.61a3.18,3.18,0,0,1,1.82,2.68c0,1.25-.91,2.49-2.5,3.4l-20.9,12.08A11.3,11.3,0,0,1,444.14,91.3Zm1-32.41A10.58,10.58,0,0,0,440,60.18L419.1,72.26C417.75,73,417,74.05,417,75a2.48,2.48,0,0,0,1.45,2l21.81,12.61c2.32,1.34,6.38,1.16,9.07-.39l20.9-12.08c1.35-.78,2.13-1.79,2.13-2.77a2.49,2.49,0,0,0-1.45-2l-21.82-12.6A8,8,0,0,0,445.15,58.89Z" transform="translate(-265.72 -46.8)"/><path class="cls-2" d="M445.92,74.9l-.9-6.35.93-.63,11.53,6.66c.13.07.48,1.58.58,1.67l-11.56-.81A.62.62,0,0,1,445.92,74.9Z" transform="translate(-265.72 -46.8)"/><path class="cls-3" d="M461.4,74.58l-15.73-.93-1.29-9.14.63.34.11.06,15,8.67a3.13,3.13,0,0,1,.4.28ZM446.31,73l12.55.73-13.55-7.83Z" transform="translate(-265.72 -46.8)"/><path class="cls-2" d="M443.5,76.94a.61.61,0,0,0,.58.53l14.45.85.33,1.4-10.19,5.89a4.46,4.46,0,0,1-4-.08l-15-8.68c-1.16-.67-1.22-1.71-.15-2.33l12.11-7a3.15,3.15,0,0,1,.56-.24Z" transform="translate(-265.72 -46.8)"/><path class="cls-3" d="M446.78,84.32a4.83,4.83,0,0,1-2.34-.58l-15-8.68a1.9,1.9,0,0,1-1.1-1.56,1.68,1.68,0,0,1,.95-1.41l12.1-7a3.24,3.24,0,0,1,.64-.27l.41-.14L443.89,75,462,76.05l-.8.6a1.35,1.35,0,0,1-.25.18l-12.1,7A4.09,4.09,0,0,1,446.78,84.32Zm-4.95-18.63-.08,0-12.1,7a1,1,0,0,0-.59.77c0,.32.27.66.73.93l15,8.68a4.18,4.18,0,0,0,3.68.08l11.3-6.53-16.54-1Z" transform="translate(-265.72 -46.8)"/><polygon class="cls-3" points="178.93 44.13 178.93 50.74 181.76 50.24 185.91 48.29 205.73 36.58 206.97 35.05 206.97 27.76 206.15 29.87 201.88 32.37 181.82 43.65 178.93 44.13"/><polygon class="cls-3" points="176.56 43.96 176.56 50.61 174.82 50.09 174.82 43.45 176.56 43.96"/><polygon class="cls-3" points="152.13 30.48 152.13 36.78 151.17 36.06 150.49 31.75 150.81 28.13 152.13 30.48 152.13 30.48"/><path class="cls-3" d="M453.2,106.26a.48.48,0,0,1,0,.9,1.7,1.7,0,0,1-1.55,0,.48.48,0,0,1,0-.9A1.76,1.76,0,0,1,453.2,106.26Z" transform="translate(-265.72 -46.8)"/><path class="cls-3" d="M457.26,103.92a.48.48,0,0,1,0,.9,1.76,1.76,0,0,1-1.55,0,.48.48,0,0,1,0-.9A1.76,1.76,0,0,1,457.26,103.92Z" transform="translate(-265.72 -46.8)"/><ellipse class="cls-3" cx="194.82" cy="55.23" rx="1.1" ry="0.63"/><path class="cls-3" d="M465.37,99.24a.48.48,0,0,1,0,.9,1.76,1.76,0,0,1-1.55,0,.48.48,0,0,1,0-.9A1.7,1.7,0,0,1,465.37,99.24Z" transform="translate(-265.72 -46.8)"/><path class="cls-3" d="M469.42,96.9c.43.25.43.65,0,.89a1.7,1.7,0,0,1-1.55,0c-.43-.24-.43-.64,0-.89A1.7,1.7,0,0,1,469.42,96.9Z" transform="translate(-265.72 -46.8)"/><path class="cls-3" d="M473.48,94.56a.47.47,0,0,1,0,.89,1.7,1.7,0,0,1-1.55,0,.47.47,0,0,1,0-.89A1.7,1.7,0,0,1,473.48,94.56Z" transform="translate(-265.72 -46.8)"/><path class="cls-3" d="M477.53,92.22c.43.24.43.64,0,.89a1.7,1.7,0,0,1-1.55,0,.47.47,0,0,1,0-.89A1.7,1.7,0,0,1,477.53,92.22Z" transform="translate(-265.72 -46.8)"/><path class="cls-3" d="M481.59,89.87a.48.48,0,0,1,0,.9,1.7,1.7,0,0,1-1.55,0,.48.48,0,0,1,0-.9A1.76,1.76,0,0,1,481.59,89.87Z" transform="translate(-265.72 -46.8)"/><path class="cls-3" d="M445.09,106.26a.48.48,0,0,1,0,.9,1.7,1.7,0,0,1-1.55,0,.48.48,0,0,1,0-.9A1.76,1.76,0,0,1,445.09,106.26Z" transform="translate(-265.72 -46.8)"/><path class="cls-3" d="M449.15,103.92a.48.48,0,0,1,0,.9,1.76,1.76,0,0,1-1.55,0,.48.48,0,0,1,0-.9A1.76,1.76,0,0,1,449.15,103.92Z" transform="translate(-265.72 -46.8)"/><path class="cls-3" d="M453.2,101.58a.48.48,0,0,1,0,.9,1.76,1.76,0,0,1-1.55,0,.48.48,0,0,1,0-.9A1.7,1.7,0,0,1,453.2,101.58Z" transform="translate(-265.72 -46.8)"/><path class="cls-3" d="M457.26,99.24a.48.48,0,0,1,0,.9,1.76,1.76,0,0,1-1.55,0,.48.48,0,0,1,0-.9A1.7,1.7,0,0,1,457.26,99.24Z" transform="translate(-265.72 -46.8)"/><path class="cls-3" d="M461.31,96.9c.43.25.43.65,0,.89a1.7,1.7,0,0,1-1.55,0c-.43-.24-.43-.64,0-.89A1.7,1.7,0,0,1,461.31,96.9Z" transform="translate(-265.72 -46.8)"/><ellipse class="cls-3" cx="198.88" cy="48.2" rx="1.1" ry="0.63"/><path class="cls-3" d="M469.42,92.22c.43.24.43.64,0,.89a1.7,1.7,0,0,1-1.55,0c-.43-.25-.43-.65,0-.89A1.7,1.7,0,0,1,469.42,92.22Z" transform="translate(-265.72 -46.8)"/><path class="cls-3" d="M473.48,89.87a.48.48,0,0,1,0,.9,1.7,1.7,0,0,1-1.55,0,.48.48,0,0,1,0-.9A1.76,1.76,0,0,1,473.48,89.87Z" transform="translate(-265.72 -46.8)"/><ellipse class="cls-3" cx="211.04" cy="41.18" rx="1.1" ry="0.63"/><path class="cls-3" d="M481.59,85.19a.48.48,0,0,1,0,.9,1.76,1.76,0,0,1-1.55,0,.48.48,0,0,1,0-.9A1.7,1.7,0,0,1,481.59,85.19Z" transform="translate(-265.72 -46.8)"/><path class="cls-3" d="M441,103.9c.43.25.43.65,0,.89a1.7,1.7,0,0,1-1.55,0c-.43-.24-.43-.64,0-.89A1.7,1.7,0,0,1,441,103.9Z" transform="translate(-265.72 -46.8)"/><path class="cls-3" d="M445.06,101.56c.43.24.43.64,0,.89a1.7,1.7,0,0,1-1.55,0c-.43-.25-.43-.65,0-.89A1.7,1.7,0,0,1,445.06,101.56Z" transform="translate(-265.72 -46.8)"/><path class="cls-3" d="M449.11,99.22c.43.24.43.64,0,.89a1.7,1.7,0,0,1-1.55,0c-.43-.25-.43-.65,0-.89A1.7,1.7,0,0,1,449.11,99.22Z" transform="translate(-265.72 -46.8)"/><path class="cls-3" d="M453.17,96.87a.48.48,0,0,1,0,.9,1.7,1.7,0,0,1-1.55,0,.48.48,0,0,1,0-.9A1.76,1.76,0,0,1,453.17,96.87Z" transform="translate(-265.72 -46.8)"/><path class="cls-3" d="M457.22,94.53a.48.48,0,0,1,0,.9,1.7,1.7,0,0,1-1.55,0,.48.48,0,0,1,0-.9A1.76,1.76,0,0,1,457.22,94.53Z" transform="translate(-265.72 -46.8)"/><path class="cls-3" d="M461.28,92.19a.48.48,0,0,1,0,.9,1.76,1.76,0,0,1-1.55,0,.48.48,0,0,1,0-.9A1.7,1.7,0,0,1,461.28,92.19Z" transform="translate(-265.72 -46.8)"/><path class="cls-3" d="M465.33,89.85a.48.48,0,0,1,0,.9,1.76,1.76,0,0,1-1.55,0,.48.48,0,0,1,0-.9A1.7,1.7,0,0,1,465.33,89.85Z" transform="translate(-265.72 -46.8)"/><path class="cls-3" d="M469.39,87.51c.43.25.43.65,0,.89a1.7,1.7,0,0,1-1.55,0c-.43-.24-.43-.64,0-.89A1.7,1.7,0,0,1,469.39,87.51Z" transform="translate(-265.72 -46.8)"/><path class="cls-3" d="M473.44,85.17a.47.47,0,0,1,0,.89,1.7,1.7,0,0,1-1.55,0,.47.47,0,0,1,0-.89A1.7,1.7,0,0,1,473.44,85.17Z" transform="translate(-265.72 -46.8)"/><path class="cls-3" d="M477.5,82.83c.43.24.43.64,0,.89a1.7,1.7,0,0,1-1.55,0c-.43-.25-.43-.65,0-.89A1.7,1.7,0,0,1,477.5,82.83Z" transform="translate(-265.72 -46.8)"/><path class="cls-3" d="M437,101.56c.43.24.43.64,0,.89a1.7,1.7,0,0,1-1.55,0c-.43-.25-.43-.65,0-.89A1.7,1.7,0,0,1,437,101.56Z" transform="translate(-265.72 -46.8)"/><path class="cls-3" d="M441,99.22c.43.24.43.64,0,.89a1.7,1.7,0,0,1-1.55,0c-.43-.25-.43-.65,0-.89A1.7,1.7,0,0,1,441,99.22Z" transform="translate(-265.72 -46.8)"/><path class="cls-3" d="M432.89,99.22c.43.24.43.64,0,.89a1.7,1.7,0,0,1-1.55,0c-.43-.25-.43-.65,0-.89A1.7,1.7,0,0,1,432.89,99.22Z" transform="translate(-265.72 -46.8)"/><path class="cls-3" d="M437,96.87a.48.48,0,0,1,0,.9,1.7,1.7,0,0,1-1.55,0,.48.48,0,0,1,0-.9A1.76,1.76,0,0,1,437,96.87Z" transform="translate(-265.72 -46.8)"/><ellipse class="cls-3" cx="162.34" cy="50.52" rx="1.1" ry="0.63"/><path class="cls-3" d="M432.89,94.53a.48.48,0,0,1,0,.9,1.7,1.7,0,0,1-1.55,0,.48.48,0,0,1,0-.9A1.76,1.76,0,0,1,432.89,94.53Z" transform="translate(-265.72 -46.8)"/><path class="cls-3" d="M424.78,94.53a.48.48,0,0,1,0,.9,1.7,1.7,0,0,1-1.55,0,.48.48,0,0,1,0-.9A1.76,1.76,0,0,1,424.78,94.53Z" transform="translate(-265.72 -46.8)"/><path class="cls-3" d="M428.84,92.19a.48.48,0,0,1,0,.9,1.76,1.76,0,0,1-1.55,0,.48.48,0,0,1,0-.9A1.7,1.7,0,0,1,428.84,92.19Z" transform="translate(-265.72 -46.8)"/><path class="cls-3" d="M420.73,92.19a.48.48,0,0,1,0,.9,1.76,1.76,0,0,1-1.55,0,.48.48,0,0,1,0-.9A1.7,1.7,0,0,1,420.73,92.19Z" transform="translate(-265.72 -46.8)"/><path class="cls-3" d="M424.78,89.85a.48.48,0,0,1,0,.9,1.76,1.76,0,0,1-1.55,0,.48.48,0,0,1,0-.9A1.7,1.7,0,0,1,424.78,89.85Z" transform="translate(-265.72 -46.8)"/><path class="cls-3" d="M416.67,89.85a.48.48,0,0,1,0,.9,1.76,1.76,0,0,1-1.55,0,.48.48,0,0,1,0-.9A1.7,1.7,0,0,1,416.67,89.85Z" transform="translate(-265.72 -46.8)"/><path class="cls-3" d="M420.73,87.51a.47.47,0,0,1,0,.89,1.7,1.7,0,0,1-1.55,0c-.43-.24-.43-.64,0-.89A1.7,1.7,0,0,1,420.73,87.51Z" transform="translate(-265.72 -46.8)"/><path class="cls-3" d="M416.67,85.17a.47.47,0,0,1,0,.89,1.7,1.7,0,0,1-1.55,0,.47.47,0,0,1,0-.89A1.7,1.7,0,0,1,416.67,85.17Z" transform="translate(-265.72 -46.8)"/></g></svg>