<svg id="Layer_2" data-name="Layer 2" xmlns="http://www.w3.org/2000/svg" viewBox="0 0 250.46 266.02"><defs><style>.cls-1{fill:#16110d;}.cls-2{fill:#febd33;}.cls-3{fill:#fae9cc;}.cls-4{fill:#15100c;}.cls-5{fill:#fdbd32;}.cls-6{fill:#f9e8cc;}.cls-7{fill:#fcbc37;}.cls-8{fill:#fbeacc;}.cls-9{fill:#0d1858;}.cls-10{fill:#140f0c;}.cls-11{fill:#fdeccc;}.cls-12{fill:#fcebcc;}</style></defs><title>man-on-bench</title><g id="illustration"><path class="cls-1" d="M482.09,315.38a.41.41,0,0,1,0,.77,1.5,1.5,0,0,1-1.34,0,.41.41,0,0,1,0-.77A1.5,1.5,0,0,1,482.09,315.38Z" transform="translate(-304.11 -50.29)"/><path class="cls-1" d="M485.58,313.36a.41.41,0,0,1,0,.78,1.5,1.5,0,0,1-1.34,0,.42.42,0,0,1,0-.78A1.5,1.5,0,0,1,485.58,313.36Z" transform="translate(-304.11 -50.29)"/><path class="cls-1" d="M489.07,311.35a.41.41,0,0,1,0,.77,1.48,1.48,0,0,1-1.33,0,.41.41,0,0,1,0-.77A1.48,1.48,0,0,1,489.07,311.35Z" transform="translate(-304.11 -50.29)"/><ellipse class="cls-1" cx="187.78" cy="259.43" rx="0.94" ry="0.55"/><path class="cls-1" d="M496.06,307.32c.37.21.37.55,0,.77a1.5,1.5,0,0,1-1.34,0c-.37-.22-.37-.56,0-.77A1.44,1.44,0,0,1,496.06,307.32Z" transform="translate(-304.11 -50.29)"/><ellipse class="cls-1" cx="194.77" cy="255.39" rx="0.94" ry="0.55"/><path class="cls-1" d="M503,303.28c.37.22.37.56,0,.77a1.42,1.42,0,0,1-1.33,0c-.37-.21-.37-.55,0-.77A1.48,1.48,0,0,1,503,303.28Z" transform="translate(-304.11 -50.29)"/><ellipse class="cls-1" cx="201.75" cy="251.36" rx="0.94" ry="0.55"/><path class="cls-1" d="M510,299.25a.41.41,0,0,1,0,.77,1.5,1.5,0,0,1-1.34,0,.41.41,0,0,1,0-.77A1.5,1.5,0,0,1,510,299.25Z" transform="translate(-304.11 -50.29)"/><path class="cls-1" d="M475.1,315.38a.41.41,0,0,1,0,.77,1.48,1.48,0,0,1-1.33,0,.41.41,0,0,1,0-.77A1.48,1.48,0,0,1,475.1,315.38Z" transform="translate(-304.11 -50.29)"/><path class="cls-1" d="M478.59,313.36a.41.41,0,0,1,0,.78,1.48,1.48,0,0,1-1.33,0,.41.41,0,0,1,0-.78A1.48,1.48,0,0,1,478.59,313.36Z" transform="translate(-304.11 -50.29)"/><ellipse class="cls-1" cx="177.31" cy="261.44" rx="0.94" ry="0.55"/><ellipse class="cls-1" cx="180.8" cy="259.43" rx="0.94" ry="0.55"/><path class="cls-1" d="M489.07,307.32c.37.21.37.55,0,.77a1.48,1.48,0,0,1-1.33,0c-.37-.22-.37-.56,0-.77A1.42,1.42,0,0,1,489.07,307.32Z" transform="translate(-304.11 -50.29)"/><path class="cls-1" d="M492.57,305.3a.41.41,0,0,1,0,.77,1.5,1.5,0,0,1-1.34,0,.41.41,0,0,1,0-.77A1.5,1.5,0,0,1,492.57,305.3Z" transform="translate(-304.11 -50.29)"/><path class="cls-1" d="M496.06,303.28c.37.22.37.56,0,.77a1.44,1.44,0,0,1-1.34,0c-.37-.21-.37-.55,0-.77A1.5,1.5,0,0,1,496.06,303.28Z" transform="translate(-304.11 -50.29)"/><path class="cls-1" d="M499.55,301.27c.37.21.37.55,0,.77a1.5,1.5,0,0,1-1.34,0,.41.41,0,0,1,0-.77A1.44,1.44,0,0,1,499.55,301.27Z" transform="translate(-304.11 -50.29)"/><path class="cls-1" d="M503,299.25a.41.41,0,0,1,0,.77,1.48,1.48,0,0,1-1.33,0,.41.41,0,0,1,0-.77A1.48,1.48,0,0,1,503,299.25Z" transform="translate(-304.11 -50.29)"/><ellipse class="cls-1" cx="201.75" cy="247.33" rx="0.94" ry="0.55"/><path class="cls-1" d="M471.61,313.36a.41.41,0,0,1,0,.78,1.5,1.5,0,0,1-1.34,0,.41.41,0,0,1,0-.78A1.5,1.5,0,0,1,471.61,313.36Z" transform="translate(-304.11 -50.29)"/><path class="cls-1" d="M475.1,311.35a.41.41,0,0,1,0,.77,1.48,1.48,0,0,1-1.33,0,.41.41,0,0,1,0-.77A1.48,1.48,0,0,1,475.1,311.35Z" transform="translate(-304.11 -50.29)"/><path class="cls-1" d="M478.59,309.33a.41.41,0,0,1,0,.77,1.42,1.42,0,0,1-1.33,0,.41.41,0,0,1,0-.77A1.48,1.48,0,0,1,478.59,309.33Z" transform="translate(-304.11 -50.29)"/><path class="cls-1" d="M482.09,307.32c.37.21.37.55,0,.77a1.5,1.5,0,0,1-1.34,0c-.37-.22-.37-.56,0-.77A1.44,1.44,0,0,1,482.09,307.32Z" transform="translate(-304.11 -50.29)"/><ellipse class="cls-1" cx="180.8" cy="255.39" rx="0.94" ry="0.55"/><path class="cls-1" d="M489.07,303.28c.37.22.37.56,0,.77a1.42,1.42,0,0,1-1.33,0c-.37-.21-.37-.55,0-.77A1.48,1.48,0,0,1,489.07,303.28Z" transform="translate(-304.11 -50.29)"/><path class="cls-1" d="M492.57,301.27a.41.41,0,0,1,0,.77,1.5,1.5,0,0,1-1.34,0c-.37-.22-.37-.56,0-.77A1.44,1.44,0,0,1,492.57,301.27Z" transform="translate(-304.11 -50.29)"/><path class="cls-1" d="M496.06,299.25a.41.41,0,0,1,0,.77,1.5,1.5,0,0,1-1.34,0,.41.41,0,0,1,0-.77A1.5,1.5,0,0,1,496.06,299.25Z" transform="translate(-304.11 -50.29)"/><ellipse class="cls-1" cx="194.77" cy="247.33" rx="0.94" ry="0.55"/><path class="cls-1" d="M503,295.22c.37.21.37.55,0,.77a1.48,1.48,0,0,1-1.33,0c-.37-.22-.37-.56,0-.77A1.42,1.42,0,0,1,503,295.22Z" transform="translate(-304.11 -50.29)"/><path class="cls-1" d="M468.09,311.33a.41.41,0,0,1,0,.77,1.5,1.5,0,0,1-1.34,0,.41.41,0,0,1,0-.77A1.44,1.44,0,0,1,468.09,311.33Z" transform="translate(-304.11 -50.29)"/><path class="cls-1" d="M471.58,309.31a.41.41,0,0,1,0,.77,1.5,1.5,0,0,1-1.34,0,.41.41,0,0,1,0-.77A1.5,1.5,0,0,1,471.58,309.31Z" transform="translate(-304.11 -50.29)"/><path class="cls-1" d="M475.07,307.29a.41.41,0,0,1,0,.78,1.48,1.48,0,0,1-1.33,0,.41.41,0,0,1,0-.78A1.48,1.48,0,0,1,475.07,307.29Z" transform="translate(-304.11 -50.29)"/><ellipse class="cls-1" cx="173.78" cy="255.37" rx="0.94" ry="0.55"/><path class="cls-1" d="M482.06,303.26a.41.41,0,0,1,0,.77,1.44,1.44,0,0,1-1.34,0,.41.41,0,0,1,0-.77A1.5,1.5,0,0,1,482.06,303.26Z" transform="translate(-304.11 -50.29)"/><path class="cls-1" d="M485.55,301.24a.41.41,0,0,1,0,.78,1.5,1.5,0,0,1-1.34,0,.41.41,0,0,1,0-.78A1.5,1.5,0,0,1,485.55,301.24Z" transform="translate(-304.11 -50.29)"/><path class="cls-1" d="M489,299.23a.41.41,0,0,1,0,.77,1.48,1.48,0,0,1-1.33,0,.41.41,0,0,1,0-.77A1.42,1.42,0,0,1,489,299.23Z" transform="translate(-304.11 -50.29)"/><path class="cls-1" d="M492.53,297.21a.41.41,0,0,1,0,.77,1.42,1.42,0,0,1-1.33,0,.41.41,0,0,1,0-.77A1.48,1.48,0,0,1,492.53,297.21Z" transform="translate(-304.11 -50.29)"/><path class="cls-1" d="M496,295.2c.37.21.37.55,0,.77a1.5,1.5,0,0,1-1.34,0c-.37-.22-.37-.56,0-.77A1.44,1.44,0,0,1,496,295.2Z" transform="translate(-304.11 -50.29)"/><path class="cls-1" d="M499.52,293.18a.41.41,0,0,1,0,.77,1.5,1.5,0,0,1-1.34,0,.41.41,0,0,1,0-.77A1.5,1.5,0,0,1,499.52,293.18Z" transform="translate(-304.11 -50.29)"/><ellipse class="cls-1" cx="163.3" cy="257.39" rx="0.94" ry="0.55"/><path class="cls-1" d="M471.58,305.28a.41.41,0,0,1,0,.77,1.5,1.5,0,0,1-1.34,0,.41.41,0,0,1,0-.77A1.44,1.44,0,0,1,471.58,305.28Z" transform="translate(-304.11 -50.29)"/><path class="cls-1" d="M475.07,303.26a.41.41,0,0,1,0,.77,1.42,1.42,0,0,1-1.33,0,.41.41,0,0,1,0-.77A1.48,1.48,0,0,1,475.07,303.26Z" transform="translate(-304.11 -50.29)"/><ellipse class="cls-1" cx="173.78" cy="251.34" rx="0.94" ry="0.55"/><path class="cls-1" d="M485.55,297.21a.41.41,0,0,1,0,.77,1.44,1.44,0,0,1-1.34,0,.41.41,0,0,1,0-.77A1.5,1.5,0,0,1,485.55,297.21Z" transform="translate(-304.11 -50.29)"/><path class="cls-1" d="M489,295.2c.37.21.37.55,0,.77a1.48,1.48,0,0,1-1.33,0c-.37-.22-.37-.56,0-.77A1.42,1.42,0,0,1,489,295.2Z" transform="translate(-304.11 -50.29)"/><ellipse class="cls-1" cx="187.75" cy="243.27" rx="0.94" ry="0.55"/><path class="cls-1" d="M512.19,297.26a1.5,1.5,0,0,1,1.34,0,.41.41,0,0,1,0,.77,1.47,1.47,0,0,1-1.34,0A.41.41,0,0,1,512.19,297.26Z" transform="translate(-304.11 -50.29)"/><path class="cls-1" d="M517,295.24c.37.22.37.56,0,.77a1.42,1.42,0,0,1-1.33,0c-.37-.21-.37-.55,0-.77A1.48,1.48,0,0,1,517,295.24Z" transform="translate(-304.11 -50.29)"/><path class="cls-1" d="M520.52,293.23c.37.21.37.55,0,.77a1.5,1.5,0,0,1-1.34,0c-.37-.22-.37-.56,0-.77A1.44,1.44,0,0,1,520.52,293.23Z" transform="translate(-304.11 -50.29)"/><path class="cls-1" d="M524,291.21a.41.41,0,0,1,0,.77,1.5,1.5,0,0,1-1.34,0,.41.41,0,0,1,0-.77A1.5,1.5,0,0,1,524,291.21Z" transform="translate(-304.11 -50.29)"/><path class="cls-1" d="M508.7,295.24a1.48,1.48,0,0,1,1.33,0c.37.22.38.56,0,.77a1.47,1.47,0,0,1-1.34,0A.41.41,0,0,1,508.7,295.24Z" transform="translate(-304.11 -50.29)"/><path class="cls-1" d="M513.53,293.23c.37.21.37.55,0,.77a1.48,1.48,0,0,1-1.33,0c-.37-.22-.37-.56,0-.77A1.42,1.42,0,0,1,513.53,293.23Z" transform="translate(-304.11 -50.29)"/><path class="cls-1" d="M517,291.21a.41.41,0,0,1,0,.77,1.48,1.48,0,0,1-1.33,0,.41.41,0,0,1,0-.77A1.48,1.48,0,0,1,517,291.21Z" transform="translate(-304.11 -50.29)"/><ellipse class="cls-1" cx="215.74" cy="239.29" rx="0.94" ry="0.55"/><path class="cls-1" d="M524,287.18c.37.21.37.55,0,.77a1.5,1.5,0,0,1-1.34,0c-.37-.22-.37-.56,0-.77A1.44,1.44,0,0,1,524,287.18Z" transform="translate(-304.11 -50.29)"/><path class="cls-1" d="M505.21,293.23a1.42,1.42,0,0,1,1.33,0c.37.21.37.55,0,.77a1.48,1.48,0,0,1-1.33,0A.41.41,0,0,1,505.21,293.23Z" transform="translate(-304.11 -50.29)"/><path class="cls-1" d="M510,291.21a.41.41,0,0,1,0,.77,1.5,1.5,0,0,1-1.34,0,.41.41,0,0,1,0-.77A1.5,1.5,0,0,1,510,291.21Z" transform="translate(-304.11 -50.29)"/><ellipse class="cls-1" cx="208.75" cy="239.29" rx="0.94" ry="0.55"/><path class="cls-1" d="M517,287.18c.37.21.37.55,0,.77a1.48,1.48,0,0,1-1.33,0c-.37-.22-.37-.56,0-.77A1.42,1.42,0,0,1,517,287.18Z" transform="translate(-304.11 -50.29)"/><ellipse class="cls-1" cx="215.74" cy="235.26" rx="0.94" ry="0.55"/><path class="cls-1" d="M524,283.14c.37.22.37.56,0,.77a1.44,1.44,0,0,1-1.34,0c-.37-.21-.37-.55,0-.77A1.5,1.5,0,0,1,524,283.14Z" transform="translate(-304.11 -50.29)"/><path class="cls-1" d="M501.68,291.19a1.5,1.5,0,0,1,1.34,0,.41.41,0,0,1,0,.77,1.48,1.48,0,0,1-1.33,0A.41.41,0,0,1,501.68,291.19Z" transform="translate(-304.11 -50.29)"/><path class="cls-1" d="M506.52,289.17a.41.41,0,0,1,0,.77,1.44,1.44,0,0,1-1.34,0,.41.41,0,0,1,0-.77A1.5,1.5,0,0,1,506.52,289.17Z" transform="translate(-304.11 -50.29)"/><path class="cls-1" d="M510,287.16c.37.21.37.55,0,.77a1.5,1.5,0,0,1-1.34,0c-.37-.22-.37-.56,0-.77A1.44,1.44,0,0,1,510,287.16Z" transform="translate(-304.11 -50.29)"/><path class="cls-1" d="M513.5,285.14a.41.41,0,0,1,0,.77,1.48,1.48,0,0,1-1.33,0,.41.41,0,0,1,0-.77A1.48,1.48,0,0,1,513.5,285.14Z" transform="translate(-304.11 -50.29)"/><path class="cls-1" d="M517,283.12c.37.22.37.56,0,.77a1.42,1.42,0,0,1-1.33,0c-.37-.21-.37-.55,0-.77A1.48,1.48,0,0,1,517,283.12Z" transform="translate(-304.11 -50.29)"/><path class="cls-1" d="M520.49,281.11c.37.21.37.55,0,.77a1.5,1.5,0,0,1-1.34,0c-.37-.22-.37-.56,0-.77A1.44,1.44,0,0,1,520.49,281.11Z" transform="translate(-304.11 -50.29)"/><path class="cls-1" d="M517,279.09a.41.41,0,0,1,0,.77,1.48,1.48,0,0,1-1.33,0,.41.41,0,0,1,0-.77A1.48,1.48,0,0,1,517,279.09Z" transform="translate(-304.11 -50.29)"/><path class="cls-1" d="M338.39,232.31a.41.41,0,0,1,0,.77,1.5,1.5,0,0,1-1.34,0,.41.41,0,0,1,0-.77A1.5,1.5,0,0,1,338.39,232.31Z" transform="translate(-304.11 -50.29)"/><path class="cls-1" d="M341.88,230.29a.41.41,0,0,1,0,.78,1.5,1.5,0,0,1-1.34,0,.42.42,0,0,1,0-.78A1.5,1.5,0,0,1,341.88,230.29Z" transform="translate(-304.11 -50.29)"/><path class="cls-1" d="M345.37,228.28a.41.41,0,0,1,0,.77,1.48,1.48,0,0,1-1.33,0,.41.41,0,0,1,0-.77A1.42,1.42,0,0,1,345.37,228.28Z" transform="translate(-304.11 -50.29)"/><ellipse class="cls-1" cx="44.08" cy="176.36" rx="0.94" ry="0.55"/><path class="cls-1" d="M352.36,224.24a.41.41,0,0,1,0,.78,1.5,1.5,0,0,1-1.34,0,.41.41,0,0,1,0-.78A1.5,1.5,0,0,1,352.36,224.24Z" transform="translate(-304.11 -50.29)"/><ellipse class="cls-1" cx="51.07" cy="172.32" rx="0.94" ry="0.55"/><ellipse class="cls-1" cx="54.56" cy="170.31" rx="0.94" ry="0.55"/><path class="cls-1" d="M362.84,218.2a.41.41,0,0,1,0,.77,1.5,1.5,0,0,1-1.34,0c-.37-.22-.37-.56,0-.77A1.44,1.44,0,0,1,362.84,218.2Z" transform="translate(-304.11 -50.29)"/><path class="cls-1" d="M366.33,216.18a.41.41,0,0,1,0,.77,1.5,1.5,0,0,1-1.34,0,.41.41,0,0,1,0-.77A1.5,1.5,0,0,1,366.33,216.18Z" transform="translate(-304.11 -50.29)"/><path class="cls-1" d="M331.4,232.31a.41.41,0,0,1,0,.77,1.48,1.48,0,0,1-1.33,0,.41.41,0,0,1,0-.77A1.48,1.48,0,0,1,331.4,232.31Z" transform="translate(-304.11 -50.29)"/><path class="cls-1" d="M334.9,230.29a.42.42,0,0,1,0,.78,1.5,1.5,0,0,1-1.34,0,.41.41,0,0,1,0-.78A1.5,1.5,0,0,1,334.9,230.29Z" transform="translate(-304.11 -50.29)"/><ellipse class="cls-1" cx="33.61" cy="178.37" rx="0.94" ry="0.55"/><path class="cls-1" d="M341.88,226.26a.41.41,0,0,1,0,.77,1.44,1.44,0,0,1-1.34,0,.41.41,0,0,1,0-.77A1.5,1.5,0,0,1,341.88,226.26Z" transform="translate(-304.11 -50.29)"/><path class="cls-1" d="M345.37,224.24a.41.41,0,0,1,0,.78,1.48,1.48,0,0,1-1.33,0,.41.41,0,0,1,0-.78A1.48,1.48,0,0,1,345.37,224.24Z" transform="translate(-304.11 -50.29)"/><path class="cls-1" d="M348.87,222.23a.41.41,0,0,1,0,.77,1.5,1.5,0,0,1-1.34,0,.41.41,0,0,1,0-.77A1.5,1.5,0,0,1,348.87,222.23Z" transform="translate(-304.11 -50.29)"/><path class="cls-1" d="M352.36,220.21a.41.41,0,0,1,0,.77,1.44,1.44,0,0,1-1.34,0,.41.41,0,0,1,0-.77A1.5,1.5,0,0,1,352.36,220.21Z" transform="translate(-304.11 -50.29)"/><path class="cls-1" d="M355.85,218.2c.37.21.37.55,0,.77a1.5,1.5,0,0,1-1.34,0,.41.41,0,0,1,0-.77A1.44,1.44,0,0,1,355.85,218.2Z" transform="translate(-304.11 -50.29)"/><path class="cls-1" d="M359.34,216.18a.41.41,0,0,1,0,.77,1.48,1.48,0,0,1-1.33,0,.41.41,0,0,1,0-.77A1.48,1.48,0,0,1,359.34,216.18Z" transform="translate(-304.11 -50.29)"/><ellipse class="cls-1" cx="58.05" cy="164.26" rx="0.94" ry="0.55"/><path class="cls-1" d="M327.91,230.29a.41.41,0,0,1,0,.78,1.5,1.5,0,0,1-1.34,0,.41.41,0,0,1,0-.78A1.5,1.5,0,0,1,327.91,230.29Z" transform="translate(-304.11 -50.29)"/><path class="cls-1" d="M331.4,228.28a.41.41,0,0,1,0,.77,1.48,1.48,0,0,1-1.33,0,.41.41,0,0,1,0-.77A1.42,1.42,0,0,1,331.4,228.28Z" transform="translate(-304.11 -50.29)"/><path class="cls-1" d="M334.9,226.26a.41.41,0,0,1,0,.77,1.44,1.44,0,0,1-1.34,0,.41.41,0,0,1,0-.77A1.5,1.5,0,0,1,334.9,226.26Z" transform="translate(-304.11 -50.29)"/><path class="cls-1" d="M338.39,224.24a.41.41,0,0,1,0,.78,1.5,1.5,0,0,1-1.34,0,.41.41,0,0,1,0-.78A1.5,1.5,0,0,1,338.39,224.24Z" transform="translate(-304.11 -50.29)"/><ellipse class="cls-1" cx="37.1" cy="172.32" rx="0.94" ry="0.55"/><ellipse class="cls-1" cx="40.59" cy="170.31" rx="0.94" ry="0.55"/><path class="cls-1" d="M348.87,218.2a.41.41,0,0,1,0,.77,1.5,1.5,0,0,1-1.34,0c-.37-.22-.37-.56,0-.77A1.44,1.44,0,0,1,348.87,218.2Z" transform="translate(-304.11 -50.29)"/><path class="cls-1" d="M352.36,216.18a.41.41,0,0,1,0,.77,1.5,1.5,0,0,1-1.34,0,.41.41,0,0,1,0-.77A1.5,1.5,0,0,1,352.36,216.18Z" transform="translate(-304.11 -50.29)"/><path class="cls-1" d="M355.85,214.16c.37.22.37.56,0,.77a1.44,1.44,0,0,1-1.34,0,.41.41,0,0,1,0-.77A1.5,1.5,0,0,1,355.85,214.16Z" transform="translate(-304.11 -50.29)"/><ellipse class="cls-1" cx="54.56" cy="162.24" rx="0.94" ry="0.55"/><path class="cls-1" d="M324.39,228.26c.37.21.37.55,0,.77a1.5,1.5,0,0,1-1.34,0c-.37-.22-.37-.56,0-.77A1.44,1.44,0,0,1,324.39,228.26Z" transform="translate(-304.11 -50.29)"/><path class="cls-1" d="M327.88,226.24a.41.41,0,0,1,0,.77,1.5,1.5,0,0,1-1.34,0,.41.41,0,0,1,0-.77A1.5,1.5,0,0,1,327.88,226.24Z" transform="translate(-304.11 -50.29)"/><path class="cls-1" d="M331.37,224.22c.37.22.37.56,0,.77a1.42,1.42,0,0,1-1.33,0c-.37-.21-.37-.55,0-.77A1.48,1.48,0,0,1,331.37,224.22Z" transform="translate(-304.11 -50.29)"/><path class="cls-1" d="M334.86,222.21a.41.41,0,0,1,0,.77,1.48,1.48,0,0,1-1.33,0,.41.41,0,0,1,0-.77A1.42,1.42,0,0,1,334.86,222.21Z" transform="translate(-304.11 -50.29)"/><path class="cls-1" d="M338.36,220.19a.41.41,0,0,1,0,.77,1.5,1.5,0,0,1-1.34,0,.41.41,0,0,1,0-.77A1.5,1.5,0,0,1,338.36,220.19Z" transform="translate(-304.11 -50.29)"/><ellipse class="cls-1" cx="37.07" cy="168.27" rx="0.94" ry="0.55"/><path class="cls-1" d="M345.34,216.16a.41.41,0,0,1,0,.77,1.48,1.48,0,0,1-1.33,0,.41.41,0,0,1,0-.77A1.42,1.42,0,0,1,345.34,216.16Z" transform="translate(-304.11 -50.29)"/><path class="cls-1" d="M348.84,214.14a.41.41,0,0,1,0,.77,1.44,1.44,0,0,1-1.34,0,.41.41,0,0,1,0-.77A1.5,1.5,0,0,1,348.84,214.14Z" transform="translate(-304.11 -50.29)"/><path class="cls-1" d="M352.33,212.12a.41.41,0,0,1,0,.78,1.5,1.5,0,0,1-1.34,0,.41.41,0,0,1,0-.78A1.5,1.5,0,0,1,352.33,212.12Z" transform="translate(-304.11 -50.29)"/><path class="cls-1" d="M355.82,210.11a.41.41,0,0,1,0,.77,1.5,1.5,0,0,1-1.34,0,.41.41,0,0,1,0-.77A1.5,1.5,0,0,1,355.82,210.11Z" transform="translate(-304.11 -50.29)"/><ellipse class="cls-1" cx="19.61" cy="174.32" rx="0.94" ry="0.55"/><path class="cls-1" d="M327.88,222.21a.41.41,0,0,1,0,.77,1.5,1.5,0,0,1-1.34,0,.41.41,0,0,1,0-.77A1.44,1.44,0,0,1,327.88,222.21Z" transform="translate(-304.11 -50.29)"/><path class="cls-1" d="M331.37,220.19a.41.41,0,0,1,0,.77,1.48,1.48,0,0,1-1.33,0,.41.41,0,0,1,0-.77A1.48,1.48,0,0,1,331.37,220.19Z" transform="translate(-304.11 -50.29)"/><ellipse class="cls-1" cx="30.08" cy="168.27" rx="0.94" ry="0.55"/><path class="cls-1" d="M341.85,214.14a.41.41,0,0,1,0,.77,1.44,1.44,0,0,1-1.34,0,.41.41,0,0,1,0-.77A1.5,1.5,0,0,1,341.85,214.14Z" transform="translate(-304.11 -50.29)"/><path class="cls-1" d="M345.34,212.12a.41.41,0,0,1,0,.78,1.48,1.48,0,0,1-1.33,0,.41.41,0,0,1,0-.78A1.48,1.48,0,0,1,345.34,212.12Z" transform="translate(-304.11 -50.29)"/><ellipse class="cls-1" cx="44.05" cy="160.2" rx="0.94" ry="0.55"/><path class="cls-1" d="M368.49,214.19a1.5,1.5,0,0,1,1.34,0,.41.41,0,0,1,0,.77,1.5,1.5,0,0,1-1.34,0A.41.41,0,0,1,368.49,214.19Z" transform="translate(-304.11 -50.29)"/><path class="cls-1" d="M373.32,212.17a.41.41,0,0,1,0,.77,1.42,1.42,0,0,1-1.33,0,.41.41,0,0,1,0-.77A1.48,1.48,0,0,1,373.32,212.17Z" transform="translate(-304.11 -50.29)"/><path class="cls-1" d="M376.82,210.16c.37.21.37.55,0,.77a1.5,1.5,0,0,1-1.34,0c-.37-.22-.37-.56,0-.77A1.44,1.44,0,0,1,376.82,210.16Z" transform="translate(-304.11 -50.29)"/><path class="cls-1" d="M380.31,208.14a.41.41,0,0,1,0,.77,1.5,1.5,0,0,1-1.34,0,.41.41,0,0,1,0-.77A1.5,1.5,0,0,1,380.31,208.14Z" transform="translate(-304.11 -50.29)"/><path class="cls-1" d="M365,212.17a1.48,1.48,0,0,1,1.33,0c.37.22.38.56,0,.77a1.47,1.47,0,0,1-1.34,0A.41.41,0,0,1,365,212.17Z" transform="translate(-304.11 -50.29)"/><path class="cls-1" d="M369.83,210.16c.37.21.37.55,0,.77a1.48,1.48,0,0,1-1.33,0c-.37-.22-.37-.56,0-.77A1.42,1.42,0,0,1,369.83,210.16Z" transform="translate(-304.11 -50.29)"/><path class="cls-1" d="M373.32,208.14a.41.41,0,0,1,0,.77,1.48,1.48,0,0,1-1.33,0,.41.41,0,0,1,0-.77A1.48,1.48,0,0,1,373.32,208.14Z" transform="translate(-304.11 -50.29)"/><ellipse class="cls-1" cx="72.04" cy="156.22" rx="0.94" ry="0.55"/><path class="cls-1" d="M380.31,204.11c.37.21.37.55,0,.77a1.5,1.5,0,0,1-1.34,0,.41.41,0,0,1,0-.77A1.44,1.44,0,0,1,380.31,204.11Z" transform="translate(-304.11 -50.29)"/><path class="cls-1" d="M361.51,210.16a1.42,1.42,0,0,1,1.33,0c.37.21.37.55,0,.77a1.48,1.48,0,0,1-1.33,0A.41.41,0,0,1,361.51,210.16Z" transform="translate(-304.11 -50.29)"/><ellipse class="cls-1" cx="61.56" cy="158.24" rx="0.94" ry="0.55"/><ellipse class="cls-1" cx="65.05" cy="156.22" rx="0.94" ry="0.55"/><ellipse class="cls-1" cx="68.54" cy="154.2" rx="0.94" ry="0.55"/><ellipse class="cls-1" cx="72.04" cy="152.19" rx="0.94" ry="0.55"/><path class="cls-1" d="M380.31,200.07c.37.22.37.56,0,.77a1.44,1.44,0,0,1-1.34,0,.41.41,0,0,1,0-.77A1.5,1.5,0,0,1,380.31,200.07Z" transform="translate(-304.11 -50.29)"/><path class="cls-1" d="M358,208.12a1.5,1.5,0,0,1,1.34,0,.41.41,0,0,1,0,.77,1.48,1.48,0,0,1-1.33,0A.41.41,0,0,1,358,208.12Z" transform="translate(-304.11 -50.29)"/><path class="cls-1" d="M362.82,206.1a.41.41,0,0,1,0,.77,1.44,1.44,0,0,1-1.34,0,.41.41,0,0,1,0-.77A1.5,1.5,0,0,1,362.82,206.1Z" transform="translate(-304.11 -50.29)"/><path class="cls-1" d="M366.31,204.08a.41.41,0,0,1,0,.78,1.5,1.5,0,0,1-1.34,0,.41.41,0,0,1,0-.78A1.5,1.5,0,0,1,366.31,204.08Z" transform="translate(-304.11 -50.29)"/><ellipse class="cls-1" cx="65.02" cy="152.16" rx="0.94" ry="0.55"/><path class="cls-1" d="M373.29,200.05a.41.41,0,0,1,0,.77,1.42,1.42,0,0,1-1.33,0,.41.41,0,0,1,0-.77A1.48,1.48,0,0,1,373.29,200.05Z" transform="translate(-304.11 -50.29)"/><path class="cls-1" d="M376.79,198c.37.21.37.55,0,.77a1.5,1.5,0,0,1-1.34,0c-.37-.22-.37-.56,0-.77A1.44,1.44,0,0,1,376.79,198Z" transform="translate(-304.11 -50.29)"/><path class="cls-1" d="M373.29,196a.41.41,0,0,1,0,.77,1.48,1.48,0,0,1-1.33,0,.41.41,0,0,1,0-.77A1.48,1.48,0,0,1,373.29,196Z" transform="translate(-304.11 -50.29)"/><path class="cls-1" d="M374.21,280.67a.41.41,0,0,1,0,.77,1.42,1.42,0,0,1-1.33,0,.41.41,0,0,1,0-.77A1.48,1.48,0,0,1,374.21,280.67Z" transform="translate(-304.11 -50.29)"/><ellipse class="cls-1" cx="72.93" cy="228.75" rx="0.94" ry="0.55"/><path class="cls-1" d="M381.2,276.64a.41.41,0,0,1,0,.77,1.5,1.5,0,0,1-1.34,0,.41.41,0,0,1,0-.77A1.5,1.5,0,0,1,381.2,276.64Z" transform="translate(-304.11 -50.29)"/><path class="cls-1" d="M384.69,274.62a.41.41,0,0,1,0,.77,1.42,1.42,0,0,1-1.33,0,.41.41,0,0,1,0-.77A1.48,1.48,0,0,1,384.69,274.62Z" transform="translate(-304.11 -50.29)"/><path class="cls-1" d="M388.19,272.6a.42.42,0,0,1,0,.78,1.5,1.5,0,0,1-1.34,0,.41.41,0,0,1,0-.78A1.5,1.5,0,0,1,388.19,272.6Z" transform="translate(-304.11 -50.29)"/><path class="cls-1" d="M391.68,270.59a.41.41,0,0,1,0,.77,1.5,1.5,0,0,1-1.34,0,.41.41,0,0,1,0-.77A1.5,1.5,0,0,1,391.68,270.59Z" transform="translate(-304.11 -50.29)"/><ellipse class="cls-1" cx="90.39" cy="218.67" rx="0.94" ry="0.55"/><path class="cls-1" d="M398.66,266.56c.37.21.37.55,0,.77a1.48,1.48,0,0,1-1.33,0c-.37-.22-.37-.56,0-.77A1.42,1.42,0,0,1,398.66,266.56Z" transform="translate(-304.11 -50.29)"/><path class="cls-1" d="M367.23,280.67a.41.41,0,0,1,0,.77,1.44,1.44,0,0,1-1.34,0,.41.41,0,0,1,0-.77A1.5,1.5,0,0,1,367.23,280.67Z" transform="translate(-304.11 -50.29)"/><path class="cls-1" d="M370.72,278.65a.41.41,0,0,1,0,.78,1.48,1.48,0,0,1-1.33,0,.41.41,0,0,1,0-.78A1.48,1.48,0,0,1,370.72,278.65Z" transform="translate(-304.11 -50.29)"/><path class="cls-1" d="M374.21,276.64a.41.41,0,0,1,0,.77,1.48,1.48,0,0,1-1.33,0,.41.41,0,0,1,0-.77A1.48,1.48,0,0,1,374.21,276.64Z" transform="translate(-304.11 -50.29)"/><path class="cls-1" d="M377.71,274.62a.41.41,0,0,1,0,.77,1.44,1.44,0,0,1-1.34,0,.41.41,0,0,1,0-.77A1.5,1.5,0,0,1,377.71,274.62Z" transform="translate(-304.11 -50.29)"/><path class="cls-1" d="M381.2,272.6a.41.41,0,0,1,0,.78,1.5,1.5,0,0,1-1.34,0,.42.42,0,0,1,0-.78A1.5,1.5,0,0,1,381.2,272.6Z" transform="translate(-304.11 -50.29)"/><ellipse class="cls-1" cx="79.91" cy="220.68" rx="0.94" ry="0.55"/><ellipse class="cls-1" cx="83.4" cy="218.67" rx="0.94" ry="0.55"/><path class="cls-1" d="M391.68,266.56c.37.21.37.55,0,.77a1.5,1.5,0,0,1-1.34,0c-.37-.22-.37-.56,0-.77A1.44,1.44,0,0,1,391.68,266.56Z" transform="translate(-304.11 -50.29)"/><ellipse class="cls-1" cx="90.39" cy="214.64" rx="0.94" ry="0.55"/><ellipse class="cls-1" cx="93.88" cy="212.62" rx="0.94" ry="0.55"/><ellipse class="cls-1" cx="58.96" cy="228.75" rx="0.94" ry="0.55"/><path class="cls-1" d="M367.23,276.64a.41.41,0,0,1,0,.77,1.5,1.5,0,0,1-1.34,0,.41.41,0,0,1,0-.77A1.5,1.5,0,0,1,367.23,276.64Z" transform="translate(-304.11 -50.29)"/><path class="cls-1" d="M370.72,274.62a.41.41,0,0,1,0,.77,1.42,1.42,0,0,1-1.33,0,.41.41,0,0,1,0-.77A1.48,1.48,0,0,1,370.72,274.62Z" transform="translate(-304.11 -50.29)"/><path class="cls-1" d="M374.22,272.6a.42.42,0,0,1,0,.78,1.5,1.5,0,0,1-1.34,0,.41.41,0,0,1,0-.78A1.5,1.5,0,0,1,374.22,272.6Z" transform="translate(-304.11 -50.29)"/><ellipse class="cls-1" cx="72.93" cy="220.68" rx="0.94" ry="0.55"/><path class="cls-1" d="M381.2,268.57c.37.22.37.56,0,.77a1.44,1.44,0,0,1-1.34,0,.41.41,0,0,1,0-.77A1.5,1.5,0,0,1,381.2,268.57Z" transform="translate(-304.11 -50.29)"/><path class="cls-1" d="M384.69,266.56c.37.21.37.55,0,.77a1.48,1.48,0,0,1-1.33,0c-.37-.22-.37-.56,0-.77A1.42,1.42,0,0,1,384.69,266.56Z" transform="translate(-304.11 -50.29)"/><path class="cls-1" d="M388.19,264.54a.41.41,0,0,1,0,.77,1.5,1.5,0,0,1-1.34,0,.41.41,0,0,1,0-.77A1.5,1.5,0,0,1,388.19,264.54Z" transform="translate(-304.11 -50.29)"/><ellipse class="cls-1" cx="86.9" cy="212.62" rx="0.94" ry="0.55"/><path class="cls-1" d="M395.17,260.51c.37.21.37.55,0,.77a1.5,1.5,0,0,1-1.34,0,.41.41,0,0,1,0-.77A1.44,1.44,0,0,1,395.17,260.51Z" transform="translate(-304.11 -50.29)"/><path class="cls-1" d="M363.74,274.62a.41.41,0,0,1,0,.77,1.44,1.44,0,0,1-1.34,0,.41.41,0,0,1,0-.77A1.5,1.5,0,0,1,363.74,274.62Z" transform="translate(-304.11 -50.29)"/><path class="cls-1" d="M367.23,272.6a.41.41,0,0,1,0,.78,1.5,1.5,0,0,1-1.34,0,.41.41,0,0,1,0-.78A1.5,1.5,0,0,1,367.23,272.6Z" transform="translate(-304.11 -50.29)"/><ellipse class="cls-1" cx="65.94" cy="220.68" rx="0.94" ry="0.55"/><path class="cls-1" d="M374.22,268.57a.41.41,0,0,1,0,.77,1.44,1.44,0,0,1-1.34,0c-.37-.21-.37-.55,0-.77A1.5,1.5,0,0,1,374.22,268.57Z" transform="translate(-304.11 -50.29)"/><ellipse class="cls-1" cx="72.93" cy="216.65" rx="0.94" ry="0.55"/><ellipse class="cls-1" cx="76.42" cy="214.64" rx="0.94" ry="0.55"/><path class="cls-1" d="M383.36,262.52a1.48,1.48,0,0,1,1.33,0c.37.22.37.56,0,.77a1.42,1.42,0,0,1-1.33,0c-.37-.21-.37-.55,0-.77S383,262.74,383.36,262.52Z" transform="translate(-304.11 -50.29)"/><path class="cls-1" d="M386.85,260.51a1.44,1.44,0,0,1,1.34,0,.41.41,0,0,1,0,.77,1.5,1.5,0,0,1-1.34,0c-.37-.22-.37-.56,0-.77Z" transform="translate(-304.11 -50.29)"/><ellipse class="cls-1" cx="86.9" cy="208.59" rx="0.94" ry="0.55"/><path class="cls-2" d="M507.54,89.73a.32.32,0,0,0-.34,0,11.74,11.74,0,0,0-4.87,10.74c.43,7.06,5.32,8.62,6.11,8.83a.31.31,0,0,0,.21,0c.75-.29,5.43-2.43,5-9.49A11.78,11.78,0,0,0,507.54,89.73Z" transform="translate(-304.11 -50.29)"/><path class="cls-3" d="M513.62,99.56a12.52,12.52,0,0,0-2.33-6.78,9.08,9.08,0,0,0-1.39-.88.32.32,0,0,0-.34,0,11.77,11.77,0,0,0-4.87,10.74,11,11,0,0,0,1.65,5.45,7.43,7.43,0,0,0,2.07,1,.34.34,0,0,0,.2,0C509.37,108.76,514,106.62,513.62,99.56Z" transform="translate(-304.11 -50.29)"/><path class="cls-4" d="M508.52,109.82l-.2,0c-1-.27-6-2-6.47-9.27a12.28,12.28,0,0,1,5.08-11.18.82.82,0,0,1,.83,0h0a12.29,12.29,0,0,1,6.38,10.49c.43,7.32-4.35,9.59-5.31,10A.81.81,0,0,1,508.52,109.82ZM507.4,90.21a11.27,11.27,0,0,0-4.58,10.26c.4,6.66,4.85,8.15,5.74,8.39.76-.33,5-2.35,4.61-9A11.31,11.31,0,0,0,507.4,90.21Z" transform="translate(-304.11 -50.29)"/><path class="cls-5" d="M504.7,264.77h0a3,3,0,0,1-3-3l0-102.41a3,3,0,0,1,3-3h0a3,3,0,0,1,3,3l-.06,102.41A3,3,0,0,1,504.7,264.77Z" transform="translate(-304.11 -50.29)"/><path class="cls-4" d="M504.7,265.26a3.46,3.46,0,0,1-3.46-3.46l.06-102.41a3.46,3.46,0,0,1,6.92,0l-.06,102.41A3.46,3.46,0,0,1,504.7,265.26Zm.06-108.36a2.49,2.49,0,0,0-2.49,2.49l-.06,102.41a2.49,2.49,0,0,0,5,0l.06-102.41A2.5,2.5,0,0,0,504.76,156.9Z" transform="translate(-304.11 -50.29)"/><circle class="cls-5" cx="504.76" cy="143.25" r="28.35" transform="translate(-323.45 68.03) rotate(-13.12)"/><path class="cls-4" d="M504.76,172.08a28.83,28.83,0,1,1,28.83-28.83A28.87,28.87,0,0,1,504.76,172.08Zm0-56.69a27.86,27.86,0,1,0,27.86,27.86A27.9,27.9,0,0,0,504.76,115.39Z" transform="translate(-304.11 -50.29)"/><path class="cls-5" d="M463.92,127.81a.61.61,0,0,1,.19-.62c1.53-1.42,9.5-8,22-4.18C499,127,499.69,136.7,499.72,138.25a.6.6,0,0,1-.11.38c-.89,1.26-6.93,8.94-19.79,5C467.29,139.78,464.39,129.84,463.92,127.81Z" transform="translate(-304.11 -50.29)"/><path class="cls-4" d="M486.82,145.24a24.49,24.49,0,0,1-7.14-1.15c-12.8-3.93-15.77-14.16-16.23-16.17h0a1.11,1.11,0,0,1,.33-1.09c1.51-1.4,9.71-8.21,22.5-4.28,13.05,4,13.89,13.77,13.93,15.69a1.16,1.16,0,0,1-.21.67A16,16,0,0,1,486.82,145.24ZM464.39,127.7c.45,1.93,3.28,11.69,15.57,15.46s18.21-3.34,19.25-4.81a.17.17,0,0,0,0-.1c0-1.8-.83-11-13.24-14.77s-20.12,2.72-21.56,4.06a.17.17,0,0,0-.05.16Z" transform="translate(-304.11 -50.29)"/><path class="cls-2" d="M497.1,100.07a.62.62,0,0,1,.51-.4c2.07-.27,12.4-1,20.38,9.37,8.19,10.66,3.11,19,2.23,20.28a.53.53,0,0,1-.31.24c-1.46.52-10.83,3.27-19-7.39C492.91,111.77,496.3,102,497.1,100.07Z" transform="translate(-304.11 -50.29)"/><path class="cls-3" d="M518.73,110.19c-.38-.49-.77-1-1.16-1.4a21.55,21.55,0,0,0-14-3.38.61.61,0,0,0-.51.39c-.8,1.93-4.19,11.71,3.79,22.1.29.39.59.75.89,1.11a15.44,15.44,0,0,0,12.87,1.71.7.7,0,0,0,.32-.24C521.84,129.2,526.92,120.86,518.73,110.19Z" transform="translate(-304.11 -50.29)"/><path class="cls-4" d="M515.38,130.76c-3.94,0-9.63-1.47-14.88-8.3-8.15-10.62-4.64-20.67-3.85-22.58h0a1.11,1.11,0,0,1,.9-.69c2-.27,12.67-1.07,20.82,9.55,8.32,10.83,3.34,19.27,2.25,20.85a1.07,1.07,0,0,1-.55.43A14.4,14.4,0,0,1,515.38,130.76ZM499.74,100a16.38,16.38,0,0,0-2.06.12.14.14,0,0,0-.13.1h0c-.75,1.82-4.1,11.42,3.73,21.62s16.78,7.84,18.48,7.24l.07-.06c1-1.49,5.69-9.42-2.22-19.72C511.34,101.17,503.59,100,499.74,100Z" transform="translate(-304.11 -50.29)"/><path class="cls-5" d="M456.87,133.36a.71.71,0,0,0-.36.63c0,2.29.64,13.67,13.12,20.9,12.81,7.43,21.19.7,22.46-.44a.71.71,0,0,0,.22-.37c.36-1.67,2-12.29-10.78-19.72C469.06,127.13,458.86,132.22,456.87,133.36Z" transform="translate(-304.11 -50.29)"/><path class="cls-4" d="M481.25,158.84a23.51,23.51,0,0,1-11.86-3.53C456.66,147.94,456,136.25,456,134a1.18,1.18,0,0,1,.6-1.05h0c2-1.12,12.42-6.37,25.15,1,13,7.53,11.44,18.18,11,20.24a1.24,1.24,0,0,1-.38.64A17,17,0,0,1,481.25,158.84Zm-24.14-25.06a.22.22,0,0,0-.12.21c0,2.17.62,13.37,12.88,20.48s20.42.95,21.9-.38a.19.19,0,0,0,.07-.11c.41-1.95,1.84-12-10.55-19.2s-22.29-2.08-24.18-1Z" transform="translate(-304.11 -50.29)"/><path class="cls-5" d="M541.91,162.15a.67.67,0,0,0,.3-.65c-.2-2.28-1.84-13.56-14.91-19.67-13.41-6.26-21.17,1.18-22.34,2.42a.73.73,0,0,0-.18.4c-.21,1.69-.94,12.42,12.47,18.68C530.32,169.44,540,163.46,541.91,162.15Z" transform="translate(-304.11 -50.29)"/><path class="cls-4" d="M528.81,166.51a27.5,27.5,0,0,1-11.76-2.74c-13.59-6.34-13-17.09-12.75-19.18a1.22,1.22,0,0,1,.31-.67c1.44-1.53,9.31-8.88,22.89-2.53,13.33,6.23,15,17.81,15.2,20.07a1.19,1.19,0,0,1-.51,1.09h0A24.09,24.09,0,0,1,528.81,166.51Zm-11.76-26.69a16.2,16.2,0,0,0-11.73,4.76.22.22,0,0,0-.06.13c-.24,2-.78,12.12,12.2,18.18s22.39.11,24.17-1.14h0a.2.2,0,0,0,.1-.21c-.19-2.16-1.79-13.27-14.64-19.27A23.65,23.65,0,0,0,517.05,139.82Z" transform="translate(-304.11 -50.29)"/><path class="cls-5" d="M446.91,146.53a.34.34,0,0,0,0,.34,11.77,11.77,0,0,0,10.26,5.82c7.07.21,9.07-4.52,9.35-5.28a.38.38,0,0,0,0-.21c-.22-.78-1.93-5.63-9-5.85A11.78,11.78,0,0,0,446.91,146.53Z" transform="translate(-304.11 -50.29)"/><path class="cls-4" d="M457.64,153.06h-.49a12.16,12.16,0,0,1-10.57-6,.68.68,0,0,1,0-.7A12.16,12.16,0,0,1,457.52,141c7.25.22,9.06,5.12,9.34,6.11a.7.7,0,0,1,0,.43C466.51,148.47,464.5,153.06,457.64,153.06Zm-10.73-6.53.31.19a11.48,11.48,0,0,0,10,5.6c6.72.21,8.67-4.16,9-5-.27-.88-1.92-5.36-8.67-5.56a11.48,11.48,0,0,0-10.28,5h0Z" transform="translate(-304.11 -50.29)"/><path class="cls-5" d="M457.93,164.34a.34.34,0,0,0-.1.33,11.77,11.77,0,0,0,8.39,8.28c6.77,2.05,9.93-2,10.4-2.67a.34.34,0,0,0,.06-.2c0-.81-.4-5.93-7.17-8A11.75,11.75,0,0,0,457.93,164.34Z" transform="translate(-304.11 -50.29)"/><path class="cls-4" d="M469.87,174a13.29,13.29,0,0,1-3.79-.6,12.26,12.26,0,0,1-8.72-8.64.81.81,0,0,1,.24-.79h0a12.25,12.25,0,0,1,12-2.35c7,2.12,7.49,7.4,7.51,8.43a.76.76,0,0,1-.14.49A8.63,8.63,0,0,1,469.87,174Zm-11.55-9.38a11.34,11.34,0,0,0,8,7.85c6.39,1.93,9.34-1.73,9.86-2.48,0-.83-.47-5.51-6.85-7.45A11.33,11.33,0,0,0,458.32,164.64Z" transform="translate(-304.11 -50.29)"/><path class="cls-2" d="M499.2,145.76a.64.64,0,0,0-.59.23c-1.26,1.55-7.06,9.62-2.56,21.37,4.61,12,14,12.08,15.47,12a.62.62,0,0,0,.36-.14C513,178.3,520,172,515.37,160,510.88,148.21,501.17,146.08,499.2,145.76Z" transform="translate(-304.11 -50.29)"/><path class="cls-3" d="M506.12,156.28a.61.61,0,0,0-.59.22c-1.2,1.49-6.56,8.94-3.09,19.86a14.5,14.5,0,0,0,9.14,3,.61.61,0,0,0,.36-.13c1.12-.91,7.73-6.89,3.83-18.32A20.37,20.37,0,0,0,506.12,156.28Z" transform="translate(-304.11 -50.29)"/><path class="cls-4" d="M511.06,179.86c-2.63,0-11.1-.92-15.46-12.33-4.6-12,1.39-20.31,2.63-21.85a1.1,1.1,0,0,1,1-.39c2,.31,12,2.49,16.55,14.5,4.69,12.24-2.21,18.66-3.64,19.82a1.05,1.05,0,0,1-.64.24Zm-12-33.62a.14.14,0,0,0-.1,0c-1.19,1.47-6.9,9.38-2.49,20.89s13.26,11.79,15,11.71c1.41-1.12,7.87-7.14,3.42-18.76s-13.94-13.59-15.8-13.89h0Z" transform="translate(-304.11 -50.29)"/><path class="cls-5" d="M476.82,104.65a.62.62,0,0,1,.52-.4c2.07-.27,12.39-1,20.37,9.37,8.19,10.66,3.11,19,2.24,20.28a.66.66,0,0,1-.32.25c-1.45.51-10.82,3.26-19-7.4C472.63,116.36,476,106.57,476.82,104.65Z" transform="translate(-304.11 -50.29)"/><path class="cls-4" d="M495.1,135.35c-3.94,0-9.63-1.48-14.87-8.31-8.16-10.62-4.64-20.67-3.86-22.58h0a1.13,1.13,0,0,1,.91-.69c2-.27,12.66-1.06,20.82,9.55,8.31,10.83,3.33,19.27,2.25,20.86a1.12,1.12,0,0,1-.56.42A14.26,14.26,0,0,1,495.1,135.35Zm-15.63-30.74a16.58,16.58,0,0,0-2.07.12.15.15,0,0,0-.13.1h0c-.75,1.82-4.1,11.42,3.73,21.62s16.78,7.84,18.47,7.24l.08-.06c1-1.49,5.69-9.42-2.22-19.72C491.06,105.75,483.31,104.61,479.47,104.61Z" transform="translate(-304.11 -50.29)"/><path class="cls-4" d="M529.06,177.41a.31.31,0,0,0,.26-.22,11.75,11.75,0,0,0-2.64-11.49c-4.61-5.36-9.45-3.64-10.2-3.33a.31.31,0,0,0-.16.14c-.42.69-2.84,5.22,1.77,10.58A11.73,11.73,0,0,0,529.06,177.41Z" transform="translate(-304.11 -50.29)"/><path class="cls-4" d="M527.35,178a12.52,12.52,0,0,1-9.63-4.63c-4.78-5.56-2.35-10.27-1.81-11.15a.79.79,0,0,1,.38-.34c1-.4,6-2.1,10.76,3.46a12.25,12.25,0,0,1,2.73,12,.83.83,0,0,1-.63.54h0A9.53,9.53,0,0,1,527.35,178Zm-8.07-15.71a6.78,6.78,0,0,0-2.61.49c-.41.72-2.56,4.9,1.79,10A11.33,11.33,0,0,0,528.89,177,11.31,11.31,0,0,0,526.32,166C523.75,163,521.15,162.33,519.28,162.33Z" transform="translate(-304.11 -50.29)"/><path class="cls-2" d="M479.7,123.39a.31.31,0,0,0,.26-.22,11.77,11.77,0,0,0-2.64-11.5c-4.61-5.36-9.45-3.64-10.2-3.32a.29.29,0,0,0-.16.13c-.42.7-2.84,5.23,1.77,10.59A11.78,11.78,0,0,0,479.7,123.39Z" transform="translate(-304.11 -50.29)"/><path class="cls-6" d="M479.77,123.62a.33.33,0,0,0,.26-.22,11.75,11.75,0,0,0-2.64-11.49c-.24-.28-.48-.53-.72-.77a8,8,0,0,0-5.31.1.32.32,0,0,0-.16.14c-.42.7-2.85,5.23,1.77,10.59a12.89,12.89,0,0,0,1,1.06A11.08,11.08,0,0,0,479.77,123.62Z" transform="translate(-304.11 -50.29)"/><path class="cls-4" d="M478,124a12.54,12.54,0,0,1-9.63-4.64c-4.78-5.56-2.35-10.26-1.81-11.15a.81.81,0,0,1,.38-.33c1-.4,6-2.1,10.76,3.46a12.26,12.26,0,0,1,2.73,12,.82.82,0,0,1-.63.55h0A10.49,10.49,0,0,1,478,124Zm-8.08-15.71a7.15,7.15,0,0,0-2.61.48c-.4.73-2.55,4.91,1.8,10a11.32,11.32,0,0,0,10.43,4.18A11.3,11.3,0,0,0,477,112C474.39,109,471.79,108.31,469.91,108.31Z" transform="translate(-304.11 -50.29)"/><path class="cls-5" d="M474.52,182.61a.32.32,0,0,0,.3.18,11.77,11.77,0,0,0,10-6.19c3.6-6.09.41-10.12-.12-10.73a.34.34,0,0,0-.18-.11c-.8-.18-5.87-1-9.46,5.08A11.75,11.75,0,0,0,474.52,182.61Z" transform="translate(-304.11 -50.29)"/><path class="cls-4" d="M474.87,183.27h-.06a.81.81,0,0,1-.71-.42h0a12.25,12.25,0,0,1,.57-12.26c3.73-6.32,9-5.52,10-5.3a.87.87,0,0,1,.44.26c.68.77,3.91,5,.18,11.29A12.27,12.27,0,0,1,474.87,183.27Zm8.28-17.19c-1.81,0-5.08.66-7.64,5a11.34,11.34,0,0,0-.61,11.23,11.34,11.34,0,0,0,9.54-6c3.38-5.74.53-9.47-.08-10.16A6.29,6.29,0,0,0,483.15,166.08Z" transform="translate(-304.11 -50.29)"/><path class="cls-2" d="M549.4,112.69a.36.36,0,0,0-.25-.24,11.79,11.79,0,0,0-11.23,3.61c-4.94,5.06-2.82,9.73-2.44,10.45a.28.28,0,0,0,.15.15c.73.36,5.45,2.39,10.4-2.67A11.77,11.77,0,0,0,549.4,112.69Z" transform="translate(-304.11 -50.29)"/><path class="cls-3" d="M546,124.3a12,12,0,0,0,3.69-9.11A11.85,11.85,0,0,0,539,118.91c-3.09,3.16-3.42,6.17-3.14,8.16C537,127.59,541.39,129,546,124.3Z" transform="translate(-304.11 -50.29)"/><path class="cls-4" d="M538.92,127.86a8,8,0,0,1-3.5-.77.79.79,0,0,1-.37-.35c-.48-.92-2.61-5.77,2.53-11A12.28,12.28,0,0,1,549.27,112a.82.82,0,0,1,.59.58,12.25,12.25,0,0,1-3.49,11.77C543.63,127.13,541,127.86,538.92,127.86Zm-3-1.61c.93.44,5.21,2.09,9.79-2.59A11.33,11.33,0,0,0,549,112.9a11.36,11.36,0,0,0-10.68,3.5C533.68,121.09,535.43,125.33,535.89,126.25Z" transform="translate(-304.11 -50.29)"/><path class="cls-5" d="M534,106.8a.61.61,0,0,1,.59.27c1.2,1.71,6.64,10.51,1.12,22.4-5.67,12.19-15.41,11.55-17,11.36a.56.56,0,0,1-.36-.17c-1.13-1-7.91-8.08-2.24-20.28C521.68,108.5,531.93,107,534,106.8Z" transform="translate(-304.11 -50.29)"/><path class="cls-4" d="M520.11,141.39a11,11,0,0,1-1.41-.08,1.18,1.18,0,0,1-.63-.29c-1.4-1.31-8.1-8.47-2.35-20.84C521.36,108,531.9,106.5,534,106.31h0a1.13,1.13,0,0,1,1,.48c1.18,1.69,6.8,10.74,1.16,22.88C531.29,140.14,523.54,141.39,520.11,141.39ZM534,107.28c-2,.17-12,1.65-17.44,13.3s.82,18.5,2.13,19.73a.15.15,0,0,0,.09,0c1.79.21,11,.68,16.45-11.09s.06-20.3-1.07-21.91a.15.15,0,0,0-.16-.07Z" transform="translate(-304.11 -50.29)"/><path class="cls-2" d="M554,125.67a.61.61,0,0,0-.39-.5c-1.84-.76-11.23-4-21.21,3.64-10.23,7.87-7.59,16.86-7.09,18.26a.53.53,0,0,0,.23.3c1.23.84,9.23,5.72,19.47-2.15C555,137.56,554.23,127.65,554,125.67Z" transform="translate(-304.11 -50.29)"/><path class="cls-3" d="M554,126.21c-3.93-.84-11-1.12-18.3,4.52-9.9,7.6-7.76,16.25-7.16,18.09C532,150,538,150.56,545,145.19,554.21,138.1,554.28,129.08,554,126.21Z" transform="translate(-304.11 -50.29)"/><path class="cls-4" d="M533.35,150.14a14.7,14.7,0,0,1-8.11-2.37,1.07,1.07,0,0,1-.42-.54c-.61-1.74-3.14-10.81,7.26-18.8,10.19-7.83,19.86-4.46,21.69-3.71a1.12,1.12,0,0,1,.68.89c.26,2,1,12.16-9.18,20C540.75,149.08,536.65,150.14,533.35,150.14Zm12.95-25.82a22.08,22.08,0,0,0-13.63,4.88c-9.87,7.58-7.51,16.08-6.94,17.71,1.48,1,9.08,5.51,18.95-2.07s9.05-17.24,8.81-19.11h0a.13.13,0,0,0-.09-.11A19.26,19.26,0,0,0,546.3,124.32Z" transform="translate(-304.11 -50.29)"/><path class="cls-2" d="M534.69,146.61a.35.35,0,0,0-.17.3,11.78,11.78,0,0,0,6.65,9.74c6.25,3.32,10.13-.05,10.71-.61a.3.3,0,0,0,.1-.19c.14-.8.75-5.9-5.5-9.21A11.75,11.75,0,0,0,534.69,146.61Z" transform="translate(-304.11 -50.29)"/><path class="cls-3" d="M552,156.05c.14-.8.75-5.9-5.5-9.22l-.69-.33a11.36,11.36,0,0,0-7.49,1.43.34.34,0,0,0-.16.3,11.77,11.77,0,0,0,6.65,9.74l.51.25a8.1,8.1,0,0,0,6.58-2A.27.27,0,0,0,552,156.05Z" transform="translate(-304.11 -50.29)"/><path class="cls-4" d="M546.45,158.59a11.65,11.65,0,0,1-5.51-1.51,12.26,12.26,0,0,1-6.9-10.15.81.81,0,0,1,.39-.73h0a12.26,12.26,0,0,1,12.28,0c6.48,3.43,5.93,8.7,5.75,9.72a.77.77,0,0,1-.24.45A8.4,8.4,0,0,1,546.45,158.59ZM535,147a11.33,11.33,0,0,0,6.39,9.25c5.89,3.12,9.49.09,10.15-.54.11-.83.59-5.5-5.3-8.62A11.29,11.29,0,0,0,535,147Z" transform="translate(-304.11 -50.29)"/><path class="cls-4" d="M527.26,98.05a.31.31,0,0,0-.3-.15,11.76,11.76,0,0,0-9.53,6.95c-3.11,6.36.38,10.13,1,10.69a.34.34,0,0,0,.19.09c.81.12,5.92.56,9-5.79A11.77,11.77,0,0,0,527.26,98.05Z" transform="translate(-304.11 -50.29)"/><path class="cls-4" d="M519.43,116.17a6.21,6.21,0,0,1-.92-.06.83.83,0,0,1-.46-.22c-.74-.72-4.28-4.66-1-11.25a12.24,12.24,0,0,1,9.92-7.22.83.83,0,0,1,.75.36h0a12.3,12.3,0,0,1,.38,12.27C525.4,115.47,521.36,116.17,519.43,116.17Zm7.48-17.78a11.3,11.3,0,0,0-9,6.68c-2.94,6,.2,9.48.86,10.13.83.08,5.52.42,8.45-5.58A11.35,11.35,0,0,0,526.91,98.39Z" transform="translate(-304.11 -50.29)"/><path class="cls-2" d="M495.69,120a.62.62,0,0,1,.51-.4c2.07-.27,12.4-1,20.38,9.37,8.19,10.66,3.11,19,2.23,20.28a.59.59,0,0,1-.31.25c-1.46.51-10.83,3.26-19-7.4C491.5,131.72,494.89,121.93,495.69,120Z" transform="translate(-304.11 -50.29)"/><path class="cls-3" d="M513.21,125.31a21.48,21.48,0,0,0-13-2.82.63.63,0,0,0-.52.39c-.79,1.93-4.19,11.71,3.8,22.1a24.47,24.47,0,0,0,3,3.26,15.31,15.31,0,0,0,12.15,1.31.64.64,0,0,0,.32-.24c.87-1.28,6-9.62-2.24-20.29A27,27,0,0,0,513.21,125.31Z" transform="translate(-304.11 -50.29)"/><path class="cls-4" d="M514,150.71c-3.94,0-9.63-1.48-14.88-8.31-8.15-10.61-4.64-20.67-3.85-22.58h0a1.11,1.11,0,0,1,.9-.69c2.05-.27,12.67-1.07,20.82,9.55,8.32,10.83,3.34,19.27,2.26,20.86a1.12,1.12,0,0,1-.56.42A14.32,14.32,0,0,1,514,150.71Zm-17.84-30.52c-.75,1.82-4.1,11.43,3.73,21.62s16.78,7.84,18.48,7.24l.07-.06c1-1.49,5.69-9.42-2.22-19.72s-18-9.43-19.92-9.18a.17.17,0,0,0-.14.1Z" transform="translate(-304.11 -50.29)"/><path class="cls-2" d="M530.74,234.74a.51.51,0,0,0,.23-.48c-.15-1.68-1.36-10-11-14.5-9.88-4.62-15.6.87-16.46,1.79a.53.53,0,0,0-.14.29c-.15,1.25-.69,9.15,9.2,13.77C522.2,240.11,529.36,235.71,530.74,234.74Z" transform="translate(-304.11 -50.29)"/><path class="cls-3" d="M530.55,234.61a.5.5,0,0,0,.23-.48c0-.16,0-.39-.08-.66-8.09-2.41-12.77,2.08-13.54,2.9a.59.59,0,0,0-.14.3q0,.14,0,.36A17.71,17.71,0,0,0,530.55,234.61Z" transform="translate(-304.11 -50.29)"/><path class="cls-4" d="M521.09,238.08a20.5,20.5,0,0,1-8.73-2c-10.09-4.71-9.66-12.71-9.47-14.27a1,1,0,0,1,.27-.56c1.07-1.15,6.92-6.61,17-1.9,9.89,4.63,11.12,13.22,11.27,14.9a1,1,0,0,1-.43.92A17.88,17.88,0,0,1,521.09,238.08Zm-8.67-19.67a11.8,11.8,0,0,0-8.56,3.47c-.18,1.46-.57,8.86,8.91,13.29s16.39.09,17.7-.83h0s0,0,0,0c-.14-1.58-1.31-9.7-10.72-14.1A17.34,17.34,0,0,0,512.42,218.41Z" transform="translate(-304.11 -50.29)"/><path class="cls-2" d="M524.91,191.89a.47.47,0,0,1,.44.2c.88,1.26,4.9,7.75.82,16.51-4.17,9-11.36,8.52-12.49,8.38a.47.47,0,0,1-.27-.12c-.83-.78-5.83-6-1.65-15C515.83,193.14,523.38,192,524.91,191.89Z" transform="translate(-304.11 -50.29)"/><path class="cls-3" d="M513.82,204.48c-2.56,5.49-1.68,9.56-.43,12.07a.45.45,0,0,0,.21.1c1.14.13,8.32.61,12.5-8.38a16.94,16.94,0,0,0,.62-13.78C524.77,194.72,517.71,196.1,513.82,204.48Z" transform="translate(-304.11 -50.29)"/><path class="cls-4" d="M514.67,217.52a8.09,8.09,0,0,1-1-.06.93.93,0,0,1-.54-.25c-1-1-6-6.31-1.76-15.51,4.19-9,12-10.15,13.55-10.29a1,1,0,0,1,.88.41c.88,1.25,5,8,.86,17C523,216.59,517.23,217.52,514.67,217.52ZM525,192.37c-1.44.13-8.8,1.22-12.76,9.74s.59,13.5,1.55,14.39c1.29.16,8,.5,12-8.1S525.78,193.56,525,192.37Z" transform="translate(-304.11 -50.29)"/><path class="cls-5" d="M538.14,205.8a.42.42,0,0,0-.28-.36c-1.36-.57-8.29-3-15.64,2.68-7.54,5.8-5.59,12.43-5.23,13.46a.41.41,0,0,0,.17.22c.91.62,6.81,4.22,14.35-1.58C538.87,214.57,538.33,207.26,538.14,205.8Z" transform="translate(-304.11 -50.29)"/><path class="cls-4" d="M522.94,224a11,11,0,0,1-6.05-1.77.91.91,0,0,1-.36-.46c-.45-1.29-2.34-8.06,5.4-14,7.57-5.82,14.75-3.31,16.11-2.75a.94.94,0,0,1,.58.75h0c.19,1.46.76,9-6.81,14.86A14.41,14.41,0,0,1,522.94,224Zm9.56-19a16.14,16.14,0,0,0-10,3.58c-7.21,5.53-5.49,11.73-5.07,12.91,1,.69,6.56,4,13.77-1.59s6.62-12.59,6.44-14h0l.48-.07-.48.06A14.4,14.4,0,0,0,532.5,204.93Z" transform="translate(-304.11 -50.29)"/><path class="cls-5" d="M496.67,201.63a.46.46,0,0,1,.38-.29c1.52-.2,9.14-.76,15,6.9,6,7.87,2.29,14,1.65,15a.58.58,0,0,1-.23.18c-1.08.37-8,2.41-14-5.46C493.58,210.26,496.08,203.05,496.67,201.63Z" transform="translate(-304.11 -50.29)"/><path class="cls-4" d="M510.15,224.39c-2.94,0-7.17-1.1-11.07-6.17-6.05-7.88-3.44-15.36-2.86-16.77h0a.93.93,0,0,1,.77-.59c1.52-.2,9.41-.79,15.46,7.09,6.18,8.05,2.48,14.34,1.67,15.52a1,1,0,0,1-.47.36A10.68,10.68,0,0,1,510.15,224.39Zm-13-22.57c-.55,1.34-3,8.35,2.73,15.81s12.24,5.73,13.48,5.29c.73-1.08,4.13-6.86-1.64-14.38S498.55,201.63,497.12,201.82Z" transform="translate(-304.11 -50.29)"/><path class="cls-5" d="M499.69,152.23a.59.59,0,0,0-.38-.49c-1.85-.76-11.24-4-21.21,3.64-10.24,7.86-7.59,16.86-7.1,18.26a.64.64,0,0,0,.24.3c1.22.84,9.23,5.71,19.46-2.15C500.68,164.13,500,154.22,499.69,152.23Z" transform="translate(-304.11 -50.29)"/><path class="cls-4" d="M479.07,176.71a14.7,14.7,0,0,1-8.11-2.37,1,1,0,0,1-.41-.54c-.62-1.74-3.15-10.81,7.25-18.8,10.2-7.84,19.86-4.47,21.7-3.71a1.08,1.08,0,0,1,.67.88h0c.26,2,1,12.17-9.17,20C486.47,175.65,482.38,176.71,479.07,176.71Zm13-25.82a22,22,0,0,0-13.64,4.88c-9.87,7.58-7.5,16.08-6.93,17.71,1.47,1,9.08,5.51,19-2.07s9-17.24,8.8-19.11h0a.13.13,0,0,0-.08-.12A19.38,19.38,0,0,0,492,150.89Z" transform="translate(-304.11 -50.29)"/><path class="cls-5" d="M479.93,161a.63.63,0,0,1-.31-.58c.08-2.08,1.07-12.39,12.65-18.51,11.89-6.28,19.27.12,20.38,1.2a.62.62,0,0,1,.18.35c.27,1.53,1.41,11.23-10.48,17.51C490.76,167.09,481.69,162.11,479.93,161Z" transform="translate(-304.11 -50.29)"/><path class="cls-4" d="M490.89,164.44a21.75,21.75,0,0,1-11.22-3h0a1.12,1.12,0,0,1-.54-1c.09-2.06,1.08-12.66,12.92-18.92,12.07-6.38,19.56,0,20.93,1.28a1.11,1.11,0,0,1,.33.62c.33,1.89,1.34,11.64-10.74,18A24.73,24.73,0,0,1,490.89,164.44Zm-10.71-3.85c1.67,1,10.57,6,21.94-.05s10.54-15.22,10.24-17c-1.34-1.33-8.38-7.27-19.86-1.2s-12.32,16.13-12.4,18.1a.16.16,0,0,0,.08.15Z" transform="translate(-304.11 -50.29)"/><path class="cls-2" d="M483.73,130.93a.31.31,0,0,0-.19.29,11.76,11.76,0,0,0,5.68,10.33c5.91,3.89,10.09.91,10.73.4a.34.34,0,0,0,.11-.17c.22-.79,1.31-5.8-4.6-9.7A11.76,11.76,0,0,0,483.73,130.93Z" transform="translate(-304.11 -50.29)"/><path class="cls-6" d="M499.72,141.86a.42.42,0,0,0,.11-.18c.21-.76,1.21-5.45-4-9.27a11.42,11.42,0,0,0-8,.57.34.34,0,0,0-.19.28,11.7,11.7,0,0,0,5,9.84A8.25,8.25,0,0,0,499.72,141.86Z" transform="translate(-304.11 -50.29)"/><path class="cls-4" d="M495.15,144A11.22,11.22,0,0,1,489,142a12.29,12.29,0,0,1-5.9-10.76.81.81,0,0,1,.46-.69h0a12.25,12.25,0,0,1,12.22,1.18c6.13,4,5.07,9.23,4.8,10.23a.81.81,0,0,1-.28.42A8.36,8.36,0,0,1,495.15,144ZM484,131.33a11.28,11.28,0,0,0,5.47,9.81c5.57,3.68,9.44,1,10.15.44.2-.81,1.12-5.42-4.45-9.09A11.27,11.27,0,0,0,484,131.33Z" transform="translate(-304.11 -50.29)"/><path class="cls-4" d="M522.79,219.44a.32.32,0,0,0-.18.29,11.75,11.75,0,0,0,5.68,10.33c5.9,3.89,10.09.91,10.72.41a.36.36,0,0,0,.12-.18c.21-.78,1.31-5.8-4.6-9.7A11.78,11.78,0,0,0,522.79,219.44Z" transform="translate(-304.11 -50.29)"/><path class="cls-4" d="M534.22,232.53a11.22,11.22,0,0,1-6.2-2.07,12.29,12.29,0,0,1-5.9-10.76.81.81,0,0,1,.46-.69h0a12.25,12.25,0,0,1,12.22,1.18c6.13,4,5.07,9.23,4.8,10.23a.87.87,0,0,1-.28.42A8.36,8.36,0,0,1,534.22,232.53Zm-11.13-12.69a11.28,11.28,0,0,0,5.47,9.81c5.56,3.68,9.43,1,10.15.44.2-.81,1.12-5.42-4.45-9.09A11.3,11.3,0,0,0,523.09,219.84Z" transform="translate(-304.11 -50.29)"/><path class="cls-4" d="M337.21,135.87a.34.34,0,0,1,.33.1,11.78,11.78,0,0,1,2.24,11.58c-2,6.77-7.17,7.15-8,7.17a.36.36,0,0,1-.2-.06c-.66-.47-4.71-3.63-2.66-10.4A11.75,11.75,0,0,1,337.21,135.87Z" transform="translate(-304.11 -50.29)"/><path class="cls-4" d="M331.79,155.21a.8.8,0,0,1-.47-.15c-.85-.6-5-3.91-2.86-10.94a12.28,12.28,0,0,1,8.64-8.72h0a.8.8,0,0,1,.79.24,12.26,12.26,0,0,1,2.35,12.05c-2.12,7-7.4,7.49-8.44,7.52Zm5.45-18.85a11.32,11.32,0,0,0-7.85,8c-1.93,6.38,1.73,9.33,2.48,9.85.83,0,5.51-.47,7.44-6.85A11.31,11.31,0,0,0,337.24,136.36Z" transform="translate(-304.11 -50.29)"/><path class="cls-5" d="M339.25,206.74h0a3,3,0,0,0,3-3l0-36.11a3,3,0,0,0-3-3h0a3,3,0,0,0-3,3l0,36.11A3,3,0,0,0,339.25,206.74Z" transform="translate(-304.11 -50.29)"/><path class="cls-4" d="M339.25,207.23a3.46,3.46,0,0,1-3.45-3.46l0-36.11a3.46,3.46,0,1,1,6.91,0l0,36.11A3.46,3.46,0,0,1,339.25,207.23Zm0-42.06a2.49,2.49,0,0,0-2.49,2.49l0,36.11a2.49,2.49,0,0,0,5,0l0-36.11A2.49,2.49,0,0,0,339.23,165.17Z" transform="translate(-304.11 -50.29)"/><path class="cls-5" d="M313.21,176.71a.5.5,0,0,1-.22-.48c.14-1.68,1.36-10,11-14.5,9.89-4.62,15.61.87,16.46,1.79a.47.47,0,0,1,.14.29c.15,1.25.69,9.15-9.19,13.77C321.75,182.08,314.6,177.68,313.21,176.71Z" transform="translate(-304.11 -50.29)"/><path class="cls-4" d="M322.87,180.05a18,18,0,0,1-9.94-2.94h0a1,1,0,0,1-.43-.92c.15-1.68,1.38-10.27,11.28-14.9,10.09-4.71,16,.75,17,1.9a1,1,0,0,1,.26.56c.19,1.56.62,9.56-9.47,14.27A20.46,20.46,0,0,1,322.87,180.05Zm8.66-19.67a17.27,17.27,0,0,0-7.34,1.79c-9.41,4.4-10.58,12.52-10.72,14.11l0,0c1.3.92,8.28,5.23,17.69.83s9.1-11.83,8.92-13.27A11.78,11.78,0,0,0,331.53,160.38Z" transform="translate(-304.11 -50.29)"/><path class="cls-2" d="M319.64,135.76a.47.47,0,0,0-.43.21c-.88,1.25-4.9,7.75-.83,16.51,4.18,9,11.37,8.51,12.5,8.38a.5.5,0,0,0,.26-.13c.84-.78,5.83-6,1.65-14.95C328.72,137,321.17,135.9,319.64,135.76Z" transform="translate(-304.11 -50.29)"/><path class="cls-3" d="M331,149.74c-4.08-8.76-11.63-9.88-13.15-10a.49.49,0,0,0-.44.2l-.12.18a17,17,0,0,0,.87,13.11c4.18,9,11.37,8.51,12.5,8.38a.5.5,0,0,0,.26-.13,8.52,8.52,0,0,0,1.19-1.39C332.92,157.57,333.07,154.11,331,149.74Z" transform="translate(-304.11 -50.29)"/><path class="cls-4" d="M329.89,161.39c-2.56,0-8.33-.93-11.95-8.71-4.18-9,0-15.73.87-17a1,1,0,0,1,.88-.41h0c1.52.14,9.36,1.28,13.54,10.29,4.28,9.21-.71,14.54-1.76,15.52a.94.94,0,0,1-.53.25C330.72,161.36,330.36,161.39,329.89,161.39ZM319.6,136.25h0c-.81,1.17-4.73,7.49-.77,16s10.7,8.26,12,8.1c.95-.89,5.53-5.79,1.54-14.39s-11.33-9.6-12.76-9.73Z" transform="translate(-304.11 -50.29)"/><path class="cls-2" d="M305.81,147.77a.45.45,0,0,1,.29-.36c1.36-.56,8.28-3,15.63,2.68,7.55,5.8,5.6,12.43,5.23,13.46a.41.41,0,0,1-.17.22c-.9.62-6.8,4.22-14.35-1.58C305.09,156.54,305.62,149.23,305.81,147.77Z" transform="translate(-304.11 -50.29)"/><path class="cls-3" d="M321.44,154.24c-7-5.37-13.59-3.46-15.39-2.78a16.26,16.26,0,0,0,6.57,10.9c7.55,5.8,13.45,2.21,14.36,1.59a.43.43,0,0,0,.15-.2C326.94,161.09,325.72,157.54,321.44,154.24Z" transform="translate(-304.11 -50.29)"/><path class="cls-4" d="M321,165.94a14.43,14.43,0,0,1-8.87-3.37c-7.57-5.82-7-13.4-6.81-14.86h0a.94.94,0,0,1,.58-.75c1.36-.56,8.54-3.07,16.12,2.75,7.73,5.94,5.85,12.71,5.39,14a1,1,0,0,1-.35.46A11,11,0,0,1,321,165.94Zm-14.72-18.09c-.18,1.4-.69,8.48,6.44,14s12.75,2.28,13.79,1.56c.4-1.17,2.12-7.36-5.08-12.89S307.6,147.31,306.29,147.85Z" transform="translate(-304.11 -50.29)"/><path class="cls-5" d="M348.12,143.55a.48.48,0,0,0-.38-.29c-1.53-.2-9.14-.76-15,6.9-6,7.87-2.29,14-1.65,15a.58.58,0,0,0,.23.18c1.08.37,8,2.4,14-5.46C351.21,152.18,348.7,145,348.12,143.55Z" transform="translate(-304.11 -50.29)"/><path class="cls-4" d="M334.64,166.31a10.68,10.68,0,0,1-3.5-.56.94.94,0,0,1-.47-.36c-.81-1.18-4.52-7.47,1.66-15.52,6.06-7.89,13.95-7.29,15.47-7.09a.94.94,0,0,1,.77.59c.58,1.41,3.19,8.88-2.86,16.77C341.81,165.21,337.58,166.31,334.64,166.31Zm11.55-22.67a16.33,16.33,0,0,0-13.09,6.82c-5.77,7.52-2.37,13.3-1.63,14.38,1.23.43,7.7,2.22,13.47-5.29s3.28-14.48,2.73-15.81h0l.45-.18-.45.18A11,11,0,0,0,346.19,143.64Z" transform="translate(-304.11 -50.29)"/><path class="cls-4" d="M321.16,161.41a.35.35,0,0,1,.19.29A11.77,11.77,0,0,1,315.66,172c-5.9,3.89-10.08.91-10.72.41a.36.36,0,0,1-.12-.18c-.21-.78-1.3-5.8,4.6-9.7A11.78,11.78,0,0,1,321.16,161.41Z" transform="translate(-304.11 -50.29)"/><path class="cls-4" d="M309.73,174.5a8.4,8.4,0,0,1-5.09-1.68.77.77,0,0,1-.28-.43c-.28-1-1.33-6.19,4.8-10.23A12.25,12.25,0,0,1,321.38,161h0a.82.82,0,0,1,.45.69,12.25,12.25,0,0,1-5.9,10.76A11.17,11.17,0,0,1,309.73,174.5Zm6.67-13.65a12.08,12.08,0,0,0-6.71,2.12c-5.57,3.67-4.64,8.28-4.4,9.16.67.5,4.54,3.17,10.11-.5a11.35,11.35,0,0,0,5.47-9.82A10.59,10.59,0,0,0,316.4,160.85Z" transform="translate(-304.11 -50.29)"/><path class="cls-7" d="M332,221.39a6.72,6.72,0,0,1-3.39-.9c-2.65-1.53-4.17-4.84-4.17-9.07V183.2c0-7.32,4.36-15.56,9.93-18.77l30.41-17.56c2.84-1.64,5.69-1.81,8-.46,2.65,1.53,4.17,4.83,4.17,9.07V183.7c0,7.31-4.36,15.55-9.93,18.77L336.61,220A9.31,9.31,0,0,1,332,221.39ZM369.37,150a5.05,5.05,0,0,0-2.36.75l-30.4,17.56c-4.16,2.4-7.67,9.2-7.67,14.86v28.22c0,2.54.71,4.47,1.91,5.16s2.52.1,3.5-.47l30.41-17.55c4.16-2.4,7.67-9.21,7.67-14.86V155.48c0-2.54-.72-4.47-1.91-5.16A2.24,2.24,0,0,0,369.37,150Z" transform="translate(-304.11 -50.29)"/><path class="cls-4" d="M332,221.87a7.17,7.17,0,0,1-3.63-1c-2.8-1.62-4.41-5.08-4.41-9.49V183.2c0-7.47,4.47-15.9,10.17-19.19l30.41-17.56c3-1.73,6-1.9,8.5-.46,2.8,1.62,4.41,5.08,4.41,9.49V183.7c0,7.47-4.47,15.9-10.17,19.19l-30.41,17.55A9.72,9.72,0,0,1,332,221.87ZM369.39,146a8.9,8.9,0,0,0-4.39,1.3l-30.41,17.55c-5.43,3.14-9.68,11.2-9.68,18.36v28.22c0,4.06,1.43,7.21,3.93,8.65,2.16,1.25,4.85,1.08,7.53-.47l30.4-17.55c5.43-3.14,9.69-11.2,9.69-18.35V155.48c0-4.06-1.43-7.21-3.93-8.65A6.16,6.16,0,0,0,369.39,146ZM332,217.36a2.71,2.71,0,0,1-1.38-.36c-1.37-.79-2.16-2.83-2.16-5.58V183.2c0-5.81,3.63-12.81,7.92-15.28l30.4-17.56c1.57-.9,3-1.06,4-.46,1.37.79,2.15,2.82,2.15,5.58V183.7c0,5.8-3.62,12.8-7.91,15.28l-30.41,17.55A5.27,5.27,0,0,1,332,217.36Zm37.38-66.85a4.44,4.44,0,0,0-2.11.69l-30.41,17.55c-4,2.33-7.43,8.94-7.43,14.45v28.22c0,2.33.64,4.14,1.67,4.74s2.15,0,3-.46l30.41-17.56c4-2.32,7.42-8.94,7.42-14.44V155.48c0-2.33-.64-4.15-1.67-4.74A1.68,1.68,0,0,0,369.37,150.51Z" transform="translate(-304.11 -50.29)"/><path class="cls-4" d="M334.5,223.12a6.72,6.72,0,0,1-3.39-.9c-2.65-1.53-4.17-4.84-4.17-9.07V184.92c0-7.31,4.36-15.55,9.93-18.77l30.41-17.55c2.84-1.64,5.69-1.81,8-.47,2.66,1.53,4.18,4.84,4.18,9.08v28.22c0,7.31-4.37,15.55-9.93,18.77l-30.41,17.55A9.28,9.28,0,0,1,334.5,223.12Zm37.39-71.37a5,5,0,0,0-2.35.76l-30.41,17.55c-4.16,2.41-7.67,9.21-7.67,14.86v28.23c0,2.53.71,4.46,1.91,5.16s2.52.1,3.5-.47l30.41-17.55c4.16-2.4,7.67-9.21,7.67-14.86V157.21c0-2.54-.72-4.47-1.91-5.17A2.34,2.34,0,0,0,371.89,151.75Z" transform="translate(-304.11 -50.29)"/><path class="cls-4" d="M334.5,223.6a7.17,7.17,0,0,1-3.63-1c-2.8-1.62-4.41-5.08-4.41-9.49V184.92c0-7.46,4.47-15.89,10.17-19.19L367,148.18c3-1.73,6-1.9,8.5-.46,2.8,1.61,4.41,5.07,4.41,9.49v28.22c0,7.46-4.47,15.89-10.17,19.19l-30.41,17.55A9.72,9.72,0,0,1,334.5,223.6Zm37.41-75.88a8.8,8.8,0,0,0-4.39,1.3l-30.41,17.55c-5.43,3.14-9.68,11.2-9.68,18.35v28.23c0,4,1.43,7.21,3.93,8.65,2.16,1.25,4.85,1.08,7.53-.47l30.4-17.55c5.44-3.14,9.69-11.2,9.69-18.35V157.21c0-4.06-1.43-7.21-3.93-8.66A6.25,6.25,0,0,0,371.91,147.72Zm-37.39,71.36a2.71,2.71,0,0,1-1.39-.35c-1.37-.8-2.16-2.83-2.16-5.58V184.92c0-5.8,3.63-12.8,7.92-15.28l30.4-17.55c1.57-.9,2.95-1.06,4-.47,1.37.8,2.15,2.83,2.15,5.59v28.22c0,5.8-3.62,12.8-7.91,15.28l-30.41,17.55A5.25,5.25,0,0,1,334.52,219.08Zm37.37-66.84a4.44,4.44,0,0,0-2.11.69l-30.41,17.55c-4,2.33-7.43,8.94-7.43,14.44v28.23c0,2.32.64,4.14,1.67,4.74s2.15,0,3-.47L367,199.87c4-2.33,7.43-8.94,7.43-14.44V157.21c0-2.33-.64-4.15-1.68-4.75A1.74,1.74,0,0,0,371.89,152.24Z" transform="translate(-304.11 -50.29)"/><path class="cls-5" d="M461.91,266.68l60.64-50.29L383,135.39c-1.3-.88-3.06-.87-5,.24l-51.57,29.78c-4,2.33-7.31,8.58-7.31,14,0,2.95,1,5,2.53,5.91h0l.15.09Z" transform="translate(-304.11 -50.29)"/><path class="cls-8" d="M470,260.34l49.32-40.9-136.06-79c-1.31-.88-3.06-.87-5,.24L326.7,170.47a13,13,0,0,0-4.06,4Z" transform="translate(-304.11 -50.29)"/><path class="cls-4" d="M462,267.27l-.29-.17L321.6,185.8l-.11-.06c-1.83-1.07-2.83-3.37-2.83-6.37,0-5.52,3.38-12,7.55-14.38l51.57-29.78c2-1.17,4-1.25,5.51-.22l140.1,81.33Zm-81.06-132a5.4,5.4,0,0,0-2.64.8l-51.57,29.78c-3.89,2.25-7.07,8.32-7.07,13.54,0,2.65.84,4.64,2.29,5.49l.17.1,139.78,81.13,59.85-49.63L382.77,135.81A3.34,3.34,0,0,0,380.9,135.25Z" transform="translate(-304.11 -50.29)"/><path class="cls-4" d="M518.1,236.44l-51.57,29.77c-4,2.33-7.31-.14-7.31-5.53h0c0-5.38,3.28-11.63,7.31-14l51.57-29.78c4-2.33,7.31.14,7.31,5.53h0C525.41,227.85,522.14,234.1,518.1,236.44Z" transform="translate(-304.11 -50.29)"/><path class="cls-4" d="M463.63,267.57a4.16,4.16,0,0,1-2.12-.55c-1.76-1-2.77-3.33-2.77-6.34,0-5.52,3.39-12,7.55-14.38l51.57-29.78c1.92-1.1,3.79-1.24,5.27-.38,1.76,1,2.77,3.32,2.77,6.33,0,5.53-3.39,12-7.55,14.38l-51.58,29.78A6.28,6.28,0,0,1,463.63,267.57Zm57.38-51a5.35,5.35,0,0,0-2.66.81l-51.58,29.77c-3.89,2.26-7.06,8.33-7.06,13.55,0,2.66.83,4.66,2.28,5.5a4.28,4.28,0,0,0,4.3-.39L517.86,236c3.9-2.25,7.07-8.33,7.07-13.55,0-2.65-.83-4.66-2.29-5.49A3.13,3.13,0,0,0,521,216.55Z" transform="translate(-304.11 -50.29)"/><rect class="cls-4" x="391.18" y="130.29" width="0.97" height="161.98" transform="translate(-292.4 392.69) rotate(-59.72)"/><rect class="cls-4" x="389.33" y="135.25" width="0.97" height="161.98" transform="translate(-297.59 393.55) rotate(-59.72)"/><rect class="cls-4" x="388.6" y="140.52" width="0.97" height="161.98" transform="translate(-302.51 395.53) rotate(-59.72)"/><rect class="cls-4" x="445.94" y="96.17" width="0.97" height="162.12" transform="translate(-234.6 424.68) rotate(-59.96)"/><rect class="cls-4" x="432.29" y="104.12" width="0.97" height="162.12" transform="translate(-248.3 416.83) rotate(-59.96)"/><rect class="cls-4" x="405.32" y="119.66" width="0.97" height="162.12" transform="translate(-275.22 401.24) rotate(-59.96)"/><rect class="cls-4" x="467.32" y="216.75" width="0.97" height="29.31" transform="matrix(0.5, -0.87, 0.87, 0.5, -270.83, 470.22)"/><rect class="cls-4" x="449.56" y="216.87" width="0.97" height="8.37" transform="translate(-270.7 449.74) rotate(-59.97)"/><rect class="cls-4" x="350.78" y="161.28" width="0.97" height="4.47" transform="translate(-270.26 335.43) rotate(-59.96)"/><rect class="cls-4" x="343.78" y="155.2" width="0.97" height="8.37" transform="translate(-270.16 327.34) rotate(-59.96)"/><path class="cls-7" d="M525.29,226.75a16.44,16.44,0,0,0,.61-4.28,10.29,10.29,0,0,0-.53-3.38,6.78,6.78,0,0,0-.92.28,9.35,9.35,0,0,1,.48,3.1,15.85,15.85,0,0,1-.42,3.44C524.79,226.23,525.06,226.52,525.29,226.75Z" transform="translate(-304.11 -50.29)"/><path class="cls-7" d="M475.07,304.26a6.69,6.69,0,0,1-3.39-.9c-2.65-1.53-4.17-4.84-4.17-9.07V266.07c0-7.31,4.36-15.56,9.93-18.77l30.4-17.56c2.85-1.64,5.69-1.81,8-.46,2.65,1.53,4.17,4.84,4.17,9.07v28.22c0,7.31-4.36,15.56-9.93,18.77L479.69,302.9A9.36,9.36,0,0,1,475.07,304.26Zm37.39-71.36a5,5,0,0,0-2.36.75l-30.41,17.56c-4.15,2.4-7.67,9.2-7.67,14.86v28.22c0,2.54.72,4.47,1.92,5.16s2.51.1,3.5-.46l30.4-17.56c4.16-2.4,7.67-9.2,7.67-14.86V238.35c0-2.54-.71-4.47-1.91-5.16A2.23,2.23,0,0,0,512.46,232.9Z" transform="translate(-304.11 -50.29)"/><path class="cls-4" d="M475.07,304.74a7.11,7.11,0,0,1-3.63-1c-2.81-1.62-4.42-5.08-4.42-9.49V266.07c0-7.47,4.47-15.9,10.17-19.19l30.41-17.56c3-1.73,6-1.89,8.5-.46,2.81,1.62,4.41,5.08,4.41,9.49v28.22c0,7.47-4.46,15.9-10.17,19.19l-30.4,17.56A9.8,9.8,0,0,1,475.07,304.74Zm37.4-75.88a8.84,8.84,0,0,0-4.38,1.3l-30.41,17.56c-5.43,3.13-9.69,11.19-9.69,18.35v28.22c0,4.06,1.43,7.21,3.93,8.65,2.16,1.25,4.86,1.08,7.53-.46l30.41-17.56c5.43-3.13,9.69-11.2,9.69-18.35V238.35c0-4.06-1.44-7.21-3.93-8.65A6.22,6.22,0,0,0,512.47,228.86Zm-37.39,71.37a2.74,2.74,0,0,1-1.39-.36c-1.37-.79-2.15-2.83-2.15-5.58V266.07c0-5.81,3.62-12.8,7.91-15.28l30.41-17.56c1.56-.9,2.95-1.06,4-.46,1.37.79,2.16,2.83,2.16,5.58v28.22c0,5.81-3.62,12.8-7.91,15.28l-30.41,17.56A5.39,5.39,0,0,1,475.08,300.23Zm37.38-66.85a4.51,4.51,0,0,0-2.12.69l-30.4,17.56c-4,2.32-7.43,8.94-7.43,14.44v28.22c0,2.33.64,4.15,1.67,4.74s2.14,0,3-.46L507.6,281c4-2.32,7.43-8.94,7.43-14.44V238.35c0-2.33-.64-4.15-1.67-4.74A1.77,1.77,0,0,0,512.46,233.38Z" transform="translate(-304.11 -50.29)"/><path class="cls-4" d="M477.59,306a6.69,6.69,0,0,1-3.39-.9c-2.65-1.53-4.17-4.84-4.17-9.07V267.8c0-7.32,4.36-15.56,9.93-18.77l30.4-17.56c2.85-1.64,5.7-1.81,8-.46,2.65,1.53,4.17,4.83,4.17,9.07V268.3c0,7.31-4.36,15.55-9.93,18.77l-30.4,17.55A9.34,9.34,0,0,1,477.59,306ZM515,234.63a5.05,5.05,0,0,0-2.36.75l-30.4,17.56c-4.16,2.4-7.68,9.2-7.68,14.86V296c0,2.54.72,4.47,1.92,5.16s2.52.1,3.5-.47l30.4-17.55c4.16-2.4,7.68-9.21,7.68-14.86V240.08c0-2.54-.72-4.47-1.92-5.16A2.23,2.23,0,0,0,515,234.63Z" transform="translate(-304.11 -50.29)"/><path class="cls-4" d="M477.59,306.47a7.14,7.14,0,0,1-3.63-1c-2.81-1.62-4.42-5.08-4.42-9.49V267.8c0-7.47,4.47-15.9,10.18-19.19l30.4-17.56c3-1.73,6-1.9,8.5-.46,2.81,1.62,4.42,5.07,4.42,9.49V268.3c0,7.47-4.47,15.9-10.18,19.19L482.46,305A9.72,9.72,0,0,1,477.59,306.47ZM515,230.59a8.84,8.84,0,0,0-4.38,1.3L480.2,249.45c-5.43,3.13-9.69,11.19-9.69,18.35V296c0,4.05,1.44,7.21,3.93,8.65,2.16,1.25,4.86,1.08,7.53-.46l30.41-17.56c5.43-3.14,9.69-11.2,9.69-18.35V240.08c0-4.06-1.44-7.21-3.93-8.65A6.19,6.19,0,0,0,515,230.59ZM477.6,302a2.68,2.68,0,0,1-1.38-.36c-1.37-.79-2.16-2.83-2.16-5.58V267.8c0-5.81,3.62-12.81,7.91-15.28L512.38,235c1.56-.9,3-1.06,4-.46,1.38.79,2.16,2.82,2.16,5.58V268.3c0,5.81-3.62,12.8-7.91,15.28L480.2,301.13A5.3,5.3,0,0,1,477.6,302ZM515,235.11a4.51,4.51,0,0,0-2.12.69l-30.4,17.55c-4,2.33-7.43,8.94-7.43,14.45V296c0,2.33.64,4.14,1.67,4.74s2.15,0,3-.46l30.4-17.56c4-2.32,7.43-8.94,7.43-14.44V240.08c0-2.33-.64-4.15-1.67-4.74A1.68,1.68,0,0,0,515,235.11Z" transform="translate(-304.11 -50.29)"/><path class="cls-7" d="M482.21,253.34l30.41-17.55a5.74,5.74,0,0,1,1-.47l1-1.18a5.43,5.43,0,0,0-2.45.81L481.73,252.5a16.38,16.38,0,0,0-6,7.28l1.48-.82A14.43,14.43,0,0,1,482.21,253.34Z" transform="translate(-304.11 -50.29)"/><path class="cls-2" d="M368.09,56.61l9.54-5,.26-.15.26-.14h0c2.05-.95,4.76-.69,7.75,1l30.13,17.15c6.41,3.7,11.6,12.7,11.6,20.1v22.79c0,3.66-1.27,6.24-3.33,7.47h0l0,0-.09,0-12.58,6.47c-.08.53-.19.82-.53,1l-.12.07,0,0-2,1.1-7.18,4s-5.44-17.37-5.44-17.64,4-5,4-5l8,8.75-6.19-9.4a21.41,21.41,0,0,0-6.86-6.77L380.67,94.2c-6.41-3.7-2.55-7.23-2.55-14.63V62.67Z" transform="translate(-304.11 -50.29)"/><polygon class="cls-9" points="66.21 7.04 65.07 6.36 65.22 6.28 66.21 7.04"/><path class="cls-10" d="M378.66,79.57c0,7.22-4,10.55,2.28,14.16l14.51,8.38a22.09,22.09,0,0,1,7,6.94l6.19,9.4-.84.66-7.56-8.29c-1.51,1.81-3,3.7-3.42,4.25.39,1.38,3.19,10.37,5.19,16.77l.16-.1v-8.12l1.78-1.37,5.28,3,2.39.61,5-2.59,1.67-3.52.25-24.64-1.07-5.49,8.79-5.17c-1.66-5.81-5.75-11.63-10.54-14.39L385.65,52.87c-2.71-1.56-5.28-1.92-7.26-1l-.3.15-.21.11-8.54,4.45-.94-.73,9-4.66.28-.15.59-.3,0,0c2.25-.89,5.05-.48,7.94,1.18l30.13,17.16c6.54,3.78,11.87,13,11.87,20.56v22.79c0,3.61-1.19,6.36-3.37,7.78l-.29.19-.06,0,0,0-.05,0L412.1,126.8a1.36,1.36,0,0,1-.73,1.08l-.35.2c-1.14.62-1.62.89-1.85,1h0l-7.59,4.24-.37-.54c-5.47-17.44-5.47-17.69-5.47-17.8s0-.46,4.1-5.34l.4-.47L404,113.3l-2.41-3.66a21.12,21.12,0,0,0-6.67-6.6L380.4,94.66c-6.54-3.78-2.81-7.53-2.81-15.09V63l-7.27-5.64,8.34,5Z" transform="translate(-304.11 -50.29)"/><path class="cls-11" d="M376.61,57.22l30.14,17.15c6.4,3.7,11.6,12.7,11.6,20.09v22.8c0,7.4-5.2,10.4-11.6,6.7l-1.93-1.12c-1.5-.86-2.71-.16-2.71,1.56v7c0,2-2.05,2-3.41-.09l-9.77-14.82a21.63,21.63,0,0,0-6.85-6.78l-5.47-2.91C370.21,103.1,365,94.11,365,86.71V63.91C365,56.52,370.21,53.52,376.61,57.22Z" transform="translate(-304.11 -50.29)"/><path class="cls-2" d="M406.57,74.13,376.44,57a11.39,11.39,0,0,0-4.24-1.51c-2.27,1.13-3.7,3.78-3.7,7.65v22.8c0,7.39,5.19,16.39,11.6,20.09l5.46,2.91a21.41,21.41,0,0,1,6.86,6.77l9.51,14.44v-6c0-1.73,1.21-2.43,2.71-1.56l1,.57a30.46,30.46,0,0,0,3.08,2.18h3.55c1.5.86.89-.85,2.21-.69,2.26-1.13,3.69-3.78,3.69-7.64V94.22C418.17,86.82,413,77.83,406.57,74.13Z" transform="translate(-304.11 -50.29)"/><path class="cls-11" d="M376.33,60.36c-2.83-1.64-5.42-2-7.44-1.17l9-4.69,0,0c2.05-1,4.76-.7,7.75,1L415.77,72.7a21.59,21.59,0,0,1,6.15,5.6l-9,5.17a22,22,0,0,0-6.42-6Z" transform="translate(-304.11 -50.29)"/><path class="cls-10" d="M398.25,131.6l-9.77-14.82a20.92,20.92,0,0,0-6.67-6.6l-5.46-2.91c-6.55-3.78-11.87-13-11.87-20.56V63.91c0-3.77,1.3-6.61,3.66-8s5.48-1.08,8.74.81L407,73.91c6.54,3.77,11.86,13,11.86,20.55v22.8c0,3.78-1.3,6.61-3.66,8s-5.47,1.07-8.74-.82l-1.93-1.11a1.45,1.45,0,0,0-1.38-.19,1.42,1.42,0,0,0-.52,1.28v7a1.88,1.88,0,0,1-1.2,2,2,2,0,0,1-.49.07A3.57,3.57,0,0,1,398.25,131.6Zm6.83-9.22,1.94,1.11c2.92,1.69,5.64,2,7.66.81s3.13-3.66,3.13-7V94.46c0-7.21-5.08-16-11.33-19.62L376.35,57.68c-2.93-1.69-5.65-2-7.67-.81s-3.13,3.67-3.13,7v22.8c0,7.22,5.09,16,11.33,19.63l5.46,2.91a22,22,0,0,1,7,6.94L399.15,131c.68,1,1.53,1.46,2,1.32s.43-.63.43-.93v-7a2.4,2.4,0,0,1,1.06-2.21,2,2,0,0,1,1-.26A2.93,2.93,0,0,1,405.08,122.38Z" transform="translate(-304.11 -50.29)"/><path class="cls-12" d="M383.76,89.69c0,3.14-2.21,4.41-4.93,2.84A10.89,10.89,0,0,1,373.9,84c0-3.15,2.21-4.42,4.93-2.85A10.89,10.89,0,0,1,383.76,89.69Z" transform="translate(-304.11 -50.29)"/><path class="cls-4" d="M380.19,91a5,5,0,0,1-2.45-.74,11.45,11.45,0,0,1-5.17-9,3.48,3.48,0,0,1,5.66-3.26,11.45,11.45,0,0,1,5.17,9,3.92,3.92,0,0,1-1.69,3.61A3,3,0,0,1,380.19,91Zm-4.41-12.73a2.14,2.14,0,0,0-1,.26,3,3,0,0,0-1.2,2.77,10.35,10.35,0,0,0,4.69,8.12,2.53,2.53,0,0,0,4.2-2.42,10.35,10.35,0,0,0-4.69-8.12A4,4,0,0,0,375.78,78.29Z" transform="translate(-304.11 -50.29)"/><ellipse class="cls-12" cx="391.68" cy="94.26" rx="4.02" ry="6.97" transform="translate(-298.77 158.18) rotate(-30)"/><path class="cls-4" d="M393,98.44a5,5,0,0,1-2.45-.74,11.45,11.45,0,0,1-5.17-9,3.48,3.48,0,0,1,5.66-3.27,11.45,11.45,0,0,1,5.17,9,3.92,3.92,0,0,1-1.69,3.61A3,3,0,0,1,393,98.44Zm-4.4-12.73a2.15,2.15,0,0,0-1.05.26,3,3,0,0,0-1.2,2.78,10.38,10.38,0,0,0,4.69,8.11,2.53,2.53,0,0,0,4.2-2.42,10.35,10.35,0,0,0-4.69-8.12A3.92,3.92,0,0,0,388.64,85.71Z" transform="translate(-304.11 -50.29)"/><path class="cls-12" d="M409.46,104.53c0,3.14-2.21,4.41-4.93,2.84a10.88,10.88,0,0,1-4.92-8.53c0-3.15,2.2-4.42,4.92-2.85A10.89,10.89,0,0,1,409.46,104.53Z" transform="translate(-304.11 -50.29)"/><path class="cls-4" d="M405.89,105.86a5,5,0,0,1-2.44-.74,11.45,11.45,0,0,1-5.17-9,3.47,3.47,0,0,1,5.65-3.27,11.45,11.45,0,0,1,5.17,9,3.93,3.93,0,0,1-1.68,3.61A3.08,3.08,0,0,1,405.89,105.86Zm-4.4-12.73a2.08,2.08,0,0,0-1,.26,3,3,0,0,0-1.2,2.78,10.37,10.37,0,0,0,4.68,8.11,3,3,0,0,0,3,.35,3,3,0,0,0,1.2-2.77,10.37,10.37,0,0,0-4.68-8.12A4,4,0,0,0,401.49,93.13Z" transform="translate(-304.11 -50.29)"/><polygon class="cls-4" points="79.24 132.97 69.5 127.34 84.19 118.86 93.93 124.48 79.24 132.97"/><path class="cls-4" d="M383.35,183.81l-10.71-6.18,15.67-9L399,174.77Zm-8.77-6.18,8.77,5.07,13.73-7.93-8.77-5.06Z" transform="translate(-304.11 -50.29)"/><polygon class="cls-3" points="96.73 139.22 77.25 127.97 106.64 111 126.12 122.25 96.73 139.22"/><polygon class="cls-5" points="79.75 129.28 96.73 139.08 123.62 123.56 106.64 113.76 79.75 129.28"/><path class="cls-4" d="M400.85,190.06l-20.45-11.8,30.36-17.53,20.44,11.81Zm-18.52-11.8L400.85,189l28.42-16.41-18.51-10.69Z" transform="translate(-304.11 -50.29)"/><path class="cls-4" d="M442.8,116.57s-9.23.84-12.74,9.31c-2.87,7-6.4,24-9,37.71-.24,1.27-.47,2.51-.69,3.71-1.69,9.27-2.83,16.29-2.83,16.29l14.15-22s-1.23-19.89,1.28-27.79S442.8,116.57,442.8,116.57Z" transform="translate(-304.11 -50.29)"/><path class="cls-4" d="M416.71,185.8l.37-2.29c0-.07,1.16-7.13,2.84-16.29.22-1.21.45-2.45.68-3.72,2.5-13.35,6.1-30.74,9-37.8,3.57-8.65,13-9.6,13.14-9.61l1.11-.1-.69.88c-.07.09-7.28,9.34-9.73,17.07s-1.27,27.42-1.26,27.61v.16l-.08.14Zm25-68.54c-2.54.54-8.54,2.48-11.16,8.81-2.89,7-6.46,24.31-8.95,37.61-.24,1.27-.47,2.51-.69,3.71-1.1,6-2,11.15-2.45,14l12.8-19.89c-.12-2-1.11-20.2,1.31-27.82C434.59,127.16,439.73,119.87,441.67,117.26Z" transform="translate(-304.11 -50.29)"/><path class="cls-4" d="M386.77,267l-15.07,8.06a4.52,4.52,0,0,1-3.73.32,3.57,3.57,0,0,1-1.9-1.71c-1.31-2.54,1.32-6.2,5.27-9.68a82.84,82.84,0,0,0,7.62-7.91S384,249.9,389.59,252c3.25,1.22,4.15,4.79,4.33,7.54a5.25,5.25,0,0,1-2.6,4.91Z" transform="translate(-304.11 -50.29)"/><path class="cls-4" d="M369.44,276.16a4.54,4.54,0,0,1-1.64-.3,4,4,0,0,1-2.16-1.93c-1.63-3.14,2-7.32,5.38-10.28a80.69,80.69,0,0,0,7.57-7.85c.21-.26,5.36-6.45,11.17-4.28,3.49,1.3,4.45,5,4.64,8a5.69,5.69,0,0,1-2.84,5.36L387,267.45l-15.08,8.07A5.32,5.32,0,0,1,369.44,276.16ZM387.27,252c-4.29,0-7.89,4.33-7.93,4.38a82.91,82.91,0,0,1-7.68,8c-4.37,3.85-6.2,7.08-5.16,9.1a3.06,3.06,0,0,0,1.65,1.47,4,4,0,0,0,3.32-.29l15.07-8.06,4.53-2.6a4.75,4.75,0,0,0,2.37-4.46c-.18-2.63-1-6-4-7.11A6.16,6.16,0,0,0,387.27,252Z" transform="translate(-304.11 -50.29)"/><path class="cls-5" d="M382.14,256.21a6.68,6.68,0,0,0-2.92-.39l-.26.29a82.84,82.84,0,0,1-7.62,7.91c-3.95,3.48-6.58,7.14-5.27,9.68a3.57,3.57,0,0,0,1.9,1.71,4.52,4.52,0,0,0,3.73-.32l12.7-6.8a5.23,5.23,0,0,0,2.07-4.55C386.29,261,385.4,257.42,382.14,256.21Z" transform="translate(-304.11 -50.29)"/><path class="cls-4" d="M369.44,276.16a4.54,4.54,0,0,1-1.64-.3,4,4,0,0,1-2.16-1.93c-1.63-3.14,2-7.32,5.38-10.28a80.69,80.69,0,0,0,7.57-7.85h0l.27-.31.13-.14h.19a7,7,0,0,1,3.13.41h0c3.49,1.3,4.45,5.05,4.65,8a5.74,5.74,0,0,1-2.27,5l-12.77,6.84A5.32,5.32,0,0,1,369.44,276.16Zm10-19.87-.11.13a82.91,82.91,0,0,1-7.68,8c-4.37,3.85-6.2,7.08-5.16,9.1a3.06,3.06,0,0,0,1.65,1.47,4,4,0,0,0,3.32-.29l12.7-6.79a4.76,4.76,0,0,0,1.82-4.1c-.18-2.62-1-6-4-7.11A6.11,6.11,0,0,0,379.45,256.29Z" transform="translate(-304.11 -50.29)"/><path class="cls-7" d="M383.38,251.55s-2.91,4.06-3.55,6.54c-.4,1.57,0,5.42,6.85,1.6,8.93-5,3.76-11.76,3.76-11.76Z" transform="translate(-304.11 -50.29)"/><path class="cls-3" d="M382.81,258.63a2.93,2.93,0,0,0,.49,2.64,13,13,0,0,0,3.86-1.55c6.46-3.58,5.55-8.13,4.55-10.37l-5.35,2.74S383.44,256.15,382.81,258.63Z" transform="translate(-304.11 -50.29)"/><path class="cls-4" d="M382,261.81a2.73,2.73,0,0,1-1.74-.53,3.27,3.27,0,0,1-.85-3.31c.65-2.54,3.51-6.53,3.63-6.7l.07-.1,7.52-3.86.24.33a8.27,8.27,0,0,1,1.44,6.26c-.51,2.43-2.31,4.52-5.35,6.21A11.11,11.11,0,0,1,382,261.81Zm1.76-9.88c-.44.62-2.86,4.12-3.41,6.28a2.37,2.37,0,0,0,.5,2.31c.53.41,2,.78,5.64-1.26,2.79-1.54,4.43-3.41,4.88-5.56a7.31,7.31,0,0,0-1-5.14Z" transform="translate(-304.11 -50.29)"/><path class="cls-4" d="M353.38,226.82,338.19,219a4.51,4.51,0,0,1-2.37-2.89,3.57,3.57,0,0,1,.32-2.53c1.35-2.52,5.86-2.43,11-1.15a81.57,81.57,0,0,0,10.83,1.79s8,.66,9.44,6.41c.85,3.37-1.59,6.13-3.75,7.84a5.23,5.23,0,0,1-5.52.64Z" transform="translate(-304.11 -50.29)"/><path class="cls-4" d="M360.36,230.09a5.61,5.61,0,0,1-2.46-.57l-4.74-2.27L338,219.41a5,5,0,0,1-2.62-3.21,4,4,0,0,1,.37-2.86c1.66-3.13,7.18-2.49,11.51-1.4A81.91,81.91,0,0,0,358,213.72c.33,0,8.35.76,9.86,6.77.91,3.61-1.63,6.53-3.92,8.34A5.76,5.76,0,0,1,360.36,230.09Zm-6.76-3.7,4.72,2.26a4.72,4.72,0,0,0,5-.58c2.06-1.63,4.36-4.23,3.58-7.34-1.34-5.35-8.93-6-9-6a85,85,0,0,1-10.9-1.81c-5.66-1.42-9.36-1.1-10.43.91a3.08,3.08,0,0,0-.28,2.19,4,4,0,0,0,2.13,2.57Z" transform="translate(-304.11 -50.29)"/><path class="cls-5" d="M359.87,217.46a6.76,6.76,0,0,0-1.93-3.27,79.92,79.92,0,0,1-10.71-1.78c-5.11-1.28-9.63-1.37-11,1.15a3.52,3.52,0,0,0-.32,2.53,4.45,4.45,0,0,0,2.37,2.89l14.45,7.46a5.26,5.26,0,0,0,3.36-1.14C358.28,223.59,360.72,220.82,359.87,217.46Z" transform="translate(-304.11 -50.29)"/><path class="cls-4" d="M352.84,226.93h-.2l-14.55-7.51a5,5,0,0,1-2.63-3.21,4,4,0,0,1,.37-2.86c1.67-3.13,7.18-2.49,11.51-1.4A79.5,79.5,0,0,0,358,213.71h.17l.12.12a7.24,7.24,0,0,1,2.06,3.5h0c.91,3.61-1.63,6.52-3.92,8.34A5.84,5.84,0,0,1,352.84,226.93ZM341.19,212c-2.32,0-3.87.6-4.5,1.78a3,3,0,0,0-.28,2.19,4,4,0,0,0,2.12,2.57L352.88,226a4.85,4.85,0,0,0,2.94-1c2.07-1.64,4.36-4.24,3.58-7.34h0a6.25,6.25,0,0,0-1.67-2.92,80.51,80.51,0,0,1-10.62-1.78A25.13,25.13,0,0,0,341.19,212Z" transform="translate(-304.11 -50.29)"/><path class="cls-7" d="M364.21,214.32s-5-.1-7.4.78c-1.52.56-4.49,3,2.56,6.55,9.16,4.54,11.82-3.57,11.82-3.57Z" transform="translate(-304.11 -50.29)"/><path class="cls-3" d="M355.51,219.22a11.24,11.24,0,0,0,3.87,2.75c6.5,3.23,9.72.09,11.05-2l-5.73-3.08s-5-.1-7.39.79A3.12,3.12,0,0,0,355.51,219.22Z" transform="translate(-304.11 -50.29)"/><path class="cls-4" d="M364.49,223.52a12.07,12.07,0,0,1-5.33-1.44c-3.25-1.61-4.86-3.25-4.77-4.85a3.28,3.28,0,0,1,2.25-2.58c2.46-.91,7.37-.82,7.58-.82h.11l7.45,4-.13.39a8.34,8.34,0,0,1-4.34,4.74A7.34,7.34,0,0,1,364.49,223.52Zm-.72-8.72c-1.24,0-4.91.06-6.79.76-.54.19-1.57.81-1.62,1.72,0,.67.46,2.06,4.23,3.93,2.85,1.42,5.32,1.71,7.34.86a7.29,7.29,0,0,0,3.65-3.77l-6.5-3.5Z" transform="translate(-304.11 -50.29)"/><path class="cls-4" d="M385.29,205l-4.42,46.25a3,3,0,0,0,1.44,2.93c2.13,1.27,6.13,2.67,11-.38a1.3,1.3,0,0,0,.59-1c.25-2.61,1.43-13,4.44-19,3.37-6.66,6.35-12.62,5.94-21.3a.84.84,0,0,1,.62-.87c3.06-.84,23.75-2.73,32.68-7.19,10.17-5.08-16.57-18.18-16.57-18.18l-17.58,2s-8.2,7.79-9.18,8.88S385.29,205,385.29,205Z" transform="translate(-304.11 -50.29)"/><path class="cls-4" d="M387.43,256.09a10.49,10.49,0,0,1-5.36-1.51,3.53,3.53,0,0,1-1.69-3.41l4.44-46.43.15-.13c2.75-2.32,8.15-6.94,8.91-7.78,1-1.1,8.87-8.59,9.21-8.91l.11-.11,17.89-2,.13.06c.78.38,19.12,9.44,19.14,15.63,0,1.41-.86,2.56-2.58,3.41-6.66,3.33-19.6,5.21-27.32,6.33-2.61.38-4.67.68-5.44.89a.38.38,0,0,0-.26.39c.41,8.86-2.7,15-6,21.54-3,6-4.19,16.72-4.39,18.82a1.78,1.78,0,0,1-.81,1.32A11.43,11.43,0,0,1,387.43,256.09Zm-1.68-50.86-4.4,46a2.54,2.54,0,0,0,1.21,2.48c2.32,1.37,6,2.43,10.48-.38a.77.77,0,0,0,.36-.59c.3-3,1.48-13.21,4.5-19.17,3.23-6.4,6.29-12.45,5.89-21.06a1.33,1.33,0,0,1,1-1.36c.83-.23,2.81-.52,5.56-.91,7.67-1.12,20.51-3,27-6.24,1.38-.69,2-1.52,2-2.54,0-4.62-13.22-12.12-18.47-14.71l-17.28,1.94c-1,1-8.15,7.75-9,8.75S386.89,204.26,385.75,205.23Z" transform="translate(-304.11 -50.29)"/><path class="cls-4" d="M366.58,222.86a3.35,3.35,0,0,0,3.68-1.09,30.88,30.88,0,0,1,12-8.65c10-4.32,21.43-16.55,21.43-16.55s8.11-.76,19,5.83,32.62,15.93,44.66,4.26l-13.61-21.95-9.6-.94-4.32,1.13s-29.92-13.3-39.51-9.54c-9.42,3.69-24.78,24-39.44,36.85a2.77,2.77,0,0,0-.95,2C359.9,216.44,360.61,220.89,366.58,222.86Z" transform="translate(-304.11 -50.29)"/><path class="cls-4" d="M367.63,223.51a3.81,3.81,0,0,1-1.2-.19h0c-6.4-2.11-7-7.06-7-9.1a3.2,3.2,0,0,1,1.12-2.37c5.78-5.06,11.62-11.24,17.27-17.22,8.49-9,16.5-17.45,22.3-19.72,9.42-3.69,37.13,8.34,39.73,9.48l4.24-1.11h.09l9.83,1L468,206.74l-.28.27c-14,13.55-40.13-1.12-45.24-4.2-9.76-5.89-17.32-5.83-18.55-5.77-1.32,1.38-12.08,12.46-21.45,16.53a30.38,30.38,0,0,0-11.81,8.51A3.84,3.84,0,0,1,367.63,223.51Zm-.9-1.11a2.92,2.92,0,0,0,3.16-.93,31.43,31.43,0,0,1,12.17-8.79c9.77-4.24,21.15-16.32,21.27-16.44l.12-.14h.19c.33,0,8.39-.7,19.31,5.89,5,3,30.24,17.19,43.79,4.6l-13.28-21.41-9.27-.91-4.41,1.15-.15-.06c-.3-.14-29.83-13.19-39.14-9.54C394.9,178,387,186.4,378.55,195.3c-5.67,6-11.53,12.19-17.35,17.28a2.24,2.24,0,0,0-.78,1.66c0,2.26.73,6.32,6.31,8.16Z" transform="translate(-304.11 -50.29)"/><path class="cls-6" d="M444,117s-9.41,10.16-9.79,23.21-7,34.5-7,34.5,2.76,9.48,16.81,16,13.72,5.63,13.72,5.63,16.5-17.79,17.38-31.84.71-41.88.71-41.88l-11.37-6.41Z" transform="translate(-304.11 -50.29)"/><path class="cls-4" d="M457.69,196.87c-.8,0-3.44-.82-13.87-5.7-14.08-6.58-16.95-15.95-17.07-16.35l0-.14.05-.14c.06-.21,6.63-21.54,7-34.37.38-13.07,9.82-23.41,9.91-23.52l.14-.14,20.78-.77,11.74,6.62v.28c0,.28.16,28-.71,41.91-.84,13.39-15.35,29.77-17.32,31.93v0l-.24.23A.45.45,0,0,1,457.69,196.87Zm-30-22.19c.4,1.16,3.73,9.64,16.5,15.62,10.28,4.8,12.72,5.51,13.28,5.61,1.44-1.59,16.32-18.31,17.14-31.42s.73-38.6.71-41.56l-11-6.21-20.1.74c-1.13,1.29-9.18,10.87-9.52,22.74C434.37,152.59,428.32,172.75,427.73,174.68Z" transform="translate(-304.11 -50.29)"/><path class="cls-5" d="M450.05,117.74s-3.26,10.78,3,13.67,13.81-6.78,14.87-10.41c.24-.84.48-1.54.69-2.12a3,3,0,0,0-1.35-3.64,7.18,7.18,0,0,1-3.8-5.66c-.38-5.26-6-4.89-6.52-4.76S450.05,117.74,450.05,117.74Z" transform="translate(-304.11 -50.29)"/><path class="cls-4" d="M455.49,132.43a6.27,6.27,0,0,1-2.63-.58c-6.58-3-3.41-13.8-3.28-14.25l0-.08c6.5-13,6.95-13.11,7.22-13.17a7.3,7.3,0,0,1,5,1.12,5.23,5.23,0,0,1,2.1,4.08,6.74,6.74,0,0,0,3.57,5.27,3.5,3.5,0,0,1,1.56,4.23c-.23.62-.46,1.32-.69,2.08-.82,2.83-5,8.45-9.45,10.47A8.29,8.29,0,0,1,455.49,132.43Zm-5-14.52c-.2.69-2.88,10.46,2.76,13.06a6.13,6.13,0,0,0,5.28-.25c4.52-2.06,8.26-7.59,8.92-9.86.23-.79.47-1.51.71-2.15a2.55,2.55,0,0,0-1.15-3.06,7.65,7.65,0,0,1-4-6,4.35,4.35,0,0,0-1.68-3.35,6.57,6.57,0,0,0-4.14-1C456.45,106.21,452.75,113.42,450.5,117.91Z" transform="translate(-304.11 -50.29)"/><path class="cls-5" d="M447.51,119.25a79.24,79.24,0,0,0-7.63,24.64c-1.56,13.17-8.75,37.54-8.75,37.54l-10.43-3.65s8.45-25.24,9.36-35.77,8.9-24.38,12.25-26.77l7.86,1Z" transform="translate(-304.11 -50.29)"/><path class="cls-4" d="M431.45,182.06l-11.37-4,.16-.46c.08-.25,8.44-25.3,9.34-35.66s8.91-24.59,12.45-27.12l.15-.11,9,1.13-3.22,3.67a79.2,79.2,0,0,0-7.56,24.41c-1.55,13.06-8.69,37.38-8.76,37.63Zm-10.14-4.58,9.5,3.33c1-3.52,7.17-25,8.58-37a80.29,80.29,0,0,1,7.7-24.8l.06-.1,2.06-2.33-6.76-.86c-3.13,2.47-11,15.71-11.9,26.31C429.7,151.74,422.45,174,421.31,177.48Z" transform="translate(-304.11 -50.29)"/><path class="cls-4" d="M443.25,129.48a63.62,63.62,0,0,1,.69-15.76c1.47-7.27,6.86,0,6.86,0l-3.29,5.53S444.2,126.54,443.25,129.48Z" transform="translate(-304.11 -50.29)"/><path class="cls-4" d="M443,131.89l-.22-2.37a64.11,64.11,0,0,1,.69-15.89c.43-2.11,1.24-3.31,2.42-3.57,2.35-.53,5,3,5.31,3.37l.19.26-3.45,5.81s-3.29,7.24-4.21,10.13ZM446.38,111a1.36,1.36,0,0,0-.29,0c-1,.22-1.44,1.65-1.68,2.82a59,59,0,0,0-.81,13.31c1.3-3.31,3.36-7.84,3.47-8.08l3.15-5.29C449.43,112.77,447.7,111,446.38,111Z" transform="translate(-304.11 -50.29)"/><path class="cls-5" d="M453.13,143.61a.79.79,0,0,0-1,.53c-.74,2.33-2.68,9.5,1,11.18a14.24,14.24,0,0,0,7.93,1.1.8.8,0,0,0,.63-.56l2.89-9.18a.79.79,0,0,0-.64-1C461.74,145.31,456,144.39,453.13,143.61Z" transform="translate(-304.11 -50.29)"/><path class="cls-4" d="M457.4,155a14.59,14.59,0,0,1-6.06-1.3c-3.94-1.79-2.19-8.82-1.25-11.76a1.27,1.27,0,0,1,1.55-.85h0c2.79.77,8.47,1.67,10.78,2a1.26,1.26,0,0,1,.89.59,1.3,1.3,0,0,1,.14,1.07l-2.89,9.18a1.26,1.26,0,0,1-1,.89A14.28,14.28,0,0,1,457.4,155Zm-6.1-13a.31.31,0,0,0-.29.22c-.67,2.1-2.6,9.08.73,10.59a13.67,13.67,0,0,0,7.65,1.06.31.31,0,0,0,.25-.22l2.89-9.18a.35.35,0,0,0,0-.27.32.32,0,0,0-.21-.14c-2.33-.35-8-1.27-10.9-2Z" transform="translate(-304.11 -50.29)"/><path class="cls-5" d="M467.27,115.24s-3.95,11-8.27,18.3-3.19,37.93-9.49,50.76S444,198.86,444,198.86s-.27,25.37,36,13.72a3.78,3.78,0,0,0,2.51-4.54c-1.82-7.09-6.16-25.71-2.39-39.32,4.89-17.68,1.13-41.58,1.13-41.58S478.54,116.69,467.27,115.24Z" transform="translate(-304.11 -50.29)"/><path class="cls-4" d="M463.21,216.13c-5.29,0-9.62-1.23-12.94-3.68-6.6-4.87-6.79-12.76-6.79-13.55s.07-3.57,5.6-14.81c3.37-6.88,4.61-19.07,5.7-29.82,1-9.4,1.78-17.52,3.81-21,4.24-7.21,8.19-18.11,8.22-18.22l.14-.36.38.05c11.46,1.47,14.33,12.15,14.36,12.26,0,.29,3.73,24.25-1.14,41.83-2.59,9.37-1.76,22.88,2.4,39.07a4.27,4.27,0,0,1-2.83,5.12A56.46,56.46,0,0,1,463.21,216.13Zm4.38-100.36a130.52,130.52,0,0,1-8.17,18c-1.92,3.27-2.77,11.68-3.68,20.58-1.1,10.83-2.34,23.11-5.79,30.14-5.88,12-5.54,14.12-5.52,14.21l0,.1,0,0c0,.08,0,8.1,6.4,12.82,6.12,4.5,15.86,4.65,29,.44a3.31,3.31,0,0,0,2.19-4c-4.2-16.35-5-30-2.39-39.57,4.81-17.38,1.15-41.13,1.12-41.37C480.72,127.16,478.07,117.35,467.59,115.77Z" transform="translate(-304.11 -50.29)"/><path class="cls-5" d="M461.46,131.94s7-7.27,8.65-11.38.65-10.25-4.51-11.67l-2.33,3s2.64,3.57.13,9.59-6.29,5.45-6.18,17.59A33.78,33.78,0,0,1,461.46,131.94Z" transform="translate(-304.11 -50.29)"/><path class="cls-4" d="M456.75,141.43l0-2.34c-.07-8.45,1.75-10.92,3.68-13.53a19,19,0,0,0,2.54-4.25c2.38-5.7-.05-9.08-.07-9.11l-.22-.29,2.76-3.57.31.09a7.17,7.17,0,0,1,4.65,3.87,10.7,10.7,0,0,1,.18,8.44c-1.69,4.11-8.31,11.07-8.74,11.52a33.81,33.81,0,0,0-4.16,7Zm7.11-29.49c.6,1,2.17,4.49,0,9.74a19.64,19.64,0,0,1-2.66,4.46c-1.72,2.33-3.24,4.38-3.46,10.75a30,30,0,0,1,3.36-5.26l0,0c.07-.07,6.92-7.24,8.55-11.23a9.69,9.69,0,0,0-.15-7.64,6.23,6.23,0,0,0-3.73-3.28Z" transform="translate(-304.11 -50.29)"/><path class="cls-4" d="M461.8,124.41c-2.26,3.37-4.69,4.91-4.6,14.68a33.78,33.78,0,0,1,4.24-7.15,75.2,75.2,0,0,0,7.42-9.11C466.22,123.57,463.55,124.1,461.8,124.41Z" transform="translate(-304.11 -50.29)"/><path class="cls-4" d="M456.73,141.43l0-2.34c-.07-8.45,1.75-10.92,3.68-13.53.34-.45.68-.91,1-1.42l.12-.17.2,0c1.75-.32,4.39-.85,7-1.58L470,122l-.69,1.07a74.94,74.94,0,0,1-7.47,9.18,33.55,33.55,0,0,0-4.15,7Zm5.36-16.57c-.31.44-.62.86-.92,1.27-1.73,2.34-3.24,4.39-3.46,10.76a29.41,29.41,0,0,1,3.36-5.26,83.16,83.16,0,0,0,6.67-8C465.62,124.17,463.57,124.59,462.09,124.86Z" transform="translate(-304.11 -50.29)"/><path class="cls-5" d="M424.87,150.86l5.87,3.08a3.34,3.34,0,0,1,1.5,2.12l5,18.53c.25.92-.25,1.67-.9,1.34l-5.8-2.9a3.38,3.38,0,0,1-1.54-2.14l-6.72-17.45C422,152.51,424.22,150.51,424.87,150.86Z" transform="translate(-304.11 -50.29)"/><path class="cls-4" d="M436.65,176.49a1.07,1.07,0,0,1-.51-.13l-5.81-2.9a3.85,3.85,0,0,1-1.79-2.44l-6.7-17.41c-.26-1,.79-2.1,1.45-2.62s1.25-.85,1.81-.56l5.87,3.08a3.85,3.85,0,0,1,1.74,2.42l5,18.53a1.72,1.72,0,0,1-.42,1.8A1,1,0,0,1,436.65,176.49Zm-12-25.19a3.24,3.24,0,0,0-1.48,1.14c-.37.45-.47.77-.44.87l6.7,17.41a2.93,2.93,0,0,0,1.31,1.87l5.8,2.91c.08,0,.1,0,.12,0a.83.83,0,0,0,.09-.79l-5-18.53a3,3,0,0,0-1.26-1.82Z" transform="translate(-304.11 -50.29)"/><path class="cls-4" d="M423.26,152.65l5.87,3.09a3.36,3.36,0,0,1,1.5,2.12l5,18.52c.25.92-.25,1.67-.9,1.35l-5.8-2.91a3.36,3.36,0,0,1-1.54-2.13l-5-18.71C422.1,153.06,422.61,152.31,423.26,152.65Z" transform="translate(-304.11 -50.29)"/><path class="cls-4" d="M435,178.29a1.2,1.2,0,0,1-.51-.13l-5.81-2.9a3.87,3.87,0,0,1-1.79-2.45l-5.05-18.7a1.71,1.71,0,0,1,.42-1.8,1.06,1.06,0,0,1,1.18-.09l5.87,3.09a3.84,3.84,0,0,1,1.75,2.42l5,18.53a1.72,1.72,0,0,1-.42,1.79A1,1,0,0,1,435,178.29ZM423,153.05l0,0a.83.83,0,0,0-.1.79l5.06,18.7a2.88,2.88,0,0,0,1.29,1.83l5.8,2.9c.08,0,.1,0,.12,0a.82.82,0,0,0,.09-.79l-5-18.53a2.9,2.9,0,0,0-1.27-1.81L423,153.08Z" transform="translate(-304.11 -50.29)"/><path class="cls-5" d="M446.56,170s-8,.84-10.89-2.26-3.19-3.47-4.2-4-2,2,.55,5.35c1.24,1.63.25,1.19.25,1.19s-4.86-.05-5.56-3-1.87-1.14-1.74,1.54-.58,11.53,11.15,10.06c0,0,4.3-1.31,11.39.47Z" transform="translate(-304.11 -50.29)"/><path class="cls-4" d="M448.07,180l-.67-.17c-6.86-1.72-11.09-.49-11.14-.47q-6,.75-8.93-1.78c-2.68-2.32-2.77-6.05-2.82-8.06,0-.25,0-.47,0-.67-.08-1.6,0-3.28.94-3.42s1.63,1.25,1.75,1.75c.5,2.07,3.66,2.48,4.74,2.55l-.29-.39c-1.91-2.51-2.07-4.87-1.24-5.82a1,1,0,0,1,1.33-.24c1,.57,1.34.95,3.67,3.46l.63.67c2.68,2.89,10.42,2.12,10.49,2.11l.49-.05Zm-7.7-2.07a29.23,29.23,0,0,1,6.59.8l-.83-8.2c-1.82.13-8.2.36-10.82-2.46l-.63-.67c-2.29-2.47-2.58-2.79-3.45-3.28,0,0-.05,0-.11,0-.41.47-.46,2.31,1.28,4.59.63.82.93,1.38.6,1.8a.71.71,0,0,1-.82.17c-.73,0-5.21-.28-5.94-3.31a3.13,3.13,0,0,0-.4-1.06,4.65,4.65,0,0,0-.38,2.46c0,.2,0,.43,0,.69,0,2,.12,5.31,2.48,7.34,1.73,1.5,4.46,2,8.1,1.57A16,16,0,0,1,440.37,177.9Z" transform="translate(-304.11 -50.29)"/><path class="cls-4" d="M449.51,171.74l.05,6a3.24,3.24,0,0,0,3.32,3.23c5.8-.13,18.09-.67,27.47-2.76a3.64,3.64,0,0,0,2.73-2.68c1.68-7,6.28-29.62.26-47.67a7.57,7.57,0,0,0-7.5-5.27c-3.14.2-6.4,2.61-6.82,11.45a248.7,248.7,0,0,0,.48,30.55,2.52,2.52,0,0,1-2,2.65A73.44,73.44,0,0,1,452.22,169,2.72,2.72,0,0,0,449.51,171.74Z" transform="translate(-304.11 -50.29)"/><path class="cls-4" d="M452.8,181.51a3.74,3.74,0,0,1-3.73-3.71l0-6.06a3.2,3.2,0,0,1,3.18-3.22,73.59,73.59,0,0,0,15.22-1.7,2,2,0,0,0,1.59-2.14,252.27,252.27,0,0,1-.49-30.61c.46-9.49,4.22-11.72,7.28-11.91a8.1,8.1,0,0,1,8,5.59c6.09,18.26,1.35,41.31-.25,47.94a4.08,4.08,0,0,1-3.09,3c-9.28,2.07-21.25,2.63-27.57,2.78Zm-2.8-9.78,0,6.06a2.76,2.76,0,0,0,.85,2,2.73,2.73,0,0,0,2,.78c6.28-.15,18.18-.7,27.38-2.76a3.1,3.1,0,0,0,2.35-2.31c1.59-6.57,6.29-29.4.28-47.41a7.1,7.1,0,0,0-7-4.93c-3.89.24-6,3.94-6.38,11A253,253,0,0,0,470,164.6a3,3,0,0,1-2.34,3.16,74.37,74.37,0,0,1-15.42,1.72,2.25,2.25,0,0,0-2.22,2.25Z" transform="translate(-304.11 -50.29)"/><rect class="cls-5" x="445.43" y="167.38" width="6.14" height="14.65" rx="1.9" transform="translate(-307.34 -41.76) rotate(-1.09)"/><path class="cls-4" d="M447.43,182.54a2.37,2.37,0,0,1-1.65-.67,2.34,2.34,0,0,1-.73-1.67l-.21-10.85a2.39,2.39,0,0,1,.67-1.7,2.36,2.36,0,0,1,1.67-.73l2.34,0a2.39,2.39,0,0,1,2.43,2.34l.21,10.86a2.38,2.38,0,0,1-.67,1.69,2.34,2.34,0,0,1-1.67.73l-2.34,0Zm2.14-14.7h0l-2.34,0a1.37,1.37,0,0,0-1,.43,1.45,1.45,0,0,0-.4,1l.21,10.85a1.41,1.41,0,0,0,.43,1,1.52,1.52,0,0,0,1,.4l2.34,0a1.37,1.37,0,0,0,1-.43,1.45,1.45,0,0,0,.4-1L451,169.23a1.37,1.37,0,0,0-.43-1A1.39,1.39,0,0,0,449.57,167.84Z" transform="translate(-304.11 -50.29)"/><path class="cls-5" d="M441.33,98.17s-2.3,10,1.84,19.29a2.19,2.19,0,0,0,1.43,1.21c2.21.61,7.62,1.55,12.16-2.06a33.55,33.55,0,0,0,8.84-11.85s-2.45-8.85-2.82-9.6-12.43-2.07-13.27-2.07S441.33,98.17,441.33,98.17Z" transform="translate(-304.11 -50.29)"/><path class="cls-4" d="M448.86,119.73a17,17,0,0,1-4.39-.59,2.68,2.68,0,0,1-1.74-1.49c-4.16-9.34-2-19.18-1.87-19.59l0-.18.16-.11c2.78-1.93,7.59-5.16,8.45-5.16.13,0,13.1,1.13,13.7,2.33.39.77,2.61,8.78,2.86,9.69l0,.16-.06.15a33.74,33.74,0,0,1-9,12A12.93,12.93,0,0,1,448.86,119.73Zm-7.1-21.27c-.27,1.38-1.87,10.43,1.85,18.8a1.75,1.75,0,0,0,1.12.95c2.07.57,7.34,1.51,11.73-2a33.41,33.41,0,0,0,8.63-11.51c-.91-3.29-2.38-8.44-2.71-9.27-1.16-.62-11.6-1.88-12.87-1.88A68.16,68.16,0,0,0,441.76,98.46Z" transform="translate(-304.11 -50.29)"/><path class="cls-4" d="M454.31,97.34a2.1,2.1,0,0,1,2.25,2.21l-.37,7h1.88s.77-6.43,4-6.27-.88,11.42-.88,11.42,3.27,1.12,5-1.63,6.83-12.29,1.76-21.7c-3.58-6.65-18.9-13.65-27.55-2.31-5.28,6.9-2.51,11.82.3,14.29a3,3,0,0,0,3.37.23c2.22-1.45,3.24-3.45,6.5-3.28A31.59,31.59,0,0,0,454.31,97.34Z" transform="translate(-304.11 -50.29)"/><path class="cls-4" d="M462.71,112.43a5.11,5.11,0,0,1-1.66-.26l-.46-.16.17-.46c1.2-3.29,2.75-9,1.8-10.49a.59.59,0,0,0-.49-.27c-2.71-.15-3.51,5.78-3.51,5.84l-.05.43h-2.83l.4-7.54a1.63,1.63,0,0,0-1.73-1.7h0a34.82,34.82,0,0,1-3.82,0c-2.16-.13-3.2.76-4.52,1.88a17.24,17.24,0,0,1-1.7,1.31,3.43,3.43,0,0,1-3.95-.27c-2.12-1.86-6.4-7-.37-15a15,15,0,0,1,13.65-6.14c6.87.54,12.71,4.79,14.72,8.52,5,9.26.42,18.59-1.78,22.18A4.35,4.35,0,0,1,462.71,112.43Zm-.86-1.05a3.56,3.56,0,0,0,3.9-1.55c2.11-3.44,6.51-12.39,1.75-21.21-1.91-3.55-7.64-7.52-13.93-8a14.09,14.09,0,0,0-12.81,5.76c-5.53,7.25-1.67,11.95.24,13.64a2.5,2.5,0,0,0,2.78.18,16.08,16.08,0,0,0,1.6-1.24c1.36-1.16,2.64-2.25,5.2-2.11a35.49,35.49,0,0,0,3.7,0h0a2.62,2.62,0,0,1,2,.74,2.58,2.58,0,0,1,.76,2l-.34,6.52h1c.24-1.49,1.25-6.28,4.31-6.28h.14a1.51,1.51,0,0,1,1.25.71C464.75,102.62,462.56,109.34,461.85,111.38Z" transform="translate(-304.11 -50.29)"/><path class="cls-5" d="M459.57,101.9s2.89-3.48,3.76.42c.49,2.21-1.64,4.2-2.89,5.16a1.18,1.18,0,0,1-1.68-.23,2.62,2.62,0,0,1-.33-2.46A22.54,22.54,0,0,1,459.57,101.9Z" transform="translate(-304.11 -50.29)"/><path class="cls-4" d="M459.69,108.22l-.26,0a1.6,1.6,0,0,1-1.07-.67,3.12,3.12,0,0,1-.39-2.9,23.06,23.06,0,0,1,1.18-3l.05-.08c.16-.19,1.63-1.89,3-1.56.77.19,1.3.92,1.58,2.19.55,2.45-1.69,4.59-3.07,5.64A1.73,1.73,0,0,1,459.69,108.22Zm.29-6a27.38,27.38,0,0,0-1.1,2.78,2.17,2.17,0,0,0,.28,2,.6.6,0,0,0,.42.26.74.74,0,0,0,.57-.15c1.19-.91,3.13-2.73,2.71-4.66-.14-.6-.39-1.34-.87-1.46S460.39,101.69,460,102.17Z" transform="translate(-304.11 -50.29)"/><path class="cls-4" d="M470.51,115.21c-3.78-1.37-5.84-.11-5.92,0l-.53-.82c.1-.06,2.52-1.59,6.78,0Z" transform="translate(-304.11 -50.29)"/><path class="cls-4" d="M470.35,119c-2.44-2.17-5.72-.81-5.75-.79l-.38-.89c.15-.07,3.88-1.62,6.78,1Z" transform="translate(-304.11 -50.29)"/><path class="cls-4" d="M478.77,186.29c-3.49.52-9.54,1.35-17.06,2.13,0,0-.62,18.44,12.67,16.56a26,26,0,0,0,6.89-1.81A112.27,112.27,0,0,1,478.77,186.29Z" transform="translate(-304.11 -50.29)"/><path class="cls-4" d="M472.54,205.6a9.28,9.28,0,0,1-6.43-2.36c-5.17-4.65-4.9-14.42-4.88-14.83V188l.42,0c7.39-.77,13.34-1.58,17-2.13l.52-.07,0,.52a112.36,112.36,0,0,0,2.49,16.81l.09.39-.37.16a26.83,26.83,0,0,1-7,1.84A14.09,14.09,0,0,1,472.54,205.6Zm-10.35-16.74c0,1.91.32,9.84,4.57,13.66a8.92,8.92,0,0,0,7.55,2,27.48,27.48,0,0,0,6.4-1.61,112.58,112.58,0,0,1-2.39-16C474.67,187.38,469.07,188.14,462.19,188.86Z" transform="translate(-304.11 -50.29)"/><path class="cls-7" d="M384.86,212.39l-.48-.84c.13-.08,13.07-7.6,18.92-15.28l.14-.18h.23a38.4,38.4,0,0,1,20,6.31,39.49,39.49,0,0,0,5.63,3.16l-.4.88a41,41,0,0,1-5.78-3.24,37.51,37.51,0,0,0-19.16-6.14C397.89,204.81,385.39,212.08,384.86,212.39Z" transform="translate(-304.11 -50.29)"/><path class="cls-7" d="M403.83,211.73a7,7,0,0,0-2.68-2.76l.46-.85a7.87,7.87,0,0,1,3.1,3.21Z" transform="translate(-304.11 -50.29)"/><rect class="cls-7" x="423.69" y="156.16" width="0.97" height="9.18" transform="translate(-331.36 65.91) rotate(-15.12)"/><path class="cls-7" d="M430.53,127.35l-.7-.67a12.26,12.26,0,0,1,5.78-3.17l.19,1A11.29,11.29,0,0,0,430.53,127.35Z" transform="translate(-304.11 -50.29)"/><path class="cls-7" d="M484.74,139.94a13.67,13.67,0,0,0-15.19-5.82l-.31-.91a14.63,14.63,0,0,1,16.3,6.18Z" transform="translate(-304.11 -50.29)"/><path class="cls-7" d="M463.05,192.53l-.05-1a70.46,70.46,0,0,0,14.13-2.24l.28.93A70,70,0,0,1,463.05,192.53Z" transform="translate(-304.11 -50.29)"/><path class="cls-4" d="M456.08,146.62a35.39,35.39,0,0,1-6.35-1.72l.34-.91a34.87,34.87,0,0,0,6.13,1.67Z" transform="translate(-304.11 -50.29)"/><path class="cls-7" d="M447.48,97.34c-7.17-.52-7.27-6.26-7.27-6.32h1c0,.2.12,4.9,6.37,5.35Z" transform="translate(-304.11 -50.29)"/><path class="cls-4" d="M346.17,216.69l-.83-.5c.09-.13,2-3.28,4.71-3.68l.14,1C347.94,213.81,346.19,216.67,346.17,216.69Z" transform="translate(-304.11 -50.29)"/><path class="cls-4" d="M349,217.68l-.8-.54c.09-.14,2.34-3.47,5.43-3.83l.11,1C351.08,214.58,349,217.65,349,217.68Z" transform="translate(-304.11 -50.29)"/><path class="cls-4" d="M377.36,266.65a8.62,8.62,0,0,0-5.05-3l.14-1a9.47,9.47,0,0,1,5.69,3.38Z" transform="translate(-304.11 -50.29)"/><path class="cls-4" d="M379.66,265.7c-2.09-4-5.13-4.34-5.26-4.35l.09-1c.15,0,3.68.37,6,4.88Z" transform="translate(-304.11 -50.29)"/><path class="cls-7" d="M443.18,201.32c-5.35-3-2.12-10.91-2.09-11l.9.37c0,.07-2.93,7.23,1.66,9.77Z" transform="translate(-304.11 -50.29)"/></g></svg>