<svg id="Layer_13" data-name="Layer 13" xmlns="http://www.w3.org/2000/svg" viewBox="0 0 283.24 74.89"><defs><style>.cls-1{fill:#999;}.cls-2{fill:#333;}</style></defs><title>ms</title><path class="cls-1" d="M165.31,289.8V269.1H124.39v-6.58h27.09C167.71,259.17,165,242,165,242H128.68a11.32,11.32,0,0,0-8.11,3.53c-3.82,3.82-3.34,9.92-3.34,9.92h-2.48c-11.91,0-11.06,10.3-11.06,10.3v24h41v6.68H119.62c-7.54,0-12.5,6.87-12.5,6.87-4.15,4.15-3.43,13.54-3.43,13.54h36.05c13,0,12-13.55,12-13.55h1.91C166.07,303.34,165.31,289.8,165.31,289.8ZM129.7,249.07h28.14a10.64,10.64,0,0,1-9.92,6.39H124.74C124.74,248.7,129.7,249.07,129.7,249.07ZM138.93,310H110.79a10.64,10.64,0,0,1,9.92-6.39h23.18C143.89,310.37,138.93,310,138.93,310Zm19.32-20.2c0,7.92-6.49,6.3-6.49,6.3V282.74h-41V269c0-8.15,6.44-6.44,6.44-6.44v13.74h41Z" transform="translate(-103.64 -242.01)"/><path class="cls-2" d="M195.91,294.63l2-4.42a17,17,0,0,0,10.1,3.37c4.77,0,6.78-1.7,6.78-4,0-6.6-18.19-2.27-18.19-13.64,0-4.94,3.94-9.14,12.33-9.14a19.34,19.34,0,0,1,10.19,2.71L217.29,274a17,17,0,0,0-8.44-2.41c-4.72,0-6.65,1.84-6.65,4.16,0,6.51,18.15,2.27,18.15,13.51,0,4.9-4,9.1-12.38,9.1C203.21,298.31,198.44,296.82,195.91,294.63Z" transform="translate(-103.64 -242.01)"/><path class="cls-2" d="M249,293.1v4.77H226V267.26h22.35V272H231.68v8h14.78v4.68H231.68v8.44Z" transform="translate(-103.64 -242.01)"/><path class="cls-2" d="M276.06,282.21h5.38v12.2a19.38,19.38,0,0,1-12,3.9c-9.49,0-16.48-6.61-16.48-15.75s7-15.74,16.57-15.74c5.12,0,9.4,1.7,12.29,5l-3.59,3.5a11.37,11.37,0,0,0-8.44-3.5c-6.51,0-11.11,4.42-11.11,10.76s4.6,10.76,11.07,10.76a12.4,12.4,0,0,0,6.29-1.57Z" transform="translate(-103.64 -242.01)"/><path class="cls-2" d="M288.66,284.53V267.26h5.68v17.05c0,6.3,2.85,9,7.79,9s7.74-2.71,7.74-9V267.26h5.6v17.27c0,8.92-5,13.78-13.39,13.78S288.66,293.45,288.66,284.53Z" transform="translate(-103.64 -242.01)"/><path class="cls-2" d="M343.45,297.87l-6.25-9A9.32,9.32,0,0,1,336,289h-6.91v8.92h-5.69V267.26H336c8.05,0,13,4.11,13,10.89a9.79,9.79,0,0,1-6.51,9.66l7,10.06Zm-7.69-25.8h-6.65v12.2h6.65c5,0,7.56-2.28,7.56-6.12S340.74,272.07,335.76,272.07Z" transform="translate(-103.64 -242.01)"/><path class="cls-2" d="M377.87,290.78H362.56l-3,7.09h-5.86l13.77-30.61h5.6l13.82,30.61h-5.95ZM376,286.32l-5.77-13.38-5.73,13.38Z" transform="translate(-103.64 -242.01)"/></svg>