<svg id="Layer_13" data-name="Layer 13" xmlns="http://www.w3.org/2000/svg" viewBox="0 0 400.37 110.07"><defs><style>.cls-1{fill:#333;}</style></defs><title>segura-logo</title><path class="cls-1" d="M194.28,312.26V281.83H134.13v-9.67H174c23.86-4.92,19.91-30.15,19.91-30.15H140.44a16.66,16.66,0,0,0-11.92,5.19c-5.6,5.61-4.9,14.58-4.9,14.58H120c-17.5,0-16.26,15.14-16.26,15.14v35.34H164v9.81H127.12c-11.07,0-18.37,10.09-18.37,10.09-6.09,6.1-5,19.91-5,19.91h53c19.07,0,17.67-19.92,17.67-19.92h2.8C195.4,332.15,194.28,312.26,194.28,312.26Zm-52.34-59.88H183.3c-4.25,9.91-14.58,9.4-14.58,9.4H134.65C134.65,251.84,141.94,252.38,141.94,252.38Zm13.57,89.56H114.15c4.25-9.91,14.58-9.39,14.58-9.39H162.8C162.8,342.48,155.51,341.94,155.51,341.94Zm28.39-29.68c0,11.63-9.53,9.25-9.53,9.25V301.88H114.15V281.63c0-12,9.47-9.47,9.47-9.47v20.19H183.9Z" transform="translate(-103.64 -242.01)"/><path class="cls-1" d="M221.45,319.23l2.91-6.53a25.12,25.12,0,0,0,14.95,5c7.05,0,10-2.52,10-5.89,0-9.77-26.92-3.36-26.92-20.19,0-7.31,5.82-13.52,18.25-13.52,5.43,0,11.13,1.43,15.07,4l-2.65,6.54a25.12,25.12,0,0,0-12.49-3.56c-7,0-9.83,2.72-9.83,6.15,0,9.64,26.85,3.36,26.85,20,0,7.25-5.89,13.46-18.31,13.46C232.26,324.67,225.2,322.47,221.45,319.23Z" transform="translate(-103.64 -242.01)"/><path class="cls-1" d="M299.94,317v7H266V278.73H299v7H274.38v11.78h21.87v6.92H274.38V317Z" transform="translate(-103.64 -242.01)"/><path class="cls-1" d="M340.05,300.86h8v18.05c-4.72,3.82-11.32,5.76-17.73,5.76-14,0-24.39-9.77-24.39-23.3s10.35-23.29,24.52-23.29c7.57,0,13.91,2.52,18.18,7.38l-5.3,5.17a16.85,16.85,0,0,0-12.49-5.17c-9.64,0-16.43,6.53-16.43,15.91,0,9.19,6.79,15.92,16.37,15.92a18.3,18.3,0,0,0,9.31-2.33Z" transform="translate(-103.64 -242.01)"/><path class="cls-1" d="M358.69,304.29V278.73h8.41V304c0,9.32,4.2,13.33,11.52,13.33s11.45-4,11.45-13.33V278.73h8.28v25.56c0,13.2-7.44,20.38-19.8,20.38S358.69,317.49,358.69,304.29Z" transform="translate(-103.64 -242.01)"/><path class="cls-1" d="M439.76,324l-9.25-13.26a17.06,17.06,0,0,1-1.75.06H418.54V324h-8.41V278.73h18.63c11.91,0,19.28,6.08,19.28,16.11,0,6.86-3.49,11.9-9.64,14.3L448.82,324Zm-11.39-38.17h-9.83v18h9.83c7.38,0,11.2-3.37,11.2-9.06S435.75,285.85,428.37,285.85Z" transform="translate(-103.64 -242.01)"/><path class="cls-1" d="M490.68,313.54H468L463.57,324H454.9l20.38-45.29h8.28L504,324h-8.8Zm-2.78-6.6-8.54-19.8-8.48,19.8Z" transform="translate(-103.64 -242.01)"/></svg>