<svg id="Layer_8" data-name="Layer 8" xmlns="http://www.w3.org/2000/svg" viewBox="0 0 1168.93 229.31"><defs><style>.cls-1{fill:#333;}</style></defs><title>segura-signature</title><path class="cls-1" d="M531.35-337.42c1.17-7,10.53-10.3,17.08-10.3,8,.24,12.87,6.55,15,11.94,7.25,15.21,13.34,30.42,22.7,44.22,5.85,9.13,22.69,39.08,38.14,35.8,23.63-4.68,46.56-48.43,58.73-72.07,5.38-10.76,9.83-26.91,26.91-26.91,7.72.7,6.55,11,5.61,15.68-.7,23.4-7.25,48-5.85,71.13.24,17.79,7,50.78,16.15,65.05,3.74,5.85,14,15.21,29,18.72,8.66,1.88,18,2.58,15.92,5.39-6.32,9.12-25.27,10.53-32.06,10.53-49.37,0-57.33-65.29-57.33-109.28-.23-9.36,1.17-21.76-6.55-10.29-16.38,24.33-42.12,54.28-62.48,54.28-18.72,0-25.5-11.23-41.88-30-4.45,14-8.43,27.38-15.91,41.18-9.36,16.85-24.34,31.36-35.57,31.36-9.83,0-17.78-14-18.25-21.3-.47-6.31,3.74-7,8.66-7,4,0,9.59,3.27,14.74,3.27,12.16,0,20.12-29.25,22-40.48,1.17-11.23,4-26.68,4-39.78-3.74-7.25-7.49-14.51-10.76-22.23C536.73-323.38,530.42-333,531.35-337.42Z" transform="translate(-500.66 354.74)"/><path class="cls-1" d="M808.64-246.87c0-3-2.11-5.61-6.79-4.91-4.91,1.87-9.36,9.83-9.36,23.17,0,15.67,9.36,22,26.68,22,17.78,0,29.48-8,29.72-26.21-.24-6.31-3.28-10.76-3.28-15.67.23-5.85,12.17-7.26,16.85-7.26,5.61,0,9.83,4.68,25.74,4.68,10.29,0,15.68-3,27.61-3,2.34,0,1.4,4-1.41,5.85-7.25,7-21.76,9.83-27.14,11A110.47,110.47,0,0,1,870-233.06c0,3-1.17,9.36-10.07,18.48-15.91,16.85-38.6,22.23-62.71,23.64-19.65.93-35.33-13.81-35.09-30.42.23-19.89,15.44-45.86,42.11-45.86,9.6,0,18.26,4.21,18.72,13.57.24,9.59-10.76,13.57-13.57,12.4C807.47-241.95,808.87-244.53,808.64-246.87Z" transform="translate(-500.66 354.74)"/><path class="cls-1" d="M950.91-197.26c13.1.47,21.53,12.64,45.86,12.64,14,0,26.91-7.49,25-19.66-.94-5.85-8-12.17-19.66-16.14-20.36-7.26-48.43-15.21-69-25-13.33-6.55-26.2-18.72-26.2-34.87,0-10.06,2.57-14.74,7.49-21.29,18.71-24.57,65.75-53.12,109.5-53.12,29,0,69.27,15.45,69.27,44.23,0,17.08-19.19,28.78-35.8,32.29-1.41.23-12.17-1.17-11.94-6.09,0-5.38,19.89,4.22,19.89-22.46,0-21.76-33.93-30-53.12-30-29.71,0-75.11,16.38-75.11,49.61,0,22.93,29.72,28.78,65,41.88,21.76,7.72,45.16,18.25,43.06,39.78-2.34,24.57-33,32.76-58.27,32.76-17.08,0-41.65-.7-41.65-17.78C945.29-193,947.16-197.26,950.91-197.26Z" transform="translate(-500.66 354.74)"/><path class="cls-1" d="M1199.18-219.25c2.11-1.17,7-2.11,7,0,0,2.57-4.45,7.25-5.85,8.65-15.21,11.23-40.25,21.76-65,22.93-21.76,1.17-54-3.27-54-34.16.23-22.23,35.1-52.88,58-54,13.57-.7,23.16,5.85,21.76,18.48-2.81,19.19-33.46,31.13-50.54,38.15,4.21,11.69,16.38,17.31,39.54,15.67C1168.06-205,1186.08-213.41,1199.18-219.25Zm-90.09-13.34c13.11-1.64,29-7.72,29-21.06,0-3.51-1.64-6.55-5.62-6.09-8.19.71-21.06,13.34-22.7,20.6A33.46,33.46,0,0,0,1109.09-232.59Z" transform="translate(-500.66 354.74)"/><path class="cls-1" d="M1257.68-179.24a171.47,171.47,0,0,0-.94-20.13c-9.83,8.19-24.8,14.75-38.14,14.75-17.55,0-25.74-14.28-25.74-27.62.24-22,33.46-64.34,67.86-64.34,10.76,0,32.29,11.7,30.19,22.69-.94,4.45-8.43,9.83-14.75,9.83-4.91,0-16.14-15-26-15-13.34.46-31.36,23.4-32.29,35.09-.94,11,2.1,19.89,15.91,19.89,18,0,25.27-17.54,36-17.54,8.89,0,10.06,10.06,10.29,15.44-.23,3,.7,11-.23,22,8.19-.46,17.31.24,14.51,7-1.17,2.81-8,6.56-16.85,8-5.85,22.46-20.36,41-34.63,43.52-9.13,2.11-16.62-10.76-16.15-17.31C1228.19-158.65,1242.94-172.69,1257.68-179.24Zm-.24,11.93c-13.33,4-14.27,14-14.27,17.55,0,2.34.47,6.79,4,6.79C1254.64-143,1257-159.59,1257.44-167.31Z" transform="translate(-500.66 354.74)"/><path class="cls-1" d="M1326.24-276.58c2.57-2.34,9.13-.94,9.13,3.74-1.17,13.81-1.17,21.76,0,46.57,0,5.85,2.8,13.1,9.82,13.1,12.17,0,26.44-17.78,32.29-31.82,3.75-17.55,10.3-21.3,17.32-25,4.91-2.58,9.83-3,11.23,1.64,1.17,4.21,2.34,20.12,1.41,27.61,0,11.23,4.21,24.1,13.33,26.91,9.83,3.27,17.55.93,25.74-.71,1.87-.23,3.28,3.51,2.11,5.62-10.3,11.7-28.08,17.32-38.61,17.32-22.7,0-28.55-22.23-31.82-31.59-5.39,2.1-24.11,35.1-45.16,35.1s-21.77-22.94-22.47-35.81C1310.33-238.44,1307.29-261.61,1326.24-276.58Z" transform="translate(-500.66 354.74)"/><path class="cls-1" d="M1446.28-194c-2.57-22-2.81-45.16-2.57-68.56-.47-5.39,6.55-19.89,14.74-19.89,6.55,0,8,5.85,7.72,9.12.23,11.7-3.28,26-1.4,38.61,9.59-12.63,20.35-43.29,36.26-43.29,8.66,0,9.6,16.85,15,23.4,9.83,11.7,21.06,11.94,29.48,10.77,3.51-.24,4.22,3,1.17,7-6.55,7.72-22,10.76-28.08,10.76-18.72,0-22.93-21.29-28.54-21.29-4.45,0-9.36,7-11.24,10.06-8.89,16.14-10.29,37-15.44,53.58-1.17,3.75-3.51,5.85-5.85,5.85-3.74,0-8.89-1.17-10.06-4.91C1446.28-185.79,1446.28-191.64,1446.28-194Z" transform="translate(-500.66 354.74)"/><path class="cls-1" d="M1567.49-188.84c-13.33.71-29.71-7.95-30.88-20.82-2.58-29.48,26.9-56.63,59-64.82,7.72-1.64,19,1.87,23.4,10.06,3,5.39,6.32,11.7,1.17,16.15-1.4,1.87-4.91,3-5.38,1.64-2.34-3.51-8.66-11.7-15.44-10.77-21.53,1.17-35.57,13.58-36.74,29.49-2.11,13.1,4.21,21.76,15.68,21.06,12.4-.71,20.12-4.22,26.91-8.9,4.21-2.8,7.72-10.52,13.8-10.52,6.55,0,8,11.93,15.68,15.2,10.06,4.45,23.4.47,33-2.1,1.87-.24,2.34,2.57,1.64,3.51-13.57,14.51-32.76,20.82-42.12,20.82-9.83,0-16.14-6.08-21.53-11.46C1600.49-205,1582.47-190,1567.49-188.84Z" transform="translate(-500.66 354.74)"/></svg>