<svg id="Layer_25" data-name="Layer 25" xmlns="http://www.w3.org/2000/svg" viewBox="0 0 32.82 29.55"><defs><style>.cls-1{fill:#673ab7;}</style></defs><title>segura-icon</title><path class="cls-1" d="M1038.54-166a6.08,6.08,0,0,0,.61,0h-1.22A6.08,6.08,0,0,0,1038.54-166Z" transform="translate(-1028.79 191.13)"/><path class="cls-1" d="M1048.71-177.31l.26.3.06-.3Z" transform="translate(-1028.79 191.13)"/><path class="cls-1" d="M1038.85-179.23h.53l-.53,0Z" transform="translate(-1028.79 191.13)"/><path class="cls-1" d="M1051.17-171h0l.12-.48,0-.07Z" transform="translate(-1028.79 191.13)"/><path class="cls-1" d="M1054.89-183.79,1054-180a7.84,7.84,0,0,1,3.9,6.8,7.78,7.78,0,0,1-7.73,7.84h-.25l-.61,0h-8l.07-.3.57-2.4h7.93l.37,0a5,5,0,0,0,5-5,5,5,0,0,0-5-5h-10a1.28,1.28,0,0,1-1.28-1.28v-.1a1.27,1.27,0,0,1,1.28-1.27h11.17l.14-.56,2.39-9.73h-13.69a11.53,11.53,0,0,0-11.44,11.62,11.64,11.64,0,0,0,6.7,10.58l.91-3.78a7.86,7.86,0,0,1-3.89-6.8,7.78,7.78,0,0,1,7.72-7.84h.26l.61,0h8l-.07.3-.56,2.4h-7.93l-.38,0a5,5,0,0,0-5,5,5,5,0,0,0,5,5h10.06a1.27,1.27,0,0,1,1.27,1.28v.1a1.27,1.27,0,0,1-1.27,1.27H1039l-.13.56-2.39,9.73h13.68a11.53,11.53,0,0,0,11.45-11.62A11.63,11.63,0,0,0,1054.89-183.79Z" transform="translate(-1028.79 191.13)"/></svg>