<svg id="Layer_7" data-name="Layer 7" xmlns="http://www.w3.org/2000/svg" viewBox="0 0 539.7 463.72"><defs><style>.cls-1{fill:#1a73e8;}.cls-2{opacity:0.84;}.cls-3{fill:#232323;}</style></defs><title>segura-icon</title><path class="cls-1" d="M128.34,155.62c31.58,0,41.77,29,41.77,55.52V332.72h63.67V211.14c0-25.47,21.4-57,49.41-57,24.45,0,33.62,16.3,33.62,38.72V366.2c19-26.85,37.4-46.64,63.67-70.17V211.14c0-25.47,18.85-57,46.86-57,24.45,0,33.62,16.3,33.62,38.72v85.07C486.8,279.7,508.4,289.6,525.33,305a24.6,24.6,0,0,1-.7-5.93V190.26c0-50.43-26.48-94.74-81.5-94.74-32.6,0-58.07,12.22-75.38,40.24-14.27-26.49-39.23-40.24-69.28-40.24-36.67,0-64.18,14.77-80.48,48.9-18.85-34.13-51.45-48.9-89.65-48.9C66.71,95.52,26,132.7,26,194.84c0,32.09,16.81,64.69,44.82,81l43.81-36.67c-15.28-7.64-27.51-27-27.51-44.32C87.08,171.41,105.42,155.62,128.34,155.62Z" transform="translate(-25.96 -95.52)"/><g class="cls-2"><path class="cls-3" d="M164.37,348.47h79c-16,16.25-29.19,35.41-29.19,59.22,0,22.64,13.74,40.06,36.63,40.06,72.13,0,85.87-151.54,196.92-151.54,75.57,0,117.93,63.87,117.93,135.29,0,62.7-39.5,127.73-107,127.73-35.49,0-66.4-21.48-80.14-54.57l42.93-47c6.87,15.1,16.6,28.46,34.92,28.46,30.34,0,45.8-26.13,45.8-54.58,0-30.78-21.19-63.29-54.39-63.29-67,0-90.44,150.38-196.92,150.38-65.25,0-103-47-103-110.9C147.77,385.63,151.78,367.05,164.37,348.47Z" transform="translate(-25.96 -95.52)"/></g></svg>