<svg id="Layer_25" data-name="Layer 25" xmlns="http://www.w3.org/2000/svg" viewBox="0 0 114.69 23.42"><defs><style>.cls-1{fill:#4f4f4f;}.cls-2{fill:#424242;}</style></defs><title>segura-logo</title><path class="cls-1" d="M1039.92-168.15l.48,0h-1Z" transform="translate(-1032.19 188.07)"/><path class="cls-1" d="M1048-177.11a2.2,2.2,0,0,1,.2.23l.06-.23Z" transform="translate(-1032.19 188.07)"/><path class="cls-1" d="M1040.16-178.63h.42a2.86,2.86,0,0,0-.42,0Z" transform="translate(-1032.19 188.07)"/><path class="cls-1" d="M1049.93-172.14h0l.1-.38v-.06Z" transform="translate(-1032.19 188.07)"/><path class="cls-1" d="M1052.88-182.25l-.72,3a6.22,6.22,0,0,1,3.08,5.39,6.17,6.17,0,0,1-6.12,6.21h-.2l-.48,0h-6.3l0-.23.45-1.91h6.28l.3,0a4,4,0,0,0,4-4,4,4,0,0,0-4-4h-8a1,1,0,0,1-1-1v-.08a1,1,0,0,1,1-1h8.86l.1-.44,1.9-7.72h-10.85a9.14,9.14,0,0,0-9.07,9.21,9.22,9.22,0,0,0,5.32,8.39l.72-3a6.21,6.21,0,0,1-3.09-5.39,6.17,6.17,0,0,1,6.12-6.21h.2l.49,0h6.3l0,.23-.45,1.91h-6.28l-.3,0a4,4,0,0,0-4,4,4,4,0,0,0,4,4h8a1,1,0,0,1,1,1v.08a1,1,0,0,1-1,1h-8.86l-.11.44-1.89,7.72h10.84a9.14,9.14,0,0,0,9.08-9.21A9.22,9.22,0,0,0,1052.88-182.25Z" transform="translate(-1032.19 188.07)"/><path class="cls-2" d="M1066-170.77l.89-2a7.65,7.65,0,0,0,4.54,1.51c2.15,0,3-.76,3-1.79,0-3-8.18-1-8.18-6.14,0-2.22,1.77-4.11,5.55-4.11a8.67,8.67,0,0,1,4.58,1.22l-.8,2a7.64,7.64,0,0,0-3.8-1.08c-2.13,0-3,.82-3,1.87,0,2.93,8.16,1,8.16,6.08,0,2.2-1.79,4.09-5.57,4.09A8.9,8.9,0,0,1,1066-170.77Z" transform="translate(-1032.19 188.07)"/><path class="cls-2" d="M1088.82-171.46v2.14h-10.33v-13.77h10.06v2.14h-7.5v3.58h6.65v2.11h-6.65v3.8Z" transform="translate(-1032.19 188.07)"/><path class="cls-2" d="M1100-176.36h2.42v5.49a8.7,8.7,0,0,1-5.39,1.75c-4.27,0-7.42-3-7.42-7.08s3.15-7.09,7.46-7.09a7.11,7.11,0,0,1,5.53,2.25l-1.61,1.57a5.14,5.14,0,0,0-3.8-1.57,4.71,4.71,0,0,0-5,4.84,4.74,4.74,0,0,0,5,4.84,5.56,5.56,0,0,0,2.83-.71Z" transform="translate(-1032.19 188.07)"/><path class="cls-2" d="M1104.69-175.32v-7.77h2.56v7.67c0,2.84,1.28,4.06,3.5,4.06s3.48-1.22,3.48-4.06v-7.67h2.52v7.77c0,4-2.26,6.2-6,6.2S1104.69-171.3,1104.69-175.32Z" transform="translate(-1032.19 188.07)"/><path class="cls-2" d="M1128.34-169.32l-2.81-4a4.7,4.7,0,0,1-.53,0h-3.11v4h-2.56v-13.77H1125c3.62,0,5.86,1.85,5.86,4.9a4.41,4.41,0,0,1-2.93,4.35l3.17,4.52Zm-3.46-11.61h-3v5.49h3c2.24,0,3.41-1,3.41-2.75S1127.12-180.93,1124.88-180.93Z" transform="translate(-1032.19 188.07)"/><path class="cls-2" d="M1142.83-172.51h-6.89l-1.35,3.19H1132l6.2-13.77h2.52l6.21,13.77h-2.67Zm-.85-2-2.59-6-2.58,6Z" transform="translate(-1032.19 188.07)"/></svg>